<svg width="305" height="450" viewBox="0 0 305 450" fill="none" xmlns="http://www.w3.org/2000/svg">
<g clip-path="url(#clip0_2375_11235)">
<rect width="305" height="450" rx="12" fill="#00579F"/>
<g opacity="0.1" clip-path="url(#clip1_2375_11235)">
<path d="M-12.8247 60.0584C-12.8247 60.0584 -25.8361 65.9185 -32.1688 75.301C-41.2506 88.7519 -34.7368 108.011 -34.7368 108.011C-34.7368 108.011 -20.7518 108.297 -10.9229 92.7656C-20.7518 108.297 -14.4192 120.679 -14.4192 120.679C-14.4192 120.679 5.46829 117.901 14.1458 104.187C21.549 92.3289 19.7702 81.418 19.7702 81.418C19.7702 81.418 19.0134 93.822 25.8991 104.303C34.8063 117.872 54.739 120.326 54.739 120.326C54.739 120.326 60.8614 107.838 50.7738 92.4734C60.8582 107.838 74.8367 107.324 74.8367 107.324C74.8367 107.324 80.6874 88.1932 71.7253 74.6588C64.0181 63.0221 52.8308 60.0584 52.8308 60.0584C52.8308 60.0584 61.0135 65.7386 76.3568 60.2478C91.7066 54.7538 98.6796 36.053 98.6796 36.053C98.6796 36.053 87.8416 27.2741 70.464 33.4938C87.8449 27.2741 90.5422 13.6498 90.5422 13.6498C90.5422 13.6498 73.2422 3.91728 57.8083 9.16405C45.2658 13.4283 39.5541 23.5397 39.5541 23.5397C39.5541 23.5397 47.2355 15.6149 47.2808 1.37738C47.3325 -14.8189 31.9278 -27.679 31.9278 -27.679C31.9278 -27.679 19.9319 -20.5345 19.9319 -2.19646C19.9287 -20.5345 7.93603 -27.679 7.93603 -27.679C7.93603 -27.679 -7.79863 -14.8157 -7.41699 1.37738C-7.0968 15.0338 0.739809 23.2892 0.739809 23.2892C0.739809 23.2892 -3.0087 14.8411 -18.352 9.34708C-33.6986 3.85306 -50.5361 13.6498 -50.5361 13.6498C-50.5361 13.6498 -47.8388 27.2741 -30.4579 33.4938C-47.8388 27.2741 -58.6768 36.053 -58.6768 36.053C-58.6768 36.053 -51.7037 54.7538 -36.3539 60.2478C-21.0106 65.7386 -12.8279 60.0584 -12.8279 60.0584H-12.8247Z" stroke="#8CCBFE" stroke-width="2" stroke-linecap="round" stroke-linejoin="round"/>
<path d="M56.6956 38.1947C55.583 35.5424 52.5169 34.2933 49.8487 35.3947C49.5673 35.5103 49.3086 35.6612 49.0563 35.8186L49.0433 35.8089C49.0433 35.8089 49.0142 35.841 48.9981 35.8507C48.8525 35.947 48.7199 36.0594 48.5906 36.1653C46.4365 37.7805 36.5494 44.2282 25.1292 40.2658C22.7003 36.708 19.1717 28.8828 24.4727 17.9076C24.6732 17.5993 24.8317 17.2654 24.9643 16.9154C24.9805 16.8865 24.9902 16.8608 25.0063 16.8319C24.9999 16.8319 24.9966 16.8319 24.9934 16.8319C25.3007 15.981 25.4042 15.0498 25.2166 14.0961C24.657 11.2833 21.9047 9.44983 19.0682 10.0021C16.2318 10.5576 14.3818 13.2934 14.9446 16.1062C15.006 16.4049 15.0998 16.6874 15.2065 16.9604L15.1968 16.9668C15.1968 16.9668 15.2162 17.0117 15.2292 17.0246C15.2906 17.1883 15.378 17.336 15.4588 17.487C16.6393 19.9466 21.2384 30.9924 14.592 41.4635C10.2193 42.7704 2.32125 43.48 -6.37243 36.3195C-6.62471 36.0497 -6.90932 35.8153 -7.21981 35.6034C-7.24245 35.5842 -7.26509 35.5649 -7.29096 35.5424C-7.29096 35.5456 -7.29096 35.552 -7.29743 35.5552C-8.05425 35.0543 -8.94043 34.7268 -9.91395 34.6786C-12.8021 34.5342 -15.2634 36.7401 -15.4122 39.6075C-15.5577 42.4717 -13.3358 44.9153 -10.4508 45.0598C-10.1436 45.0759 -9.84603 45.0502 -9.55171 45.0181V45.0309C-9.55171 45.0309 -9.50319 45.0213 -9.48379 45.0149C-9.31237 44.9924 -9.14743 44.9474 -8.97924 44.9057C-6.40801 44.3919 4.72107 42.8539 13.2239 50.5121C12.9555 54.9818 10.9114 62.8134 0.77528 68.4102C0.432448 68.5515 0.102552 68.7313 -0.201468 68.94C-0.230576 68.9496 -0.253219 68.9657 -0.285562 68.9818C-0.279093 68.9882 -0.272622 68.9914 -0.272622 68.9914C-1.02297 69.5116 -1.65041 70.2116 -2.04499 71.0946C-3.23197 73.7115 -2.045 76.7909 0.594157 77.9629C3.23331 79.1381 6.3285 77.9629 7.51224 75.3427C7.63514 75.073 7.72246 74.784 7.79685 74.5015H7.80655C7.80655 74.5015 7.81302 74.4533 7.81302 74.434C7.85507 74.2638 7.87447 74.0969 7.89388 73.9267C8.34021 71.3547 10.8112 60.5272 21.1737 55.4667C25.2392 57.4992 31.5234 62.4088 32.8009 73.6473C32.7977 74.0166 32.8397 74.3859 32.9173 74.7455C32.9173 74.7808 32.9238 74.8065 32.9238 74.8386C32.9303 74.8386 32.9335 74.8386 32.94 74.8322C33.1373 75.7152 33.5448 76.5597 34.211 77.2661C36.1936 79.3565 39.5055 79.456 41.611 77.4941C43.723 75.5258 43.8233 72.2345 41.8439 70.1441C41.6369 69.929 41.404 69.7363 41.1679 69.5597L41.1744 69.5501C41.1744 69.5501 41.1291 69.5244 41.1129 69.518C40.9739 69.412 40.8219 69.3317 40.6763 69.2483C38.4253 67.829 29.1203 61.2432 28.6125 49.5295C31.918 46.463 38.7972 42.2181 49.9651 45.0245C50.3079 45.1593 50.6702 45.2493 51.0454 45.3071C51.068 45.3167 51.1003 45.3231 51.1294 45.3295C51.1294 45.3263 51.1294 45.3199 51.1327 45.3167C52.0318 45.4419 52.9762 45.3584 53.8721 44.9827C56.5404 43.8814 57.8082 40.8406 56.6988 38.1883L56.6956 38.1947Z" stroke="#8CCBFE" stroke-width="2" stroke-linecap="round" stroke-linejoin="round"/>
<path d="M20.8373 52.975C23.9435 52.975 26.4616 50.475 26.4616 47.3911C26.4616 44.3071 23.9435 41.8071 20.8373 41.8071C17.731 41.8071 15.2129 44.3071 15.2129 47.3911C15.2129 50.475 17.731 52.975 20.8373 52.975Z" stroke="#8CCBFE" stroke-width="2" stroke-linecap="round" stroke-linejoin="round"/>
<path d="M70.4579 33.4938C70.4579 33.4938 83.133 25.0393 84.8471 15.5893C65.1279 6.51824 48.8369 13.7815 48.8369 13.7815" stroke="#8CCBFE" stroke-width="2" stroke-linecap="round" stroke-linejoin="round"/>
<path d="M69.501 62.1006C69.501 62.1006 86.5455 55.0011 93.8226 37.7419C87.3929 32.1933 70.4583 33.4906 70.4583 33.4906" stroke="#8CCBFE" stroke-width="2" stroke-linecap="round" stroke-linejoin="round"/>
<path d="M19.9287 -2.1965C19.9287 -2.1965 23.5867 -16.8098 31.9375 -21.6552C46.2718 -10.1309 45.9839 11.0842 45.9839 11.0842" stroke="#8CCBFE" stroke-width="2" stroke-linecap="round" stroke-linejoin="round"/>
<path d="M-6.33301 9.35992C-6.33301 9.35992 -5.92872 -9.69094 7.8945 -22.4065C15.3527 -18.3189 19.9292 -2.19646 19.9292 -2.19646" stroke="#8CCBFE" stroke-width="2" stroke-linecap="round" stroke-linejoin="round"/>
<path d="M-10.9267 92.7657C-10.9267 92.7657 -15.5679 107.119 -11.0593 115.615C6.12431 111.768 17.8679 96.4391 17.8679 96.4391" stroke="#8CCBFE" stroke-width="2" stroke-linecap="round" stroke-linejoin="round"/>
<path d="M50.7703 92.4703C50.7703 92.4703 55.6217 106.602 51.3751 115.23C34.2917 113.123 21.7363 95.3891 21.7363 95.3891" stroke="#8CCBFE" stroke-width="2" stroke-linecap="round" stroke-linejoin="round"/>
<path d="M65.7606 67.8901C65.7606 67.8901 76.217 84.857 71.8055 103.047C63.3155 103.751 50.7666 92.4703 50.7666 92.4703" stroke="#8CCBFE" stroke-width="2" stroke-linecap="round" stroke-linejoin="round"/>
</g>
<g opacity="0.1" clip-path="url(#clip2_2375_11235)">
<path d="M164.919 13.9607C164.919 13.9607 158.742 16.7531 155.736 21.2239C151.425 27.6334 154.517 36.8108 154.517 36.8108C154.517 36.8108 161.156 36.947 165.821 29.546C161.156 36.947 164.162 42.8469 164.162 42.8469C164.162 42.8469 173.602 41.5234 177.721 34.9885C181.235 29.3379 180.391 24.1387 180.391 24.1387C180.391 24.1387 180.032 30.0494 183.3 35.0436C187.528 41.5097 196.99 42.6786 196.99 42.6786C196.99 42.6786 199.896 36.7282 195.108 29.4068C199.895 36.7282 206.53 36.4834 206.53 36.4834C206.53 36.4834 209.307 27.3672 205.053 20.9179C201.395 15.3729 196.084 13.9607 196.084 13.9607C196.084 13.9607 199.968 16.6674 207.252 14.051C214.538 11.433 217.848 2.52185 217.848 2.52185C217.848 2.52185 212.703 -1.66137 204.454 1.30239C212.705 -1.66137 213.985 -8.15347 213.985 -8.15347C213.985 -8.15347 205.773 -12.7911 198.447 -10.291C192.493 -8.25904 189.782 -3.44084 189.782 -3.44084C189.782 -3.44084 193.428 -7.21706 193.45 -14.0014C193.474 -21.7191 186.162 -27.847 186.162 -27.847C186.162 -27.847 180.468 -24.4426 180.468 -15.7044C180.466 -24.4426 174.773 -27.847 174.773 -27.847C174.773 -27.847 167.304 -21.7176 167.485 -14.0014C167.637 -7.49401 171.357 -3.56019 171.357 -3.56019C171.357 -3.56019 169.578 -7.58581 162.295 -10.2038C155.01 -12.8217 147.018 -8.15347 147.018 -8.15347C147.018 -8.15347 148.298 -1.66137 156.548 1.30239C148.298 -1.66137 143.153 2.52185 143.153 2.52185C143.153 2.52185 146.463 11.433 153.75 14.051C161.033 16.6674 164.917 13.9607 164.917 13.9607H164.919Z" stroke="#8CCBFE" stroke-linecap="round" stroke-linejoin="round"/>
<path d="M197.919 3.54236C197.391 2.27851 195.936 1.68332 194.669 2.20813C194.535 2.26321 194.413 2.33513 194.293 2.4101L194.287 2.40551C194.287 2.40551 194.273 2.42081 194.265 2.4254C194.196 2.47131 194.133 2.52486 194.072 2.57535C193.049 3.34498 188.356 6.41736 182.935 4.52925C181.782 2.83393 180.107 -0.894857 182.623 -6.12465C182.719 -6.27153 182.794 -6.43066 182.857 -6.59744C182.864 -6.61121 182.869 -6.62345 182.877 -6.63722C182.874 -6.63722 182.872 -6.63722 182.871 -6.63722C183.016 -7.04269 183.066 -7.48641 182.977 -7.94084C182.711 -9.28119 181.404 -10.1549 180.058 -9.89169C178.712 -9.62699 177.833 -8.32336 178.101 -6.98302C178.13 -6.84072 178.174 -6.70607 178.225 -6.57602L178.22 -6.57296C178.22 -6.57296 178.23 -6.55154 178.236 -6.54542C178.265 -6.46738 178.306 -6.397 178.345 -6.32509C178.905 -5.15305 181.088 0.110402 177.933 5.09997C175.858 5.72271 172.108 6.06086 167.982 2.64879C167.862 2.52027 167.727 2.40857 167.579 2.30759C167.569 2.29841 167.558 2.28923 167.546 2.27852C167.546 2.28005 167.546 2.2831 167.543 2.28463C167.183 2.04594 166.763 1.88988 166.301 1.86693C164.93 1.79807 163.761 2.84923 163.691 4.21559C163.622 5.58041 164.676 6.7448 166.046 6.81365C166.192 6.8213 166.333 6.80906 166.473 6.79376V6.79988C166.473 6.79988 166.496 6.79529 166.505 6.79223C166.586 6.78152 166.664 6.7601 166.744 6.74021C167.965 6.4954 173.248 5.76249 177.284 9.41172C177.156 11.5416 176.186 15.2734 171.375 17.9403C171.212 18.0077 171.055 18.0934 170.911 18.1928C170.897 18.1974 170.886 18.205 170.871 18.2127C170.874 18.2158 170.877 18.2173 170.877 18.2173C170.521 18.4652 170.223 18.7987 170.036 19.2195C169.472 20.4665 170.036 21.9338 171.289 22.4923C172.541 23.0523 174.011 22.4923 174.573 21.2438C174.631 21.1152 174.672 20.9775 174.708 20.8429H174.712C174.712 20.8429 174.715 20.8199 174.715 20.8108C174.735 20.7297 174.745 20.6501 174.754 20.569C174.966 19.3434 176.139 14.184 181.057 11.7726C182.987 12.7412 185.97 15.0806 186.577 20.4359C186.575 20.6119 186.595 20.7878 186.632 20.9592C186.632 20.976 186.635 20.9882 186.635 21.0036C186.638 21.0036 186.64 21.0036 186.643 21.0005C186.736 21.4213 186.93 21.8237 187.246 22.1603C188.187 23.1564 189.759 23.2038 190.759 22.2689C191.761 21.331 191.809 19.7627 190.869 18.7666C190.771 18.6641 190.66 18.5723 190.548 18.4881L190.551 18.4835C190.551 18.4835 190.53 18.4713 190.522 18.4682C190.456 18.4177 190.384 18.3795 190.315 18.3397C189.246 17.6634 184.83 14.5252 184.589 8.94351C186.158 7.48229 189.423 5.45954 194.724 6.79682C194.887 6.86108 195.059 6.90393 195.237 6.93147C195.248 6.93606 195.263 6.93912 195.277 6.94218C195.277 6.94065 195.277 6.93759 195.278 6.93606C195.705 6.99573 196.154 6.95595 196.579 6.77693C197.845 6.25211 198.447 4.80314 197.921 3.5393L197.919 3.54236Z" stroke="#8CCBFE" stroke-linecap="round" stroke-linejoin="round"/>
<path d="M180.897 10.5854C182.372 10.5854 183.567 9.39411 183.567 7.92459C183.567 6.45507 182.372 5.26379 180.897 5.26379C179.423 5.26379 178.228 6.45507 178.228 7.92459C178.228 9.39411 179.423 10.5854 180.897 10.5854Z" stroke="#8CCBFE" stroke-linecap="round" stroke-linejoin="round"/>
<path d="M156.548 1.30241C156.548 1.30241 150.594 -2.72628 149.782 -7.22928C157.343 -10.7867 166.699 -8.11366 166.699 -8.11366" stroke="#8CCBFE" stroke-width="2" stroke-linecap="round" stroke-linejoin="round"/>
<path d="M157.779 15.0547C157.779 15.0547 148.975 11.5509 145.521 3.32673C148.573 0.682761 156.547 1.30091 156.547 1.30091" stroke="#8CCBFE" stroke-width="2" stroke-linecap="round" stroke-linejoin="round"/>
<path d="M204.452 1.30248C204.452 1.30248 210.468 -2.72621 211.282 -7.22921C201.922 -11.5517 194.188 -8.09065 194.188 -8.09065" stroke="#8CCBFE" stroke-width="2" stroke-linecap="round" stroke-linejoin="round"/>
<path d="M203.997 14.9339C203.997 14.9339 212.088 11.5509 215.542 3.32673C212.49 0.682761 204.452 1.30091 204.452 1.30091" stroke="#8CCBFE" stroke-width="2" stroke-linecap="round" stroke-linejoin="round"/>
<path d="M165.82 29.546C165.82 29.546 163.617 36.3854 165.757 40.434C173.914 38.601 179.489 31.2964 179.489 31.2964" stroke="#8CCBFE" stroke-width="2" stroke-linecap="round" stroke-linejoin="round"/>
<path d="M158.006 18.4668C158.006 18.4668 153.525 26.1248 155.881 34.7269C159.919 34.9396 165.822 29.5476 165.822 29.5476" stroke="#8CCBFE" stroke-width="2" stroke-linecap="round" stroke-linejoin="round"/>
<path d="M195.106 29.4054C195.106 29.4054 197.409 36.1392 195.393 40.2506C187.284 39.2468 181.324 30.7962 181.324 30.7962" stroke="#8CCBFE" stroke-width="2" stroke-linecap="round" stroke-linejoin="round"/>
<path d="M202.222 17.6926C202.222 17.6926 207.185 25.7775 205.091 34.4454C201.061 34.7805 195.104 29.4053 195.104 29.4053" stroke="#8CCBFE" stroke-width="2" stroke-linecap="round" stroke-linejoin="round"/>
</g>
<g opacity="0.1" clip-path="url(#clip3_2375_11235)">
<path d="M240.228 89.5029C240.228 89.5029 237.346 90.8007 235.943 92.8787C233.932 95.8578 235.374 100.123 235.374 100.123C235.374 100.123 238.472 100.187 240.65 96.7468C238.472 100.187 239.875 102.929 239.875 102.929C239.875 102.929 244.281 102.314 246.203 99.2764C247.843 96.65 247.449 94.2335 247.449 94.2335C247.449 94.2335 247.281 96.9807 248.806 99.302C250.78 102.307 255.195 102.851 255.195 102.851C255.195 102.851 256.551 100.085 254.317 96.682C256.551 100.085 259.647 99.9712 259.647 99.9712C259.647 99.9712 260.943 95.7341 258.958 92.7365C257.251 90.1593 254.772 89.5029 254.772 89.5029C254.772 89.5029 256.585 90.7609 259.984 89.5448C263.384 88.328 264.929 84.1862 264.929 84.1862C264.929 84.1862 262.528 82.2419 258.678 83.6194C262.529 82.2419 263.126 79.2245 263.126 79.2245C263.126 79.2245 259.294 77.0689 255.875 78.231C253.097 79.1754 251.831 81.4148 251.831 81.4148C251.831 81.4148 253.533 79.6597 253.543 76.5064C253.554 72.9193 250.142 70.0711 250.142 70.0711C250.142 70.0711 247.485 71.6534 247.485 75.7149C247.484 71.6534 244.827 70.0711 244.827 70.0711C244.827 70.0711 241.342 72.92 241.426 76.5064C241.497 79.531 243.233 81.3594 243.233 81.3594C243.233 81.3594 242.403 79.4883 239.004 78.2715C235.604 77.0547 231.875 79.2245 231.875 79.2245C231.875 79.2245 232.472 82.2419 236.322 83.6194C232.472 82.2419 230.071 84.1862 230.071 84.1862C230.071 84.1862 231.616 88.328 235.016 89.5448C238.415 90.7609 240.228 89.5029 240.228 89.5029H240.228Z" stroke="#8CCBFE" stroke-linecap="round" stroke-linejoin="round"/>
<path d="M255.628 84.6606C255.382 84.0732 254.702 83.7965 254.111 84.0404C254.049 84.066 253.992 84.0995 253.936 84.1343L253.933 84.1322C253.933 84.1322 253.926 84.1393 253.923 84.1414C253.891 84.1628 253.861 84.1877 253.833 84.2111C253.355 84.5688 251.165 85.9968 248.636 85.1193C248.097 84.3313 247.316 82.5982 248.49 80.1675C248.534 80.0992 248.57 80.0252 248.599 79.9477C248.603 79.9413 248.605 79.9356 248.608 79.9292C248.607 79.9292 248.606 79.9292 248.605 79.9292C248.673 79.7408 248.696 79.5345 248.655 79.3233C248.531 78.7003 247.921 78.2943 247.293 78.4166C246.665 78.5396 246.255 79.1455 246.379 79.7685C246.393 79.8346 246.414 79.8972 246.437 79.9577L246.435 79.9591C246.435 79.9591 246.44 79.969 246.442 79.9719C246.456 80.0082 246.475 80.0409 246.493 80.0743C246.755 80.619 247.774 83.0654 246.301 85.3845C245.333 85.674 243.583 85.8311 241.657 84.2453C241.601 84.1855 241.538 84.1336 241.47 84.0867C241.465 84.0824 241.46 84.0781 241.454 84.0732C241.454 84.0739 241.454 84.0753 241.452 84.076C241.285 83.9651 241.088 83.8925 240.873 83.8819C240.233 83.8499 239.688 84.3384 239.655 84.9735C239.623 85.6078 240.115 86.149 240.754 86.181C240.822 86.1846 240.888 86.1789 240.953 86.1718V86.1746C240.953 86.1746 240.964 86.1725 240.968 86.1711C241.006 86.1661 241.043 86.1561 241.08 86.1469C241.649 86.0331 244.115 85.6925 245.998 87.3886C245.939 88.3785 245.486 90.113 243.241 91.3526C243.165 91.3839 243.092 91.4237 243.024 91.4699C243.018 91.4721 243.013 91.4756 243.006 91.4792C243.007 91.4806 243.009 91.4813 243.009 91.4813C242.842 91.5965 242.703 91.7516 242.616 91.9471C242.353 92.5267 242.616 93.2087 243.201 93.4683C243.785 93.7286 244.471 93.4683 244.733 92.888C244.76 92.8283 244.78 92.7643 244.796 92.7017H244.798C244.798 92.7017 244.8 92.691 244.8 92.6867C244.809 92.649 244.813 92.6121 244.818 92.5744C244.916 92.0047 245.464 89.6067 247.759 88.4859C248.66 88.9361 250.052 90.0234 250.335 92.5125C250.334 92.5943 250.344 92.6761 250.361 92.7557C250.361 92.7635 250.362 92.7692 250.362 92.7763C250.364 92.7763 250.364 92.7763 250.366 92.7749C250.409 92.9705 250.5 93.1575 250.647 93.314C251.086 93.7769 251.82 93.799 252.287 93.3645C252.754 92.9285 252.777 92.1996 252.338 91.7366C252.292 91.689 252.241 91.6463 252.188 91.6072L252.19 91.6051C252.19 91.6051 252.18 91.5994 252.176 91.598C252.145 91.5745 252.112 91.5567 252.079 91.5382C251.581 91.2239 249.52 89.7653 249.407 87.171C250.139 86.4918 251.663 85.5517 254.137 86.1732C254.213 86.2031 254.293 86.223 254.376 86.2358C254.381 86.2379 254.389 86.2394 254.395 86.2408C254.395 86.2401 254.395 86.2386 254.396 86.2379C254.595 86.2657 254.804 86.2472 255.003 86.164C255.594 85.92 255.875 85.2466 255.629 84.6592L255.628 84.6606Z" stroke="#8CCBFE" stroke-linecap="round" stroke-linejoin="round"/>
<path d="M247.685 87.934C248.373 87.934 248.931 87.3804 248.931 86.6973C248.931 86.0143 248.373 85.4606 247.685 85.4606C246.997 85.4606 246.439 86.0143 246.439 86.6973C246.439 87.3804 246.997 87.934 247.685 87.934Z" stroke="#8CCBFE" stroke-linecap="round" stroke-linejoin="round"/>
<path d="M236.323 83.6195C236.323 83.6195 233.545 81.747 233.166 79.654C236.695 78.0006 241.061 79.243 241.061 79.243" stroke="#8CCBFE" stroke-width="2" stroke-linecap="round" stroke-linejoin="round"/>
<path d="M236.898 90.0114C236.898 90.0114 232.789 88.3828 231.177 84.5603C232.601 83.3315 236.322 83.6188 236.322 83.6188" stroke="#8CCBFE" stroke-width="2" stroke-linecap="round" stroke-linejoin="round"/>
<path d="M258.677 83.6195C258.677 83.6195 261.485 81.747 261.865 79.654C257.496 77.645 253.888 79.2536 253.888 79.2536" stroke="#8CCBFE" stroke-width="2" stroke-linecap="round" stroke-linejoin="round"/>
<path d="M258.465 89.9552C258.465 89.9552 262.241 88.3828 263.853 84.5603C262.428 83.3315 258.677 83.6188 258.677 83.6188" stroke="#8CCBFE" stroke-width="2" stroke-linecap="round" stroke-linejoin="round"/>
<path d="M247.484 75.7148C247.484 75.7148 248.295 72.4784 250.145 71.4052C253.32 73.9576 253.256 78.6562 253.256 78.6562" stroke="#8CCBFE" stroke-width="2" stroke-linecap="round" stroke-linejoin="round"/>
<path d="M241.667 78.2743C241.667 78.2743 241.757 74.055 244.819 71.2388C246.471 72.1441 247.485 75.7149 247.485 75.7149" stroke="#8CCBFE" stroke-width="2" stroke-linecap="round" stroke-linejoin="round"/>
<path d="M240.649 96.7468C240.649 96.7468 239.621 99.9257 240.62 101.807C244.426 100.955 247.028 97.5603 247.028 97.5603" stroke="#8CCBFE" stroke-width="2" stroke-linecap="round" stroke-linejoin="round"/>
<path d="M237.003 91.5972C237.003 91.5972 234.911 95.1566 236.011 99.1547C237.895 99.2536 240.65 96.7475 240.65 96.7475" stroke="#8CCBFE" stroke-width="2" stroke-linecap="round" stroke-linejoin="round"/>
<path d="M254.316 96.6814C254.316 96.6814 255.391 99.8112 254.45 101.722C250.666 101.256 247.885 97.3278 247.885 97.3278" stroke="#8CCBFE" stroke-width="2" stroke-linecap="round" stroke-linejoin="round"/>
<path d="M257.637 91.2374C257.637 91.2374 259.953 94.9952 258.976 99.0239C257.095 99.1797 254.315 96.6814 254.315 96.6814" stroke="#8CCBFE" stroke-width="2" stroke-linecap="round" stroke-linejoin="round"/>
</g>
</g>
<defs>
<clipPath id="clip0_2375_11235">
<rect width="305" height="450" rx="12" fill="white"/>
</clipPath>
<clipPath id="clip1_2375_11235">
<rect width="158" height="149" fill="white" transform="translate(-59 -28)"/>
</clipPath>
<clipPath id="clip2_2375_11235">
<rect width="75" height="71" fill="white" transform="translate(143 -28)"/>
</clipPath>
<clipPath id="clip3_2375_11235">
<rect width="35" height="33" fill="white" transform="translate(230 70)"/>
</clipPath>
</defs>
</svg>
