<svg width="1440" height="1705" viewBox="0 0 1440 1705" fill="none" xmlns="http://www.w3.org/2000/svg">
<g clip-path="url(#clip0_2374_8822)">
<rect width="1440" height="1705" fill="#FBF9F3"/>
<g opacity="0.2" clip-path="url(#clip1_2374_8822)">
<path d="M235.732 243.646C235.732 243.646 226.509 247.815 222.02 254.489C215.582 264.059 220.2 277.76 220.2 277.76C220.2 277.76 230.113 277.963 237.08 266.914C230.113 277.963 234.602 286.772 234.602 286.772C234.602 286.772 248.699 284.796 254.851 275.039C260.098 266.603 258.837 258.841 258.837 258.841C258.837 258.841 258.301 267.665 263.182 275.122C269.496 284.775 283.625 286.52 283.625 286.52C283.625 286.52 287.965 277.637 280.815 266.706C287.963 277.637 297.872 277.271 297.872 277.271C297.872 277.271 302.019 263.661 295.666 254.033C290.203 245.754 282.273 243.646 282.273 243.646C282.273 243.646 288.073 247.687 298.949 243.78C309.83 239.872 314.773 226.568 314.773 226.568C314.773 226.568 307.091 220.323 294.772 224.747C307.093 220.323 309.005 210.63 309.005 210.63C309.005 210.63 296.742 203.706 285.801 207.439C276.91 210.473 272.862 217.666 272.862 217.666C272.862 217.666 278.307 212.028 278.339 201.899C278.375 190.377 267.455 181.229 267.455 181.229C267.455 181.229 258.952 186.311 258.952 199.357C258.95 186.311 250.449 181.229 250.449 181.229C250.449 181.229 239.295 190.38 239.566 201.899C239.793 211.615 245.348 217.488 245.348 217.488C245.348 217.488 242.69 211.478 231.814 207.569C220.936 203.661 209 210.63 209 210.63C209 210.63 210.912 220.323 223.233 224.747C210.912 220.323 203.229 226.568 203.229 226.568C203.229 226.568 208.172 239.872 219.053 243.78C229.93 247.687 235.73 243.646 235.73 243.646H235.732Z" stroke="#00579F" stroke-width="2" stroke-linecap="round" stroke-linejoin="round"/>
<path d="M285.013 228.092C284.224 226.205 282.051 225.316 280.159 226.1C279.96 226.182 279.776 226.289 279.598 226.401L279.588 226.394C279.588 226.394 279.568 226.417 279.556 226.424C279.453 226.493 279.359 226.573 279.267 226.648C277.74 227.797 270.732 232.384 262.637 229.565C260.915 227.034 258.414 221.467 262.171 213.659C262.313 213.44 262.426 213.202 262.52 212.953C262.531 212.933 262.538 212.915 262.549 212.894C262.545 212.894 262.543 212.894 262.54 212.894C262.758 212.289 262.831 211.626 262.698 210.948C262.302 208.947 260.351 207.642 258.34 208.035C256.33 208.43 255.018 210.377 255.417 212.378C255.461 212.59 255.527 212.791 255.603 212.985L255.596 212.99C255.596 212.99 255.61 213.022 255.619 213.031C255.662 213.148 255.724 213.253 255.782 213.36C256.618 215.11 259.879 222.968 255.167 230.417C252.068 231.347 246.469 231.852 240.306 226.758C240.127 226.566 239.926 226.399 239.706 226.248C239.69 226.234 239.674 226.221 239.655 226.205C239.655 226.207 239.655 226.212 239.651 226.214C239.114 225.858 238.486 225.625 237.796 225.59C235.749 225.488 234.004 227.057 233.898 229.097C233.795 231.134 235.37 232.873 237.415 232.976C237.633 232.987 237.844 232.969 238.053 232.946V232.955C238.053 232.955 238.087 232.948 238.101 232.944C238.222 232.928 238.339 232.896 238.458 232.866C240.281 232.5 248.17 231.406 254.197 236.854C254.007 240.034 252.558 245.606 245.373 249.587C245.13 249.688 244.896 249.816 244.681 249.964C244.66 249.971 244.644 249.982 244.621 249.994C244.626 249.998 244.63 250.001 244.63 250.001C244.098 250.371 243.654 250.869 243.374 251.497C242.532 253.359 243.374 255.549 245.245 256.383C247.115 257.219 249.309 256.383 250.149 254.519C250.236 254.327 250.298 254.122 250.35 253.921H250.357C250.357 253.921 250.362 253.886 250.362 253.873C250.392 253.752 250.405 253.633 250.419 253.512C250.735 251.682 252.487 243.979 259.833 240.379C262.715 241.825 267.169 245.318 268.075 253.313C268.072 253.576 268.102 253.838 268.157 254.094C268.157 254.119 268.162 254.138 268.162 254.16C268.166 254.16 268.169 254.16 268.173 254.156C268.313 254.784 268.602 255.385 269.074 255.887C270.48 257.375 272.827 257.445 274.32 256.05C275.817 254.649 275.888 252.308 274.485 250.821C274.338 250.668 274.173 250.531 274.006 250.405L274.01 250.398C274.01 250.398 273.978 250.38 273.967 250.375C273.868 250.3 273.76 250.243 273.657 250.183C272.062 249.174 265.466 244.489 265.106 236.155C267.449 233.974 272.325 230.954 280.242 232.95C280.485 233.046 280.742 233.11 281.007 233.151C281.024 233.158 281.046 233.163 281.067 233.167C281.067 233.165 281.067 233.161 281.069 233.158C281.707 233.247 282.376 233.188 283.011 232.921C284.903 232.137 285.801 229.974 285.015 228.087L285.013 228.092Z" stroke="#00579F" stroke-width="2" stroke-linecap="round" stroke-linejoin="round"/>
<path d="M259.594 238.607C261.796 238.607 263.581 236.828 263.581 234.634C263.581 232.44 261.796 230.662 259.594 230.662C257.392 230.662 255.607 232.44 255.607 234.634C255.607 236.828 257.392 238.607 259.594 238.607Z" stroke="#00579F" stroke-width="2" stroke-linecap="round" stroke-linejoin="round"/>
<path d="M223.233 224.747C223.233 224.747 214.342 218.733 213.129 212.01C224.42 206.699 238.391 210.69 238.391 210.69" stroke="#00579F" stroke-width="2" stroke-linecap="round" stroke-linejoin="round"/>
<path d="M225.071 245.279C225.071 245.279 211.923 240.048 206.765 227.77C211.322 223.822 223.23 224.745 223.23 224.745" stroke="#00579F" stroke-width="2" stroke-linecap="round" stroke-linejoin="round"/>
<path d="M294.768 224.747C294.768 224.747 303.753 218.733 304.968 212.01C290.989 205.557 279.441 210.724 279.441 210.724" stroke="#00579F" stroke-width="2" stroke-linecap="round" stroke-linejoin="round"/>
<path d="M294.089 245.098C294.089 245.098 306.171 240.048 311.33 227.77C306.772 223.822 294.767 224.745 294.767 224.745" stroke="#00579F" stroke-width="2" stroke-linecap="round" stroke-linejoin="round"/>
<path d="M258.949 199.357C258.949 199.357 261.542 188.961 267.462 185.514C277.623 193.712 277.419 208.805 277.419 208.805" stroke="#00579F" stroke-width="2" stroke-linecap="round" stroke-linejoin="round"/>
<path d="M240.333 207.578C240.333 207.578 240.62 194.025 250.418 184.979C255.705 187.887 258.949 199.357 258.949 199.357" stroke="#00579F" stroke-width="2" stroke-linecap="round" stroke-linejoin="round"/>
<path d="M237.078 266.914C237.078 266.914 233.788 277.125 236.984 283.169C249.165 280.433 257.49 269.527 257.49 269.527" stroke="#00579F" stroke-width="2" stroke-linecap="round" stroke-linejoin="round"/>
<path d="M225.409 250.373C225.409 250.373 218.716 261.806 222.236 274.649C228.265 274.966 237.08 266.916 237.08 266.916" stroke="#00579F" stroke-width="2" stroke-linecap="round" stroke-linejoin="round"/>
<path d="M280.812 266.704C280.812 266.704 284.251 276.757 281.241 282.895C269.131 281.396 260.231 268.78 260.231 268.78" stroke="#00579F" stroke-width="2" stroke-linecap="round" stroke-linejoin="round"/>
<path d="M291.439 249.217C291.439 249.217 298.851 261.287 295.724 274.228C289.706 274.728 280.811 266.704 280.811 266.704" stroke="#00579F" stroke-width="2" stroke-linecap="round" stroke-linejoin="round"/>
</g>
<g opacity="0.2" clip-path="url(#clip2_2374_8822)">
<path d="M1300.01 83.7155C1299.71 77.7026 1300.1 76.6675 1296.96 71.7507C1293.93 67.0212 1289.13 63.2258 1283.52 62.967C1283.51 59.6534 1283.21 56.3419 1282.75 53.0641C1282.71 52.7863 1282.49 52.6811 1282.28 52.7022C1281.96 52.6138 1271.52 52.2814 1263.9 52.3992C1264.57 11.2179 1261.32 -21.4996 1262.16 17.4474C1262.76 45.002 1261.35 47.9264 1262.09 52.4308C1248.1 52.7569 1242.49 52.3845 1242.38 53.6679C1242.12 56.7627 1241.76 59.8659 1241.68 62.9733C1226.76 63.6655 1221.46 85.8467 1222.04 100.124C1224.02 148.334 1218.27 180.608 1230.08 189.642C1233.27 192.086 1237.62 193.565 1241.7 193.197C1241.89 199.475 1241.83 200.687 1242.9 200.948C1243.26 201.036 1243.77 201.362 1244.32 201.474C1245.33 201.678 1261.96 201.402 1263.01 201.386C1262.78 203.548 1262.68 213.775 1263.08 215.898C1254.28 218.621 1255.27 255.626 1255.9 264.906C1255.97 265.956 1257.47 265.966 1257.53 264.906C1258.14 253.061 1257.64 241.145 1258.98 229.34C1259.6 223.828 1259.33 224.743 1259.87 225.349C1260.53 226.091 1261.29 226.59 1262.1 226.88C1261.76 229.281 1259.65 254.549 1260.39 264.908C1260.5 266.351 1262.59 266.379 1262.64 264.908C1262.68 263.961 1263.63 228.132 1263.6 227.185C1264.48 227.236 1265.37 227.082 1266.21 226.763C1265.93 230.421 1266.48 237.768 1265.41 254.767C1264.92 262.632 1265.02 263.9 1265.31 265.123C1265.46 265.741 1266.5 265.968 1266.77 265.314C1268.67 260.793 1269.45 234.631 1267.24 226.268C1268.08 225.782 1268.83 225.126 1269.42 224.345C1270.3 239.249 1270.49 246.181 1269.68 264.906C1269.61 266.351 1271.69 266.271 1271.86 264.906C1273.06 254.944 1273.1 231.033 1270.63 221.379C1271 218.111 1268.34 215.116 1265.79 214.863C1265.89 212.603 1265.42 204.83 1264.63 201.36C1271.32 201.253 1277.15 201.152 1282.15 201.146C1284.32 201.144 1283.53 198.993 1283.51 193.178C1291.88 193.677 1299.2 183.879 1299.59 180.654C1304.45 170.45 1300.55 94.8892 1300.01 83.7134L1300.01 83.7155ZM1267.22 221.027C1267.16 223.005 1264.89 224.92 1262.95 224.65C1261.16 224.398 1259.4 221.976 1264.02 217.952C1264.61 218.393 1267.28 218.766 1267.22 221.027ZM1261.01 169.865C1260.27 169.941 1260.24 171.012 1261.01 171.048C1271.13 171.517 1293.82 171.102 1298.08 170.755C1297.95 172.769 1298.07 170.768 1297.39 179.381C1297.39 179.406 1227.13 178.838 1227.11 178.838C1226.94 175.933 1226.54 176.225 1225.96 164.431C1232.95 165.92 1248.52 165.306 1298.39 165.249C1298.31 166.798 1298.23 168.346 1298.14 169.895C1298.12 169.895 1272.41 168.698 1261.01 169.867L1261.01 169.865ZM1224.5 96.0316C1233.33 96.1936 1261.57 95.4867 1270.35 94.6241C1271.11 94.5505 1271.15 93.4039 1270.35 93.4102C1262.09 93.4628 1234.55 94.4747 1224.51 95.836C1224.65 92.2678 1225.01 89.8378 1225.53 87.2647C1283.33 84.6391 1287.76 85.5606 1297.65 84.9021C1297.92 89.9388 1298.16 94.9797 1298.34 100.021C1285 100.21 1243.28 101.152 1224.53 103.37C1224.45 100.911 1224.41 98.47 1224.5 96.0295L1224.5 96.0316ZM1225.14 123.891C1225.13 123.561 1249.68 123.883 1260.3 123.571C1261.06 123.548 1261.05 122.418 1260.3 122.389C1251.93 122.071 1232.54 122.458 1225.12 123.22C1225.09 121.415 1225.05 119.612 1225 117.807C1225.02 117.807 1290.54 115.678 1298.72 114.988C1298.81 119.471 1298.87 123.952 1298.91 128.436C1298.88 128.436 1229.62 129.639 1225.23 130.03C1225.2 127.983 1225.18 125.936 1225.14 123.889L1225.14 123.891ZM1298.43 102.596C1298.52 105.634 1298.55 106.812 1298.58 108.129C1290.86 107.649 1266.6 108.009 1261.07 108.217C1260.33 108.245 1260.34 109.332 1261.07 109.366C1270.04 109.789 1289.01 109.667 1298.58 108.489C1298.63 110.401 1298.67 112.314 1298.7 114.226C1282.25 113.862 1228.71 115.671 1224.95 115.939C1224.78 109.747 1224.62 106.128 1224.54 103.755C1232.8 103.772 1290.17 102.926 1298.43 102.598V102.596ZM1298.49 163.023C1295.37 162.815 1225.96 164.172 1225.94 164.172C1225.82 161.559 1225.71 158.946 1225.65 156.329C1225.67 156.329 1273.03 156.954 1281.15 155.912C1281.85 155.824 1281.88 154.85 1281.15 154.797C1274.22 154.286 1237.56 154.73 1225.64 156.074C1225.58 153.743 1225.54 151.766 1225.5 149.434C1248.52 148.397 1275.84 147.57 1298.89 147.404C1298.83 152.611 1298.71 157.821 1298.49 163.023H1298.49ZM1225.46 147.591C1225.38 142.111 1225.32 136.63 1225.25 131.15C1233.92 131.783 1288.28 131.082 1298.92 130.895C1298.93 133.214 1298.94 135.534 1298.94 137.853C1293.54 137.364 1270.02 137.213 1253.99 137.794C1252.92 137.832 1252.91 139.468 1253.99 139.468C1254.01 139.468 1298.88 139.106 1298.93 139.104C1298.93 140.827 1298.93 142.656 1298.89 146.478C1268.4 146.001 1248.11 146.508 1225.46 147.589L1225.46 147.591ZM1281.71 53.8867C1281.67 54.642 1281.63 55.3973 1281.58 56.1525C1264.1 55.5003 1259.69 56.1378 1252.35 56.161C1249.5 56.1694 1246.48 55.9106 1243.66 56.5018C1243.59 55.6834 1243.52 54.8671 1243.43 54.0508C1247.43 54.5641 1243.43 53.3944 1281.71 53.8867H1281.71ZM1230.77 72.3609C1233.55 68.3551 1237.88 65.3633 1242.86 65.3865C1243.49 65.3886 1244.09 64.8311 1244.06 64.1789C1243.97 61.9782 1243.88 59.7775 1243.74 57.579C1247.73 58.0103 1243.74 56.8994 1281.51 57.377C1281.38 59.645 1281.23 61.9109 1281.1 64.1789C1280.94 66.9349 1287.01 63.089 1293.61 71.3194C1265.86 70.724 1230.27 73.0762 1230.77 72.3609H1230.77ZM1230.3 73.0614C1245.54 73.4254 1258.21 71.776 1293.61 73.5853C1294.18 73.6148 1294.72 73.6842 1295.21 73.6169C1296.41 75.6135 1296.81 76.88 1297.22 78.0498C1297.3 78.6494 1269.49 77.9319 1254.22 78.5273C1253.63 78.5505 1253.63 79.4299 1254.22 79.4467C1264.93 79.735 1284.8 79.7265 1297.29 78.622C1297.4 80.1452 1297.52 82.5331 1297.63 84.5592C1287.66 83.9154 1244.76 84.09 1225.89 85.6048C1226.8 81.5969 1228.11 76.5286 1230.31 73.0635L1230.3 73.0614ZM1244.98 198.909C1244.95 198.266 1244.92 197.622 1244.89 196.978C1246.19 197.077 1270.53 196.715 1280.51 196.58C1280.52 197.075 1280.54 197.569 1280.56 198.064C1271.27 198.068 1254.24 198.244 1244.98 198.909ZM1296.99 181.148C1295.83 184.525 1290.44 192.349 1282.44 190.077C1280.45 189.511 1280.54 192.143 1280.5 193.492C1271.67 193.496 1253.66 193.677 1244.85 194.346C1244.41 194.38 1245.41 189.271 1242.72 190.075C1236.95 191.802 1231.34 189.257 1228.87 185.444C1233.95 186.021 1263.14 185.646 1269 185.306C1269.9 185.253 1269.9 183.944 1269 183.894C1261.38 183.469 1234.06 183.85 1228.47 184.769C1227.8 183.526 1227.39 182.146 1227.22 180.667C1253.15 180.757 1271.08 182.198 1290.41 181.005C1298.12 180.53 1297.54 179.579 1296.99 181.146V181.148Z" fill="#00579F"/>
</g>
<g opacity="0.2" clip-path="url(#clip3_2374_8822)">
<path d="M118.031 44.931C118.031 44.931 96.0434 54.842 85.342 70.7104C69.9949 93.4595 81.0024 126.033 81.0024 126.033C81.0024 126.033 104.635 126.516 121.245 100.248C104.635 126.516 115.337 147.457 115.337 147.457C115.337 147.457 148.944 142.759 163.608 119.565C176.118 99.5093 173.112 81.0559 173.112 81.0559C173.112 81.0559 171.833 102.035 183.469 119.76C198.521 142.71 232.205 146.859 232.205 146.859C232.205 146.859 242.551 125.74 225.504 99.7537C242.546 125.74 266.168 124.871 266.168 124.871C266.168 124.871 276.055 92.5146 260.91 69.6243C247.886 49.9435 228.98 44.931 228.98 44.931C228.98 44.931 242.808 54.5378 268.736 45.2514C294.676 35.9595 306.459 4.33117 306.459 4.33117C306.459 4.33117 288.144 -10.5163 258.778 0.002917C288.15 -10.5163 292.708 -33.5587 292.708 -33.5587C292.708 -33.5587 263.473 -50.0191 237.392 -41.1454C216.197 -33.9334 206.545 -16.8322 206.545 -16.8322C206.545 -16.8322 219.525 -30.2351 219.602 -54.3148C219.689 -81.7071 193.657 -103.457 193.657 -103.457C193.657 -103.457 173.386 -91.3738 173.386 -60.3591C173.38 -91.3738 153.114 -103.457 153.114 -103.457C153.114 -103.457 126.524 -81.7017 127.169 -54.3148C127.71 -31.2181 140.953 -17.2558 140.953 -17.2558C140.953 -17.2558 134.619 -31.5439 108.691 -40.8358C82.7568 -50.1277 54.3035 -33.5587 54.3035 -33.5587C54.3035 -33.5587 58.8617 -10.5163 88.2333 0.002917C58.8617 -10.5163 40.5469 4.33117 40.5469 4.33117C40.5469 4.33117 52.3305 35.9595 78.2697 45.2514C104.198 54.5378 118.026 44.931 118.026 44.931H118.031Z" stroke="#00579F" stroke-width="2" stroke-linecap="round" stroke-linejoin="round"/>
<path d="M235.512 7.95342C233.632 3.46767 228.451 1.35514 223.941 3.21786C223.466 3.41337 223.029 3.66861 222.602 3.93472L222.581 3.91842C222.581 3.91842 222.531 3.97273 222.504 3.98903C222.258 4.15195 222.034 4.34202 221.815 4.52123C218.175 7.25286 201.467 18.1577 182.169 11.4562C178.064 5.43902 172.101 -7.79556 181.059 -26.3576C181.398 -26.879 181.666 -27.4438 181.89 -28.0357C181.917 -28.0846 181.934 -28.128 181.961 -28.1769C181.95 -28.1769 181.945 -28.1769 181.939 -28.1769C182.458 -29.616 182.633 -31.1909 182.316 -32.8039C181.371 -37.5611 176.72 -40.6621 171.926 -39.728C167.133 -38.7885 164.007 -34.1615 164.958 -29.4042C165.062 -28.8992 165.22 -28.4213 165.401 -27.9597L165.384 -27.9488C165.384 -27.9488 165.417 -27.8728 165.439 -27.8511C165.543 -27.5741 165.69 -27.3243 165.827 -27.0691C167.822 -22.9091 175.594 -4.2276 164.362 13.4819C156.973 15.6921 143.626 16.8923 128.935 4.7819C128.509 4.32572 128.028 3.92929 127.503 3.57086C127.465 3.53828 127.426 3.50569 127.383 3.46768C127.383 3.47311 127.383 3.48396 127.372 3.4894C126.093 2.64221 124.595 2.08828 122.95 2.00682C118.07 1.76244 113.91 5.49332 113.659 10.3429C113.413 15.1871 117.168 19.3198 122.043 19.5642C122.562 19.5914 123.065 19.5479 123.562 19.4936V19.5153C123.562 19.5153 123.644 19.4991 123.677 19.4882C123.967 19.4502 124.246 19.3741 124.53 19.3035C128.875 18.4346 147.682 15.8333 162.05 28.7855C161.597 36.345 158.142 49.5905 141.014 59.0561C140.434 59.2951 139.877 59.5992 139.363 59.9522C139.314 59.9685 139.276 59.9957 139.221 60.0228C139.232 60.0337 139.243 60.0391 139.243 60.0391C137.975 60.9189 136.915 62.1028 136.248 63.5962C134.242 68.0222 136.248 73.2302 140.708 75.2124C145.167 77.2001 150.398 75.2124 152.398 70.781C152.606 70.3248 152.754 69.8361 152.879 69.3582H152.896C152.896 69.3582 152.907 69.2767 152.907 69.2441C152.978 68.9563 153.01 68.6739 153.043 68.3861C153.797 64.0361 157.973 45.7238 175.484 37.1651C182.355 40.6027 192.974 48.9062 195.133 67.9136C195.127 68.5381 195.198 69.1627 195.33 69.7709C195.33 69.8306 195.341 69.8741 195.341 69.9284C195.352 69.9284 195.357 69.9284 195.368 69.9175C195.701 71.411 196.39 72.8392 197.516 74.034C200.866 77.5693 206.463 77.7377 210.021 74.4196C213.59 71.0905 213.759 65.5241 210.414 61.9887C210.065 61.6249 209.671 61.299 209.272 61.0003L209.283 60.984C209.283 60.984 209.207 60.9406 209.179 60.9297C208.944 60.7505 208.687 60.6147 208.441 60.4735C204.637 58.0732 188.913 46.9349 188.055 27.1237C193.641 21.9374 205.266 14.7581 224.138 19.5045C224.718 19.7326 225.33 19.8846 225.964 19.9824C226.002 19.9987 226.057 20.0095 226.106 20.0204C226.106 20.015 226.106 20.0041 226.111 19.9987C227.631 20.2105 229.227 20.0693 230.741 19.4339C235.25 17.5712 237.392 12.4283 235.517 7.94256L235.512 7.95342Z" stroke="#00579F" stroke-width="2" stroke-linecap="round" stroke-linejoin="round"/>
<path d="M174.916 32.9509C180.165 32.9509 184.42 28.7227 184.42 23.5069C184.42 18.2912 180.165 14.063 174.916 14.063C169.666 14.063 165.411 18.2912 165.411 23.5069C165.411 28.7227 169.666 32.9509 174.916 32.9509Z" stroke="#00579F" stroke-width="2" stroke-linecap="round" stroke-linejoin="round"/>
<path d="M88.2329 0.00308527C88.2329 0.00308527 67.0377 -14.2959 64.1465 -30.2784C91.064 -42.9047 124.371 -33.4173 124.371 -33.4173" stroke="#00579F" stroke-width="2" stroke-linecap="round" stroke-linejoin="round"/>
<path d="M92.6165 48.814C92.6165 48.814 61.272 36.3778 48.9746 7.18785C59.84 -2.19637 88.2277 -0.00237786 88.2277 -0.00237786" stroke="#00579F" stroke-width="2" stroke-linecap="round" stroke-linejoin="round"/>
<path d="M258.767 0.00292754C258.767 0.00292754 280.186 -14.2961 283.083 -30.2786C249.76 -45.6202 222.23 -33.336 222.23 -33.336" stroke="#00579F" stroke-width="2" stroke-linecap="round" stroke-linejoin="round"/>
<path d="M257.149 48.385C257.149 48.385 285.953 36.3778 298.25 7.18785C287.384 -2.19637 258.767 -0.00237783 258.767 -0.00237783" stroke="#00579F" stroke-width="2" stroke-linecap="round" stroke-linejoin="round"/>
<path d="M121.239 100.248C121.239 100.248 113.396 124.523 121.015 138.893C150.053 132.387 169.898 106.461 169.898 106.461" stroke="#00579F" stroke-width="2" stroke-linecap="round" stroke-linejoin="round"/>
<path d="M93.4194 60.9243C93.4194 60.9243 77.4656 88.1049 85.8551 118.636C100.229 119.391 121.244 100.253 121.244 100.253" stroke="#00579F" stroke-width="2" stroke-linecap="round" stroke-linejoin="round"/>
<path d="M225.498 99.7483C225.498 99.7483 233.696 123.649 226.52 138.241C197.652 134.678 176.435 104.685 176.435 104.685" stroke="#00579F" stroke-width="2" stroke-linecap="round" stroke-linejoin="round"/>
<path d="M250.831 58.1765C250.831 58.1765 268.501 86.8722 261.046 117.637C246.699 118.826 225.493 99.7484 225.493 99.7484" stroke="#00579F" stroke-width="2" stroke-linecap="round" stroke-linejoin="round"/>
</g>
<g opacity="0.2" clip-path="url(#clip4_2374_8822)">
<path d="M1347.29 70.2327C1347.29 70.2327 1341.85 72.7105 1339.21 76.6776C1335.41 82.3649 1338.14 90.5082 1338.14 90.5082C1338.14 90.5082 1343.98 90.629 1348.08 84.062C1343.98 90.629 1346.62 95.8642 1346.62 95.8642C1346.62 95.8642 1354.93 94.6898 1358.55 88.8912C1361.65 83.8773 1360.9 79.264 1360.9 79.264C1360.9 79.264 1360.59 84.5087 1363.46 88.9401C1367.18 94.6776 1375.51 95.7149 1375.51 95.7149C1375.51 95.7149 1378.07 90.4349 1373.85 83.9384C1378.07 90.4349 1383.91 90.2177 1383.91 90.2177C1383.91 90.2177 1386.35 82.1287 1382.61 76.4061C1379.39 71.4859 1374.71 70.2327 1374.71 70.2327C1374.71 70.2327 1378.13 72.6345 1384.54 70.3128C1390.95 67.9899 1393.87 60.0828 1393.87 60.0828C1393.87 60.0828 1389.34 56.3709 1382.08 59.0007C1389.34 56.3709 1390.47 50.6103 1390.47 50.6103C1390.47 50.6103 1383.24 46.4952 1376.79 48.7137C1371.55 50.5166 1369.17 54.7919 1369.17 54.7919C1369.17 54.7919 1372.38 51.4412 1372.4 45.4213C1372.42 38.5732 1365.98 33.1357 1365.98 33.1357C1365.98 33.1357 1360.97 36.1566 1360.97 43.9102C1360.97 36.1566 1355.96 33.1357 1355.96 33.1357C1355.96 33.1357 1349.39 38.5746 1349.55 45.4213C1349.68 51.1955 1352.95 54.6861 1352.95 54.6861C1352.95 54.6861 1351.39 51.114 1344.98 48.791C1338.57 46.4681 1331.54 50.6103 1331.54 50.6103C1331.54 50.6103 1332.66 56.3709 1339.92 59.0007C1332.66 56.3709 1328.13 60.0828 1328.13 60.0828C1328.13 60.0828 1331.05 67.9899 1337.46 70.3128C1343.87 72.6345 1347.29 70.2327 1347.29 70.2327H1347.29Z" stroke="#00579F" stroke-width="2" stroke-linecap="round" stroke-linejoin="round"/>
<path d="M1376.33 60.9885C1375.86 59.867 1374.58 59.3389 1373.47 59.8046C1373.35 59.8535 1373.24 59.9173 1373.14 59.9838L1373.13 59.9797C1373.13 59.9797 1373.12 59.9933 1373.11 59.9974C1373.05 60.0381 1373 60.0856 1372.94 60.1304C1372.04 60.8133 1367.91 63.5395 1363.14 61.8642C1362.13 60.3599 1360.65 57.0512 1362.87 52.4107C1362.95 52.2804 1363.02 52.1392 1363.07 51.9912C1363.08 51.979 1363.08 51.9681 1363.09 51.9559C1363.09 51.9559 1363.09 51.9559 1363.09 51.9559C1363.21 51.5961 1363.26 51.2024 1363.18 50.7992C1362.94 49.6098 1361.79 48.8346 1360.61 49.0681C1359.43 49.303 1358.65 50.4597 1358.89 51.6491C1358.91 51.7753 1358.95 51.8948 1359 52.0102L1358.99 52.0129C1358.99 52.0129 1359 52.0319 1359.01 52.0374C1359.03 52.1066 1359.07 52.169 1359.1 52.2329C1359.6 53.2728 1361.52 57.9432 1358.74 62.3706C1356.91 62.9232 1353.61 63.2232 1349.98 60.1956C1349.88 60.0816 1349.76 59.9824 1349.63 59.8928C1349.62 59.8847 1349.61 59.8765 1349.6 59.867C1349.6 59.8684 1349.6 59.8711 1349.6 59.8725C1349.28 59.6607 1348.91 59.5222 1348.5 59.5018C1347.3 59.4407 1346.27 60.3735 1346.21 61.5859C1346.15 62.7969 1347.07 63.8301 1348.28 63.8912C1348.41 63.898 1348.53 63.8871 1348.65 63.8735V63.879C1348.65 63.879 1348.68 63.8749 1348.68 63.8722C1348.75 63.8627 1348.82 63.8437 1348.89 63.826C1349.97 63.6088 1354.62 62.9585 1358.17 66.1965C1358.06 68.0864 1357.2 71.3977 1352.97 73.7642C1352.83 73.8239 1352.69 73.8999 1352.56 73.9882C1352.55 73.9922 1352.54 73.999 1352.53 74.0058C1352.53 74.0085 1352.53 74.0099 1352.53 74.0099C1352.22 74.2298 1351.96 74.5258 1351.79 74.8992C1351.29 76.0057 1351.79 77.3077 1352.89 77.8032C1354 78.3001 1355.29 77.8032 1355.78 76.6954C1355.83 76.5813 1355.87 76.4591 1355.9 76.3397H1355.91C1355.91 76.3397 1355.91 76.3193 1355.91 76.3112C1355.93 76.2392 1355.93 76.1686 1355.94 76.0966C1356.13 75.0091 1357.16 70.4311 1361.49 68.2914C1363.19 69.1508 1365.81 71.2267 1366.35 75.9785C1366.35 76.1347 1366.36 76.2908 1366.4 76.4428C1366.4 76.4578 1366.4 76.4686 1366.4 76.4822C1366.4 76.4822 1366.4 76.4822 1366.4 76.4795C1366.49 76.8529 1366.66 77.2099 1366.94 77.5086C1367.76 78.3925 1369.15 78.4346 1370.03 77.605C1370.91 76.7728 1370.95 75.3811 1370.12 74.4973C1370.04 74.4063 1369.94 74.3249 1369.84 74.2502L1369.84 74.2461C1369.84 74.2461 1369.83 74.2353 1369.82 74.2326C1369.76 74.1878 1369.7 74.1538 1369.64 74.1185C1368.7 73.5184 1364.81 70.7338 1364.6 65.7811C1365.98 64.4845 1368.85 62.6896 1373.52 63.8762C1373.66 63.9333 1373.81 63.9713 1373.97 63.9957C1373.98 63.9998 1373.99 64.0025 1374 64.0052C1374 64.0039 1374 64.0012 1374 63.9998C1374.38 64.0527 1374.77 64.0174 1375.15 63.8586C1376.26 63.3929 1376.79 62.1072 1376.33 60.9858L1376.33 60.9885Z" stroke="#00579F" stroke-width="2" stroke-linecap="round" stroke-linejoin="round"/>
<path d="M1361.35 67.2376C1362.65 67.2376 1363.7 66.1806 1363.7 64.8766C1363.7 63.5727 1362.65 62.5156 1361.35 62.5156C1360.05 62.5156 1359 63.5727 1359 64.8766C1359 66.1806 1360.05 67.2376 1361.35 67.2376Z" stroke="#00579F" stroke-width="2" stroke-linecap="round" stroke-linejoin="round"/>
<path d="M1339.92 59.0008C1339.92 59.0008 1334.68 55.426 1333.97 51.4304C1340.62 48.2738 1348.86 50.6457 1348.86 50.6457" stroke="#00579F" stroke-width="2" stroke-linecap="round" stroke-linejoin="round"/>
<path d="M1341.01 71.2036C1341.01 71.2036 1333.26 68.0946 1330.22 60.7971C1332.9 58.451 1339.92 58.9995 1339.92 58.9995" stroke="#00579F" stroke-width="2" stroke-linecap="round" stroke-linejoin="round"/>
<path d="M1382.08 59.0007C1382.08 59.0007 1387.37 55.426 1388.09 51.4304C1379.85 47.5949 1373.05 50.666 1373.05 50.666" stroke="#00579F" stroke-width="2" stroke-linecap="round" stroke-linejoin="round"/>
<path d="M1381.68 71.0961C1381.68 71.0961 1388.8 68.0943 1391.84 60.7968C1389.15 58.4508 1382.08 58.9993 1382.08 58.9993" stroke="#00579F" stroke-width="2" stroke-linecap="round" stroke-linejoin="round"/>
<path d="M1360.97 43.9101C1360.97 43.9101 1362.5 37.7313 1365.99 35.6826C1371.97 40.5553 1371.85 49.5254 1371.85 49.5254" stroke="#00579F" stroke-width="2" stroke-linecap="round" stroke-linejoin="round"/>
<path d="M1350 48.7964C1350 48.7964 1350.17 40.7414 1355.94 35.365C1359.06 37.0933 1360.97 43.9102 1360.97 43.9102" stroke="#00579F" stroke-width="2" stroke-linecap="round" stroke-linejoin="round"/>
<path d="M1348.08 84.062C1348.08 84.062 1346.14 90.1308 1348.03 93.7232C1355.2 92.0967 1360.11 85.6152 1360.11 85.6152" stroke="#00579F" stroke-width="2" stroke-linecap="round" stroke-linejoin="round"/>
<path d="M1341.2 74.2312C1341.2 74.2312 1337.26 81.0263 1339.34 88.6592C1342.89 88.8479 1348.08 84.0635 1348.08 84.0635" stroke="#00579F" stroke-width="2" stroke-linecap="round" stroke-linejoin="round"/>
<path d="M1373.85 83.9373C1373.85 83.9373 1375.88 89.9124 1374.11 93.5604C1366.97 92.6698 1361.73 85.1714 1361.73 85.1714" stroke="#00579F" stroke-width="2" stroke-linecap="round" stroke-linejoin="round"/>
<path d="M1380.12 73.5442C1380.12 73.5442 1384.48 80.7181 1382.64 88.4093C1379.09 88.7067 1373.85 83.9372 1373.85 83.9372" stroke="#00579F" stroke-width="2" stroke-linecap="round" stroke-linejoin="round"/>
</g>
</g>
<defs>
<clipPath id="clip0_2374_8822">
<rect width="1440" height="1705" fill="white"/>
</clipPath>
<clipPath id="clip1_2374_8822">
<rect width="112" height="106" fill="white" transform="translate(203 181)"/>
</clipPath>
<clipPath id="clip2_2374_8822">
<rect width="80" height="266" fill="white" transform="translate(1222)"/>
</clipPath>
<clipPath id="clip3_2374_8822">
<rect width="267" height="252" fill="white" transform="translate(40 -104)"/>
</clipPath>
<clipPath id="clip4_2374_8822">
<rect width="66" height="63" fill="white" transform="translate(1328 33)"/>
</clipPath>
</defs>
</svg>
