<svg width="118" height="153" viewBox="0 0 118 153" fill="none" xmlns="http://www.w3.org/2000/svg">
<g opacity="0.2" clip-path="url(#clip0_2290_23325)">
<path d="M-21.4268 76.9254C-21.4268 76.9254 -37.6499 84.2406 -45.5457 95.953C-56.8692 112.744 -48.7476 136.786 -48.7476 136.786C-48.7476 136.786 -31.3107 137.143 -19.0556 117.755C-31.3107 137.143 -23.4149 152.599 -23.4149 152.599C-23.4149 152.599 1.38152 149.132 12.201 132.012C21.4316 117.209 19.2136 103.589 19.2136 103.589C19.2136 103.589 18.27 119.073 26.8554 132.157C37.9611 149.096 62.814 152.158 62.814 152.158C62.814 152.158 70.4477 136.57 57.87 117.39C70.4436 136.57 87.8725 135.928 87.8725 135.928C87.8725 135.928 95.1674 112.047 83.9931 95.1514C74.3835 80.6251 60.4347 76.9254 60.4347 76.9254C60.4347 76.9254 70.6372 84.0161 89.7678 77.1618C108.906 70.3035 117.601 46.9588 117.601 46.9588C117.601 46.9588 104.088 36 82.4204 43.7642C104.092 36 107.455 18.9925 107.455 18.9925C107.455 18.9925 85.8844 6.84316 66.6409 13.3928C51.0025 18.7159 43.881 31.3383 43.881 31.3383C43.881 31.3383 53.4584 21.4456 53.5148 3.67254C53.5793 -16.5456 34.3721 -32.5991 34.3721 -32.5991C34.3721 -32.5991 19.4153 -23.6805 19.4153 -0.788762C19.4112 -23.6805 4.45839 -32.5991 4.45839 -32.5991C4.45839 -32.5991 -15.1602 -16.5416 -14.6843 3.67254C-14.2851 20.7201 -4.51412 31.0256 -4.51412 31.0256C-4.51412 31.0256 -9.18789 20.4796 -28.3185 13.6213C-47.4531 6.76299 -68.4468 18.9925 -68.4468 18.9925C-68.4468 18.9925 -65.0836 36 -43.4125 43.7642C-65.0836 36 -78.5968 46.9588 -78.5968 46.9588C-78.5968 46.9588 -69.9025 70.3035 -50.7639 77.1618C-31.6333 84.0161 -21.4308 76.9254 -21.4308 76.9254H-21.4268Z" stroke="#8CCBFE" stroke-width="2" stroke-linecap="round" stroke-linejoin="round"/>
<path d="M65.2537 49.6324C63.8665 46.3215 60.0436 44.7622 56.7167 46.1371C56.3659 46.2814 56.0433 46.4698 55.7288 46.6662L55.7126 46.6542C55.7126 46.6542 55.6763 46.6943 55.6562 46.7063C55.4747 46.8265 55.3094 46.9668 55.1481 47.0991C52.4624 49.1153 40.1347 57.1641 25.8957 52.2178C22.8672 47.7765 18.4676 38.0081 25.077 24.3076C25.3271 23.9228 25.5247 23.5059 25.69 23.069C25.7102 23.0329 25.7223 23.0008 25.7424 22.9648C25.7344 22.9648 25.7303 22.9648 25.7263 22.9648C26.1094 21.9025 26.2384 20.7401 26.0045 19.5496C25.3069 16.0383 21.8752 13.7495 18.3386 14.439C14.802 15.1324 12.4954 18.5476 13.197 22.0589C13.2737 22.4317 13.3906 22.7844 13.5237 23.1251L13.5116 23.1331C13.5116 23.1331 13.5358 23.1892 13.5519 23.2053C13.6285 23.4097 13.7374 23.5941 13.8382 23.7825C15.3101 26.8529 21.0445 40.6416 12.7575 53.7129C7.30543 55.3443 -2.54215 56.2302 -13.3817 47.2915C-13.6963 46.9548 -14.0512 46.6622 -14.4383 46.3976C-14.4665 46.3736 -14.4947 46.3495 -14.527 46.3215C-14.527 46.3255 -14.527 46.3335 -14.5351 46.3375C-15.4787 45.7122 -16.5836 45.3034 -17.7974 45.2432C-21.3985 45.0629 -24.4673 47.8166 -24.6528 51.3961C-24.8343 54.9715 -22.0639 58.0219 -18.4668 58.2023C-18.0837 58.2223 -17.7127 58.1902 -17.3458 58.1502V58.1662C-17.3458 58.1662 -17.2853 58.1542 -17.2611 58.1462C-17.0474 58.1181 -16.8417 58.062 -16.632 58.0099C-13.4261 57.3685 0.450032 55.4485 11.0517 65.0085C10.717 70.5881 8.16841 80.3645 -4.46972 87.3511C-4.89718 87.5274 -5.3085 87.7519 -5.68756 88.0125C-5.72386 88.0245 -5.75209 88.0445 -5.79242 88.0646C-5.78435 88.0726 -5.77628 88.0766 -5.77628 88.0766C-6.71184 88.7259 -7.49416 89.5998 -7.98614 90.7021C-9.4661 93.9689 -7.98614 97.8129 -4.69555 99.276C-1.40496 100.743 2.45423 99.276 3.93015 96.0051C4.08339 95.6684 4.19227 95.3077 4.28502 94.9549H4.29712C4.29712 94.9549 4.30519 94.8948 4.30519 94.8708C4.35761 94.6583 4.38181 94.4499 4.406 94.2374C4.9625 91.0267 8.0434 77.5106 20.9638 71.1934C26.0328 73.7307 33.8681 79.8595 35.461 93.8887C35.4569 94.3497 35.5094 94.8106 35.6061 95.2596C35.6061 95.3037 35.6142 95.3357 35.6142 95.3758C35.6223 95.3758 35.6263 95.3758 35.6344 95.3678C35.8803 96.4701 36.3885 97.5243 37.2192 98.4061C39.6912 101.016 43.8205 101.14 46.4457 98.6907C49.079 96.2336 49.204 92.125 46.7361 89.5156C46.478 89.247 46.1876 89.0065 45.8933 88.7861L45.9013 88.774C45.9013 88.774 45.8449 88.742 45.8247 88.734C45.6513 88.6017 45.4618 88.5015 45.2803 88.3973C42.4736 86.6256 30.8719 78.4044 30.2388 63.7819C34.3601 59.9539 42.9374 54.6549 56.8619 58.1582C57.2894 58.3265 57.741 58.4388 58.2088 58.5109C58.237 58.5229 58.2773 58.531 58.3136 58.539C58.3136 58.535 58.3136 58.527 58.3177 58.5229C59.4387 58.6793 60.6162 58.575 61.7333 58.1061C65.0602 56.7312 66.6409 52.9353 65.2578 49.6244L65.2537 49.6324Z" stroke="#8CCBFE" stroke-width="2" stroke-linecap="round" stroke-linejoin="round"/>
<path d="M20.5444 68.0829C24.4174 68.0829 27.5571 64.9621 27.5571 61.1124C27.5571 57.2627 24.4174 54.1418 20.5444 54.1418C16.6714 54.1418 13.5317 57.2627 13.5317 61.1124C13.5317 64.9621 16.6714 68.0829 20.5444 68.0829Z" stroke="#8CCBFE" stroke-width="2" stroke-linecap="round" stroke-linejoin="round"/>
<path d="M82.4124 43.7641C82.4124 43.7641 98.2162 33.2101 100.353 21.4135C75.7667 10.0899 55.4546 19.1568 55.4546 19.1568" stroke="#8CCBFE" stroke-width="2" stroke-linecap="round" stroke-linejoin="round"/>
<path d="M81.2188 79.4746C81.2188 79.4746 102.47 70.6121 111.544 49.0672C103.527 42.1407 82.4124 43.7601 82.4124 43.7601" stroke="#8CCBFE" stroke-width="2" stroke-linecap="round" stroke-linejoin="round"/>
<path d="M19.4113 -0.788797C19.4113 -0.788797 23.9721 -19.0308 34.3843 -25.0795C52.2567 -10.6935 51.8978 15.7898 51.8978 15.7898" stroke="#8CCBFE" stroke-width="2" stroke-linecap="round" stroke-linejoin="round"/>
<path d="M-13.3334 13.6373C-13.3334 13.6373 -12.8293 -10.1443 4.40599 -26.0175C13.7051 -20.9148 19.4112 -0.788828 19.4112 -0.788828" stroke="#8CCBFE" stroke-width="2" stroke-linecap="round" stroke-linejoin="round"/>
<path d="M-19.0596 117.755C-19.0596 117.755 -24.8463 135.672 -19.2249 146.278C2.20025 141.476 16.8426 122.34 16.8426 122.34" stroke="#8CCBFE" stroke-width="2" stroke-linecap="round" stroke-linejoin="round"/>
<path d="M57.8661 117.386C57.8661 117.386 63.9149 135.026 58.6202 145.797C37.32 143.167 21.6655 121.029 21.6655 121.029" stroke="#8CCBFE" stroke-width="2" stroke-linecap="round" stroke-linejoin="round"/>
<path d="M76.5571 86.7017C76.5571 86.7017 89.5945 107.882 84.094 130.589C73.5085 131.467 57.8621 117.386 57.8621 117.386" stroke="#8CCBFE" stroke-width="2" stroke-linecap="round" stroke-linejoin="round"/>
</g>
<defs>
<clipPath id="clip0_2290_23325">
<rect width="197" height="186" fill="white" transform="translate(-79 -33)"/>
</clipPath>
</defs>
</svg>
