<svg width="564" height="540" viewBox="0 0 564 540" fill="none" xmlns="http://www.w3.org/2000/svg">
<g clip-path="url(#clip0_2376_27711)">
<rect width="564" height="540" rx="12" fill="white"/>
<g opacity="0.1" clip-path="url(#clip1_2376_27711)">
<path d="M24.0311 38.9311C24.0311 38.9311 2.04344 48.8421 -8.65799 64.7105C-24.0051 87.4597 -12.9976 120.033 -12.9976 120.033C-12.9976 120.033 10.6352 120.516 27.2448 94.248C10.6352 120.516 21.3366 141.457 21.3366 141.457C21.3366 141.457 54.9439 136.759 69.6078 113.565C82.1183 93.5095 79.1123 75.056 79.1123 75.056C79.1123 75.056 77.8334 96.0347 89.4694 113.76C104.521 136.711 138.205 140.86 138.205 140.86C138.205 140.86 148.551 119.74 131.504 93.7538C148.546 119.74 172.168 118.871 172.168 118.871C172.168 118.871 182.055 86.5147 166.91 63.6244C153.886 43.9436 134.98 38.9311 134.98 38.9311C134.98 38.9311 148.808 48.538 174.736 39.2515C200.676 29.9596 212.459 -1.66871 212.459 -1.66871C212.459 -1.66871 194.144 -16.5162 164.778 -5.99696C194.15 -16.5162 198.708 -39.5586 198.708 -39.5586C198.708 -39.5586 169.473 -56.019 143.392 -47.1452C122.197 -39.9333 112.545 -22.8321 112.545 -22.8321C112.545 -22.8321 125.525 -36.235 125.602 -60.3147C125.689 -87.707 99.6571 -109.457 99.6571 -109.457C99.6571 -109.457 79.3856 -97.3736 79.3856 -66.359C79.3801 -97.3736 59.1141 -109.457 59.1141 -109.457C59.1141 -109.457 32.5245 -87.7016 33.1694 -60.3147C33.7105 -37.218 46.9534 -23.2557 46.9534 -23.2557C46.9534 -23.2557 40.6189 -37.5438 14.6906 -46.8357C-11.2432 -56.1276 -39.6965 -39.5586 -39.6965 -39.5586C-39.6965 -39.5586 -35.1383 -16.5162 -5.76674 -5.99696C-35.1383 -16.5162 -53.4531 -1.66871 -53.4531 -1.66871C-53.4531 -1.66871 -41.6695 29.9596 -15.7303 39.2515C10.1979 48.538 24.0256 38.9311 24.0256 38.9311H24.0311Z" stroke="#00579F" stroke-width="2" stroke-linecap="round" stroke-linejoin="round"/>
<path d="M141.512 1.95403C139.632 -2.53172 134.451 -4.64425 129.941 -2.78153C129.466 -2.58602 129.029 -2.33078 128.602 -2.06467L128.581 -2.08097C128.581 -2.08097 128.531 -2.02666 128.504 -2.01036C128.258 -1.84744 128.034 -1.65737 127.815 -1.47816C124.175 1.25347 107.467 12.1583 88.1688 5.45682C84.0642 -0.560372 78.1013 -13.7949 87.0593 -32.357C87.3981 -32.8784 87.6659 -33.4432 87.89 -34.0351C87.9173 -34.084 87.9337 -34.1274 87.9611 -34.1763C87.9501 -34.1763 87.9447 -34.1763 87.9392 -34.1763C88.4584 -35.6154 88.6333 -37.1903 88.3163 -38.8032C87.3708 -43.5605 82.7197 -46.6614 77.9264 -45.7274C73.1332 -44.7879 70.007 -40.1609 70.9579 -35.4036C71.0618 -34.8986 71.2203 -34.4207 71.4007 -33.9591L71.3843 -33.9482C71.3843 -33.9482 71.417 -33.8722 71.4389 -33.8505C71.5428 -33.5735 71.6903 -33.3237 71.827 -33.0684C73.8219 -28.9085 81.5938 -10.227 70.3622 7.48247C62.9729 9.69276 49.6262 10.8929 34.9349 -1.21749C34.5086 -1.67367 34.0277 -2.0701 33.503 -2.42853C33.4647 -2.46111 33.4264 -2.4937 33.3827 -2.53171C33.3827 -2.52628 33.3827 -2.51543 33.3718 -2.50999C32.0929 -3.35718 30.5953 -3.91111 28.9502 -3.99257C24.0695 -4.23695 19.9103 -0.506067 19.6589 4.34353C19.4129 9.1877 23.1677 13.3204 28.0429 13.5648C28.5622 13.592 29.065 13.5485 29.5623 13.4942V13.516C29.5623 13.516 29.6443 13.4997 29.6771 13.4888C29.9668 13.4508 30.2455 13.3748 30.5297 13.3042C34.8748 12.4353 53.6815 9.83395 68.0503 22.7861C67.5967 30.3456 64.1425 43.5911 47.0137 53.0568C46.4343 53.2957 45.8768 53.5998 45.3631 53.9528C45.3139 53.9691 45.2756 53.9963 45.221 54.0234C45.2319 54.0343 45.2428 54.0397 45.2428 54.0397C43.9748 54.9195 42.9145 56.1034 42.2477 57.5968C40.2419 62.0228 42.2477 67.2308 46.7076 69.213C51.1674 71.2007 56.3979 69.213 58.3983 64.7816C58.6059 64.3254 58.7535 63.8367 58.8792 63.3588H58.8956C58.8956 63.3588 58.9065 63.2773 58.9065 63.2447C58.9776 62.9569 59.0104 62.6745 59.0432 62.3867C59.7974 58.0367 63.9731 39.7244 81.4845 31.1657C88.3546 34.6033 98.974 42.9068 101.133 61.9142C101.127 62.5387 101.198 63.1633 101.33 63.7715C101.33 63.8312 101.341 63.8747 101.341 63.929C101.352 63.929 101.357 63.929 101.368 63.9181C101.701 65.4116 102.39 66.8398 103.516 68.0346C106.866 71.5699 112.463 71.7383 116.021 68.4202C119.59 65.0912 119.759 59.5247 116.414 55.9893C116.065 55.6255 115.671 55.2996 115.272 55.0009L115.283 54.9846C115.283 54.9846 115.207 54.9412 115.179 54.9303C114.944 54.7511 114.687 54.6154 114.441 54.4742C110.637 52.0738 94.9132 40.9355 94.0551 21.1243C99.6408 15.938 111.266 8.75868 130.138 13.5051C130.718 13.7332 131.33 13.8852 131.964 13.983C132.002 13.9993 132.057 14.0101 132.106 14.021C132.106 14.0156 132.106 14.0047 132.111 13.9993C133.631 14.2111 135.227 14.0699 136.741 13.4345C141.25 11.5718 143.392 6.42892 141.517 1.94317L141.512 1.95403Z" stroke="#00579F" stroke-width="2" stroke-linecap="round" stroke-linejoin="round"/>
<path d="M80.9156 26.9505C86.1648 26.9505 90.4201 22.7223 90.4201 17.5066C90.4201 12.2908 86.1648 8.06262 80.9156 8.06262C75.6664 8.06262 71.4111 12.2908 71.4111 17.5066C71.4111 22.7223 75.6664 26.9505 80.9156 26.9505Z" stroke="#00579F" stroke-width="2" stroke-linecap="round" stroke-linejoin="round"/>
<path d="M163.149 42.3846C163.149 42.3846 191.953 30.3774 204.25 1.18745C193.384 -8.19677 164.767 -6.00277 164.767 -6.00277" stroke="#00579F" stroke-width="2" stroke-linecap="round" stroke-linejoin="round"/>
<path d="M27.2387 94.248C27.2387 94.248 19.3957 118.523 27.0146 132.893C56.0527 126.387 75.8979 100.461 75.8979 100.461" stroke="#00579F" stroke-width="2" stroke-linecap="round" stroke-linejoin="round"/>
<path d="M-0.580643 54.9248C-0.580643 54.9248 -16.5344 82.1054 -8.14488 112.637C6.22936 113.392 27.2442 94.2538 27.2442 94.2538" stroke="#00579F" stroke-width="2" stroke-linecap="round" stroke-linejoin="round"/>
<path d="M131.498 93.749C131.498 93.749 139.696 117.649 132.52 132.242C103.652 128.679 82.4346 98.6855 82.4346 98.6855" stroke="#00579F" stroke-width="2" stroke-linecap="round" stroke-linejoin="round"/>
<path d="M156.831 52.1768C156.831 52.1768 174.501 80.8725 167.046 111.637C152.699 112.827 131.493 93.7486 131.493 93.7486" stroke="#00579F" stroke-width="2" stroke-linecap="round" stroke-linejoin="round"/>
</g>
<g opacity="0.1" clip-path="url(#clip2_2376_27711)">
<path d="M525.031 536.931C525.031 536.931 503.043 546.842 492.342 562.711C476.995 585.46 488.002 618.033 488.002 618.033C488.002 618.033 511.635 618.516 528.245 592.248C511.635 618.516 522.337 639.457 522.337 639.457C522.337 639.457 555.944 634.759 570.608 611.565C583.118 591.509 580.112 573.056 580.112 573.056C580.112 573.056 578.833 594.035 590.469 611.76C605.521 634.711 639.205 638.86 639.205 638.86C639.205 638.86 649.551 617.74 632.504 591.754C649.546 617.74 673.168 616.871 673.168 616.871C673.168 616.871 683.055 584.515 667.91 561.624C654.886 541.944 635.98 536.931 635.98 536.931C635.98 536.931 649.808 546.538 675.736 537.251C701.676 527.96 713.459 496.331 713.459 496.331C713.459 496.331 695.144 481.484 665.778 492.003C695.15 481.484 699.708 458.441 699.708 458.441C699.708 458.441 670.473 441.981 644.392 450.855C623.197 458.067 613.545 475.168 613.545 475.168C613.545 475.168 626.525 461.765 626.602 437.685C626.689 410.293 600.657 388.543 600.657 388.543C600.657 388.543 580.386 400.626 580.386 431.641C580.38 400.626 560.114 388.543 560.114 388.543C560.114 388.543 533.524 410.298 534.169 437.685C534.71 460.782 547.953 474.744 547.953 474.744C547.953 474.744 541.619 460.456 515.691 451.164C489.757 441.872 461.304 458.441 461.304 458.441C461.304 458.441 465.862 481.484 495.233 492.003C465.862 481.484 447.547 496.331 447.547 496.331C447.547 496.331 459.33 527.96 485.27 537.251C511.198 546.538 525.026 536.931 525.026 536.931H525.031Z" stroke="#00579F" stroke-width="2" stroke-linecap="round" stroke-linejoin="round"/>
<path d="M642.512 499.954C640.632 495.468 635.451 493.356 630.941 495.218C630.466 495.414 630.029 495.669 629.602 495.935L629.581 495.919C629.581 495.919 629.531 495.973 629.504 495.99C629.258 496.153 629.034 496.343 628.815 496.522C625.175 499.253 608.467 510.158 589.169 503.457C585.064 497.44 579.101 484.205 588.059 465.643C588.398 465.122 588.666 464.557 588.89 463.965C588.917 463.916 588.934 463.873 588.961 463.824C588.95 463.824 588.945 463.824 588.939 463.824C589.458 462.385 589.633 460.81 589.316 459.197C588.371 454.439 583.72 451.339 578.926 452.273C574.133 453.212 571.007 457.839 571.958 462.596C572.062 463.101 572.22 463.579 572.401 464.041L572.384 464.052C572.384 464.052 572.417 464.128 572.439 464.15C572.543 464.426 572.69 464.676 572.827 464.932C574.822 469.091 582.594 487.773 571.362 505.482C563.973 507.693 550.626 508.893 535.935 496.782C535.509 496.326 535.028 495.93 534.503 495.571C534.465 495.539 534.426 495.506 534.383 495.468C534.383 495.474 534.383 495.485 534.372 495.49C533.093 494.643 531.595 494.089 529.95 494.007C525.07 493.763 520.91 497.494 520.659 502.344C520.413 507.188 524.168 511.32 529.043 511.565C529.562 511.592 530.065 511.549 530.562 511.494V511.516C530.562 511.516 530.644 511.5 530.677 511.489C530.967 511.451 531.246 511.375 531.53 511.304C535.875 510.435 554.682 507.834 569.05 520.786C568.597 528.346 565.142 541.591 548.014 551.057C547.434 551.296 546.877 551.6 546.363 551.953C546.314 551.969 546.276 551.996 546.221 552.023C546.232 552.034 546.243 552.04 546.243 552.04C544.975 552.919 543.915 554.103 543.248 555.597C541.242 560.023 543.248 565.231 547.708 567.213C552.167 569.201 557.398 567.213 559.398 562.782C559.606 562.325 559.754 561.837 559.879 561.359H559.896C559.896 561.359 559.907 561.277 559.907 561.245C559.978 560.957 560.01 560.674 560.043 560.387C560.797 556.037 564.973 537.724 582.484 529.166C589.355 532.603 599.974 540.907 602.133 559.914C602.127 560.539 602.198 561.163 602.33 561.771C602.33 561.831 602.341 561.875 602.341 561.929C602.352 561.929 602.357 561.929 602.368 561.918C602.701 563.412 603.39 564.84 604.516 566.035C607.866 569.57 613.463 569.738 617.021 566.42C620.59 563.091 620.759 557.525 617.414 553.989C617.065 553.625 616.671 553.3 616.272 553.001L616.283 552.985C616.283 552.985 616.207 552.941 616.179 552.93C615.944 552.751 615.687 552.615 615.441 552.474C611.637 550.074 595.913 538.935 595.055 519.124C600.641 513.938 612.266 506.759 631.138 511.505C631.718 511.733 632.33 511.885 632.964 511.983C633.002 511.999 633.057 512.01 633.106 512.021C633.106 512.016 633.106 512.005 633.111 511.999C634.631 512.211 636.227 512.07 637.741 511.434C642.25 509.572 644.392 504.429 642.517 499.943L642.512 499.954Z" stroke="#00579F" stroke-width="2" stroke-linecap="round" stroke-linejoin="round"/>
<path d="M495.233 492.003C495.233 492.003 474.038 477.704 471.146 461.722C498.064 449.095 531.371 458.583 531.371 458.583" stroke="#00579F" stroke-width="2" stroke-linecap="round" stroke-linejoin="round"/>
<path d="M499.617 540.814C499.617 540.814 468.272 528.378 455.975 499.188C466.84 489.804 495.228 491.998 495.228 491.998" stroke="#00579F" stroke-width="2" stroke-linecap="round" stroke-linejoin="round"/>
<path d="M536 451.186C536 451.186 536.683 418.965 560.043 397.46C572.646 404.373 580.38 431.641 580.38 431.641" stroke="#00579F" stroke-width="2" stroke-linecap="round" stroke-linejoin="round"/>
</g>
</g>
<defs>
<clipPath id="clip0_2376_27711">
<rect width="564" height="540" rx="12" fill="white"/>
</clipPath>
<clipPath id="clip1_2376_27711">
<rect width="267" height="252" fill="white" transform="translate(-54 -110)"/>
</clipPath>
<clipPath id="clip2_2376_27711">
<rect width="267" height="252" fill="white" transform="translate(447 388)"/>
</clipPath>
</defs>
</svg>
