<svg width="100" height="24" viewBox="0 0 100 24" fill="none" xmlns="http://www.w3.org/2000/svg">
<g clip-path="url(#clip0_2290_28394)">
<path d="M23.6408 1.29563C22.4488 0.219144 20.989 -0.208826 19.5239 0.0957414C18.2584 0.3583 17.1609 1.15385 16.515 2.25922C15.3072 1.805 14.1782 1.54769 12.4138 1.54769C10.4315 1.54769 9.42852 1.93365 8.62247 2.24347C8.59359 2.25397 8.56471 2.26447 8.53582 2.27498C7.79016 1.10134 6.6139 0.290035 5.32474 0.0694856C3.9253 -0.169443 2.50486 0.300537 1.33122 1.38753C0.504163 2.1542 0.00530168 3.35934 5.051e-05 4.61437C-0.00520066 5.74863 0.399139 6.80411 1.14481 7.62854C-0.162736 10.3513 -0.304517 13.1108 0.753593 15.437C1.68305 17.485 3.48945 19.042 5.61093 19.6353C6.85283 21.8067 9.02418 22.8228 12.4164 22.8228C15.8087 22.8228 18.0798 21.8251 19.3795 19.5933C21.5692 18.9553 23.3362 17.4299 24.25 15.3819C25.2713 13.0871 25.1138 10.346 23.8062 7.62854C24.5729 6.7621 24.9982 5.61209 24.9799 4.41483C24.9615 3.18605 24.4757 2.04918 23.6434 1.29826L23.6408 1.29563ZM19.0539 19.1785C17.9906 21.1267 16.1553 22.3371 12.4138 22.3371C8.95067 22.3371 6.99986 21.2238 5.93387 19.2205C1.92723 18.228 -1.31274 13.4573 1.73294 7.53665C-0.146982 5.767 0.320372 2.98388 1.65942 1.74461C4.09334 -0.510769 7.09175 0.542091 8.32315 2.86836C9.24736 2.55066 10.1374 2.0308 12.4138 2.0308C14.2386 2.0308 15.3676 2.31436 16.746 2.86836C17.812 0.521086 20.9706 -0.468759 23.3179 1.65534C24.888 3.07578 24.9168 5.90879 23.2181 7.53665C26.2008 13.3497 23.2575 18.0679 19.0539 19.1785Z" fill="white"/>
<path d="M26.4067 5.61804H32.0071V20.7519H36.4942V5.61804H42.0972V2.07088H26.4067V5.61804Z" fill="white"/>
<path d="M48.0058 2.07088H43.5239V20.7519H48.0058V2.07088Z" fill="white"/>
<path d="M70.7676 16.06V13.2821H78.5945V9.8111H70.7676V5.43425H79.1327V2.07088H66.4328V9.81373H59.2965V16.0836C59.2965 16.8004 58.7162 17.3859 57.9653 17.3859H55.0745C54.3604 17.3859 53.767 16.8319 53.767 16.0836V6.74179C53.767 6.05914 54.3262 5.43163 55.0745 5.43163H63.0668V2.07088H53.3259C51.1965 2.07088 49.4321 3.80901 49.4321 5.9935V16.7952C49.4321 18.9744 51.0994 20.7493 53.2287 20.7493H59.8321C61.9614 20.7493 63.6287 18.9744 63.6287 16.7899V13.2821H66.4328V16.7952C66.4302 18.9849 68.0974 20.7519 70.2268 20.7519H79.6946V17.3885H72.0542C71.3374 17.3885 70.765 16.7952 70.765 16.0574L70.7676 16.06Z" fill="white"/>
<path d="M92.9761 11.3746C93.9108 10.6526 94.5068 9.49997 94.5068 8.19768V6.02369C94.5068 3.83658 92.8343 2.06956 90.705 2.06956H81.1216V20.7506H85.417V5.43294H88.8802C89.5943 5.43294 90.1693 6.02632 90.1693 6.75886V8.48649C90.1693 9.21903 89.5943 9.81241 88.8802 9.81241H86.722V13.2834H89.0692C89.9567 13.2834 90.747 14.0081 90.747 14.9612V20.7532H95.1291V14.8955C95.1291 13.3622 94.2022 12.0337 92.9761 11.3799V11.3746Z" fill="white"/>
<path d="M22.2673 2.4313C20.8422 1.39944 18.7071 1.29967 17.2873 4.5764C17.2873 4.5764 15.2758 3.26886 12.4334 3.26886C9.59109 3.26886 7.78208 4.60791 7.78208 4.60791C6.28596 1.11851 3.96422 1.57798 2.82045 2.46543C1.83706 3.23735 0.898374 5.5715 3.46201 7.18098C0.503968 11.4922 1.66878 16.2419 5.58129 17.7726C5.58129 17.7726 5.07119 17.0033 5.07119 15.8743C3.44361 14.6902 2.85726 12.4033 3.50934 10.6573H4.9292C3.8459 12.826 5.15007 14.6534 6.49368 15.2074C6.09665 16.6567 7.10107 18.366 8.88641 18.366C10.6718 18.366 11.2975 16.7565 11.2975 16.7565L8.43153 14.7689V12.0751C8.38683 12.0751 8.34476 12.0829 8.30532 12.0829C7.4981 12.0829 6.84602 11.4239 6.84602 10.6205C6.84602 9.81707 7.4981 9.1528 8.30532 9.1528C9.11254 9.1528 9.76725 9.81182 9.76725 10.6205V14.7689H16.5905L13.5693 16.7565C13.5693 16.7565 14.1215 18.4264 15.9831 18.4264C17.8447 18.4264 18.8465 16.599 18.4889 15.2074C19.8351 14.6534 21.1183 12.8627 20.0534 10.6573H21.4732C22.2068 12.6264 21.4943 14.7112 19.8641 15.8927C19.8641 16.9875 19.3382 17.7936 19.3382 17.7936C23.2928 16.2603 24.5575 11.4948 21.5574 7.19936C24.1236 5.43234 23.2244 3.13233 22.2699 2.4313H22.2673ZM9.22297 6.91842L8.49201 5.84719C8.49201 5.84719 10.1669 4.73394 12.4992 4.73394C14.8314 4.73394 16.5063 5.84719 16.5063 5.84719L15.778 6.91842C15.778 6.91842 14.5711 6.04148 12.4965 6.04148C10.422 6.04148 9.22034 6.91842 9.22034 6.91842H9.22297ZM16.7009 12.0829C15.8963 12.0829 15.2442 11.4239 15.2442 10.6205C15.2442 9.81707 15.8963 9.1528 16.7009 9.1528C17.5055 9.1528 18.1576 9.81182 18.1576 10.6205C18.1576 11.4292 17.5055 12.0829 16.7009 12.0829Z" fill="white"/>
<path d="M14.2899 19.3284C14.2899 19.3284 13.5247 19.7958 12.4309 19.7958C11.3371 19.7958 10.5851 19.2969 10.5851 19.2969C9.95401 19.6645 8.74713 19.8142 7.79004 19.528C8.52889 20.5073 10.4851 21.0456 12.4309 21.0456C14.6054 21.0456 16.5511 20.4312 17.1927 19.5096C16.3434 19.8378 14.9735 19.7433 14.2925 19.3284H14.2899Z" fill="white"/>
</g>
<defs>
<clipPath id="clip0_2290_28394">
<rect width="97.0029" height="22.8228" fill="white"/>
</clipPath>
</defs>
</svg>
