<svg width="25" height="25" viewBox="0 0 25 25" fill="none" xmlns="http://www.w3.org/2000/svg">
<path d="M22.3682 2.63159C22.0869 4.72612 21.79 6.9549 21.4775 9.31795C21.1962 11.681 20.9305 13.9903 20.6805 16.246C20.4304 18.4479 20.2273 20.4887 20.071 22.3684H13.6483L13.3202 21.4823C13.6015 19.5489 13.9609 17.5081 14.3984 15.3598C14.836 13.2116 15.3048 11.0365 15.8049 8.8346C16.3362 6.63267 16.8519 4.565 17.3519 2.63159H22.3682ZM11.6794 2.63159C11.3981 4.72612 11.1012 6.9549 10.7886 9.31795C10.5073 11.681 10.2417 13.9903 9.99164 16.246C9.74161 18.4479 9.53846 20.4887 9.38219 22.3684H2.95951L2.63135 21.4823C2.91263 19.5489 3.27205 17.5081 3.70961 15.3598C4.14716 13.2116 4.61597 11.0365 5.11603 8.8346C5.64735 6.63267 6.16304 4.565 6.6631 2.63159H11.6794Z" fill="#00579F"/>
</svg>
