<svg width="24" height="24" viewBox="0 0 24 24" fill="none" xmlns="http://www.w3.org/2000/svg">
<g clip-path="url(#clip0_2290_30449)">
<path d="M24 12.0051C24 5.37771 18.6274 0.00512695 12 0.00512695C5.37258 0.00512695 0 5.37771 0 12.0051C0 17.9946 4.3882 22.9591 10.125 23.8593V15.4739H7.07812V12.0051H10.125V9.36138C10.125 6.35388 11.9166 4.69263 14.6576 4.69263C15.9705 4.69263 17.3438 4.927 17.3438 4.927V7.88013H15.8306C14.34 7.88013 13.875 8.80521 13.875 9.75419V12.0051H17.2031L16.6711 15.4739H13.875V23.8593C19.6118 22.9591 24 17.9948 24 12.0051Z" fill="#00579F"/>
<path d="M16.6711 15.4739L17.2031 12.0051H13.875V9.75419C13.875 8.8052 14.34 7.88013 15.8306 7.88013H17.3438V4.927C17.3438 4.927 15.9705 4.69263 14.6576 4.69263C11.9166 4.69263 10.125 6.35388 10.125 9.36138V12.0051H7.07812V15.4739H10.125V23.8593C10.736 23.9552 11.362 24.0051 12 24.0051C12.638 24.0051 13.264 23.9552 13.875 23.8593V15.4739H16.6711Z" fill="white"/>
</g>
<defs>
<clipPath id="clip0_2290_30449">
<rect width="24" height="24" fill="white"/>
</clipPath>
</defs>
</svg>
