<svg width="48" height="48" viewBox="0 0 48 48" fill="none" xmlns="http://www.w3.org/2000/svg">
<path d="M24.0547 0H23.9453C10.7207 0 0 10.7207 0 23.9453V24.0547C0 37.2793 10.7207 48 23.9453 48H24.0547C37.2793 48 48 37.2793 48 24.0547V23.9453C48 10.7207 37.2793 0 24.0547 0Z" fill="url(#paint0_linear_2560_1690)"/>
<path d="M31.4265 9.76562H16.574C12.4707 9.76562 9.13257 13.1037 9.13257 17.207V30.795C9.13257 34.8982 12.4707 38.2364 16.574 38.2364H31.4265C35.5298 38.2364 38.8679 34.8982 38.8679 30.795V17.207C38.8679 13.1037 35.5298 9.76562 31.4265 9.76562ZM11.7577 17.207C11.7577 14.5517 13.9186 12.3907 16.574 12.3907H31.4265C34.0819 12.3907 36.2428 14.5517 36.2428 17.207V30.795C36.2428 33.4503 34.0819 35.6113 31.4265 35.6113H16.574C13.9186 35.6113 11.7577 33.4503 11.7577 30.795V17.207Z" fill="white"/>
<path d="M24.001 30.9217C27.8167 30.9217 30.9228 27.8173 30.9228 23.9999C30.9228 20.1825 27.8184 17.0781 24.001 17.0781C20.1836 17.0781 17.0793 20.1825 17.0793 23.9999C17.0793 27.8173 20.1836 30.9217 24.001 30.9217ZM24.001 19.7049C26.3705 19.7049 28.2977 21.6321 28.2977 24.0016C28.2977 26.3711 26.3705 28.2983 24.001 28.2983C21.6315 28.2983 19.7043 26.3711 19.7043 24.0016C19.7043 21.6321 21.6315 19.7049 24.001 19.7049Z" fill="white"/>
<path d="M31.5632 18.1948C32.5907 18.1948 33.4281 17.359 33.4281 16.3298C33.4281 15.3006 32.5923 14.4648 31.5632 14.4648C30.534 14.4648 29.6982 15.3006 29.6982 16.3298C29.6982 17.359 30.534 18.1948 31.5632 18.1948Z" fill="white"/>
<defs>
<linearGradient id="paint0_linear_2560_1690" x1="7.01258" y1="40.9874" x2="40.9874" y2="7.01426" gradientUnits="userSpaceOnUse">
<stop stop-color="#FAAD4F"/>
<stop offset="0.35" stop-color="#DD2A7B"/>
<stop offset="0.62" stop-color="#9537B0"/>
<stop offset="1" stop-color="#515BD4"/>
</linearGradient>
</defs>
</svg>
