<svg width="38" height="38" viewBox="0 0 38 38" fill="none" xmlns="http://www.w3.org/2000/svg">
<path d="M34 4C33.5724 7.18368 33.1211 10.5714 32.6461 14.1633C32.2185 17.7551 31.8147 21.2653 31.4347 24.6939C31.0546 28.0408 30.7458 31.1429 30.5083 34H20.7458L20.247 32.6531C20.6746 29.7143 21.2209 26.6122 21.886 23.3469C22.5511 20.0816 23.2637 16.7755 24.0238 13.4286C24.8314 10.0816 25.6152 6.93878 26.3753 4H34ZM17.753 4C17.3254 7.18368 16.8741 10.5714 16.399 14.1633C15.9715 17.7551 15.5677 21.2653 15.1876 24.6939C14.8076 28.0408 14.4988 31.1429 14.2613 34H4.49881L4 32.6531C4.42755 29.7143 4.97387 26.6122 5.63895 23.3469C6.30404 20.0816 7.01663 16.7755 7.77672 13.4286C8.58432 10.0816 9.36817 6.93878 10.1283 4H17.753Z" fill="white"/>
</svg>
