<svg width="141" height="32" viewBox="0 0 141 32" fill="none" xmlns="http://www.w3.org/2000/svg">
<g clip-path="url(#clip0_2536_921)">
<path d="M45.876 7.50029V29.6596H52.4393V7.50029H60.6385V2.30225H37.6815V7.50029H45.876Z" fill="#005BAA"/>
<path d="M69.3882 2.30225H62.8297V29.6596H69.3882V2.30225Z" fill="#005BAA"/>
<path d="M104.456 29.6644C101.34 29.6644 98.9027 27.0725 98.9027 23.8682V18.7224H94.8054V23.8587C94.8054 27.063 92.3679 29.6596 89.2523 29.6596H79.5924C76.4768 29.6596 74.0393 27.063 74.0393 23.8682V8.05095C74.0393 4.85142 76.6191 2.30699 79.7347 2.30699H93.985V7.2297H82.2907C81.1953 7.2297 80.3796 8.15064 80.3796 9.14752V22.8286C80.3796 23.9251 81.2475 24.7369 82.2907 24.7369H86.5208C87.6162 24.7369 88.4698 23.8777 88.4698 22.8286V13.643H98.9122V2.30225H117.492V7.2297H105.253V13.643H116.705V18.7224H105.253V22.7906C105.253 23.8682 106.092 24.7416 107.14 24.7416H118.317V29.6691H104.465L104.456 29.6644Z" fill="#005BAA"/>
<path d="M134.588 21.1811V29.6641H140.999V21.0862C140.999 18.8408 139.643 16.8993 137.851 15.9356C139.216 14.877 140.089 13.1918 140.089 11.2835V8.10295C140.089 4.90342 137.642 2.31152 134.526 2.31152H120.504V29.6689H126.787V7.22949H131.856C132.9 7.22949 133.744 8.0982 133.744 9.17104V11.7012C133.744 12.7741 132.9 13.6428 131.856 13.6428H128.703V18.7221H132.136C133.436 18.7221 134.593 19.7855 134.593 21.1811H134.588Z" fill="#005BAA"/>
<path d="M33.4044 1.71388C29.971 -1.39545 25.3474 0.0524095 23.7919 3.48929C21.7765 2.67754 20.1262 2.26454 17.4563 2.26454C14.1273 2.26454 12.8232 3.02408 11.4717 3.48929C9.6649 0.0808919 5.2831 -1.46191 1.71696 1.8468C-0.241572 3.66018 -0.92445 7.73792 1.82129 10.3298C-2.63164 19.0027 2.10582 25.9857 7.96719 27.4383C9.52737 30.3719 12.3822 32.0049 17.4469 32.0049C22.9194 32.0049 25.6034 30.2295 27.1589 27.3765C33.3095 25.753 37.6155 18.8366 33.2526 10.3298C35.7375 7.94204 35.6949 3.79785 33.3949 1.71863L33.4044 1.71388ZM17.4516 30.1109C14.611 30.1109 11.7515 29.3276 10.6702 27.8892C12.0645 28.307 13.8286 28.0886 14.7533 27.5522C14.7533 27.5522 15.7776 28.2785 17.4516 28.2785C19.1256 28.2785 20.1689 27.5949 20.1689 27.5949C21.1647 28.2025 23.166 28.3449 24.4084 27.8607C23.4695 29.2089 20.6289 30.1061 17.4516 30.1061V30.1109ZM27.5383 25.3401C27.5383 25.3401 28.3065 24.158 28.3065 22.5583C30.6871 20.8256 31.7304 17.7732 30.6586 14.887H28.5816C30.137 18.1198 28.2638 20.7401 26.2958 21.5519C26.8175 23.5884 25.3426 26.2657 22.6348 26.2657C19.927 26.2657 19.1114 23.821 19.1114 23.821L23.5264 20.911H13.5582V14.8348C13.5582 13.648 12.5956 12.6844 11.4243 12.6844C10.2529 12.6844 9.29026 13.648 9.29026 14.8348C9.29026 16.0216 10.2434 16.9757 11.4243 16.9757C11.4812 16.9757 11.5428 16.9662 11.6045 16.9662V20.911L15.7918 23.821C15.7918 23.821 14.9809 26.1803 12.2731 26.1803C9.56531 26.1803 8.19955 23.6786 8.7781 21.5566C6.81483 20.7449 4.91321 18.0675 6.49236 14.8917H4.41527C3.46209 17.4504 4.31569 20.7971 6.69627 22.5345C6.69627 24.1865 7.4408 25.3163 7.4408 25.3163C1.73118 23.071 0.0287334 16.1165 4.34888 9.80289C0.60254 7.44834 1.97304 4.03045 3.40993 2.8959C5.07918 1.59521 8.46986 0.92587 10.6513 6.03372C10.6513 6.03372 13.2927 4.07318 17.4469 4.07318C21.601 4.07318 24.5365 5.98625 24.5365 5.98625C26.6135 1.18696 29.7292 1.33412 31.811 2.84369C33.2052 3.86905 34.5188 7.23947 30.7725 9.82663C35.159 16.1165 33.3095 23.0947 27.5335 25.3401H27.5383Z" fill="#005BAA"/>
<path d="M23.6926 12.689C22.5165 12.689 21.5634 13.6526 21.5634 14.8394C21.5634 16.0262 22.5165 16.9803 23.6926 16.9803C24.8687 16.9803 25.8219 16.0167 25.8219 14.8394C25.8219 13.6621 24.8687 12.689 23.6926 12.689Z" fill="#005BAA"/>
<path d="M23.4078 7.847C23.4078 7.847 20.9656 6.21875 17.5512 6.21875C14.1368 6.21875 11.6993 7.847 11.6993 7.847L12.7663 9.41353C12.7663 9.41353 14.5304 8.12707 17.556 8.12707C20.5815 8.12707 22.3503 9.41353 22.3503 9.41353L23.4126 7.847H23.4078Z" fill="#005BAA"/>
</g>
<defs>
<clipPath id="clip0_2536_921">
<rect width="141" height="32" fill="white"/>
</clipPath>
</defs>
</svg>
