<svg width="36" height="36" viewBox="0 0 36 36" fill="none" xmlns="http://www.w3.org/2000/svg">
<g filter="url(#filter0_dii_2290_22757)">
<path d="M2 7C2 3.68629 4.68629 1 8 1H28C31.3137 1 34 3.68629 34 7V27C34 30.3137 31.3137 33 28 33H8C4.68629 33 2 30.3137 2 27V7Z" fill="white"/>
<path d="M8 1.5H28C31.0376 1.5 33.5 3.96243 33.5 7V27C33.5 30.0376 31.0376 32.5 28 32.5H8C4.96243 32.5 2.5 30.0376 2.5 27V7C2.5 3.96243 4.96243 1.5 8 1.5Z" stroke="white"/>
<path d="M15.3333 19.6667L18 17M18 17L20.6666 19.6667M18 17V23M23.3333 20.1619C24.1476 19.4894 24.6666 18.472 24.6666 17.3333C24.6666 15.3083 23.025 13.6667 21 13.6667C20.8543 13.6667 20.718 13.5907 20.6441 13.4652C19.7747 11.9899 18.1696 11 16.3333 11C13.5719 11 11.3333 13.2386 11.3333 16C11.3333 17.3774 11.8903 18.6247 12.7913 19.529" stroke="#00579F" stroke-width="1.33333" stroke-linecap="round" stroke-linejoin="round"/>
</g>
<defs>
<filter id="filter0_dii_2290_22757" x="0" y="0" width="36" height="36" filterUnits="userSpaceOnUse" color-interpolation-filters="sRGB">
<feFlood flood-opacity="0" result="BackgroundImageFix"/>
<feColorMatrix in="SourceAlpha" type="matrix" values="0 0 0 0 0 0 0 0 0 0 0 0 0 0 0 0 0 0 127 0" result="hardAlpha"/>
<feOffset dy="1"/>
<feGaussianBlur stdDeviation="1"/>
<feColorMatrix type="matrix" values="0 0 0 0 0.0392157 0 0 0 0 0.0496732 0 0 0 0 0.0705882 0 0 0 0.05 0"/>
<feBlend mode="normal" in2="BackgroundImageFix" result="effect1_dropShadow_2290_22757"/>
<feBlend mode="normal" in="SourceGraphic" in2="effect1_dropShadow_2290_22757" result="shape"/>
<feColorMatrix in="SourceAlpha" type="matrix" values="0 0 0 0 0 0 0 0 0 0 0 0 0 0 0 0 0 0 127 0" result="hardAlpha"/>
<feOffset dy="-2"/>
<feComposite in2="hardAlpha" operator="arithmetic" k2="-1" k3="1"/>
<feColorMatrix type="matrix" values="0 0 0 0 0.0392157 0 0 0 0 0.0496732 0 0 0 0 0.0705882 0 0 0 0.05 0"/>
<feBlend mode="normal" in2="shape" result="effect2_innerShadow_2290_22757"/>
<feColorMatrix in="SourceAlpha" type="matrix" values="0 0 0 0 0 0 0 0 0 0 0 0 0 0 0 0 0 0 127 0" result="hardAlpha"/>
<feMorphology radius="1" operator="erode" in="SourceAlpha" result="effect3_innerShadow_2290_22757"/>
<feOffset/>
<feComposite in2="hardAlpha" operator="arithmetic" k2="-1" k3="1"/>
<feColorMatrix type="matrix" values="0 0 0 0 0.0392157 0 0 0 0 0.0496732 0 0 0 0 0.0705882 0 0 0 0.18 0"/>
<feBlend mode="normal" in2="effect2_innerShadow_2290_22757" result="effect3_innerShadow_2290_22757"/>
</filter>
</defs>
</svg>
