<svg width="48" height="48" viewBox="0 0 48 48" fill="none" xmlns="http://www.w3.org/2000/svg">
<path d="M48 24C48 10.7452 37.2549 0 24 0C10.7452 0 0 10.7452 0 24C0 37.2548 10.7452 48 24 48C37.2549 48 48 37.2548 48 24Z" fill="#FF0209"/>
<path d="M34.1873 34.6313C33.4723 34.7089 32.7403 34.7224 32.0388 34.7207C26.5662 34.7156 21.0936 34.7106 15.6227 34.7072C13.9009 34.7072 12.0255 34.6515 10.6949 33.557C9.19565 32.3208 8.88366 30.1774 8.76224 28.2379C8.59359 25.5801 8.5801 22.9138 8.71839 20.2542C8.79428 18.7938 8.9275 17.2979 9.55655 15.9757C10.0085 15.0262 10.7624 14.1729 11.727 13.7243C12.8485 13.2031 14.0223 13.2959 15.2298 13.2942C18.1204 13.2908 21.011 13.2891 23.9016 13.2858C26.9069 13.2824 29.9138 13.2807 32.9191 13.2773C34.3391 13.2773 35.8637 13.306 37.0223 14.1273C38.5182 15.1864 38.9246 17.2017 39.1118 19.0248C39.4575 22.3825 39.4626 25.7757 39.1253 29.1334C38.9853 30.518 38.7525 31.9819 37.8402 33.0325C36.9362 34.0748 35.5955 34.4761 34.189 34.6296L34.1873 34.6313Z" fill="white"/>
<path d="M28.8948 24.0016L20.7391 19.293V28.7102L28.8948 24.0016Z" fill="#FF0209"/>
</svg>
