<svg width="462" height="648" viewBox="0 0 462 648" fill="none" xmlns="http://www.w3.org/2000/svg">
<g filter="url(#filter0_d_2380_29783)">
<g clip-path="url(#clip0_2380_29783)">
<rect x="4" y="2" width="454" height="640" rx="12" fill="#FBF9F3"/>
<g opacity="0.3" clip-path="url(#clip1_2380_29783)">
<path d="M65.6553 33.5789H115.296C117.353 33.5789 117.555 36.0879 115.296 36.0879C113.749 36.0879 84.3767 35.8169 65.6553 35.6439" stroke="#8CCBFE" stroke-linecap="round" stroke-linejoin="round"/>
<path d="M52.4438 35.5242C51.0803 35.5125 50.6007 35.5059 50.3977 35.5059C48.4791 35.5059 48.3685 33.5771 50.3977 33.5771H52.4103" stroke="#8CCBFE" stroke-linecap="round" stroke-linejoin="round"/>
<path d="M59.0635 28.5742C76.4567 27.1825 113.5 24.2179 115.09 24.0916C117.141 23.927 117.546 26.4127 115.293 26.5923C113.544 26.732 76.3577 29.354 59.0635 30.5795" stroke="#8CCBFE" stroke-linecap="round" stroke-linejoin="round"/>
<path d="M52.4269 31.0515C51.3167 31.1313 50.7414 31.1729 50.5586 31.1879C48.6467 31.3408 48.3801 29.4271 50.4027 29.2658C50.6022 29.2491 51.258 29.1976 52.4286 29.1045" stroke="#8CCBFE" stroke-linecap="round" stroke-linejoin="round"/>
<path d="M59.0194 57.665V28.9001C59.0194 25.3884 52.4268 25.8673 52.4268 28.4777V54.4011" stroke="#8CCBFE" stroke-linecap="round" stroke-linejoin="round"/>
<path d="M65.6561 50.1427V33.7284C65.6561 30.2168 59.0635 30.6957 59.0635 33.3061" stroke="#8CCBFE" stroke-linecap="round" stroke-linejoin="round"/>
<path d="M57.6191 27.7959V56.7703" stroke="#8CCBFE" stroke-linecap="round" stroke-linejoin="round"/>
<path d="M55.7227 27.1592V55.9407" stroke="#8CCBFE" stroke-linecap="round" stroke-linejoin="round"/>
<path d="M53.8271 27.7959V55.0128" stroke="#8CCBFE" stroke-linecap="round" stroke-linejoin="round"/>
<path d="M64.498 32.6909V49.9698" stroke="#8CCBFE" stroke-linecap="round" stroke-linejoin="round"/>
<path d="M62.6035 32.0542V53.8723" stroke="#8CCBFE" stroke-linecap="round" stroke-linejoin="round"/>
<path d="M60.708 56.438V57.6584" stroke="#8CCBFE" stroke-linecap="round" stroke-linejoin="round"/>
<path d="M60.708 32.6909V54.3777" stroke="#8CCBFE" stroke-linecap="round" stroke-linejoin="round"/>
<path d="M80.0771 57.655C80.2532 56.7322 81.4926 55.3122 81.1018 54.6903C80.644 53.9621 78.5644 54.4476 78.1367 53.6595C77.709 52.8713 78.0763 50.6899 77.2814 50.2043C76.4864 49.7188 74.2861 50.7497 73.4911 50.507C72.6962 50.2642 71.6799 47.5972 70.8128 47.5374H70.5529C69.6858 47.5972 68.6695 50.2659 67.8745 50.507C67.0796 50.7481 64.8792 49.7188 64.0843 50.2043C63.2894 50.6899 63.6566 52.8713 63.229 53.6595C62.8013 54.4476 60.7217 53.9621 60.2639 54.6903C59.8698 55.3139 61.1209 56.7421 61.2903 57.6649" stroke="#8CCBFE" stroke-linecap="round" stroke-linejoin="round"/>
<path d="M76.6383 57.8079C76.0564 56.2632 73.7588 55.2257 71.6205 55.9406C68.013 57.1478 69.0629 59.4639 71.3253 59.3342" stroke="#8CCBFE" stroke-linecap="round" stroke-linejoin="round"/>
<path d="M71.4983 52.9045C71.4983 52.9045 66.784 53.3069 65.8113 56.7837C65.6972 57.1943 65.6436 57.5917 65.6436 57.9725" stroke="#8CCBFE" stroke-linecap="round" stroke-linejoin="round"/>
<path d="M80.4375 57.6617C85.1149 53.8075 91.3286 50.1063 97.1816 50.7315C107.959 51.8855 102.337 66.253 102.337 66.253" stroke="#8CCBFE" stroke-linecap="round" stroke-linejoin="round"/>
<path d="M87.4062 58.7706C88.8519 58.0823 90.4217 57.7663 92.0334 58.1504C95.5385 58.9835 96.1121 61.3079 95.9058 63.255" stroke="#8CCBFE" stroke-linecap="round" stroke-linejoin="round"/>
<path d="M37.9884 66.2562C37.9884 66.2562 32.5362 62.8144 36.5696 57.0897C39.632 52.7434 49.5185 51.36 58.8985 57.7215" stroke="#8CCBFE" stroke-linecap="round" stroke-linejoin="round"/>
<path d="M41.9543 66.2562C41.9543 66.2562 35.3365 62.8061 37.1796 56.3564" stroke="#8CCBFE" stroke-linecap="round" stroke-linejoin="round"/>
<path d="M50.1353 53.8723C50.1353 53.8723 43.0915 53.9222 39.4053 60.6828" stroke="#8CCBFE" stroke-linecap="round" stroke-linejoin="round"/>
<path d="M55.8797 55.9407C55.8797 55.9407 48.1366 55.9473 41.9531 63.4545" stroke="#8CCBFE" stroke-linecap="round" stroke-linejoin="round"/>
<path d="M70.541 59.6717C73.112 58.5078 76.2884 57.6582 80.0904 57.6582C92.1974 57.6582 99.0768 66.2644 99.0768 66.2644" stroke="#8CCBFE" stroke-linecap="round" stroke-linejoin="round"/>
<path d="M78.2695 64.6716C80.6393 64.3773 83.6933 64.5868 87.0642 66.2645" stroke="#8CCBFE" stroke-linecap="round" stroke-linejoin="round"/>
<path d="M74.834 61.8931C76.3769 61.4492 78.1613 61.1582 80.1839 61.1582C88.6516 61.1582 93.4213 66.2627 93.4213 66.2627" stroke="#8CCBFE" stroke-linecap="round" stroke-linejoin="round"/>
<path d="M72.751 60.6178C74.8809 59.7748 77.4418 59.1829 80.4287 59.1829C90.0435 59.1829 96.2488 66.2577 96.2488 66.2577" stroke="#8CCBFE" stroke-linecap="round" stroke-linejoin="round"/>
<path d="M76.5166 63.1036C77.5329 62.8675 78.6633 62.7195 79.8943 62.7195C86.6815 62.7195 90.0441 66.2644 90.0441 66.2644" stroke="#8CCBFE" stroke-linecap="round" stroke-linejoin="round"/>
<path d="M42.8457 66.2528C42.8457 66.2528 48.6216 57.6582 60.7286 57.6582C72.8356 57.6582 79.715 66.2528 79.715 66.2528H42.8457Z" stroke="#8CCBFE" stroke-linecap="round" stroke-linejoin="round"/>
<path d="M53.9434 66.2644C53.9434 66.2644 59.996 62.4285 67.7006 66.2644" stroke="#8CCBFE" stroke-linecap="round" stroke-linejoin="round"/>
<path d="M48.0732 66.2644C48.0732 66.2644 52.3532 61.1599 60.8225 61.1599C69.2919 61.1599 74.0599 66.2644 74.0599 66.2644" stroke="#8CCBFE" stroke-linecap="round" stroke-linejoin="round"/>
<path d="M45.5205 66.256C45.5205 66.256 50.748 59.1812 61.0655 59.1812C70.6803 59.1812 76.8856 66.256 76.8856 66.256" stroke="#8CCBFE" stroke-linecap="round" stroke-linejoin="round"/>
<path d="M50.9307 66.2644C50.9307 66.2644 54.5079 62.7195 60.5304 62.7195C67.3176 62.7195 70.6802 66.2644 70.6802 66.2644" stroke="#8CCBFE" stroke-linecap="round" stroke-linejoin="round"/>
<path d="M71.2117 95.0227H86.5589C109.549 88.8241 106.614 66.2561 106.614 66.2561H35.8099C35.8099 66.2561 32.875 88.8241 55.8646 95.0227H71.2117Z" stroke="#8CCBFE" stroke-linecap="round" stroke-linejoin="round"/>
<path d="M86.2533 95.0227H55.8643V98.9168H86.2533V95.0227Z" stroke="#8CCBFE" stroke-linecap="round" stroke-linejoin="round"/>
<path d="M104.021 81.3269C104.858 79.5578 105.445 77.792 105.853 76.126C93.7473 76.126 48.4036 76.126 36.5684 76.126C36.9692 77.7604 37.5411 79.4896 38.3511 81.2222C48.4003 81.2222 95.5334 81.3269 104.02 81.3269H104.021Z" stroke="#8CCBFE" stroke-linecap="round" stroke-linejoin="round"/>
<path d="M105.106 66.2527C105.106 66.2527 106.763 57.6698 102.355 53.385C104.093 55.6613 104.178 61.2314 102.337 66.2527H105.106Z" stroke="#8CCBFE" stroke-linecap="round" stroke-linejoin="round"/>
</g>
<g opacity="0.3" clip-path="url(#clip2_2380_29783)">
<path d="M393.647 197.125V202.136C393.647 204.758 395.765 206.881 398.38 206.881H405.597C408.211 206.881 410.329 204.758 410.329 202.136V197.125H393.647Z" stroke="#8CCBFE" stroke-linecap="round" stroke-linejoin="round"/>
<path d="M383.851 184.189H489.149C491.763 184.189 493.882 186.314 493.882 188.935V192.38C493.882 195 491.763 197.125 489.149 197.125H383.851C381.237 197.125 379.118 195 379.118 192.38V188.935C379.118 186.314 381.237 184.189 383.851 184.189Z" stroke="#8CCBFE" stroke-linecap="round" stroke-linejoin="round"/>
<path d="M396.33 149.392H407.264C413.799 149.392 419.096 154.703 419.096 161.255V172.219C419.096 178.771 413.799 184.083 407.264 184.083H396.33C389.796 184.083 384.499 178.771 384.499 172.219V161.255C384.499 154.703 389.796 149.392 396.33 149.392Z" stroke="#8CCBFE" stroke-linecap="round" stroke-linejoin="round"/>
<path d="M397.128 151.904H406.465C412.044 151.904 416.566 156.439 416.566 162.033V171.396C416.566 176.99 412.044 181.525 406.465 181.525H397.128C391.549 181.525 387.026 176.99 387.026 171.396V162.033C387.026 156.439 391.549 151.904 397.128 151.904Z" stroke="#8CCBFE" stroke-linecap="round" stroke-linejoin="round"/>
<path d="M404.107 166.714C404.107 167.993 405.141 169.03 406.416 169.03C407.692 169.03 408.726 167.993 408.726 166.714C408.726 165.436 407.692 164.399 406.416 164.399C405.141 164.399 404.107 165.436 404.107 166.714Z" stroke="#8CCBFE" stroke-linecap="round" stroke-linejoin="round"/>
<path d="M408.723 166.714C408.723 167.993 409.757 169.03 411.032 169.03C412.308 169.03 413.342 167.993 413.342 166.714C413.342 165.436 412.308 164.399 411.032 164.399C409.757 164.399 408.723 165.436 408.723 166.714Z" stroke="#8CCBFE" stroke-linecap="round" stroke-linejoin="round"/>
<path d="M399.489 166.714C399.489 167.993 400.524 169.03 401.799 169.03C403.074 169.03 404.108 167.993 404.108 166.714C404.108 165.436 403.074 164.399 401.799 164.399C400.524 164.399 399.489 165.436 399.489 166.714Z" stroke="#8CCBFE" stroke-linecap="round" stroke-linejoin="round"/>
<path d="M394.87 166.714C394.87 167.993 395.904 169.03 397.18 169.03C398.455 169.03 399.489 167.993 399.489 166.714C399.489 165.436 398.455 164.399 397.18 164.399C395.904 164.399 394.87 165.436 394.87 166.714Z" stroke="#8CCBFE" stroke-linecap="round" stroke-linejoin="round"/>
<path d="M390.254 166.714C390.254 167.993 391.288 169.03 392.564 169.03C393.839 169.03 394.873 167.993 394.873 166.714C394.873 165.436 393.839 164.399 392.564 164.399C391.288 164.399 390.254 165.436 390.254 166.714Z" stroke="#8CCBFE" stroke-linecap="round" stroke-linejoin="round"/>
<path d="M404.107 158.738C404.107 160.016 405.141 161.053 406.416 161.053C407.692 161.053 408.726 160.016 408.726 158.738C408.726 157.459 407.692 156.422 406.416 156.422C405.141 156.422 404.107 157.459 404.107 158.738Z" stroke="#8CCBFE" stroke-linecap="round" stroke-linejoin="round"/>
<path d="M399.489 158.738C399.489 160.016 400.524 161.053 401.799 161.053C403.074 161.053 404.108 160.016 404.108 158.738C404.108 157.459 403.074 156.422 401.799 156.422C400.524 156.422 399.489 157.459 399.489 158.738Z" stroke="#8CCBFE" stroke-linecap="round" stroke-linejoin="round"/>
<path d="M394.87 158.738C394.87 160.016 395.904 161.053 397.18 161.053C398.455 161.053 399.489 160.016 399.489 158.738C399.489 157.459 398.455 156.422 397.18 156.422C395.904 156.422 394.87 157.459 394.87 158.738Z" stroke="#8CCBFE" stroke-linecap="round" stroke-linejoin="round"/>
<path d="M404.107 174.736C404.107 176.015 405.141 177.052 406.416 177.052C407.692 177.052 408.726 176.015 408.726 174.736C408.726 173.458 407.692 172.421 406.416 172.421C405.141 172.421 404.107 173.458 404.107 174.736Z" stroke="#8CCBFE" stroke-linecap="round" stroke-linejoin="round"/>
<path d="M399.489 174.736C399.489 176.015 400.524 177.052 401.799 177.052C403.074 177.052 404.108 176.015 404.108 174.736C404.108 173.458 403.074 172.421 401.799 172.421C400.524 172.421 399.489 173.458 399.489 174.736Z" stroke="#8CCBFE" stroke-linecap="round" stroke-linejoin="round"/>
<path d="M394.87 174.736C394.87 176.015 395.904 177.052 397.18 177.052C398.455 177.052 399.489 176.015 399.489 174.736C399.489 173.458 398.455 172.421 397.18 172.421C395.904 172.421 394.87 173.458 394.87 174.736Z" stroke="#8CCBFE" stroke-linecap="round" stroke-linejoin="round"/>
<path d="M406.416 170.72C406.416 171.998 407.45 173.035 408.726 173.035C410.001 173.035 411.035 171.998 411.035 170.72C411.035 169.441 410.001 168.404 408.726 168.404C407.45 168.404 406.416 169.441 406.416 170.72Z" stroke="#8CCBFE" stroke-linecap="round" stroke-linejoin="round"/>
<path d="M392.562 170.72C392.562 171.998 393.596 173.035 394.871 173.035C396.147 173.035 397.181 171.998 397.181 170.72C397.181 169.441 396.147 168.404 394.871 168.404C393.596 168.404 392.562 169.441 392.562 170.72Z" stroke="#8CCBFE" stroke-linecap="round" stroke-linejoin="round"/>
<path d="M401.797 170.72C401.797 171.998 402.831 173.035 404.107 173.035C405.382 173.035 406.416 171.998 406.416 170.72C406.416 169.441 405.382 168.404 404.107 168.404C402.831 168.404 401.797 169.441 401.797 170.72Z" stroke="#8CCBFE" stroke-linecap="round" stroke-linejoin="round"/>
<path d="M397.18 170.72C397.18 171.998 398.214 173.035 399.489 173.035C400.765 173.035 401.799 171.998 401.799 170.72C401.799 169.441 400.765 168.404 399.489 168.404C398.214 168.404 397.18 169.441 397.18 170.72Z" stroke="#8CCBFE" stroke-linecap="round" stroke-linejoin="round"/>
<path d="M406.416 162.743C406.416 164.022 407.45 165.058 408.726 165.058C410.001 165.058 411.035 164.022 411.035 162.743C411.035 161.464 410.001 160.427 408.726 160.427C407.45 160.427 406.416 161.464 406.416 162.743Z" stroke="#8CCBFE" stroke-linecap="round" stroke-linejoin="round"/>
<path d="M392.562 162.743C392.562 164.022 393.596 165.058 394.871 165.058C396.147 165.058 397.181 164.022 397.181 162.743C397.181 161.464 396.147 160.427 394.871 160.427C393.596 160.427 392.562 161.464 392.562 162.743Z" stroke="#8CCBFE" stroke-linecap="round" stroke-linejoin="round"/>
<path d="M401.797 162.743C401.797 164.022 402.831 165.058 404.107 165.058C405.382 165.058 406.416 164.022 406.416 162.743C406.416 161.464 405.382 160.427 404.107 160.427C402.831 160.427 401.797 161.464 401.797 162.743Z" stroke="#8CCBFE" stroke-linecap="round" stroke-linejoin="round"/>
<path d="M397.18 162.743C397.18 164.022 398.214 165.058 399.489 165.058C400.765 165.058 401.799 164.022 401.799 162.743C401.799 161.464 400.765 160.427 399.489 160.427C398.214 160.427 397.18 161.464 397.18 162.743Z" stroke="#8CCBFE" stroke-linecap="round" stroke-linejoin="round"/>
<path d="M448.329 115.119H459.263C465.798 115.119 471.095 120.43 471.095 126.982V137.946C471.095 144.498 465.798 149.809 459.263 149.809H448.329C441.795 149.809 436.498 144.498 436.498 137.946V126.982C436.498 120.43 441.795 115.119 448.329 115.119Z" stroke="#8CCBFE" stroke-linecap="round" stroke-linejoin="round"/>
<path d="M449.127 117.631H458.464C464.043 117.631 468.565 122.166 468.565 127.76V137.123C468.565 142.717 464.043 147.252 458.464 147.252H449.127C443.548 147.252 439.025 142.717 439.025 137.123V127.76C439.025 122.166 443.548 117.631 449.127 117.631Z" stroke="#8CCBFE" stroke-linecap="round" stroke-linejoin="round"/>
<path d="M456.105 132.441C456.105 133.72 457.139 134.757 458.414 134.757C459.69 134.757 460.724 133.72 460.724 132.441C460.724 131.163 459.69 130.126 458.414 130.126C457.139 130.126 456.105 131.163 456.105 132.441Z" stroke="#8CCBFE" stroke-linecap="round" stroke-linejoin="round"/>
<path d="M451.488 132.441C451.488 133.72 452.522 134.757 453.797 134.757C455.072 134.757 456.106 133.72 456.106 132.441C456.106 131.163 455.072 130.126 453.797 130.126C452.522 130.126 451.488 131.163 451.488 132.441Z" stroke="#8CCBFE" stroke-linecap="round" stroke-linejoin="round"/>
<path d="M446.868 132.441C446.868 133.72 447.902 134.757 449.178 134.757C450.453 134.757 451.487 133.72 451.487 132.441C451.487 131.163 450.453 130.126 449.178 130.126C447.902 130.126 446.868 131.163 446.868 132.441Z" stroke="#8CCBFE" stroke-linecap="round" stroke-linejoin="round"/>
<path d="M442.252 132.441C442.252 133.72 443.286 134.757 444.562 134.757C445.837 134.757 446.871 133.72 446.871 132.441C446.871 131.163 445.837 130.126 444.562 130.126C443.286 130.126 442.252 131.163 442.252 132.441Z" stroke="#8CCBFE" stroke-linecap="round" stroke-linejoin="round"/>
<path d="M456.105 124.465C456.105 125.744 457.139 126.78 458.414 126.78C459.69 126.78 460.724 125.744 460.724 124.465C460.724 123.186 459.69 122.149 458.414 122.149C457.139 122.149 456.105 123.186 456.105 124.465Z" stroke="#8CCBFE" stroke-linecap="round" stroke-linejoin="round"/>
<path d="M451.488 124.465C451.488 125.744 452.522 126.78 453.797 126.78C455.072 126.78 456.106 125.744 456.106 124.465C456.106 123.186 455.072 122.149 453.797 122.149C452.522 122.149 451.488 123.186 451.488 124.465Z" stroke="#8CCBFE" stroke-linecap="round" stroke-linejoin="round"/>
<path d="M446.868 124.465C446.868 125.744 447.902 126.78 449.178 126.78C450.453 126.78 451.487 125.744 451.487 124.465C451.487 123.186 450.453 122.149 449.178 122.149C447.902 122.149 446.868 123.186 446.868 124.465Z" stroke="#8CCBFE" stroke-linecap="round" stroke-linejoin="round"/>
<path d="M456.105 140.461C456.105 141.74 457.139 142.777 458.414 142.777C459.69 142.777 460.724 141.74 460.724 140.461C460.724 139.182 459.69 138.146 458.414 138.146C457.139 138.146 456.105 139.182 456.105 140.461Z" stroke="#8CCBFE" stroke-linecap="round" stroke-linejoin="round"/>
<path d="M451.488 140.461C451.488 141.74 452.522 142.777 453.797 142.777C455.072 142.777 456.106 141.74 456.106 140.461C456.106 139.182 455.072 138.146 453.797 138.146C452.522 138.146 451.488 139.182 451.488 140.461Z" stroke="#8CCBFE" stroke-linecap="round" stroke-linejoin="round"/>
<path d="M446.868 140.461C446.868 141.74 447.902 142.777 449.178 142.777C450.453 142.777 451.487 141.74 451.487 140.461C451.487 139.182 450.453 138.146 449.178 138.146C447.902 138.146 446.868 139.182 446.868 140.461Z" stroke="#8CCBFE" stroke-linecap="round" stroke-linejoin="round"/>
<path d="M458.414 136.444C458.414 137.723 459.448 138.76 460.724 138.76C461.999 138.76 463.033 137.723 463.033 136.444C463.033 135.165 461.999 134.128 460.724 134.128C459.448 134.128 458.414 135.165 458.414 136.444Z" stroke="#8CCBFE" stroke-linecap="round" stroke-linejoin="round"/>
<path d="M444.56 136.444C444.56 137.723 445.594 138.76 446.869 138.76C448.145 138.76 449.179 137.723 449.179 136.444C449.179 135.165 448.145 134.128 446.869 134.128C445.594 134.128 444.56 135.165 444.56 136.444Z" stroke="#8CCBFE" stroke-linecap="round" stroke-linejoin="round"/>
<path d="M453.795 136.444C453.795 137.723 454.829 138.76 456.105 138.76C457.38 138.76 458.414 137.723 458.414 136.444C458.414 135.165 457.38 134.128 456.105 134.128C454.829 134.128 453.795 135.165 453.795 136.444Z" stroke="#8CCBFE" stroke-linecap="round" stroke-linejoin="round"/>
<path d="M449.178 136.444C449.178 137.723 450.212 138.76 451.487 138.76C452.763 138.76 453.797 137.723 453.797 136.444C453.797 135.165 452.763 134.128 451.487 134.128C450.212 134.128 449.178 135.165 449.178 136.444Z" stroke="#8CCBFE" stroke-linecap="round" stroke-linejoin="round"/>
<path d="M458.414 128.47C458.414 129.749 459.448 130.785 460.724 130.785C461.999 130.785 463.033 129.749 463.033 128.47C463.033 127.191 461.999 126.154 460.724 126.154C459.448 126.154 458.414 127.191 458.414 128.47Z" stroke="#8CCBFE" stroke-linecap="round" stroke-linejoin="round"/>
<path d="M444.56 128.47C444.56 129.749 445.594 130.785 446.869 130.785C448.145 130.785 449.179 129.749 449.179 128.47C449.179 127.191 448.145 126.154 446.869 126.154C445.594 126.154 444.56 127.191 444.56 128.47Z" stroke="#8CCBFE" stroke-linecap="round" stroke-linejoin="round"/>
<path d="M453.795 128.47C453.795 129.749 454.829 130.785 456.105 130.785C457.38 130.785 458.414 129.749 458.414 128.47C458.414 127.191 457.38 126.154 456.105 126.154C454.829 126.154 453.795 127.191 453.795 128.47Z" stroke="#8CCBFE" stroke-linecap="round" stroke-linejoin="round"/>
<path d="M449.178 128.47C449.178 129.749 450.212 130.785 451.487 130.785C452.763 130.785 453.797 129.749 453.797 128.47C453.797 127.191 452.763 126.154 451.487 126.154C450.212 126.154 449.178 127.191 449.178 128.47Z" stroke="#8CCBFE" stroke-linecap="round" stroke-linejoin="round"/>
<path d="M465.626 149.37H476.56C483.095 149.37 488.392 154.682 488.392 161.234V172.198C488.392 178.75 483.095 184.061 476.56 184.061H465.626C459.092 184.061 453.795 178.75 453.795 172.198V161.234C453.795 154.682 459.092 149.37 465.626 149.37Z" stroke="#8CCBFE" stroke-linecap="round" stroke-linejoin="round"/>
<path d="M466.425 151.904H475.763C481.342 151.904 485.864 156.439 485.864 162.033V171.396C485.864 176.99 481.342 181.525 475.763 181.525H466.425C460.847 181.525 456.324 176.99 456.324 171.396V162.033C456.324 156.439 460.847 151.904 466.425 151.904Z" stroke="#8CCBFE" stroke-linecap="round" stroke-linejoin="round"/>
<path d="M413.732 115.334H424.667C431.201 115.334 436.498 120.646 436.498 127.198V138.162C436.498 144.714 431.201 150.025 424.667 150.025H413.732C407.198 150.025 401.901 144.714 401.901 138.162V127.198C401.901 120.646 407.198 115.334 413.732 115.334Z" stroke="#8CCBFE" stroke-linecap="round" stroke-linejoin="round"/>
<path d="M414.532 117.868H423.869C429.448 117.868 433.971 122.403 433.971 127.997V137.36C433.971 142.954 429.448 147.489 423.869 147.489H414.532C408.953 147.489 404.43 142.954 404.43 137.36V127.997C404.43 122.403 408.953 117.868 414.532 117.868Z" stroke="#8CCBFE" stroke-linecap="round" stroke-linejoin="round"/>
<path d="M422.076 123.551H416.321C412.886 123.551 410.096 126.348 410.096 129.794V135.564C410.096 139.009 412.886 141.806 416.321 141.806H422.076C425.512 141.806 428.302 139.009 428.302 135.564V129.794C428.302 126.348 425.512 123.551 422.076 123.551Z" stroke="#8CCBFE" stroke-linecap="round" stroke-linejoin="round"/>
<path d="M426.285 140.164C426.285 140.164 421.311 128.183 411.752 125.592" stroke="#8CCBFE" stroke-linecap="round" stroke-linejoin="round"/>
<path d="M419.201 141.851C419.201 141.851 416.269 134.368 410.257 132.883" stroke="#8CCBFE" stroke-linecap="round" stroke-linejoin="round"/>
<path d="M428.304 131.865C428.304 131.865 426.683 125.592 420.043 123.551" stroke="#8CCBFE" stroke-linecap="round" stroke-linejoin="round"/>
<path d="M428.202 136.681C428.202 136.681 423.817 125.981 414.729 123.757" stroke="#8CCBFE" stroke-linecap="round" stroke-linejoin="round"/>
<path d="M423.103 141.721C423.103 141.721 419.463 130.56 410.098 129.077" stroke="#8CCBFE" stroke-linecap="round" stroke-linejoin="round"/>
<path d="M415.292 141.721C415.292 141.721 413.868 137.63 410.197 136.295" stroke="#8CCBFE" stroke-linecap="round" stroke-linejoin="round"/>
<path d="M430.925 149.37H441.859C448.393 149.37 453.69 154.682 453.69 161.234V172.198C453.69 178.75 448.393 184.061 441.859 184.061H430.925C424.39 184.061 419.093 178.75 419.093 172.198V161.234C419.093 154.682 424.39 149.37 430.925 149.37Z" stroke="#8CCBFE" stroke-linecap="round" stroke-linejoin="round"/>
<path d="M431.724 151.904H441.062C446.64 151.904 451.163 156.439 451.163 162.033V171.396C451.163 176.99 446.64 181.525 441.062 181.525H431.724C426.145 181.525 421.623 176.99 421.623 171.396V162.033C421.623 156.439 426.145 151.904 431.724 151.904Z" stroke="#8CCBFE" stroke-linecap="round" stroke-linejoin="round"/>
<path d="M433.516 157.587H439.27C442.709 157.587 445.496 160.382 445.496 163.829V169.6C445.496 173.047 442.709 175.842 439.27 175.842H433.516C430.077 175.842 427.29 173.047 427.29 169.6V163.829C427.29 160.382 430.077 157.587 433.516 157.587Z" stroke="#8CCBFE" stroke-linecap="round" stroke-linejoin="round"/>
<path d="M436.474 164.081C434.434 162.176 431.831 160.41 428.947 159.627" stroke="#8CCBFE" stroke-linecap="round" stroke-linejoin="round"/>
<path d="M436.394 175.887C436.394 175.887 433.462 168.404 427.449 166.918" stroke="#8CCBFE" stroke-linecap="round" stroke-linejoin="round"/>
<path d="M436.717 159.931C435.342 159.044 433.624 158.211 431.92 157.796" stroke="#8CCBFE" stroke-linecap="round" stroke-linejoin="round"/>
<path d="M436.394 168.776C434.314 166.169 431.389 163.763 427.291 163.113" stroke="#8CCBFE" stroke-linecap="round" stroke-linejoin="round"/>
<path d="M432.486 175.757C432.486 175.757 431.062 171.666 427.392 170.331" stroke="#8CCBFE" stroke-linecap="round" stroke-linejoin="round"/>
<path d="M436.393 175.842H439.27C442.709 175.842 445.496 173.047 445.496 169.6V163.829C445.496 160.382 442.709 157.587 439.27 157.587H436.32" stroke="#8CCBFE" stroke-linecap="round" stroke-linejoin="round"/>
<path d="M442.872 158.738C442.872 158.738 441.694 168.394 442.872 174.734" stroke="#8CCBFE" stroke-linecap="round" stroke-linejoin="round"/>
<path d="M439.772 157.701C439.772 157.701 438.594 168.61 439.772 175.771" stroke="#8CCBFE" stroke-linecap="round" stroke-linejoin="round"/>
<path d="M436.916 157.701C436.916 157.701 435.738 168.61 436.916 175.771" stroke="#8CCBFE" stroke-linecap="round" stroke-linejoin="round"/>
</g>
</g>
</g>
<defs>
<filter id="filter0_d_2380_29783" x="0" y="0" width="462" height="648" filterUnits="userSpaceOnUse" color-interpolation-filters="sRGB">
<feFlood flood-opacity="0" result="BackgroundImageFix"/>
<feColorMatrix in="SourceAlpha" type="matrix" values="0 0 0 0 0 0 0 0 0 0 0 0 0 0 0 0 0 0 127 0" result="hardAlpha"/>
<feOffset dy="2"/>
<feGaussianBlur stdDeviation="2"/>
<feComposite in2="hardAlpha" operator="out"/>
<feColorMatrix type="matrix" values="0 0 0 0 0.124545 0 0 0 0 0.141938 0 0 0 0 0.157039 0 0 0 0.5 0"/>
<feBlend mode="normal" in2="BackgroundImageFix" result="effect1_dropShadow_2380_29783"/>
<feBlend mode="normal" in="SourceGraphic" in2="effect1_dropShadow_2380_29783" result="shape"/>
</filter>
<clipPath id="clip0_2380_29783">
<rect x="4" y="2" width="454" height="640" rx="12" fill="white"/>
</clipPath>
<clipPath id="clip1_2380_29783">
<rect width="82" height="75" fill="white" transform="translate(35 24)"/>
</clipPath>
<clipPath id="clip2_2380_29783">
<rect width="115" height="92" fill="white" transform="matrix(-1 0 0 1 494 115)"/>
</clipPath>
</defs>
</svg>
