<svg width="260" height="348" viewBox="0 0 260 348" fill="none" xmlns="http://www.w3.org/2000/svg">
<rect width="260" height="348" rx="12" fill="#F7F3E7"/>
<g opacity="0.5" clip-path="url(#clip0_2374_8655)">
<path d="M42.787 272.355C42.787 272.355 26.2861 276.052 18.7044 263.001C16.0793 257.78 19.2878 255.894 22.4942 256.764C25.7027 257.634 30.2609 259.459 30.2609 259.459C30.2609 259.459 36.6819 268.365 42.785 272.355H42.787Z" stroke="#00579F" stroke-width="0.75" stroke-linecap="round" stroke-linejoin="round"/>
<path d="M35.3904 265.838C35.3904 265.838 25.0287 265.043 19.7041 258.823" stroke="#00579F" stroke-width="0.75" stroke-linecap="round" stroke-linejoin="round"/>
<path d="M32.4872 262.33C32.4872 262.33 26.8085 261.498 21.502 258.101" stroke="#00579F" stroke-width="0.75" stroke-linecap="round" stroke-linejoin="round"/>
<path d="M38.5881 269.093C38.5881 269.093 28.1139 271.046 19.792 261.644" stroke="#00579F" stroke-width="0.75" stroke-linecap="round" stroke-linejoin="round"/>
<path d="M64.4236 250.317C65.0854 250.819 60.1128 230.512 49.1779 232.109C42.1796 233.27 50.4593 242.958 50.757 243.12" stroke="#00579F" stroke-width="0.75" stroke-linecap="round" stroke-linejoin="round"/>
<path d="M57.0168 246.225C57.0168 246.225 54.2448 239.184 49.7852 233.209" stroke="#00579F" stroke-width="0.75" stroke-linecap="round" stroke-linejoin="round"/>
<path d="M48.083 234.242C48.083 234.242 51.6133 240.965 53.7597 244.597" stroke="#00579F" stroke-width="0.75" stroke-linecap="round" stroke-linejoin="round"/>
<path d="M52.4404 233.584C52.4404 233.584 59.2335 241.173 61.221 248.244" stroke="#00579F" stroke-width="0.75" stroke-linecap="round" stroke-linejoin="round"/>
<path d="M20.2848 235.179C20.2848 235.179 15.1674 230.188 13.6366 231.275C12.1058 232.363 15.1292 241.245 22.3648 244.146" stroke="#00579F" stroke-width="0.75" stroke-linecap="round" stroke-linejoin="round"/>
<path d="M38.5944 234.756C39.2562 235.32 39.8838 222.139 36.3837 222.139C32.8836 222.139 33.473 229.038 33.473 229.038" stroke="#00579F" stroke-width="0.75" stroke-linecap="round" stroke-linejoin="round"/>
<path d="M74.7321 273.417C75.2792 268.397 75.7278 255.261 59.7981 247.668C43.8685 240.077 30.4271 232.648 26.9431 213.007C26.1143 205.744 21.1357 208.715 20.9707 213.007C20.8038 217.299 13.8759 241.826 34.2451 264.339C50.6736 282.495 63.0569 280.338 68.4278 279.194C72.7969 278.263 74.3861 276.589 74.7321 273.417Z" stroke="#00579F" stroke-width="0.75" stroke-linecap="round" stroke-linejoin="round"/>
<path d="M20.9689 213.009C20.9689 213.009 6.06519 204.483 11.1223 198.753C15.8394 193.411 18.8809 204.938 23.4734 204.72C28.0658 204.501 28.629 195.806 34.3057 197.232C39.0128 198.415 35.1083 208.771 26.9433 213.007" stroke="#00579F" stroke-width="0.75" stroke-linecap="round" stroke-linejoin="round"/>
<path d="M43.3454 253.765C43.3454 253.765 34.1606 256.62 30.9521 251.109C27.7437 245.597 32.1631 240.059 32.1631 240.059C32.1631 240.059 38.2521 249.801 43.3454 253.765Z" stroke="#00579F" stroke-width="0.75" stroke-linecap="round" stroke-linejoin="round"/>
<path d="M73.0283 260.477C73.0444 260.515 66.2352 261.722 61.2767 256.56C56.3202 251.397 56.3242 245.877 56.3242 245.877" stroke="#00579F" stroke-width="0.75" stroke-linecap="round" stroke-linejoin="round"/>
<path d="M20.7945 237.634C20.7945 237.634 26.5798 231.529 24.6829 224.714C22.788 217.897 20.6074 215.868 20.6074 215.868" stroke="#00579F" stroke-width="0.75" stroke-linecap="round" stroke-linejoin="round"/>
<path d="M60.1121 261.986C60.1121 261.986 49.9054 261.986 39.5538 249.805C31.8857 240.781 28.1804 234.576 26.5771 226.311C30.0773 233.126 37.8037 239.166 46.2604 244.268C54.7171 249.371 59.3819 255.461 60.1121 261.988V261.986Z" stroke="#00579F" stroke-width="0.75" stroke-linecap="round" stroke-linejoin="round"/>
<path d="M20.4219 236.465C20.4219 236.465 17.5575 233.416 15.1094 232.019" stroke="#00579F" stroke-width="0.75" stroke-linecap="round" stroke-linejoin="round"/>
<path d="M21.9869 242.932C21.9466 242.798 16.632 239.851 14.1377 234.566" stroke="#00579F" stroke-width="0.75" stroke-linecap="round" stroke-linejoin="round"/>
<path d="M21.1182 239.64C21.1182 239.64 15.2927 234.53 13.7236 232.019" stroke="#00579F" stroke-width="0.75" stroke-linecap="round" stroke-linejoin="round"/>
<path d="M35.877 232.021C35.885 231.625 36.3939 226.171 36.2632 222.923" stroke="#00579F" stroke-width="0.75" stroke-linecap="round" stroke-linejoin="round"/>
<path d="M34.2178 230.034C34.2178 230.034 34.6543 225.618 34.8997 223.657" stroke="#00579F" stroke-width="0.75" stroke-linecap="round" stroke-linejoin="round"/>
<path d="M37.3652 233.584C37.3652 233.584 38.0029 229.09 37.7957 224.822" stroke="#00579F" stroke-width="0.75" stroke-linecap="round" stroke-linejoin="round"/>
<path d="M25.3467 209.017C29.8969 207.37 34.2157 198.4 34.2157 198.4" stroke="#00579F" stroke-width="0.75" stroke-linecap="round" stroke-linejoin="round"/>
<path d="M12.7295 199.747C12.7295 199.747 18.0521 207.903 22.8216 209.123" stroke="#00579F" stroke-width="0.75" stroke-linecap="round" stroke-linejoin="round"/>
<path d="M14.2842 198.651C14.2842 198.651 19.8502 206.582 23.813 206.582C27.4741 206.582 32.4386 197.802 32.4386 197.802" stroke="#00579F" stroke-width="0.75" stroke-linecap="round" stroke-linejoin="round"/>
<path d="M26.6699 211.462C31.9845 208.935 35.5007 199.399 35.5007 199.399" stroke="#00579F" stroke-width="0.75" stroke-linecap="round" stroke-linejoin="round"/>
<path d="M11.124 201.294C11.1663 201.422 15.7265 209.211 21.2443 211.464" stroke="#00579F" stroke-width="0.75" stroke-linecap="round" stroke-linejoin="round"/>
<path d="M45.0395 255.241C45.0395 255.241 45.3412 247.36 39.1094 240.057" stroke="#00579F" stroke-width="0.75" stroke-linecap="round" stroke-linejoin="round"/>
<path d="M37.1278 246.874C37.1278 246.874 34.217 239.891 32.0586 233.584" stroke="#00579F" stroke-width="0.75" stroke-linecap="round" stroke-linejoin="round"/>
<path d="M40.964 251.389C40.964 251.389 39.5177 244.264 35.6836 236.887" stroke="#00579F" stroke-width="0.75" stroke-linecap="round" stroke-linejoin="round"/>
<path d="M32.0571 239.892C32.0571 239.892 29.5909 234.084 28.9492 230.036" stroke="#00579F" stroke-width="0.75" stroke-linecap="round" stroke-linejoin="round"/>
<path d="M50.266 258.823C50.266 258.823 48.699 249.827 43.833 242.932" stroke="#00579F" stroke-width="0.75" stroke-linecap="round" stroke-linejoin="round"/>
<path d="M54.4275 260.627C54.4275 260.627 53.7496 252.476 48.083 245.421" stroke="#00579F" stroke-width="0.75" stroke-linecap="round" stroke-linejoin="round"/>
<path d="M58.8593 261.872C58.8593 261.872 58.7427 257.018 54.1221 250.877" stroke="#00579F" stroke-width="0.75" stroke-linecap="round" stroke-linejoin="round"/>
<path d="M63.7995 275.532C62.4316 275.594 61.3514 276.254 61.3876 277.007C61.4218 277.759 62.5583 278.319 63.9262 278.257C65.2941 278.195 66.3743 277.535 66.3381 276.783C66.3039 276.03 65.1674 275.47 63.7995 275.532Z" stroke="#00579F" stroke-width="0.75" stroke-linecap="round" stroke-linejoin="round"/>
<path d="M73.1995 267.327C72.9803 265.984 72.1958 264.992 71.4474 265.114C70.7012 265.234 70.2727 266.422 70.4919 267.765C70.7112 269.109 71.4957 270.1 72.244 269.978C72.9923 269.856 73.4188 268.669 73.1995 267.327Z" stroke="#00579F" stroke-width="0.75" stroke-linecap="round" stroke-linejoin="round"/>
<path d="M55.3991 278.982C55.3991 278.982 58.7966 268.433 52.7659 264.299C46.7332 260.166 38.5582 259.327 34.5732 264.299" stroke="#00579F" stroke-width="0.75" stroke-linecap="round" stroke-linejoin="round"/>
</g>
<g opacity="0.5" clip-path="url(#clip1_2374_8655)">
<path d="M217.213 22.6453C217.213 22.6453 233.714 18.9477 241.295 31.9994C243.921 37.2196 240.712 39.1065 237.506 38.2361C234.297 37.3657 229.739 35.5409 229.739 35.5409C229.739 35.5409 223.32 26.635 217.215 22.6453H217.213Z" stroke="#00579F" stroke-width="0.75" stroke-linecap="round" stroke-linejoin="round"/>
<path d="M224.61 29.1621C224.61 29.1621 234.972 29.9565 240.297 36.1772" stroke="#00579F" stroke-width="0.75" stroke-linecap="round" stroke-linejoin="round"/>
<path d="M227.511 32.6694C227.511 32.6694 233.189 33.5018 238.496 36.8993" stroke="#00579F" stroke-width="0.75" stroke-linecap="round" stroke-linejoin="round"/>
<path d="M221.411 25.9084C221.411 25.9084 231.885 23.9556 240.207 33.3577" stroke="#00579F" stroke-width="0.75" stroke-linecap="round" stroke-linejoin="round"/>
<path d="M195.575 44.683C194.913 44.1808 199.886 64.4876 210.821 62.8909C217.819 61.7304 209.539 52.0422 209.241 51.8801" stroke="#00579F" stroke-width="0.75" stroke-linecap="round" stroke-linejoin="round"/>
<path d="M202.983 48.7744C202.983 48.7744 205.755 55.8155 210.215 61.7901" stroke="#00579F" stroke-width="0.75" stroke-linecap="round" stroke-linejoin="round"/>
<path d="M211.917 60.7578C211.917 60.7578 208.387 54.0349 206.24 50.4033" stroke="#00579F" stroke-width="0.75" stroke-linecap="round" stroke-linejoin="round"/>
<path d="M207.558 61.4162C207.558 61.4162 200.765 53.8269 198.777 46.7559" stroke="#00579F" stroke-width="0.75" stroke-linecap="round" stroke-linejoin="round"/>
<path d="M239.713 59.8214C239.713 59.8214 244.83 64.8116 246.361 63.7251C247.892 62.6366 244.868 53.7548 237.633 50.8535" stroke="#00579F" stroke-width="0.75" stroke-linecap="round" stroke-linejoin="round"/>
<path d="M221.406 60.2437C220.744 59.6794 220.116 72.8612 223.616 72.8612C227.116 72.8612 226.527 65.9622 226.527 65.9622" stroke="#00579F" stroke-width="0.75" stroke-linecap="round" stroke-linejoin="round"/>
<path d="M185.265 21.5829C184.72 26.603 184.27 39.7387 200.201 47.33C216.131 54.9213 229.572 62.3505 233.056 81.9911C233.885 89.2542 238.864 86.2829 239.029 81.9911C239.196 77.6992 246.124 53.1726 225.754 30.6588C209.326 12.5049 196.943 14.6619 191.572 15.8064C187.203 16.7368 185.611 18.4115 185.265 21.5829Z" stroke="#00579F" stroke-width="0.75" stroke-linecap="round" stroke-linejoin="round"/>
<path d="M239.029 81.9932C239.029 81.9932 253.935 90.5189 248.876 96.2473C244.159 101.59 241.117 90.0627 236.525 90.2808C231.932 90.4988 231.369 99.1946 225.692 97.768C220.985 96.5855 224.89 86.229 233.055 81.9932" stroke="#00579F" stroke-width="0.75" stroke-linecap="round" stroke-linejoin="round"/>
<path d="M216.654 41.2375C216.654 41.2375 225.839 38.3823 229.048 43.8927C232.256 49.4051 227.837 54.9435 227.837 54.9435C227.837 54.9435 221.748 45.2013 216.654 41.2375Z" stroke="#00579F" stroke-width="0.75" stroke-linecap="round" stroke-linejoin="round"/>
<path d="M186.97 34.5226C186.954 34.4846 193.763 33.2781 198.721 38.4403C203.678 43.6026 203.674 49.123 203.674 49.123" stroke="#00579F" stroke-width="0.75" stroke-linecap="round" stroke-linejoin="round"/>
<path d="M239.206 57.3662C239.206 57.3662 233.421 63.4709 235.318 70.2858C237.212 77.1028 239.393 79.1316 239.393 79.1316" stroke="#00579F" stroke-width="0.75" stroke-linecap="round" stroke-linejoin="round"/>
<path d="M199.886 33.0157C199.886 33.0157 210.092 33.0157 220.444 45.197C228.112 54.2209 231.817 60.4256 233.421 68.6911C229.921 61.8762 222.194 55.8356 213.737 50.7334C205.281 45.6311 200.616 39.5405 199.886 33.0137V33.0157Z" stroke="#00579F" stroke-width="0.75" stroke-linecap="round" stroke-linejoin="round"/>
<path d="M239.578 58.5347C239.578 58.5347 242.443 61.584 244.891 62.9806" stroke="#00579F" stroke-width="0.75" stroke-linecap="round" stroke-linejoin="round"/>
<path d="M238.011 52.0684C238.051 52.2024 243.366 55.1497 245.86 60.434" stroke="#00579F" stroke-width="0.75" stroke-linecap="round" stroke-linejoin="round"/>
<path d="M238.88 55.3594C238.88 55.3594 244.705 60.4696 246.274 62.9807" stroke="#00579F" stroke-width="0.75" stroke-linecap="round" stroke-linejoin="round"/>
<path d="M224.122 62.9805C224.114 63.3766 223.605 68.831 223.735 72.0784" stroke="#00579F" stroke-width="0.75" stroke-linecap="round" stroke-linejoin="round"/>
<path d="M225.783 64.9658C225.783 64.9658 225.346 69.3817 225.101 71.3426" stroke="#00579F" stroke-width="0.75" stroke-linecap="round" stroke-linejoin="round"/>
<path d="M222.635 61.416C222.635 61.416 221.997 65.91 222.204 70.1778" stroke="#00579F" stroke-width="0.75" stroke-linecap="round" stroke-linejoin="round"/>
<path d="M234.651 85.9829C230.101 87.6296 225.782 96.5995 225.782 96.5995" stroke="#00579F" stroke-width="0.75" stroke-linecap="round" stroke-linejoin="round"/>
<path d="M247.268 95.253C247.268 95.253 241.945 87.0975 237.176 85.877" stroke="#00579F" stroke-width="0.75" stroke-linecap="round" stroke-linejoin="round"/>
<path d="M245.713 96.3514C245.713 96.3514 240.147 88.4199 236.184 88.4199C232.523 88.4199 227.559 97.1997 227.559 97.1997" stroke="#00579F" stroke-width="0.75" stroke-linecap="round" stroke-linejoin="round"/>
<path d="M233.33 83.54C228.015 86.0671 224.499 95.6033 224.499 95.6033" stroke="#00579F" stroke-width="0.75" stroke-linecap="round" stroke-linejoin="round"/>
<path d="M248.873 93.7061C248.831 93.578 244.271 85.7886 238.753 83.5356" stroke="#00579F" stroke-width="0.75" stroke-linecap="round" stroke-linejoin="round"/>
<path d="M214.96 39.7607C214.96 39.7607 214.659 47.6422 220.89 54.9453" stroke="#00579F" stroke-width="0.75" stroke-linecap="round" stroke-linejoin="round"/>
<path d="M222.872 48.1265C222.872 48.1265 225.783 55.1095 227.941 61.4162" stroke="#00579F" stroke-width="0.75" stroke-linecap="round" stroke-linejoin="round"/>
<path d="M219.034 43.6104C219.034 43.6104 220.481 50.7354 224.315 58.1126" stroke="#00579F" stroke-width="0.75" stroke-linecap="round" stroke-linejoin="round"/>
<path d="M227.941 55.1094C227.941 55.1094 230.408 60.9179 231.049 64.9656" stroke="#00579F" stroke-width="0.75" stroke-linecap="round" stroke-linejoin="round"/>
<path d="M209.732 36.1772C209.732 36.1772 211.299 45.1731 216.165 52.0681" stroke="#00579F" stroke-width="0.75" stroke-linecap="round" stroke-linejoin="round"/>
<path d="M205.57 34.3745C205.57 34.3745 206.248 42.526 211.915 49.5811" stroke="#00579F" stroke-width="0.75" stroke-linecap="round" stroke-linejoin="round"/>
<path d="M201.141 33.1279C201.141 33.1279 201.257 37.982 205.878 44.1227" stroke="#00579F" stroke-width="0.75" stroke-linecap="round" stroke-linejoin="round"/>
<path d="M196.199 19.4682C197.567 19.4061 198.647 18.7458 198.611 17.9935C198.576 17.2412 197.44 16.6809 196.072 16.743C194.704 16.805 193.624 17.4653 193.66 18.2176C193.694 18.9699 194.831 19.5302 196.199 19.4682Z" stroke="#00579F" stroke-width="0.75" stroke-linecap="round" stroke-linejoin="round"/>
<path d="M186.801 27.6735C187.02 29.0161 187.804 30.0085 188.553 29.8865C189.299 29.7664 189.728 28.5779 189.508 27.2353C189.289 25.8908 188.505 24.9003 187.756 25.0224C187.008 25.1444 186.581 26.3309 186.801 27.6735Z" stroke="#00579F" stroke-width="0.75" stroke-linecap="round" stroke-linejoin="round"/>
<path d="M204.601 16.0205C204.601 16.0205 201.204 26.5691 207.234 30.7029C213.267 34.8367 221.442 35.675 225.427 30.7029" stroke="#00579F" stroke-width="0.75" stroke-linecap="round" stroke-linejoin="round"/>
</g>
<defs>
<clipPath id="clip0_2374_8655">
<rect width="65" height="83" fill="white" transform="translate(10 197)"/>
</clipPath>
<clipPath id="clip1_2374_8655">
<rect width="65" height="83" fill="white" transform="translate(185 15)"/>
</clipPath>
</defs>
</svg>
