<svg width="260" height="348" viewBox="0 0 260 348" fill="none" xmlns="http://www.w3.org/2000/svg">
<rect width="260" height="348" rx="12" fill="#F7F3E7"/>
<g opacity="0.3" clip-path="url(#clip0_2374_8787)">
<path d="M69.8009 15.5844C72.542 18.3255 74.0459 21.2703 73.1581 22.1629C72.2703 23.0507 69.3255 21.5517 66.5796 18.8057C63.8385 16.0598 62.3394 13.115 63.2273 12.2272C64.1151 11.3394 67.0599 12.8385 69.8058 15.5844H69.8009Z" stroke="#00579F" stroke-width="2" stroke-linecap="round" stroke-linejoin="round"/>
<path d="M81.4205 27.1987C84.1616 29.9397 85.6655 32.8845 84.7777 33.7772C83.8899 34.665 80.9451 33.1659 78.1992 30.42C75.4581 27.679 73.9542 24.7341 74.842 23.8415C75.7298 22.9537 78.6746 24.4528 81.4205 27.1987Z" stroke="#00579F" stroke-width="2" stroke-linecap="round" stroke-linejoin="round"/>
<path d="M81.42 18.8009C78.679 21.542 75.7341 23.0459 74.8415 22.1581C73.9537 21.2703 75.4528 18.3255 78.1987 15.5796C80.9397 12.8385 83.8845 11.3346 84.7772 12.2224C85.665 13.1102 84.1659 16.055 81.42 18.8009Z" stroke="#00579F" stroke-width="2" stroke-linecap="round" stroke-linejoin="round"/>
<path d="M69.8057 30.4201C67.0647 33.1611 64.1199 34.665 63.2272 33.7772C62.3394 32.8894 63.8385 29.9446 66.5844 27.1987C69.3255 24.4576 72.2703 22.9537 73.1629 23.8415C74.0507 24.7293 72.5517 27.6741 69.8057 30.4201Z" stroke="#00579F" stroke-width="2" stroke-linecap="round" stroke-linejoin="round"/>
</g>
<g opacity="0.3" clip-path="url(#clip1_2374_8787)">
<path d="M55.8289 51.096C55.6571 47.5696 55.8853 46.9626 54.0374 44.079C52.2594 41.3053 49.4371 39.0794 46.1462 38.9277C46.14 36.9844 45.9596 35.0423 45.6885 33.1199C45.6651 32.9571 45.5412 32.8954 45.4124 32.9077C45.2271 32.8559 39.0942 32.6609 34.6155 32.73C35.0131 8.57855 33.1025 -10.6091 33.597 12.232C33.9467 28.3918 33.1209 30.1069 33.5516 32.7485C25.3365 32.9398 22.0394 32.7214 21.9756 33.474C21.821 35.289 21.6087 37.109 21.562 38.9314C12.7984 39.3373 9.68167 52.3459 10.0265 60.7188C11.1885 88.9926 7.81041 107.92 14.7445 113.218C16.6207 114.652 19.1791 115.519 21.5731 115.303C21.6835 118.985 21.6516 119.696 22.2774 119.849C22.4897 119.901 22.7891 120.092 23.1143 120.157C23.7094 120.277 33.4792 120.115 34.0952 120.105C33.9566 121.374 33.8989 127.372 34.1369 128.617C28.9624 130.213 29.549 151.916 29.9146 157.358C29.9563 157.974 30.8398 157.98 30.8717 157.358C31.2313 150.411 30.938 143.423 31.7245 136.5C32.0914 133.267 31.9307 133.804 32.2473 134.159C32.6362 134.595 33.0841 134.887 33.559 135.057C33.3614 136.465 32.1172 151.284 32.5565 157.359C32.6178 158.206 33.8449 158.222 33.8768 157.359C33.8977 156.804 34.4572 135.791 34.4388 135.236C34.9554 135.266 35.4793 135.176 35.9726 134.988C35.8094 137.134 36.1297 141.443 35.5027 151.412C35.2131 156.024 35.2732 156.768 35.4462 157.485C35.5333 157.848 36.1419 157.981 36.3039 157.597C37.4181 154.946 37.877 139.603 36.58 134.698C37.0745 134.413 37.515 134.028 37.8574 133.571C38.3752 142.311 38.4869 146.377 38.0095 157.358C37.9727 158.206 39.1949 158.159 39.2918 157.358C40.001 151.516 40.0219 137.493 38.5678 131.831C38.7899 129.915 37.2279 128.158 35.7272 128.01C35.7873 126.684 35.5076 122.125 35.0474 120.091C38.9752 120.028 42.4036 119.969 45.3363 119.965C46.6161 119.964 46.1498 118.703 46.1363 115.292C51.0568 115.585 55.3528 109.839 55.5847 107.947C58.4425 101.963 56.1504 57.649 55.8301 51.0947L55.8289 51.096ZM36.5653 131.625C36.5322 132.785 35.1959 133.907 34.0596 133.749C33.0044 133.601 31.9712 132.181 34.6854 129.821C35.0339 130.08 36.6033 130.298 36.5653 131.625ZM32.916 101.62C32.4816 101.664 32.4657 102.292 32.916 102.313C38.866 102.588 52.1955 102.345 54.6975 102.142C54.619 103.323 54.6889 102.149 54.2926 107.201C54.2926 107.215 13.0156 106.882 12.9996 106.882C12.9002 105.178 12.6659 105.35 12.3248 98.4328C16.4317 99.3064 25.5819 98.9461 54.8791 98.9128C54.8349 99.8209 54.7871 100.729 54.7306 101.637C54.7184 101.637 39.6182 100.935 32.9172 101.621L32.916 101.62ZM11.4719 58.319C16.6587 58.414 33.2449 57.9994 38.4083 57.4935C38.8525 57.4503 38.8734 56.7779 38.4083 56.7816C33.5516 56.8124 17.3716 57.4059 11.4756 58.2042C11.5578 56.1116 11.7689 54.6865 12.0744 53.1775C46.0296 51.6376 48.6334 52.1781 54.4435 51.7919C54.6006 54.7457 54.7429 57.702 54.8497 60.6583C47.0137 60.7694 22.5032 61.3222 11.4879 62.6226C11.4425 61.1803 11.4192 59.749 11.4707 58.3177L11.4719 58.319ZM11.8425 74.6577C11.8388 74.4639 26.2629 74.6527 32.5013 74.4701C32.9455 74.4565 32.9442 73.794 32.5013 73.7767C27.5832 73.5904 16.1949 73.8174 11.8352 74.2641C11.8155 73.2054 11.791 72.148 11.764 71.0894C11.7775 71.0894 50.2678 69.8407 55.0755 69.436C55.1245 72.0653 55.1613 74.6934 55.1834 77.3228C55.1675 77.3228 14.4758 78.0286 11.9002 78.258C11.883 77.0575 11.8658 75.857 11.8437 74.6564L11.8425 74.6577ZM54.9012 62.1686C54.9577 63.9503 54.9712 64.6412 54.9883 65.4136C50.4531 65.1323 36.2058 65.3433 32.9541 65.4654C32.5221 65.4815 32.5234 66.1194 32.9541 66.1391C38.2218 66.3871 49.3684 66.3156 54.9932 65.6246C55.019 66.7462 55.0423 67.8678 55.0644 68.9893C45.3976 68.7759 13.9408 69.837 11.7333 69.9937C11.6327 66.3625 11.5419 64.2402 11.4953 62.8484C16.347 62.8583 50.0531 62.3623 54.9012 62.1698V62.1686ZM54.9393 97.6074C53.1073 97.4852 12.3297 98.2811 12.3174 98.2811C12.2425 96.7486 12.1824 95.2162 12.1419 93.6812C12.1542 93.6812 39.9826 94.0477 44.7534 93.4369C45.1621 93.3851 45.1805 92.8138 44.7534 92.783C40.6784 92.4832 19.1423 92.7435 12.137 93.532C12.1014 92.1648 12.0793 91.005 12.0548 89.6379C25.5831 89.0296 41.6294 88.5447 55.1712 88.4472C55.1368 91.501 55.0693 94.556 54.9405 97.6074H54.9393ZM12.0352 88.557C11.9836 85.3428 11.9505 82.1287 11.9076 78.9145C17.0011 79.2859 48.9389 78.875 55.1908 78.7652C55.1994 80.1249 55.2018 81.4858 55.2006 82.8455C52.0274 82.5593 38.2132 82.4704 28.7919 82.811C28.1661 82.8332 28.1612 83.7931 28.7919 83.7931C28.8041 83.7931 55.1699 83.5809 55.1994 83.5797C55.1969 84.5902 55.1957 85.6624 55.1736 87.9043C37.2598 87.6242 25.3426 87.9216 12.0339 88.5558L12.0352 88.557ZM45.0823 33.6024C45.0565 34.0453 45.032 34.4883 45.005 34.9312C34.7345 34.5487 32.1405 34.9226 27.8335 34.9362C26.1586 34.9411 24.3831 34.7893 22.7228 35.136C22.686 34.6561 22.6419 34.1773 22.5915 33.6986C24.9414 33.9997 22.5915 33.3136 45.0811 33.6024H45.0823ZM15.1519 44.4368C16.7876 42.0876 19.3325 40.333 22.2566 40.3466C22.6259 40.3479 22.9756 40.0209 22.9609 39.6384C22.9106 38.3478 22.8578 37.0572 22.7707 35.7678C25.1193 36.0207 22.7707 35.3692 44.9633 35.6493C44.8835 36.9794 44.8001 38.3083 44.7228 39.6384C44.6283 41.2547 48.1941 38.9992 52.0741 43.8261C35.7689 43.4769 14.8611 44.8564 15.1531 44.4368H15.1519ZM14.8795 44.8477C23.8284 45.0612 31.2754 44.0938 52.0728 45.155C52.4054 45.1722 52.7232 45.2129 53.0128 45.1735C53.7171 46.3444 53.9527 47.0872 54.1944 47.7732C54.2398 48.1248 37.8991 47.7041 28.9268 48.0533C28.5833 48.0668 28.5808 48.5826 28.9268 48.5925C35.2192 48.7615 46.8983 48.7566 54.2312 48.1088C54.2987 49.0021 54.3711 50.4025 54.4349 51.5907C48.5782 51.2132 23.3707 51.3156 12.2867 52.204C12.8193 49.8535 13.5911 46.8811 14.8807 44.849L14.8795 44.8477ZM23.5008 118.653C23.4848 118.276 23.4677 117.898 23.4505 117.521C24.2137 117.579 38.5114 117.366 44.3755 117.287C44.3829 117.577 44.3927 117.867 44.405 118.157C38.9482 118.16 28.944 118.263 23.5008 118.653ZM54.0594 108.237C53.3747 110.217 50.2065 114.806 45.5105 113.474C44.3412 113.142 44.3915 114.685 44.3718 115.476C39.1826 115.479 28.6005 115.585 23.4259 115.977C23.1634 115.997 23.7523 113.001 22.1756 113.472C18.7864 114.485 15.4893 112.992 14.0365 110.757C17.0219 111.095 34.1676 110.875 37.6132 110.675C38.1421 110.644 38.1433 109.877 37.6132 109.847C33.1357 109.598 17.0833 109.821 13.8034 110.36C13.407 109.631 13.1665 108.822 13.0659 107.954C28.301 108.008 38.8341 108.853 50.1905 108.153C54.7184 107.874 54.3785 107.317 54.0594 108.236V108.237Z" fill="#00579F"/>
</g>
<g opacity="0.3">
<path d="M210.715 22.2941C208.966 24.0331 208.006 25.9015 208.573 26.4678C209.139 27.0311 211.018 26.08 212.77 24.3379C214.519 22.5988 215.479 20.7304 214.912 20.1641C214.346 19.6008 212.467 20.5519 210.715 22.2941Z" stroke="#00579F" stroke-linecap="round" stroke-linejoin="round"/>
<path d="M203.305 29.6632C201.556 31.4023 200.596 33.2706 201.163 33.837C201.729 34.4002 203.608 33.4491 205.36 31.707C207.109 29.9679 208.068 28.0996 207.502 27.5332C206.936 26.9699 205.057 27.921 203.305 29.6632Z" stroke="#00579F" stroke-linecap="round" stroke-linejoin="round"/>
<path d="M207.502 26.4656C208.069 25.9023 207.112 24.034 205.36 22.2918C203.611 20.5528 201.733 19.5986 201.163 20.1618C200.597 20.7251 201.553 22.5935 203.305 24.3356C205.054 26.0747 206.933 27.0289 207.502 26.4656Z" stroke="#00579F" stroke-linecap="round" stroke-linejoin="round"/>
<path d="M208.571 27.5329C208.005 28.0962 208.961 29.9646 210.713 31.7067C212.462 33.4458 214.341 34.4 214.91 33.8367C215.477 33.2734 214.52 31.4051 212.769 29.6629C211.02 27.9238 209.141 26.9697 208.571 27.5329Z" stroke="#00579F" stroke-linecap="round" stroke-linejoin="round"/>
</g>
<g opacity="0.3">
<path d="M244.18 47.4293C247.181 44.4454 248.823 41.2425 247.852 40.2775C246.876 39.3124 243.656 40.9452 240.66 43.929C237.659 46.9129 236.018 50.1158 236.988 51.0809C237.958 52.0459 241.179 50.4131 244.18 47.4293Z" stroke="#00579F" stroke-linecap="round" stroke-linejoin="round"/>
<path d="M231.477 60.0621C234.478 57.0783 236.12 53.8753 235.149 52.9103C234.179 51.9452 230.952 53.578 227.957 56.5618C224.956 59.5457 223.314 62.7486 224.285 63.7137C225.255 64.6787 228.482 63.046 231.477 60.0621Z" stroke="#00579F" stroke-linecap="round" stroke-linejoin="round"/>
<path d="M235.143 51.0809C236.114 50.1158 234.472 46.9129 231.471 43.929C228.47 40.9452 225.25 39.3124 224.279 40.2775C223.309 41.2477 224.95 44.4507 227.951 47.4293C230.952 50.4131 234.173 52.0459 235.143 51.0809Z" stroke="#00579F" stroke-linecap="round" stroke-linejoin="round"/>
<path d="M247.85 63.7137C248.821 62.7486 247.179 59.5457 244.178 56.5618C241.178 53.578 237.957 51.9452 236.986 52.9103C236.01 53.8753 237.658 57.0783 240.658 60.0621C243.659 63.046 246.88 64.6787 247.85 63.7137Z" stroke="#00579F" stroke-linecap="round" stroke-linejoin="round"/>
</g>
<g opacity="0.3">
<path d="M242.492 10.9465C240.242 13.1841 239.011 15.5861 239.739 16.3098C240.466 17.0335 242.882 15.809 245.132 13.5714C247.382 11.3337 248.614 8.93179 247.886 8.20807C247.154 7.48435 244.739 8.7088 242.492 10.9465Z" stroke="#00579F" stroke-linecap="round" stroke-linejoin="round"/>
<path d="M232.963 20.4206C230.713 22.6582 229.481 25.0602 230.209 25.7839C230.937 26.5076 233.356 25.2832 235.603 23.0455C237.853 20.8079 239.084 18.4059 238.357 17.6822C237.629 16.9546 235.209 18.1829 232.963 20.4206Z" stroke="#00579F" stroke-linecap="round" stroke-linejoin="round"/>
<path d="M238.36 16.3137C239.088 15.5899 237.857 13.188 235.607 10.9503C233.356 8.70877 230.941 7.48433 230.209 8.20804C229.481 8.93176 230.713 11.3376 232.963 13.5714C235.213 15.809 237.629 17.0335 238.357 16.3097L238.36 16.3137Z" stroke="#00579F" stroke-linecap="round" stroke-linejoin="round"/>
<path d="M239.742 17.6827C239.01 18.4064 240.246 20.8083 242.496 23.046C244.746 25.2836 247.161 26.5081 247.889 25.7844C248.617 25.0607 247.386 22.6587 245.135 20.4211C242.885 18.1834 240.47 16.959 239.742 17.6827Z" stroke="#00579F" stroke-linecap="round" stroke-linejoin="round"/>
</g>
<g opacity="0.3">
<path d="M234.053 233.201C230.08 237.151 227.907 241.391 229.192 242.668C230.476 243.946 234.74 241.784 238.712 237.834C242.684 233.885 244.858 229.645 243.573 228.367C242.281 227.09 238.018 229.251 234.053 233.201Z" stroke="#00579F" stroke-linecap="round" stroke-linejoin="round"/>
<path d="M217.23 249.922C213.258 253.872 211.085 258.112 212.369 259.39C213.654 260.667 217.925 258.506 221.89 254.556C225.862 250.606 228.035 246.366 226.751 245.089C225.466 243.804 221.195 245.973 217.23 249.922Z" stroke="#00579F" stroke-linecap="round" stroke-linejoin="round"/>
<path d="M226.758 242.675C228.042 241.398 225.869 237.158 221.897 233.208C217.925 229.251 213.661 227.09 212.369 228.367C211.085 229.645 213.258 233.891 217.23 237.834C221.202 241.784 225.466 243.946 226.751 242.668L226.758 242.675Z" stroke="#00579F" stroke-linecap="round" stroke-linejoin="round"/>
<path d="M229.196 245.092C227.905 246.369 230.085 250.609 234.057 254.559C238.029 258.509 242.293 260.67 243.578 259.393C244.862 258.115 242.689 253.875 238.717 249.926C234.745 245.976 230.481 243.814 229.196 245.092Z" stroke="#00579F" stroke-linecap="round" stroke-linejoin="round"/>
</g>
<defs>
<clipPath id="clip0_2374_8787">
<rect width="24" height="24" fill="white" transform="translate(62 11)"/>
</clipPath>
<clipPath id="clip1_2374_8787">
<rect width="47" height="156" fill="white" transform="translate(10 2)"/>
</clipPath>
</defs>
</svg>
