<svg width="260" height="348" viewBox="0 0 260 348" fill="none" xmlns="http://www.w3.org/2000/svg">
<rect width="260" height="348" rx="12" fill="#F7F3E7"/>
<g opacity="0.3" clip-path="url(#clip0_2374_8739)">
<path d="M43.2882 245.233C43.2882 245.233 37.853 247.71 35.2077 251.678C31.4141 257.365 34.135 265.508 34.135 265.508C34.135 265.508 39.9768 265.629 44.0826 259.062C39.9768 265.629 42.6221 270.864 42.6221 270.864C42.6221 270.864 50.9295 269.69 54.5543 263.891C57.6468 258.877 56.9037 254.264 56.9037 254.264C56.9037 254.264 56.5876 259.509 59.4639 263.94C63.1846 269.678 71.511 270.715 71.511 270.715C71.511 270.715 74.0685 265.435 69.8546 258.938C74.0671 265.435 79.9062 265.218 79.9062 265.218C79.9062 265.218 82.3502 257.129 78.6065 251.406C75.387 246.486 70.7139 245.233 70.7139 245.233C70.7139 245.233 74.1319 247.634 80.5412 245.313C86.9531 242.99 89.8659 235.083 89.8659 235.083C89.8659 235.083 85.3387 231.371 78.0796 234.001C85.34 231.371 86.4668 225.61 86.4668 225.61C86.4668 225.61 79.2402 221.495 72.7931 223.714C67.5538 225.517 65.1679 229.792 65.1679 229.792C65.1679 229.792 68.3766 226.441 68.3955 220.421C68.4171 213.573 61.9822 208.136 61.9822 208.136C61.9822 208.136 56.9713 211.157 56.9713 218.91C56.9699 211.157 51.9604 208.136 51.9604 208.136C51.9604 208.136 45.3877 213.575 45.5471 220.421C45.6808 226.195 48.9543 229.686 48.9543 229.686C48.9543 229.686 47.3885 226.114 40.9793 223.791C34.5687 221.468 27.5353 225.61 27.5353 225.61C27.5353 225.61 28.662 231.371 35.9224 234.001C28.662 231.371 24.1348 235.083 24.1348 235.083C24.1348 235.083 27.0476 242.99 33.4595 245.313C39.8687 247.634 43.2868 245.233 43.2868 245.233H43.2882Z" stroke="#00579F" stroke-width="2" stroke-linecap="round" stroke-linejoin="round"/>
<path d="M72.3279 235.988C71.8632 234.867 70.5824 234.339 69.4678 234.804C69.3503 234.853 69.2422 234.917 69.1368 234.984L69.1314 234.979C69.1314 234.979 69.1192 234.993 69.1125 234.997C69.0517 235.038 68.9963 235.085 68.9422 235.13C68.0425 235.813 63.9124 238.539 59.142 236.864C58.1273 235.36 56.6534 232.051 58.8677 227.41C58.9515 227.28 59.0177 227.139 59.073 226.991C59.0798 226.979 59.0839 226.968 59.0906 226.956C59.0879 226.956 59.0866 226.956 59.0852 226.956C59.2136 226.596 59.2568 226.202 59.1784 225.799C58.9447 224.61 57.795 223.834 56.6101 224.068C55.4253 224.303 54.6525 225.459 54.8876 226.649C54.9133 226.775 54.9524 226.895 54.997 227.01L54.993 227.013C54.993 227.013 55.0011 227.032 55.0065 227.037C55.0322 227.106 55.0686 227.169 55.1024 227.233C55.5955 228.273 57.5167 232.943 54.7403 237.37C52.9138 237.923 49.6146 238.223 45.983 235.195C45.8776 235.081 45.7588 234.982 45.6291 234.893C45.6196 234.884 45.6101 234.876 45.5993 234.867C45.5993 234.868 45.5993 234.871 45.5966 234.872C45.2805 234.66 44.9103 234.522 44.5037 234.502C43.2972 234.44 42.2691 235.373 42.2069 236.586C42.1461 237.797 43.0743 238.83 44.2794 238.891C44.4077 238.898 44.532 238.887 44.655 238.873V238.879C44.655 238.879 44.6752 238.875 44.6833 238.872C44.7549 238.862 44.8239 238.843 44.8941 238.826C45.9682 238.609 50.617 237.958 54.1689 241.196C54.0567 243.086 53.2029 246.397 48.9688 248.764C48.8256 248.824 48.6878 248.9 48.5608 248.988C48.5486 248.992 48.5392 248.999 48.5256 249.006C48.5283 249.008 48.531 249.01 48.531 249.01C48.2176 249.23 47.9555 249.526 47.7907 249.899C47.2949 251.005 47.7907 252.307 48.8931 252.803C49.9956 253.3 51.2885 252.803 51.783 251.695C51.8343 251.581 51.8708 251.459 51.9018 251.339H51.9059C51.9059 251.339 51.9086 251.319 51.9086 251.311C51.9262 251.239 51.9343 251.168 51.9424 251.096C52.1288 250.009 53.161 245.431 57.4897 243.291C59.1879 244.151 61.8129 246.226 62.3466 250.978C62.3452 251.134 62.3628 251.291 62.3952 251.443C62.3952 251.458 62.3979 251.468 62.3979 251.482C62.4006 251.482 62.402 251.482 62.4047 251.479C62.4871 251.853 62.6573 252.21 62.9356 252.508C63.7638 253.392 65.1472 253.434 66.0267 252.605C66.909 251.773 66.9508 250.381 66.124 249.497C66.0376 249.406 65.9403 249.325 65.8417 249.25L65.8444 249.246C65.8444 249.246 65.8254 249.235 65.8187 249.232C65.7606 249.188 65.6971 249.154 65.6363 249.118C64.696 248.518 60.8091 245.734 60.597 240.781C61.9777 239.484 64.8514 237.689 69.5164 238.876C69.6596 238.933 69.811 238.971 69.9677 238.995C69.9771 239 69.9906 239.002 70.0028 239.005C70.0028 239.004 70.0028 239.001 70.0041 239C70.3797 239.052 70.7742 239.017 71.1485 238.858C72.2631 238.393 72.7927 237.107 72.3293 235.986L72.3279 235.988Z" stroke="#00579F" stroke-width="2" stroke-linecap="round" stroke-linejoin="round"/>
<path d="M57.3494 242.238C58.647 242.238 59.6988 241.181 59.6988 239.877C59.6988 238.573 58.647 237.516 57.3494 237.516C56.0519 237.516 55 238.573 55 239.877C55 241.181 56.0519 242.238 57.3494 242.238Z" stroke="#00579F" stroke-width="2" stroke-linecap="round" stroke-linejoin="round"/>
<path d="M35.9227 234.001C35.9227 234.001 30.6834 230.426 29.9688 226.43C36.6225 223.274 44.8556 225.646 44.8556 225.646" stroke="#00579F" stroke-width="2" stroke-linecap="round" stroke-linejoin="round"/>
<path d="M37.0066 246.204C37.0066 246.204 29.2585 243.095 26.2188 235.797C28.9046 233.451 35.9218 234 35.9218 234" stroke="#00579F" stroke-width="2" stroke-linecap="round" stroke-linejoin="round"/>
<path d="M78.0775 234.001C78.0775 234.001 83.3721 230.426 84.0881 226.431C75.851 222.595 69.0459 225.666 69.0459 225.666" stroke="#00579F" stroke-width="2" stroke-linecap="round" stroke-linejoin="round"/>
<path d="M77.6777 246.096C77.6777 246.096 84.7976 243.095 87.8374 235.797C85.1516 233.451 78.0776 234 78.0776 234" stroke="#00579F" stroke-width="2" stroke-linecap="round" stroke-linejoin="round"/>
<path d="M56.9707 218.911C56.9707 218.911 58.4987 212.732 61.987 210.683C67.9748 215.556 67.8545 224.526 67.8545 224.526" stroke="#00579F" stroke-width="2" stroke-linecap="round" stroke-linejoin="round"/>
<path d="M46 223.797C46 223.797 46.1689 215.742 51.9431 210.365C55.0586 212.094 56.9703 218.91 56.9703 218.91" stroke="#00579F" stroke-width="2" stroke-linecap="round" stroke-linejoin="round"/>
<path d="M44.0814 259.062C44.0814 259.062 42.1427 265.131 44.026 268.723C51.204 267.097 56.1096 260.615 56.1096 260.615" stroke="#00579F" stroke-width="2" stroke-linecap="round" stroke-linejoin="round"/>
<path d="M37.2049 249.231C37.2049 249.231 33.2613 256.026 35.3351 263.659C38.8883 263.848 44.083 259.063 44.083 259.063" stroke="#00579F" stroke-width="2" stroke-linecap="round" stroke-linejoin="round"/>
<path d="M69.8537 258.937C69.8537 258.937 71.8802 264.912 70.1063 268.56C62.9702 267.67 57.7256 260.171 57.7256 260.171" stroke="#00579F" stroke-width="2" stroke-linecap="round" stroke-linejoin="round"/>
<path d="M76.1159 248.544C76.1159 248.544 80.4837 255.718 78.6409 263.409C75.0945 263.706 69.8525 258.937 69.8525 258.937" stroke="#00579F" stroke-width="2" stroke-linecap="round" stroke-linejoin="round"/>
</g>
<g opacity="0.3" clip-path="url(#clip1_2374_8739)">
<path d="M212.69 47.458C212.69 47.458 209.396 48.9525 207.793 51.3454C205.494 54.7758 207.143 59.6876 207.143 59.6876C207.143 59.6876 210.683 59.7605 213.172 55.7994C210.683 59.7605 212.286 62.9183 212.286 62.9183C212.286 62.9183 217.321 62.2099 219.518 58.7123C221.392 55.6881 220.942 52.9054 220.942 52.9054C220.942 52.9054 220.75 56.0689 222.494 58.7418C224.749 62.2025 229.795 62.8282 229.795 62.8282C229.795 62.8282 231.345 59.6434 228.791 55.7249C231.344 59.6434 234.883 59.5124 234.883 59.5124C234.883 59.5124 236.364 54.6333 234.095 51.1816C232.144 48.2139 229.312 47.458 229.312 47.458C229.312 47.458 231.383 48.9067 235.268 47.5063C239.154 46.1052 240.919 41.3358 240.919 41.3358C240.919 41.3358 238.175 39.0969 233.776 40.6831C238.176 39.0969 238.859 35.6223 238.859 35.6223C238.859 35.6223 234.479 33.1401 230.572 34.4782C227.397 35.5658 225.951 38.1445 225.951 38.1445C225.951 38.1445 227.895 36.1234 227.907 32.4924C227.92 28.3618 224.02 25.082 224.02 25.082C224.02 25.082 220.983 26.9041 220.983 31.5809C220.982 26.9041 217.946 25.082 217.946 25.082C217.946 25.082 213.963 28.3626 214.059 32.4924C214.14 35.9752 216.124 38.0806 216.124 38.0806C216.124 38.0806 215.175 35.9261 211.291 34.5249C207.406 33.1238 203.143 35.6223 203.143 35.6223C203.143 35.6223 203.826 39.0969 208.226 40.6831C203.826 39.0969 201.082 41.3358 201.082 41.3358C201.082 41.3358 202.847 46.1052 206.733 47.5063C210.618 48.9067 212.689 47.458 212.689 47.458H212.69Z" stroke="#00579F" stroke-width="2" stroke-linecap="round" stroke-linejoin="round"/>
<path d="M230.29 41.8821C230.008 41.2057 229.232 40.8871 228.557 41.168C228.485 41.1975 228.42 41.236 228.356 41.2761L228.353 41.2736C228.353 41.2736 228.345 41.2818 228.341 41.2843C228.304 41.3088 228.271 41.3375 228.238 41.3645C227.693 41.7764 225.19 43.4208 222.299 42.4103C221.684 41.5029 220.79 39.5072 222.132 36.7082C222.183 36.6296 222.223 36.5444 222.257 36.4552C222.261 36.4478 222.263 36.4412 222.267 36.4339C222.266 36.4339 222.265 36.4339 222.264 36.4339C222.342 36.2168 222.368 35.9794 222.321 35.7361C222.179 35.0188 221.482 34.5512 220.764 34.692C220.046 34.8337 219.578 35.5314 219.72 36.2488C219.736 36.3249 219.759 36.397 219.786 36.4666L219.784 36.4683C219.784 36.4683 219.789 36.4797 219.792 36.483C219.808 36.5248 219.83 36.5624 219.85 36.6009C220.149 37.2282 221.314 40.0453 219.631 42.7157C218.524 43.049 216.524 43.23 214.323 41.4038C214.26 41.3351 214.188 41.2753 214.109 41.2212C214.103 41.2163 214.097 41.2114 214.091 41.2057C214.091 41.2065 214.091 41.2081 214.089 41.2089C213.898 41.0812 213.673 40.9977 213.427 40.9854C212.696 40.9485 212.073 41.5111 212.035 42.2424C211.998 42.9729 212.561 43.5961 213.291 43.6329C213.369 43.637 213.444 43.6305 213.519 43.6223V43.6256C213.519 43.6256 213.531 43.6231 213.536 43.6215C213.579 43.6157 213.621 43.6043 213.664 43.5936C214.314 43.4626 217.132 43.0703 219.285 45.0234C219.217 46.1634 218.699 48.1607 216.133 49.5881C216.046 49.6241 215.963 49.6699 215.886 49.7232C215.878 49.7256 215.873 49.7297 215.864 49.7338C215.866 49.7355 215.868 49.7363 215.868 49.7363C215.678 49.8689 215.519 50.0475 215.419 50.2727C215.119 50.9401 215.419 51.7254 216.087 52.0243C216.755 52.324 217.539 52.0243 217.839 51.3561C217.87 51.2873 217.892 51.2136 217.911 51.1415H217.913C217.913 51.1415 217.915 51.1292 217.915 51.1243C217.925 51.0809 217.93 51.0383 217.935 50.9949C218.048 50.339 218.674 47.5776 221.297 46.287C222.326 46.8054 223.917 48.0575 224.241 50.9237C224.24 51.0179 224.251 51.1121 224.27 51.2038C224.27 51.2128 224.272 51.2193 224.272 51.2275C224.274 51.2275 224.274 51.2275 224.276 51.2259C224.326 51.4511 224.429 51.6665 224.598 51.8466C225.1 52.3797 225.938 52.4051 226.471 51.9048C227.006 51.4028 227.031 50.5634 226.53 50.0303C226.478 49.9754 226.419 49.9263 226.359 49.8812L226.361 49.8788C226.361 49.8788 226.349 49.8722 226.345 49.8706C226.31 49.8436 226.271 49.8231 226.235 49.8018C225.665 49.4398 223.309 47.7602 223.18 44.7728C224.017 43.9908 225.759 42.9082 228.586 43.6239C228.673 43.6583 228.765 43.6812 228.86 43.696C228.865 43.6984 228.874 43.7001 228.881 43.7017C228.881 43.7009 228.881 43.6993 228.882 43.6984C229.109 43.7304 229.348 43.7091 229.575 43.6133C230.251 43.3324 230.572 42.5569 230.291 41.8804L230.29 41.8821Z" stroke="#00579F" stroke-width="2" stroke-linecap="round" stroke-linejoin="round"/>
<path d="M221.212 45.6514C221.998 45.6514 222.636 45.0138 222.636 44.2273C222.636 43.4408 221.998 42.8032 221.212 42.8032C220.426 42.8032 219.788 43.4408 219.788 44.2273C219.788 45.0138 220.426 45.6514 221.212 45.6514Z" stroke="#00579F" stroke-width="2" stroke-linecap="round" stroke-linejoin="round"/>
<path d="M208.227 40.6828C208.227 40.6828 205.051 38.5266 204.618 36.1166C208.651 34.2126 213.641 35.6432 213.641 35.6432" stroke="#00579F" stroke-width="2" stroke-linecap="round" stroke-linejoin="round"/>
<path d="M208.883 48.0432C208.883 48.0432 204.187 46.1679 202.345 41.7663C203.973 40.3512 208.225 40.682 208.225 40.682" stroke="#00579F" stroke-width="2" stroke-linecap="round" stroke-linejoin="round"/>
<path d="M233.774 40.6829C233.774 40.6829 236.983 38.5267 237.417 36.1166C232.425 33.8032 228.301 35.6556 228.301 35.6556" stroke="#00579F" stroke-width="2" stroke-linecap="round" stroke-linejoin="round"/>
<path d="M233.532 47.9785C233.532 47.9785 237.847 46.1679 239.69 41.7663C238.062 40.3512 233.775 40.682 233.775 40.682" stroke="#00579F" stroke-width="2" stroke-linecap="round" stroke-linejoin="round"/>
<path d="M220.981 31.5808C220.981 31.5808 221.908 27.8539 224.022 26.6182C227.651 29.5572 227.578 34.9678 227.578 34.9678" stroke="#00579F" stroke-width="2" stroke-linecap="round" stroke-linejoin="round"/>
<path d="M214.333 34.5283C214.333 34.5283 214.435 29.6697 217.935 26.4268C219.823 27.4692 220.982 31.581 220.982 31.581" stroke="#00579F" stroke-width="2" stroke-linecap="round" stroke-linejoin="round"/>
<path d="M213.171 55.7993C213.171 55.7993 211.996 59.4599 213.137 61.6267C217.488 60.6456 220.461 56.7362 220.461 56.7362" stroke="#00579F" stroke-width="2" stroke-linecap="round" stroke-linejoin="round"/>
<path d="M209.003 49.8696C209.003 49.8696 206.613 53.9683 207.87 58.5722C210.024 58.686 213.172 55.8002 213.172 55.8002" stroke="#00579F" stroke-width="2" stroke-linecap="round" stroke-linejoin="round"/>
<path d="M228.79 55.7236C228.79 55.7236 230.018 59.3277 228.943 61.5281C224.618 60.9909 221.439 56.468 221.439 56.468" stroke="#00579F" stroke-width="2" stroke-linecap="round" stroke-linejoin="round"/>
<path d="M232.585 49.4551C232.585 49.4551 235.232 53.7822 234.115 58.4213C231.966 58.6007 228.789 55.7239 228.789 55.7239" stroke="#00579F" stroke-width="2" stroke-linecap="round" stroke-linejoin="round"/>
</g>
<defs>
<clipPath id="clip0_2374_8739">
<rect width="66" height="63" fill="white" transform="translate(24 208)"/>
</clipPath>
<clipPath id="clip1_2374_8739">
<rect width="40" height="38" fill="white" transform="translate(201 25)"/>
</clipPath>
</defs>
</svg>
