<svg width="462" height="648" viewBox="0 0 462 648" fill="none" xmlns="http://www.w3.org/2000/svg">
<g filter="url(#filter0_d_2380_29781)">
<rect x="4" y="2" width="454" height="640" rx="12" fill="#FBF9F3"/>
<g opacity="0.3" clip-path="url(#clip0_2380_29781)">
<path d="M46.8276 37.176L35.6787 50.2601L45.4677 61.0205" stroke="#8CCBFE" stroke-linecap="round" stroke-linejoin="round"/>
<path d="M52.8936 63.7298C52.8044 65.2782 51.4872 66.4615 49.9508 66.3717L47.9592 66.2556C46.4228 66.1657 45.2486 64.8382 45.3378 63.2898L46.8723 36.4045C46.9615 34.8561 48.2787 33.6728 49.8152 33.7608L51.8068 33.8768C53.3432 33.9667 54.5174 35.2942 54.4301 36.8427C54.4301 36.8427 64.6445 28.5818 78.7195 31.4091C92.7927 34.2363 99.7336 44.6392 116.93 43.1038C124.365 43.5345 120.045 51.0614 114.843 54.2051C119.169 61.5578 121.665 66.7274 113.597 66.2593C93.0101 65.0666 78.008 78.4971 52.8973 63.726L52.8936 63.7298Z" stroke="#8CCBFE" stroke-linecap="round" stroke-linejoin="round"/>
<path d="M85.4971 57.2103C85.4971 57.2103 91.7134 56.9725 91.9234 52.1717C92.1537 46.8711 86.4093 46.6221 86.4093 46.6221" stroke="#8CCBFE" stroke-linecap="round" stroke-linejoin="round"/>
<path d="M85.0713 38.8911C85.0713 38.8911 88.8297 38.6084 90.6021 35.813" stroke="#8CCBFE" stroke-linecap="round" stroke-linejoin="round"/>
<path d="M87.4758 69.6839C88.1743 65.5984 83.0615 63.2 83.0615 63.2" stroke="#8CCBFE" stroke-linecap="round" stroke-linejoin="round"/>
<path d="M90.4521 66.9146C90.4521 66.9146 96.5533 66.9501 97.4042 62.3554C98.2551 57.7587 94.1511 56.5061 94.1511 56.5061" stroke="#8CCBFE" stroke-linecap="round" stroke-linejoin="round"/>
<path d="M95.0292 49.2508C95.0292 49.2508 99.0774 48.9868 99.2075 45.7083C99.3375 42.4298 93.8271 39.8853 93.8271 39.8853" stroke="#8CCBFE" stroke-linecap="round" stroke-linejoin="round"/>
<path d="M102.113 58.1968C102.113 58.1968 106.221 58.1388 106.433 54.4315C106.645 50.7242 102.604 49.5952 102.604 49.5952" stroke="#8CCBFE" stroke-linecap="round" stroke-linejoin="round"/>
<path d="M106.45 66.3866C106.1 63.2953 101.981 63.8926 101.981 63.8926" stroke="#8CCBFE" stroke-linecap="round" stroke-linejoin="round"/>
<path d="M103.312 44.5736C103.312 44.5736 106.732 44.7758 107.778 42.7649" stroke="#8CCBFE" stroke-linecap="round" stroke-linejoin="round"/>
<path d="M109.502 51.0933C109.502 51.0933 111.83 50.0579 111.418 48.0451C111.005 46.0304 109.014 45.6035 109.014 45.6035" stroke="#8CCBFE" stroke-linecap="round" stroke-linejoin="round"/>
<path d="M108.508 62.9734C108.508 62.9734 110.888 62.7862 111.021 60.4495C111.155 58.1128 109.132 57.3713 109.132 57.3713" stroke="#8CCBFE" stroke-linecap="round" stroke-linejoin="round"/>
<path d="M60.1652 33.5642C56.5387 35.1613 54.4282 36.8689 54.4282 36.8689C54.5174 35.3205 53.3432 33.993 51.8068 33.9031L49.8152 33.787C48.2787 33.6971 46.9615 34.8805 46.8723 36.4289L45.3378 63.3141C45.2486 64.8626 46.4228 66.1901 47.9592 66.28L49.9508 66.396C51.4872 66.4859 52.8044 65.3026 52.8936 63.7541C58.6957 67.1675 63.9571 69.0735 68.8729 70.0041C68.8729 70.0041 72.4382 63.1906 66.3314 60.9606C55.4166 57.3245 52.6205 49.5186 55.0822 40.9844C56.3827 36.4757 60.1652 33.5642 60.1652 33.5642Z" stroke="#8CCBFE" stroke-linecap="round" stroke-linejoin="round"/>
<path d="M70.9441 43.7817C70.7472 47.225 67.8174 49.8576 64.4008 49.6591C60.9842 49.4606 58.3721 46.5079 58.569 43.0646C58.766 39.6195 61.6958 36.9888 65.1124 37.1873C68.5308 37.3858 71.1411 40.3385 70.9441 43.7817Z" stroke="#8CCBFE" stroke-linecap="round" stroke-linejoin="round"/>
<path d="M69.4603 43.6955C69.308 46.3823 67.0209 48.4363 64.3549 48.2809C61.6889 48.1274 59.6509 45.8225 59.8051 43.1357C59.9574 40.4488 62.2444 38.3949 64.9104 38.5503C67.5764 38.7038 69.6145 41.0087 69.4603 43.6955Z" stroke="#8CCBFE" stroke-linecap="round" stroke-linejoin="round"/>
<path d="M68.0371 41.9822C67.9776 43.0382 67.0784 43.8471 66.0287 43.7853C64.979 43.7253 64.1783 42.8191 64.2396 41.7612C64.2991 40.7034 65.1983 39.8964 66.248 39.9582C67.2958 40.0181 68.0984 40.9243 68.0371 41.9822Z" stroke="#8CCBFE" stroke-linecap="round" stroke-linejoin="round"/>
<path d="M54.22 56.2029C50.3706 55.248 48.5424 63.2542 64.8376 64.6304C57.475 62.2057 56.9288 56.8751 54.22 56.2029Z" stroke="#8CCBFE" stroke-linecap="round" stroke-linejoin="round"/>
<path d="M95.0088 38.0747C95.0088 38.0747 92.5026 42.956 85.9778 43.0215C92.079 43.864 95.804 47.7623 95.5253 52.6454C95.2225 57.9405 90.5017 59.6443 84.3652 60.4607C90.067 61.6047 90.6243 67.8958 90.6243 67.8958C90.6243 67.8958 90.6485 68.6803 90.6615 69.0904" stroke="#8CCBFE" stroke-linecap="round" stroke-linejoin="round"/>
<path d="M101.106 40.8721C101.106 40.8721 103.717 43.1432 103.527 46.6689C103.185 52.6736 95.4492 53.4038 95.4492 53.4038C95.4492 53.4038 103.04 55.205 102.695 61.249C102.477 65.0499 98.5704 67.512 98.5704 67.512" stroke="#8CCBFE" stroke-linecap="round" stroke-linejoin="round"/>
<path d="M109.816 54.2349C110.244 46.7455 103.528 46.6687 103.528 46.6687C103.528 46.6687 109.491 47.1686 110.703 43.1431C110.703 43.1431 114.888 44.3264 114.632 48.8126C114.376 53.2988 109.816 54.2349 109.816 54.2349ZM109.816 54.2349C109.389 61.7244 102.695 61.2488 102.695 61.2488C102.695 61.2488 109.805 60.4811 109.222 66.2162C109.222 66.2162 114.006 64.6434 114.006 59.779C114.006 55.6598 109.816 54.2349 109.816 54.2349Z" stroke="#8CCBFE" stroke-linecap="round" stroke-linejoin="round"/>
<path d="M74.0732 70.6294C74.0732 70.6294 82.6249 63.462 83.329 51.125C84.0331 38.788 78.716 31.4109 78.716 31.4109L81.473 32.0812C81.473 32.0812 87.1729 38.1102 86.4112 51.4526C85.6495 64.7932 76.5052 70.7136 76.5052 70.7136L74.0732 70.6294Z" stroke="#8CCBFE" stroke-linecap="round" stroke-linejoin="round"/>
<path d="M45.5641 84.3052L35.0469 99.1586L47.7843 108.084" stroke="#8CCBFE" stroke-linecap="round" stroke-linejoin="round"/>
<path d="M55.5317 109.635C55.6766 111.179 54.5507 112.548 53.018 112.694L51.032 112.883C49.4992 113.029 48.1411 111.894 47.9962 110.35L45.4937 83.5376C45.3507 81.9929 46.4747 80.6242 48.0074 80.4781L49.9934 80.2909C51.5261 80.1448 52.8842 81.2795 53.0291 82.8242C53.0291 82.8242 61.8929 73.1066 76.228 73.7657C90.565 74.4248 98.9792 83.6536 115.75 79.5251C123.165 78.8211 120.019 86.919 115.347 90.8154C120.722 97.4267 123.964 102.16 115.917 102.922C95.3861 104.869 82.5652 120.425 55.5317 109.636V109.635Z" stroke="#8CCBFE" stroke-linecap="round" stroke-linejoin="round"/>
<path d="M86.7883 98.2374C86.7883 98.2374 92.8987 97.0597 92.3878 92.2814C91.823 87.007 86.1064 87.6324 86.1064 87.6324" stroke="#8CCBFE" stroke-linecap="round" stroke-linejoin="round"/>
<path d="M83.6279 80.1936C83.6279 80.1936 87.3009 79.3435 88.6348 76.3103" stroke="#8CCBFE" stroke-linecap="round" stroke-linejoin="round"/>
<path d="M90.6094 110.269C90.6892 106.124 85.2773 104.529 85.2773 104.529" stroke="#8CCBFE" stroke-linecap="round" stroke-linejoin="round"/>
<path d="M93.1357 107.079C93.1357 107.079 99.1719 106.188 99.3261 101.516C99.4803 96.8426 95.2351 96.2266 95.2351 96.2266" stroke="#8CCBFE" stroke-linecap="round" stroke-linejoin="round"/>
<path d="M95.0195 88.9224C95.0195 88.9224 98.9804 88.0462 98.62 84.7864C98.2596 81.5266 92.4297 79.8452 92.4297 79.8452" stroke="#8CCBFE" stroke-linecap="round" stroke-linejoin="round"/>
<path d="M103.361 96.6908C103.361 96.6908 107.413 96.0111 107.07 92.3132C106.724 88.6153 102.561 88.1135 102.561 88.1135" stroke="#8CCBFE" stroke-linecap="round" stroke-linejoin="round"/>
<path d="M108.874 104.128C108.067 101.125 104.084 102.342 104.084 102.342" stroke="#8CCBFE" stroke-linecap="round" stroke-linejoin="round"/>
<path d="M102.511 83.0413C102.511 83.0413 105.922 82.7212 106.656 80.5754" stroke="#8CCBFE" stroke-linecap="round" stroke-linejoin="round"/>
<path d="M109.604 88.5462C109.604 88.5462 111.752 87.17 111.042 85.2415C110.332 83.3129 108.302 83.1931 108.302 83.1931" stroke="#8CCBFE" stroke-linecap="round" stroke-linejoin="round"/>
<path d="M110.397 100.441C110.397 100.441 112.721 99.8963 112.504 97.5652C112.286 95.2341 110.176 94.8091 110.176 94.8091" stroke="#8CCBFE" stroke-linecap="round" stroke-linejoin="round"/>
<path d="M58.2082 78.7087C54.8622 80.8376 53.0304 82.8467 53.0304 82.8467C52.8855 81.302 51.5274 80.1673 49.9947 80.3134L48.0086 80.5025C46.4759 80.6485 45.3501 82.0172 45.495 83.5619L47.9975 110.374C48.1424 111.919 49.5005 113.052 51.0332 112.907L53.0193 112.718C54.552 112.572 55.6778 111.204 55.5329 109.659C61.779 112.151 67.2652 113.239 72.2647 113.411C72.2647 113.411 74.7709 106.133 68.4004 104.858C57.0675 102.92 53.1344 95.6293 54.2919 86.8179C54.9031 82.1632 58.2082 78.7106 58.2082 78.7106V78.7087Z" stroke="#8CCBFE" stroke-linecap="round" stroke-linejoin="round"/>
<path d="M70.3919 87.1717C70.7133 90.6056 68.2089 93.6519 64.8017 93.9759C61.3944 94.2998 58.3698 91.7758 58.0502 88.3419C57.7288 84.908 60.2332 81.8598 63.6405 81.5378C67.0496 81.2138 70.0724 83.7378 70.3919 87.1717Z" stroke="#8CCBFE" stroke-linecap="round" stroke-linejoin="round"/>
<path d="M68.9136 87.3122C69.1644 89.9916 67.2118 92.3695 64.5514 92.6204C61.8928 92.8731 59.5333 90.9053 59.2844 88.2241C59.0336 85.5447 60.9862 83.1668 63.6466 82.9159C66.3052 82.6631 68.6647 84.631 68.9136 87.3122Z" stroke="#8CCBFE" stroke-linecap="round" stroke-linejoin="round"/>
<path d="M67.2489 85.8369C67.3474 86.891 66.5801 87.8253 65.5341 87.9245C64.4881 88.0238 63.5611 87.2486 63.4626 86.1964C63.3641 85.1422 64.1314 84.2079 65.1774 84.1087C66.2234 84.0094 67.1504 84.7827 67.2489 85.8387V85.8369Z" stroke="#8CCBFE" stroke-linecap="round" stroke-linejoin="round"/>
<path d="M55.7174 101.993C51.7676 101.634 51.1582 109.826 67.4738 108.713C59.8325 107.433 58.4948 102.246 55.7174 101.993Z" stroke="#8CCBFE" stroke-linecap="round" stroke-linejoin="round"/>
<path d="M93.3291 77.8774C93.3291 77.8774 91.5809 83.0826 85.1416 84.1405C91.2985 84.0469 95.5641 87.3347 96.0174 92.2047C96.5098 97.4848 92.0974 99.887 86.1523 101.626C91.9599 101.892 93.4517 108.026 93.4517 108.026C93.4517 108.026 93.5929 108.799 93.6673 109.202" stroke="#8CCBFE" stroke-linecap="round" stroke-linejoin="round"/>
<path d="M99.776 79.7161C99.776 79.7161 102.695 81.5641 103.035 85.0804C103.594 91.0682 96.0566 92.9649 96.0566 92.9649C96.0566 92.9649 103.83 93.594 104.393 99.6211C104.746 103.411 101.253 106.438 101.253 106.438" stroke="#8CCBFE" stroke-linecap="round" stroke-linejoin="round"/>
<path d="M109.601 80.5043C109.004 84.6684 103.035 85.0804 103.035 85.0804C103.035 85.0804 109.686 84.1367 110.385 91.6055C111.081 99.0744 104.393 99.6192 104.393 99.6192C104.393 99.6192 111.308 97.7806 111.589 103.538C111.589 103.538 116.083 101.258 115.356 96.4475C114.741 92.3751 110.385 91.6037 110.385 91.6037C110.385 91.6037 114.753 89.9859 114.335 85.511C113.917 81.0361 109.603 80.5024 109.603 80.5024L109.601 80.5043Z" stroke="#8CCBFE" stroke-linecap="round" stroke-linejoin="round"/>
<path d="M77.5001 113.241C77.5001 113.241 84.8831 104.856 83.7331 92.5529C82.585 80.2496 76.2256 73.7656 76.2256 73.7656L79.0514 74.009C79.0514 74.009 85.5873 79.1037 86.8302 92.4087C88.0731 105.714 79.9171 112.954 79.9171 112.954L77.5001 113.241Z" stroke="#8CCBFE" stroke-linecap="round" stroke-linejoin="round"/>
<path d="M36.4322 38.6721V118.907H33.6621V38.6721" stroke="#8CCBFE" stroke-linecap="round" stroke-linejoin="round"/>
<path d="M35.1207 39.112C34.9572 39.112 34.7937 39.0802 34.6376 39.0184L30.6191 37.4007C30.2996 37.2715 30.0432 37.0206 29.9057 36.7004L28.1983 32.6936C28.0627 32.3734 28.0571 32.0139 28.1853 31.69L29.7905 27.6401C29.9187 27.318 30.1676 27.0596 30.4853 26.9211L34.4611 25.2004C34.7788 25.0637 35.1355 25.0581 35.4569 25.1873L39.4754 26.805C39.795 26.9342 40.0514 27.1851 40.1889 27.5053L41.8962 31.514C42.0318 31.8341 42.0374 32.1936 41.9092 32.5176L40.304 36.5675C40.1759 36.8895 39.9269 37.1479 39.6092 37.2865L35.6316 39.0072C35.4681 39.0783 35.2934 39.1139 35.1188 39.1139L35.1207 39.112ZM32.0831 35.1688L35.1021 36.384L38.0895 35.0921L39.2952 32.0495L38.0133 29.0387L34.9943 27.8236L32.0069 29.1155L30.8012 32.1581L32.0831 35.1688Z" stroke="#8CCBFE" stroke-linecap="round" stroke-linejoin="round"/>
<path d="M35.1211 37.8014V26.4043" stroke="#8CCBFE" stroke-linecap="round" stroke-linejoin="round"/>
<path d="M40.7013 32.1018H29.3926" stroke="#8CCBFE" stroke-linecap="round" stroke-linejoin="round"/>
<path d="M31.1006 36.1836L39.0968 28.125" stroke="#8CCBFE" stroke-linecap="round" stroke-linejoin="round"/>
<path d="M39.044 36.1312L31.0479 28.0725" stroke="#8CCBFE" stroke-linecap="round" stroke-linejoin="round"/>
</g>
<g opacity="0.2">
<path d="M372.23 82.8662C369.814 85.2824 368.488 87.8781 369.271 88.665C370.053 89.4476 372.649 88.1262 375.07 85.7057C377.486 83.2895 378.812 80.6938 378.03 79.9069C377.247 79.1243 374.651 80.4457 372.23 82.8662Z" stroke="#8CCBFE" stroke-width="2" stroke-linecap="round" stroke-linejoin="round"/>
<path d="M362.184 92.913C359.768 95.3292 358.442 97.925 359.225 98.7119C360.008 99.4945 362.604 98.173 365.024 95.7526C367.441 93.3364 368.766 90.7406 367.984 89.9538C367.201 89.1712 364.605 90.4926 362.184 92.913Z" stroke="#8CCBFE" stroke-width="2" stroke-linecap="round" stroke-linejoin="round"/>
<path d="M367.983 88.6651C368.766 87.8825 367.445 85.2865 365.024 82.8658C362.608 80.4494 360.012 79.1236 359.225 79.9063C358.443 80.6889 359.764 83.2849 362.185 85.7056C364.601 88.122 367.196 89.4478 367.983 88.6651Z" stroke="#8CCBFE" stroke-width="2" stroke-linecap="round" stroke-linejoin="round"/>
<path d="M369.271 89.9534C368.489 90.736 369.81 93.3321 372.23 95.7527C374.647 98.1691 377.242 99.4949 378.029 98.7122C378.812 97.9296 377.49 95.3336 375.07 92.9129C372.654 90.4965 370.058 89.1707 369.271 89.9534Z" stroke="#8CCBFE" stroke-width="2" stroke-linecap="round" stroke-linejoin="round"/>
</g>
<g opacity="0.2">
<path d="M428.668 53.0978C431.958 49.8078 433.758 46.2762 432.694 45.2122C431.625 44.1481 428.093 45.9484 424.809 49.2384C421.519 52.5284 419.718 56.06 420.782 57.124C421.847 58.1881 425.378 56.3878 428.668 53.0978Z" stroke="#8CCBFE" stroke-width="2" stroke-linecap="round" stroke-linejoin="round"/>
<path d="M415.006 66.7599C418.296 63.4699 420.096 59.9384 419.032 58.8743C417.968 57.8102 414.431 59.6105 411.147 62.9005C407.857 66.1905 406.056 69.7221 407.12 70.7861C408.184 71.8502 411.722 70.0499 415.006 66.7599Z" stroke="#8CCBFE" stroke-width="2" stroke-linecap="round" stroke-linejoin="round"/>
<path d="M419.032 57.124C420.096 56.06 418.296 52.5284 415.006 49.2384C411.716 45.9484 408.184 44.1481 407.12 45.2122C406.056 46.282 407.857 49.8136 411.147 53.0978C414.437 56.3878 417.968 58.1881 419.032 57.124Z" stroke="#8CCBFE" stroke-width="2" stroke-linecap="round" stroke-linejoin="round"/>
<path d="M432.694 70.7861C433.758 69.7221 431.958 66.1905 428.669 62.9005C425.379 59.6105 421.849 57.8102 420.785 58.8743C419.715 59.9384 421.521 63.4699 424.81 66.7599C428.1 70.0499 431.631 71.8502 432.694 70.7861Z" stroke="#8CCBFE" stroke-width="2" stroke-linecap="round" stroke-linejoin="round"/>
</g>
<g opacity="0.2">
<path d="M374.488 23.4209C372.65 25.2594 371.644 27.233 372.238 27.8276C372.833 28.4222 374.806 27.4162 376.645 25.5776C378.484 23.7391 379.49 21.7656 378.895 21.171C378.297 20.5763 376.324 21.5824 374.488 23.4209Z" stroke="#8CCBFE" stroke-width="2" stroke-linecap="round" stroke-linejoin="round"/>
<path d="M366.854 31.0565C365.016 32.8947 364.01 34.8679 364.605 35.4624C365.199 36.0569 367.176 35.051 369.011 33.2128C370.85 31.3746 371.856 29.4014 371.261 28.8069C370.667 28.2092 368.69 29.2183 366.854 31.0565Z" stroke="#8CCBFE" stroke-width="2" stroke-linecap="round" stroke-linejoin="round"/>
<path d="M371.261 27.8308C371.856 27.2362 370.85 25.2626 369.012 23.4241C367.175 21.5824 365.202 20.5763 364.604 21.1709C364.01 21.7656 365.016 23.7423 366.853 25.5776C368.691 27.4162 370.664 28.4222 371.258 27.8276L371.261 27.8308Z" stroke="#8CCBFE" stroke-width="2" stroke-linecap="round" stroke-linejoin="round"/>
<path d="M372.24 28.8057C371.642 29.4004 372.651 31.3739 374.489 33.2124C376.327 35.0509 378.3 36.057 378.895 35.4624C379.49 34.8677 378.484 32.8942 376.645 31.0557C374.807 29.2171 372.834 28.2111 372.24 28.8057Z" stroke="#8CCBFE" stroke-width="2" stroke-linecap="round" stroke-linejoin="round"/>
</g>
</g>
<defs>
<filter id="filter0_d_2380_29781" x="0" y="0" width="462" height="648" filterUnits="userSpaceOnUse" color-interpolation-filters="sRGB">
<feFlood flood-opacity="0" result="BackgroundImageFix"/>
<feColorMatrix in="SourceAlpha" type="matrix" values="0 0 0 0 0 0 0 0 0 0 0 0 0 0 0 0 0 0 127 0" result="hardAlpha"/>
<feOffset dy="2"/>
<feGaussianBlur stdDeviation="2"/>
<feComposite in2="hardAlpha" operator="out"/>
<feColorMatrix type="matrix" values="0 0 0 0 0.124545 0 0 0 0 0.141938 0 0 0 0 0.157039 0 0 0 0.5 0"/>
<feBlend mode="normal" in2="BackgroundImageFix" result="effect1_dropShadow_2380_29781"/>
<feBlend mode="normal" in="SourceGraphic" in2="effect1_dropShadow_2380_29781" result="shape"/>
</filter>
<clipPath id="clip0_2380_29781">
<rect width="93" height="94" fill="white" transform="translate(28 25)"/>
</clipPath>
</defs>
</svg>
