<svg width="462" height="648" viewBox="0 0 462 648" fill="none" xmlns="http://www.w3.org/2000/svg">
<g filter="url(#filter0_d_2380_29782)">
<g clip-path="url(#clip0_2380_29782)">
<rect x="4" y="2" width="454" height="640" rx="12" fill="#FBF9F3"/>
<g opacity="0.2" clip-path="url(#clip1_2380_29782)">
<path d="M-12.409 61.8765C-12.409 61.8765 -25.2557 67.658 -31.5082 76.9146C-40.4751 90.1849 -34.0437 109.186 -34.0437 109.186C-34.0437 109.186 -20.2358 109.468 -10.5313 94.1448C-20.2358 109.468 -13.9833 121.683 -13.9833 121.683C-13.9833 121.683 5.65242 118.943 14.2201 105.413C21.5296 93.7139 19.7733 82.9494 19.7733 82.9494C19.7733 82.9494 19.026 95.187 25.8246 105.527C34.619 118.915 54.2994 121.335 54.2994 121.335C54.2994 121.335 60.3444 109.015 50.3844 93.8565C60.3412 109.015 74.1427 108.508 74.1427 108.508C74.1427 108.508 79.9194 89.6337 71.0707 76.281C63.4611 64.8005 52.4154 61.8765 52.4154 61.8765C52.4154 61.8765 60.4945 67.4806 75.6436 62.0635C90.7991 56.6432 97.6839 38.1933 97.6839 38.1933C97.6839 38.1933 86.9831 29.5323 69.8254 35.6685C86.9862 29.5323 89.6495 16.0909 89.6495 16.0909C89.6495 16.0909 72.5684 6.48901 57.3299 11.6654C44.9462 15.8723 39.3068 25.848 39.3068 25.848C39.3068 25.848 46.8909 18.0297 46.9356 3.98321C46.9867 -11.9957 31.777 -24.6831 31.777 -24.6831C31.777 -24.6831 19.9329 -17.6345 19.9329 0.457336C19.9298 -17.6345 8.08893 -24.6831 8.08893 -24.6831C8.08893 -24.6831 -7.44657 -11.9925 -7.06976 3.98321C-6.75362 17.4563 0.983793 25.6009 0.983793 25.6009C0.983793 25.6009 -2.71727 17.2662 -17.8664 11.8459C-33.0187 6.42566 -49.6431 16.0909 -49.6431 16.0909C-49.6431 16.0909 -46.9799 29.5323 -29.819 35.6685C-46.9799 29.5323 -57.6807 38.1933 -57.6807 38.1933C-57.6807 38.1933 -50.7959 56.6432 -35.6404 62.0635C-20.4913 67.4806 -12.4122 61.8765 -12.4122 61.8765H-12.409Z" stroke="#8CCBFE" stroke-width="2" stroke-linecap="round" stroke-linejoin="round"/>
<path d="M56.231 40.3063C55.1325 37.6896 52.1052 36.4573 49.4707 37.5439C49.1929 37.6579 48.9375 37.8068 48.6884 37.962L48.6756 37.9525C48.6756 37.9525 48.6469 37.9842 48.6309 37.9937C48.4872 38.0888 48.3563 38.1996 48.2285 38.3042C46.1018 39.8976 36.3398 46.2588 25.0642 42.3496C22.666 38.8396 19.1821 31.1194 24.416 20.2915C24.614 19.9874 24.7704 19.6579 24.9014 19.3126C24.9173 19.2841 24.9269 19.2588 24.9429 19.2303C24.9365 19.2303 24.9333 19.2303 24.9301 19.2303C25.2335 18.3908 25.3357 17.4721 25.1504 16.5312C24.598 13.7561 21.8805 11.9473 19.0799 12.4921C16.2794 13.0402 14.4528 15.7392 15.0085 18.5143C15.0691 18.8089 15.1617 19.0877 15.2671 19.357L15.2575 19.3633C15.2575 19.3633 15.2767 19.4077 15.2895 19.4203C15.3501 19.5819 15.4364 19.7276 15.5162 19.8765C16.6818 22.3031 21.2227 33.2007 14.6604 43.5312C10.343 44.8205 2.54494 45.5206 -6.0387 38.4562C-6.28778 38.1901 -6.56879 37.9589 -6.87535 37.7498C-6.89771 37.7308 -6.92006 37.7118 -6.94561 37.6896C-6.94561 37.6928 -6.94561 37.6991 -6.95199 37.7023C-7.69923 37.2081 -8.5742 36.885 -9.53539 36.8374C-12.387 36.6949 -14.8171 38.8712 -14.964 41.7002C-15.1077 44.5259 -12.9139 46.9367 -10.0655 47.0793C-9.76211 47.0951 -9.46833 47.0697 -9.17774 47.0381V47.0507C-9.17774 47.0507 -9.12983 47.0412 -9.11067 47.0349C-8.94143 47.0127 -8.77857 46.9684 -8.61252 46.9272C-6.07383 46.4203 4.91438 44.9029 13.3096 52.4583C13.0446 56.8681 11.0264 64.5946 1.01853 70.1162C0.680039 70.2556 0.35432 70.433 0.0541477 70.6389C0.0254078 70.6484 0.00305148 70.6643 -0.0288817 70.6801C-0.0224951 70.6864 -0.0161057 70.6896 -0.0161057 70.6896C-0.756956 71.2028 -1.37646 71.8934 -1.76604 72.7646C-2.93799 75.3464 -1.76605 78.3844 0.839701 79.5407C3.44545 80.7002 6.50145 79.5407 7.67021 76.9557C7.79155 76.6896 7.87778 76.4045 7.95122 76.1257H7.9608C7.9608 76.1257 7.96719 76.0782 7.96719 76.0592C8.0087 75.8913 8.02786 75.7266 8.04702 75.5587C8.4877 73.0212 10.9274 62.339 21.1588 57.3464C25.1728 59.3517 31.3774 64.1954 32.6388 75.2831C32.6356 75.6474 32.6771 76.0117 32.7537 76.3665C32.7537 76.4013 32.7601 76.4267 32.7601 76.4583C32.7665 76.4583 32.7697 76.4583 32.7761 76.452C32.9709 77.3232 33.3732 78.1563 34.0311 78.8533C35.9886 80.9156 39.2585 81.0138 41.3374 79.0782C43.4226 77.1363 43.5216 73.8892 41.5673 71.8269C41.3629 71.6146 41.133 71.4246 40.8999 71.2503L40.9063 71.2408C40.9063 71.2408 40.8616 71.2155 40.8456 71.2091C40.7083 71.1046 40.5582 71.0254 40.4145 70.943C38.1919 69.5428 29.0048 63.0455 28.5034 51.489C31.767 48.4636 38.5592 44.2757 49.5857 47.0444C49.9242 47.1775 50.2818 47.2662 50.6523 47.3232C50.6746 47.3327 50.7066 47.339 50.7353 47.3454C50.7353 47.3422 50.7353 47.3359 50.7385 47.3327C51.6262 47.4562 52.5587 47.3739 53.4432 47.0032C56.0777 45.9166 57.3295 42.9166 56.2342 40.3L56.231 40.3063Z" stroke="#8CCBFE" stroke-width="2" stroke-linecap="round" stroke-linejoin="round"/>
<path d="M20.8266 54.8881C23.8936 54.8881 26.3798 52.4216 26.3798 49.3791C26.3798 46.3366 23.8936 43.8701 20.8266 43.8701C17.7597 43.8701 15.2734 46.3366 15.2734 49.3791C15.2734 52.4216 17.7597 54.8881 20.8266 54.8881Z" stroke="#8CCBFE" stroke-width="2" stroke-linecap="round" stroke-linejoin="round"/>
<path d="M69.819 35.6684C69.819 35.6684 82.3336 27.3273 84.0261 18.0042C64.5564 9.05486 48.4717 16.2206 48.4717 16.2206" stroke="#8CCBFE" stroke-width="2" stroke-linecap="round" stroke-linejoin="round"/>
<path d="M68.874 63.8913C68.874 63.8913 85.7028 56.8871 92.8878 39.8596C86.5395 34.3855 69.8192 35.6653 69.8192 35.6653" stroke="#8CCBFE" stroke-width="2" stroke-linecap="round" stroke-linejoin="round"/>
<path d="M19.9297 0.457229C19.9297 0.457229 23.5413 -13.9599 31.7865 -18.7402C45.9393 -7.37065 45.6551 13.5597 45.6551 13.5597" stroke="#8CCBFE" stroke-width="2" stroke-linecap="round" stroke-linejoin="round"/>
<path d="M-6 11.8586C-6 11.8586 -5.60083 -6.93657 8.04741 -19.4814C15.4112 -15.4487 19.9298 0.457311 19.9298 0.457311" stroke="#8CCBFE" stroke-width="2" stroke-linecap="round" stroke-linejoin="round"/>
<path d="M-10.5344 94.1445C-10.5344 94.1445 -15.1168 108.305 -10.6653 116.687C6.30081 112.892 17.8957 97.7686 17.8957 97.7686" stroke="#8CCBFE" stroke-width="2" stroke-linecap="round" stroke-linejoin="round"/>
<path d="M50.3813 93.8533C50.3813 93.8533 55.1712 107.795 50.9784 116.307C34.1113 114.229 21.7148 96.7329 21.7148 96.7329" stroke="#8CCBFE" stroke-width="2" stroke-linecap="round" stroke-linejoin="round"/>
<path d="M65.1821 69.603C65.1821 69.603 75.5061 86.3422 71.1505 104.288C62.768 104.982 50.3779 93.8533 50.3779 93.8533" stroke="#8CCBFE" stroke-width="2" stroke-linecap="round" stroke-linejoin="round"/>
</g>
<g opacity="0.2" clip-path="url(#clip2_2380_29782)">
<path d="M328.042 18.1877C328.042 18.1877 322.113 20.8621 319.227 25.144C315.089 31.2827 318.057 40.0723 318.057 40.0723C318.057 40.0723 324.43 40.2027 328.909 33.1145C324.43 40.2027 327.315 45.8534 327.315 45.8534C327.315 45.8534 336.378 44.5858 340.332 38.327C343.706 32.9152 342.895 27.9357 342.895 27.9357C342.895 27.9357 342.551 33.5966 345.688 38.3797C349.747 44.5726 358.831 45.6922 358.831 45.6922C358.831 45.6922 361.621 39.9932 357.024 32.9811C361.619 39.9932 367.989 39.7587 367.989 39.7587C367.989 39.7587 370.655 31.0277 366.571 24.851C363.059 19.5403 357.961 18.1877 357.961 18.1877C357.961 18.1877 361.69 20.78 368.682 18.2741C375.677 15.7668 378.854 7.23219 378.854 7.23219C378.854 7.23219 373.915 3.22572 365.996 6.06425C373.917 3.22572 375.146 -2.99206 375.146 -2.99206C375.146 -2.99206 367.262 -7.43376 360.229 -5.03926C354.514 -3.09318 351.911 1.52144 351.911 1.52144C351.911 1.52144 355.411 -2.09522 355.432 -8.59291C355.455 -15.9845 348.436 -21.8535 348.436 -21.8535C348.436 -21.8535 342.969 -18.593 342.969 -10.2239C342.968 -18.593 337.503 -21.8535 337.503 -21.8535C337.503 -21.8535 330.332 -15.983 330.506 -8.59291C330.652 -2.36047 334.223 1.40714 334.223 1.40714C334.223 1.40714 332.515 -2.44839 325.523 -4.95573C318.53 -7.46307 310.857 -2.99206 310.857 -2.99206C310.857 -2.99206 312.086 3.22572 320.007 6.06425C312.086 3.22572 307.147 7.23219 307.147 7.23219C307.147 7.23219 310.325 15.7668 317.32 18.2741C324.312 20.78 328.041 18.1877 328.041 18.1877H328.042Z" stroke="#8CCBFE" stroke-width="2" stroke-linecap="round" stroke-linejoin="round"/>
<path d="M359.723 8.20956C359.216 6.99912 357.818 6.42907 356.603 6.93171C356.474 6.98447 356.356 7.05334 356.241 7.12515L356.236 7.12075C356.236 7.12075 356.222 7.13541 356.215 7.1398C356.149 7.18377 356.088 7.23505 356.029 7.28341C355.048 8.02052 350.542 10.9631 345.338 9.15476C344.231 7.53107 342.623 3.95984 345.039 -1.04898C345.13 -1.18966 345.202 -1.34206 345.263 -1.50179C345.27 -1.51498 345.275 -1.52671 345.282 -1.5399C345.279 -1.5399 345.278 -1.5399 345.276 -1.5399C345.416 -1.92823 345.463 -2.3532 345.378 -2.78843C345.123 -4.07214 343.869 -4.9089 342.576 -4.65685C341.283 -4.40333 340.44 -3.15479 340.697 -1.87108C340.725 -1.7348 340.768 -1.60584 340.816 -1.48128L340.812 -1.47835C340.812 -1.47835 340.821 -1.45783 340.827 -1.45197C340.855 -1.37723 340.894 -1.30982 340.931 -1.24095C341.469 -0.118435 343.565 4.92262 340.536 9.70136C338.544 10.2978 334.944 10.6216 330.983 7.35375C330.868 7.23066 330.738 7.12368 330.597 7.02696C330.586 7.01817 330.576 7.00938 330.564 6.99912C330.564 7.00059 330.564 7.00352 330.561 7.00498C330.216 6.77638 329.813 6.6269 329.369 6.60492C328.053 6.53898 326.931 7.54572 326.863 8.85435C326.797 10.1615 327.81 11.2767 329.124 11.3426C329.264 11.35 329.4 11.3382 329.534 11.3236V11.3294C329.534 11.3294 329.556 11.325 329.565 11.3221C329.643 11.3119 329.718 11.2913 329.795 11.2723C330.967 11.0378 336.038 10.3359 339.913 13.8309C339.79 15.8708 338.859 19.445 334.24 21.9992C334.084 22.0637 333.933 22.1457 333.795 22.241C333.782 22.2454 333.771 22.2527 333.757 22.26C333.76 22.263 333.762 22.2644 333.762 22.2644C333.421 22.5018 333.135 22.8213 332.955 23.2243C332.414 24.4186 332.955 25.8239 334.157 26.3588C335.36 26.8952 336.771 26.3588 337.31 25.163C337.366 25.0399 337.406 24.908 337.44 24.7791H337.444C337.444 24.7791 337.447 24.7571 337.447 24.7483C337.466 24.6707 337.475 24.5944 337.484 24.5168C337.687 23.343 338.813 18.4016 343.536 16.0921C345.388 17.0197 348.252 19.2603 348.834 24.3893C348.832 24.5578 348.852 24.7263 348.887 24.8905C348.887 24.9066 348.89 24.9183 348.89 24.933C348.893 24.933 348.894 24.933 348.897 24.93C348.987 25.333 349.173 25.7184 349.477 26.0408C350.38 26.9948 351.889 27.0402 352.849 26.1449C353.811 25.2466 353.857 23.7445 352.955 22.7905C352.86 22.6923 352.754 22.6044 352.647 22.5238L352.65 22.5194C352.65 22.5194 352.629 22.5077 352.622 22.5048C352.558 22.4564 352.489 22.4198 352.423 22.3817C351.397 21.7339 347.157 18.7284 346.925 13.3825C348.432 11.983 351.566 10.0457 356.656 11.3265C356.812 11.3881 356.977 11.4291 357.148 11.4555C357.158 11.4599 357.173 11.4628 357.186 11.4657C357.186 11.4643 357.186 11.4613 357.188 11.4599C357.597 11.517 358.028 11.4789 358.436 11.3075C359.652 10.8048 360.23 9.41707 359.724 8.20663L359.723 8.20956Z" stroke="#8CCBFE" stroke-width="2" stroke-linecap="round" stroke-linejoin="round"/>
<path d="M343.381 14.9549C344.797 14.9549 345.944 13.8139 345.944 12.4065C345.944 10.9991 344.797 9.85815 343.381 9.85815C341.966 9.85815 340.818 10.9991 340.818 12.4065C340.818 13.8139 341.966 14.9549 343.381 14.9549Z" stroke="#8CCBFE" stroke-width="2" stroke-linecap="round" stroke-linejoin="round"/>
<path d="M320.007 6.06426C320.007 6.06426 314.291 2.20581 313.512 -2.10693C320.77 -5.51404 329.752 -2.95395 329.752 -2.95395" stroke="#8CCBFE" stroke-width="2" stroke-linecap="round" stroke-linejoin="round"/>
<path d="M321.189 19.2355C321.189 19.2355 312.736 15.8797 309.42 8.003C312.35 5.47075 320.005 6.06278 320.005 6.06278" stroke="#8CCBFE" stroke-width="2" stroke-linecap="round" stroke-linejoin="round"/>
<path d="M365.993 6.0644C365.993 6.0644 371.769 2.20594 372.55 -2.1068C363.564 -6.24662 356.141 -2.93183 356.141 -2.93183" stroke="#8CCBFE" stroke-width="2" stroke-linecap="round" stroke-linejoin="round"/>
<path d="M365.557 19.1199C365.557 19.1199 373.324 15.8799 376.64 8.00325C373.71 5.471 365.993 6.06303 365.993 6.06303" stroke="#8CCBFE" stroke-width="2" stroke-linecap="round" stroke-linejoin="round"/>
<path d="M328.907 33.1145C328.907 33.1145 326.792 39.6649 328.847 43.5424C336.677 41.7869 342.029 34.7909 342.029 34.7909" stroke="#8CCBFE" stroke-width="2" stroke-linecap="round" stroke-linejoin="round"/>
<path d="M321.405 22.5034C321.405 22.5034 317.103 29.8379 319.365 38.0765C323.242 38.2802 328.909 33.116 328.909 33.116" stroke="#8CCBFE" stroke-width="2" stroke-linecap="round" stroke-linejoin="round"/>
<path d="M357.022 32.9797C357.022 32.9797 359.232 39.4291 357.297 43.3667C349.512 42.4053 343.791 34.3118 343.791 34.3118" stroke="#8CCBFE" stroke-width="2" stroke-linecap="round" stroke-linejoin="round"/>
<path d="M363.853 21.762C363.853 21.762 368.618 29.5053 366.608 37.8069C362.739 38.1278 357.021 32.9798 357.021 32.9798" stroke="#8CCBFE" stroke-width="2" stroke-linecap="round" stroke-linejoin="round"/>
</g>
<g opacity="0.2" clip-path="url(#clip3_2380_29782)">
<path d="M398.567 66.2309C398.567 66.2309 395.026 67.8434 393.302 70.4251C390.83 74.1264 392.603 79.426 392.603 79.426C392.603 79.426 396.409 79.5046 399.084 75.2309C396.409 79.5046 398.133 82.9117 398.133 82.9117C398.133 82.9117 403.545 82.1474 405.907 78.3737C407.921 75.1107 407.437 72.1083 407.437 72.1083C407.437 72.1083 407.231 75.5215 409.105 78.4055C411.529 82.1394 416.954 82.8145 416.954 82.8145C416.954 82.8145 418.62 79.3783 415.875 75.1504C418.62 79.3783 422.424 79.2369 422.424 79.2369C422.424 79.2369 424.016 73.9727 421.577 70.2484C419.48 67.0464 416.435 66.2309 416.435 66.2309C416.435 66.2309 418.662 67.7939 422.838 66.283C427.015 64.7712 428.913 59.6253 428.913 59.6253C428.913 59.6253 425.963 57.2097 421.234 58.9211C425.964 57.2097 426.698 53.4607 426.698 53.4607C426.698 53.4607 421.99 50.7826 417.79 52.2264C414.376 53.3998 412.822 56.1821 412.822 56.1821C412.822 56.1821 414.912 54.0015 414.924 50.0837C414.939 45.6271 410.746 42.0884 410.746 42.0884C410.746 42.0884 407.481 44.0543 407.481 49.1003C407.481 44.0543 404.217 42.0884 404.217 42.0884C404.217 42.0884 399.934 45.6279 400.038 50.0837C400.125 53.8415 402.258 56.1132 402.258 56.1132C402.258 56.1132 401.238 53.7885 397.062 52.2768C392.886 50.765 388.303 53.4607 388.303 53.4607C388.303 53.4607 389.037 57.2097 393.768 58.9211C389.037 57.2097 386.088 59.6253 386.088 59.6253C386.088 59.6253 387.986 64.7712 392.163 66.283C396.339 67.7939 398.566 66.2309 398.566 66.2309H398.567Z" stroke="#8CCBFE" stroke-width="2" stroke-linecap="round" stroke-linejoin="round"/>
<path d="M417.486 60.2146C417.184 59.4848 416.349 59.1411 415.623 59.4442C415.546 59.476 415.476 59.5175 415.407 59.5608L415.404 59.5582C415.404 59.5582 415.396 59.567 415.392 59.5696C415.352 59.5961 415.316 59.6271 415.281 59.6562C414.694 60.1007 412.004 61.8749 408.896 60.7845C408.235 59.8055 407.274 57.6523 408.717 54.6323C408.772 54.5475 408.815 54.4556 408.851 54.3593C408.855 54.3513 408.858 54.3442 408.862 54.3363C408.86 54.3363 408.86 54.3363 408.859 54.3363C408.942 54.1021 408.97 53.8459 408.919 53.5835C408.767 52.8095 408.018 52.305 407.246 52.457C406.474 52.6098 405.971 53.3626 406.124 54.1366C406.141 54.2188 406.166 54.2965 406.195 54.3716L406.192 54.3734C406.192 54.3734 406.198 54.3858 406.201 54.3893C406.218 54.4344 406.242 54.475 406.264 54.5165C406.585 55.1933 407.837 58.2328 406.028 61.1141C404.838 61.4737 402.688 61.669 400.322 59.6986C400.254 59.6244 400.176 59.5599 400.092 59.5016C400.086 59.4963 400.079 59.491 400.072 59.4848C400.072 59.4857 400.072 59.4875 400.071 59.4883C399.865 59.3505 399.623 59.2604 399.359 59.2471C398.573 59.2074 397.903 59.8144 397.862 60.6034C397.823 61.3915 398.427 62.0639 399.212 62.1037C399.296 62.1081 399.377 62.101 399.457 62.0922V62.0957C399.457 62.0957 399.47 62.0931 399.476 62.0913C399.522 62.0851 399.567 62.0728 399.613 62.0613C400.313 61.9199 403.341 61.4967 405.656 63.604C405.583 64.8339 405.026 66.9889 402.268 68.529C402.174 68.5678 402.085 68.6173 402.002 68.6748C401.994 68.6774 401.988 68.6818 401.979 68.6862C401.981 68.688 401.982 68.6889 401.982 68.6889C401.778 68.832 401.607 69.0246 401.5 69.2676C401.177 69.9877 401.5 70.8351 402.218 71.1576C402.937 71.481 403.779 71.1576 404.101 70.4366C404.135 70.3624 404.158 70.2828 404.179 70.2051H404.181C404.181 70.2051 404.183 70.1918 404.183 70.1865C404.194 70.1397 404.2 70.0938 404.205 70.0469C404.326 69.3392 404.999 66.3598 407.819 64.9673C408.926 65.5266 410.636 66.8776 410.983 69.9701C410.983 70.0717 410.994 70.1733 411.015 70.2722C411.015 70.282 411.017 70.289 411.017 70.2979C411.019 70.2979 411.02 70.2979 411.021 70.2961C411.075 70.5391 411.186 70.7715 411.367 70.9658C411.907 71.541 412.808 71.5684 413.381 71.0286C413.956 70.4869 413.983 69.5813 413.445 69.0061C413.388 68.9469 413.325 68.8939 413.261 68.8453L413.262 68.8426C413.262 68.8426 413.25 68.8356 413.246 68.8338C413.208 68.8046 413.166 68.7826 413.127 68.7596C412.514 68.369 409.982 66.5569 409.844 63.3336C410.743 62.4898 412.615 61.3217 415.655 62.094C415.748 62.1311 415.847 62.1558 415.949 62.1717C415.955 62.1744 415.964 62.1761 415.972 62.1779C415.972 62.177 415.972 62.1753 415.973 62.1744C416.217 62.2088 416.474 62.1859 416.718 62.0825C417.444 61.7794 417.789 60.9427 417.487 60.2129L417.486 60.2146Z" stroke="#8CCBFE" stroke-width="2" stroke-linecap="round" stroke-linejoin="round"/>
<path d="M407.728 64.2818C408.573 64.2818 409.259 63.5939 409.259 62.7453C409.259 61.8967 408.573 61.2087 407.728 61.2087C406.883 61.2087 406.197 61.8967 406.197 62.7453C406.197 63.5939 406.883 64.2818 407.728 64.2818Z" stroke="#8CCBFE" stroke-width="2" stroke-linecap="round" stroke-linejoin="round"/>
<path d="M393.768 58.9212C393.768 58.9212 390.354 56.5948 389.889 53.9945C394.224 51.9402 399.588 53.4838 399.588 53.4838" stroke="#8CCBFE" stroke-width="2" stroke-linecap="round" stroke-linejoin="round"/>
<path d="M394.474 66.8626C394.474 66.8626 389.426 64.8393 387.445 60.0901C389.195 58.5633 393.767 58.9203 393.767 58.9203" stroke="#8CCBFE" stroke-width="2" stroke-linecap="round" stroke-linejoin="round"/>
<path d="M421.232 58.9211C421.232 58.9211 424.681 56.5947 425.148 53.9943C419.781 51.4983 415.348 53.4969 415.348 53.4969" stroke="#8CCBFE" stroke-width="2" stroke-linecap="round" stroke-linejoin="round"/>
<path d="M420.972 66.7928C420.972 66.7928 425.61 64.8393 427.591 60.0901C425.841 58.5633 421.232 58.9203 421.232 58.9203" stroke="#8CCBFE" stroke-width="2" stroke-linecap="round" stroke-linejoin="round"/>
<path d="M407.48 49.1002C407.48 49.1002 408.476 45.0791 410.749 43.7458C414.65 46.917 414.571 52.7547 414.571 52.7547" stroke="#8CCBFE" stroke-width="2" stroke-linecap="round" stroke-linejoin="round"/>
<path d="M400.333 52.2802C400.333 52.2802 400.443 47.038 404.205 43.5391C406.235 44.6638 407.48 49.1002 407.48 49.1002" stroke="#8CCBFE" stroke-width="2" stroke-linecap="round" stroke-linejoin="round"/>
<path d="M399.083 75.231C399.083 75.231 397.82 79.1805 399.047 81.5184C403.723 80.4599 406.919 76.2418 406.919 76.2418" stroke="#8CCBFE" stroke-width="2" stroke-linecap="round" stroke-linejoin="round"/>
<path d="M394.603 68.833C394.603 68.833 392.034 73.2552 393.385 78.2226C395.7 78.3455 399.084 75.2318 399.084 75.2318" stroke="#8CCBFE" stroke-width="2" stroke-linecap="round" stroke-linejoin="round"/>
<path d="M415.874 75.1494C415.874 75.1494 417.195 79.038 416.039 81.4121C411.39 80.8325 407.973 75.9526 407.973 75.9526" stroke="#8CCBFE" stroke-width="2" stroke-linecap="round" stroke-linejoin="round"/>
<path d="M419.954 68.3857C419.954 68.3857 422.799 73.0545 421.599 78.0599C419.288 78.2534 415.873 75.1494 415.873 75.1494" stroke="#8CCBFE" stroke-width="2" stroke-linecap="round" stroke-linejoin="round"/>
</g>
</g>
</g>
<defs>
<filter id="filter0_d_2380_29782" x="0" y="0" width="462" height="648" filterUnits="userSpaceOnUse" color-interpolation-filters="sRGB">
<feFlood flood-opacity="0" result="BackgroundImageFix"/>
<feColorMatrix in="SourceAlpha" type="matrix" values="0 0 0 0 0 0 0 0 0 0 0 0 0 0 0 0 0 0 127 0" result="hardAlpha"/>
<feOffset dy="2"/>
<feGaussianBlur stdDeviation="2"/>
<feComposite in2="hardAlpha" operator="out"/>
<feColorMatrix type="matrix" values="0 0 0 0 0.124545 0 0 0 0 0.141938 0 0 0 0 0.157039 0 0 0 0.5 0"/>
<feBlend mode="normal" in2="BackgroundImageFix" result="effect1_dropShadow_2380_29782"/>
<feBlend mode="normal" in="SourceGraphic" in2="effect1_dropShadow_2380_29782" result="shape"/>
</filter>
<clipPath id="clip0_2380_29782">
<rect x="4" y="2" width="454" height="640" rx="12" fill="white"/>
</clipPath>
<clipPath id="clip1_2380_29782">
<rect width="156" height="147" fill="white" transform="translate(-58 -25)"/>
</clipPath>
<clipPath id="clip2_2380_29782">
<rect width="72" height="68" fill="white" transform="translate(307 -22)"/>
</clipPath>
<clipPath id="clip3_2380_29782">
<rect width="43" height="41" fill="white" transform="translate(386 42)"/>
</clipPath>
</defs>
</svg>
