<svg width="260" height="348" viewBox="0 0 260 348" fill="none" xmlns="http://www.w3.org/2000/svg">
<g clip-path="url(#clip0_2374_8521)">
<rect width="260" height="348" rx="12" fill="#F7F3E7"/>
<g opacity="0.3" clip-path="url(#clip1_2374_8521)">
<path d="M40.6553 20.5791H90.2957C92.3535 20.5791 92.5547 23.0881 90.2957 23.0881C88.7494 23.0881 59.3767 22.8171 40.6553 22.6442" stroke="#00579F" stroke-linecap="round" stroke-linejoin="round"/>
<path d="M27.4438 22.5242C26.0803 22.5125 25.6007 22.5059 25.3977 22.5059C23.4791 22.5059 23.3685 20.5771 25.3977 20.5771H27.4103" stroke="#00579F" stroke-linecap="round" stroke-linejoin="round"/>
<path d="M34.0635 15.574C51.4567 14.1823 88.5004 11.2177 90.0903 11.0913C92.1414 10.9267 92.5455 13.4125 90.2932 13.592C88.544 13.7317 51.3577 16.3538 34.0635 17.5792" stroke="#00579F" stroke-linecap="round" stroke-linejoin="round"/>
<path d="M27.4269 18.0515C26.3167 18.1313 25.7414 18.1729 25.5586 18.1879C23.6467 18.3408 23.3801 16.4271 25.4027 16.2658C25.6022 16.2491 26.258 16.1976 27.4286 16.1045" stroke="#00579F" stroke-linecap="round" stroke-linejoin="round"/>
<path d="M34.0194 44.665V15.9001C34.0194 12.3884 27.4268 12.8673 27.4268 15.4777V41.4011" stroke="#00579F" stroke-linecap="round" stroke-linejoin="round"/>
<path d="M40.6561 37.143V20.7287C40.6561 17.217 34.0635 17.6959 34.0635 20.3064" stroke="#00579F" stroke-linecap="round" stroke-linejoin="round"/>
<path d="M32.6191 14.7959V43.7703" stroke="#00579F" stroke-linecap="round" stroke-linejoin="round"/>
<path d="M30.7227 14.1592V42.9407" stroke="#00579F" stroke-linecap="round" stroke-linejoin="round"/>
<path d="M28.8271 14.7959V42.0128" stroke="#00579F" stroke-linecap="round" stroke-linejoin="round"/>
<path d="M39.498 19.6909V36.9698" stroke="#00579F" stroke-linecap="round" stroke-linejoin="round"/>
<path d="M37.6035 19.0542V40.8723" stroke="#00579F" stroke-linecap="round" stroke-linejoin="round"/>
<path d="M35.708 43.438V44.6584" stroke="#00579F" stroke-linecap="round" stroke-linejoin="round"/>
<path d="M35.708 19.6909V41.3777" stroke="#00579F" stroke-linecap="round" stroke-linejoin="round"/>
<path d="M55.0771 44.6552C55.2532 43.7324 56.4926 42.3124 56.1018 41.6906C55.644 40.9623 53.5644 41.4478 53.1367 40.6597C52.709 39.8716 53.0763 37.6901 52.2814 37.2046C51.4864 36.7191 49.2861 37.75 48.4911 37.5072C47.6962 37.2644 46.6799 34.5975 45.8128 34.5376H45.5529C44.6858 34.5975 43.6695 37.2661 42.8745 37.5072C42.0796 37.7483 39.8792 36.7191 39.0843 37.2046C38.2894 37.6901 38.6566 39.8716 38.229 40.6597C37.8013 41.4478 35.7217 40.9623 35.2639 41.6906C34.8698 42.3141 36.1209 43.7424 36.2903 44.6652" stroke="#00579F" stroke-linecap="round" stroke-linejoin="round"/>
<path d="M51.6383 44.8084C51.0564 43.2637 48.7588 42.2262 46.6205 42.9411C43.013 44.1483 44.0629 46.4644 46.3253 46.3347" stroke="#00579F" stroke-linecap="round" stroke-linejoin="round"/>
<path d="M46.4983 39.9048C46.4983 39.9048 41.784 40.3072 40.8113 43.7839C40.6972 44.1946 40.6436 44.592 40.6436 44.9727" stroke="#00579F" stroke-linecap="round" stroke-linejoin="round"/>
<path d="M55.4375 44.6617C60.1149 40.8075 66.3286 37.1063 72.1816 37.7315C82.9587 38.8855 77.337 53.253 77.337 53.253" stroke="#00579F" stroke-linecap="round" stroke-linejoin="round"/>
<path d="M62.4062 45.7711C63.8519 45.0828 65.4217 44.7668 67.0334 45.1509C70.5385 45.9839 71.1121 48.3084 70.9058 50.2555" stroke="#00579F" stroke-linecap="round" stroke-linejoin="round"/>
<path d="M12.9884 53.2562C12.9884 53.2562 7.53617 49.8144 11.5696 44.0897C14.632 39.7434 24.5185 38.36 33.8985 44.7215" stroke="#00579F" stroke-linecap="round" stroke-linejoin="round"/>
<path d="M16.9543 53.2562C16.9543 53.2562 10.3365 49.8061 12.1796 43.3564" stroke="#00579F" stroke-linecap="round" stroke-linejoin="round"/>
<path d="M25.1353 40.8726C25.1353 40.8726 18.0915 40.9224 14.4053 47.683" stroke="#00579F" stroke-linecap="round" stroke-linejoin="round"/>
<path d="M30.8797 42.9409C30.8797 42.9409 23.1366 42.9476 16.9531 50.4547" stroke="#00579F" stroke-linecap="round" stroke-linejoin="round"/>
<path d="M45.541 46.6722C48.112 45.5083 51.2884 44.6587 55.0904 44.6587C67.1974 44.6587 74.0768 53.2649 74.0768 53.2649" stroke="#00579F" stroke-linecap="round" stroke-linejoin="round"/>
<path d="M53.2695 51.6721C55.6393 51.3778 58.6933 51.5873 62.0642 53.2649" stroke="#00579F" stroke-linecap="round" stroke-linejoin="round"/>
<path d="M49.834 48.8936C51.3769 48.4497 53.1613 48.1587 55.1839 48.1587C63.6516 48.1587 68.4213 53.2632 68.4213 53.2632" stroke="#00579F" stroke-linecap="round" stroke-linejoin="round"/>
<path d="M47.751 47.6185C49.8809 46.7755 52.4418 46.1836 55.4287 46.1836C65.0435 46.1836 71.2488 53.2584 71.2488 53.2584" stroke="#00579F" stroke-linecap="round" stroke-linejoin="round"/>
<path d="M51.5166 50.1043C52.5329 49.8682 53.6633 49.7202 54.8943 49.7202C61.6815 49.7202 65.0441 53.2651 65.0441 53.2651" stroke="#00579F" stroke-linecap="round" stroke-linejoin="round"/>
<path d="M17.8457 53.2533C17.8457 53.2533 23.6216 44.6587 35.7286 44.6587C47.8356 44.6587 54.715 53.2533 54.715 53.2533H17.8457Z" stroke="#00579F" stroke-linecap="round" stroke-linejoin="round"/>
<path d="M28.9434 53.2649C28.9434 53.2649 34.996 49.429 42.7006 53.2649" stroke="#00579F" stroke-linecap="round" stroke-linejoin="round"/>
<path d="M23.0732 53.2647C23.0732 53.2647 27.3532 48.1602 35.8225 48.1602C44.2919 48.1602 49.0599 53.2647 49.0599 53.2647" stroke="#00579F" stroke-linecap="round" stroke-linejoin="round"/>
<path d="M20.5205 53.2565C20.5205 53.2565 25.748 46.1816 36.0655 46.1816C45.6803 46.1816 51.8856 53.2565 51.8856 53.2565" stroke="#00579F" stroke-linecap="round" stroke-linejoin="round"/>
<path d="M25.9307 53.2651C25.9307 53.2651 29.5079 49.7202 35.5304 49.7202C42.3176 49.7202 45.6802 53.2651 45.6802 53.2651" stroke="#00579F" stroke-linecap="round" stroke-linejoin="round"/>
<path d="M46.2117 82.0229H61.5589C84.5485 75.8244 81.6136 53.2563 81.6136 53.2563H10.8099C10.8099 53.2563 7.87497 75.8244 30.8646 82.0229H46.2117Z" stroke="#00579F" stroke-linecap="round" stroke-linejoin="round"/>
<path d="M61.2533 82.0229H30.8643V85.917H61.2533V82.0229Z" stroke="#00579F" stroke-linecap="round" stroke-linejoin="round"/>
<path d="M79.0212 68.3269C79.8581 66.5578 80.4451 64.792 80.8526 63.126C68.7473 63.126 23.4036 63.126 11.5684 63.126C11.9692 64.7604 12.5411 66.4896 13.3511 68.2222C23.4003 68.2222 70.5334 68.3269 79.0195 68.3269H79.0212Z" stroke="#00579F" stroke-linecap="round" stroke-linejoin="round"/>
<path d="M80.1058 53.253C80.1058 53.253 81.7628 44.6701 77.3554 40.3853C79.0928 42.6615 79.1784 48.2316 77.3369 53.253H80.1058Z" stroke="#00579F" stroke-linecap="round" stroke-linejoin="round"/>
</g>
<g opacity="0.3" clip-path="url(#clip2_2374_8521)">
<path d="M215.1 260.842V264.982C215.1 267.148 216.849 268.902 219.009 268.902H224.971C227.131 268.902 228.881 267.148 228.881 264.982V260.842H215.1Z" stroke="#00579F" stroke-linecap="round" stroke-linejoin="round"/>
<path d="M207.007 250.156H293.993C296.152 250.156 297.902 251.911 297.902 254.076V256.922C297.902 259.087 296.152 260.842 293.993 260.842H207.007C204.848 260.842 203.098 259.087 203.098 256.922V254.076C203.098 251.911 204.848 250.156 207.007 250.156Z" stroke="#00579F" stroke-linecap="round" stroke-linejoin="round"/>
<path d="M217.317 221.411H226.349C231.747 221.411 236.123 225.798 236.123 231.211V240.268C236.123 245.681 231.747 250.068 226.349 250.068H217.317C211.919 250.068 207.543 245.681 207.543 240.268V231.211C207.543 225.798 211.919 221.411 217.317 221.411Z" stroke="#00579F" stroke-linecap="round" stroke-linejoin="round"/>
<path d="M217.975 223.486H225.688C230.297 223.486 234.033 227.233 234.033 231.854V239.588C234.033 244.209 230.297 247.955 225.688 247.955H217.975C213.366 247.955 209.63 244.209 209.63 239.588V231.854C209.63 227.233 213.366 223.486 217.975 223.486Z" stroke="#00579F" stroke-linecap="round" stroke-linejoin="round"/>
<path d="M223.74 235.721C223.74 236.778 224.594 237.634 225.648 237.634C226.701 237.634 227.556 236.778 227.556 235.721C227.556 234.665 226.701 233.808 225.648 233.808C224.594 233.808 223.74 234.665 223.74 235.721Z" stroke="#00579F" stroke-linecap="round" stroke-linejoin="round"/>
<path d="M227.553 235.721C227.553 236.778 228.408 237.634 229.461 237.634C230.515 237.634 231.369 236.778 231.369 235.721C231.369 234.665 230.515 233.808 229.461 233.808C228.408 233.808 227.553 234.665 227.553 235.721Z" stroke="#00579F" stroke-linecap="round" stroke-linejoin="round"/>
<path d="M219.927 235.721C219.927 236.778 220.781 237.634 221.834 237.634C222.888 237.634 223.742 236.778 223.742 235.721C223.742 234.665 222.888 233.808 221.834 233.808C220.781 233.808 219.927 234.665 219.927 235.721Z" stroke="#00579F" stroke-linecap="round" stroke-linejoin="round"/>
<path d="M216.11 235.721C216.11 236.778 216.964 237.634 218.018 237.634C219.072 237.634 219.926 236.778 219.926 235.721C219.926 234.665 219.072 233.808 218.018 233.808C216.964 233.808 216.11 234.665 216.11 235.721Z" stroke="#00579F" stroke-linecap="round" stroke-linejoin="round"/>
<path d="M212.297 235.721C212.297 236.778 213.151 237.634 214.204 237.634C215.258 237.634 216.112 236.778 216.112 235.721C216.112 234.665 215.258 233.808 214.204 233.808C213.151 233.808 212.297 234.665 212.297 235.721Z" stroke="#00579F" stroke-linecap="round" stroke-linejoin="round"/>
<path d="M223.74 229.131C223.74 230.188 224.594 231.044 225.648 231.044C226.701 231.044 227.556 230.188 227.556 229.131C227.556 228.075 226.701 227.218 225.648 227.218C224.594 227.218 223.74 228.075 223.74 229.131Z" stroke="#00579F" stroke-linecap="round" stroke-linejoin="round"/>
<path d="M219.927 229.131C219.927 230.188 220.781 231.044 221.834 231.044C222.888 231.044 223.742 230.188 223.742 229.131C223.742 228.075 222.888 227.218 221.834 227.218C220.781 227.218 219.927 228.075 219.927 229.131Z" stroke="#00579F" stroke-linecap="round" stroke-linejoin="round"/>
<path d="M216.11 229.131C216.11 230.188 216.964 231.044 218.018 231.044C219.072 231.044 219.926 230.188 219.926 229.131C219.926 228.075 219.072 227.218 218.018 227.218C216.964 227.218 216.11 228.075 216.11 229.131Z" stroke="#00579F" stroke-linecap="round" stroke-linejoin="round"/>
<path d="M223.74 242.348C223.74 243.404 224.594 244.261 225.648 244.261C226.701 244.261 227.556 243.404 227.556 242.348C227.556 241.291 226.701 240.435 225.648 240.435C224.594 240.435 223.74 241.291 223.74 242.348Z" stroke="#00579F" stroke-linecap="round" stroke-linejoin="round"/>
<path d="M219.927 242.348C219.927 243.404 220.781 244.261 221.834 244.261C222.888 244.261 223.742 243.404 223.742 242.348C223.742 241.291 222.888 240.435 221.834 240.435C220.781 240.435 219.927 241.291 219.927 242.348Z" stroke="#00579F" stroke-linecap="round" stroke-linejoin="round"/>
<path d="M216.11 242.348C216.11 243.404 216.964 244.261 218.018 244.261C219.072 244.261 219.926 243.404 219.926 242.348C219.926 241.291 219.072 240.435 218.018 240.435C216.964 240.435 216.11 241.291 216.11 242.348Z" stroke="#00579F" stroke-linecap="round" stroke-linejoin="round"/>
<path d="M225.647 239.029C225.647 240.086 226.501 240.942 227.555 240.942C228.609 240.942 229.463 240.086 229.463 239.029C229.463 237.973 228.609 237.116 227.555 237.116C226.501 237.116 225.647 237.973 225.647 239.029Z" stroke="#00579F" stroke-linecap="round" stroke-linejoin="round"/>
<path d="M214.203 239.029C214.203 240.086 215.057 240.942 216.111 240.942C217.164 240.942 218.019 240.086 218.019 239.029C218.019 237.973 217.164 237.116 216.111 237.116C215.057 237.116 214.203 237.973 214.203 239.029Z" stroke="#00579F" stroke-linecap="round" stroke-linejoin="round"/>
<path d="M221.832 239.029C221.832 240.086 222.686 240.942 223.74 240.942C224.793 240.942 225.647 240.086 225.647 239.029C225.647 237.973 224.793 237.116 223.74 237.116C222.686 237.116 221.832 237.973 221.832 239.029Z" stroke="#00579F" stroke-linecap="round" stroke-linejoin="round"/>
<path d="M218.018 239.029C218.018 240.086 218.873 240.942 219.926 240.942C220.98 240.942 221.834 240.086 221.834 239.029C221.834 237.973 220.98 237.116 219.926 237.116C218.873 237.116 218.018 237.973 218.018 239.029Z" stroke="#00579F" stroke-linecap="round" stroke-linejoin="round"/>
<path d="M225.647 232.44C225.647 233.496 226.501 234.353 227.555 234.353C228.609 234.353 229.463 233.496 229.463 232.44C229.463 231.383 228.609 230.527 227.555 230.527C226.501 230.527 225.647 231.383 225.647 232.44Z" stroke="#00579F" stroke-linecap="round" stroke-linejoin="round"/>
<path d="M214.203 232.44C214.203 233.496 215.057 234.353 216.111 234.353C217.164 234.353 218.019 233.496 218.019 232.44C218.019 231.383 217.164 230.527 216.111 230.527C215.057 230.527 214.203 231.383 214.203 232.44Z" stroke="#00579F" stroke-linecap="round" stroke-linejoin="round"/>
<path d="M221.832 232.44C221.832 233.496 222.686 234.353 223.74 234.353C224.793 234.353 225.647 233.496 225.647 232.44C225.647 231.383 224.793 230.527 223.74 230.527C222.686 230.527 221.832 231.383 221.832 232.44Z" stroke="#00579F" stroke-linecap="round" stroke-linejoin="round"/>
<path d="M218.018 232.44C218.018 233.496 218.873 234.353 219.926 234.353C220.98 234.353 221.834 233.496 221.834 232.44C221.834 231.383 220.98 230.527 219.926 230.527C218.873 230.527 218.018 231.383 218.018 232.44Z" stroke="#00579F" stroke-linecap="round" stroke-linejoin="round"/>
<path d="M260.272 193.098H269.304C274.702 193.098 279.078 197.486 279.078 202.898V211.956C279.078 217.368 274.702 221.756 269.304 221.756H260.272C254.874 221.756 250.498 217.368 250.498 211.956V202.898C250.498 197.486 254.874 193.098 260.272 193.098Z" stroke="#00579F" stroke-linecap="round" stroke-linejoin="round"/>
<path d="M260.93 195.174H268.644C273.252 195.174 276.988 198.92 276.988 203.541V211.275C276.988 215.897 273.252 219.643 268.644 219.643H260.93C256.321 219.643 252.585 215.897 252.585 211.275V203.541C252.585 198.92 256.321 195.174 260.93 195.174Z" stroke="#00579F" stroke-linecap="round" stroke-linejoin="round"/>
<path d="M259.065 207.409C259.065 208.465 259.919 209.322 260.973 209.322C262.027 209.322 262.881 208.465 262.881 207.409C262.881 206.352 262.027 205.496 260.973 205.496C259.919 205.496 259.065 206.352 259.065 207.409Z" stroke="#00579F" stroke-linecap="round" stroke-linejoin="round"/>
<path d="M255.252 207.409C255.252 208.465 256.106 209.322 257.16 209.322C258.213 209.322 259.067 208.465 259.067 207.409C259.067 206.352 258.213 205.496 257.16 205.496C256.106 205.496 255.252 206.352 255.252 207.409Z" stroke="#00579F" stroke-linecap="round" stroke-linejoin="round"/>
<path d="M259.065 200.819C259.065 201.875 259.919 202.732 260.973 202.732C262.027 202.732 262.881 201.875 262.881 200.819C262.881 199.762 262.027 198.906 260.973 198.906C259.919 198.906 259.065 199.762 259.065 200.819Z" stroke="#00579F" stroke-linecap="round" stroke-linejoin="round"/>
<path d="M259.065 214.033C259.065 215.09 259.919 215.946 260.973 215.946C262.027 215.946 262.881 215.09 262.881 214.033C262.881 212.977 262.027 212.12 260.973 212.12C259.919 212.12 259.065 212.977 259.065 214.033Z" stroke="#00579F" stroke-linecap="round" stroke-linejoin="round"/>
<path d="M257.158 210.715C257.158 211.771 258.012 212.628 259.066 212.628C260.119 212.628 260.974 211.771 260.974 210.715C260.974 209.658 260.119 208.802 259.066 208.802C258.012 208.802 257.158 209.658 257.158 210.715Z" stroke="#00579F" stroke-linecap="round" stroke-linejoin="round"/>
<path d="M257.158 204.127C257.158 205.184 258.012 206.04 259.066 206.04C260.119 206.04 260.974 205.184 260.974 204.127C260.974 203.071 260.119 202.214 259.066 202.214C258.012 202.214 257.158 203.071 257.158 204.127Z" stroke="#00579F" stroke-linecap="round" stroke-linejoin="round"/>
<path d="M231.692 193.276H240.724C246.122 193.276 250.498 197.664 250.498 203.076V212.134C250.498 217.546 246.122 221.934 240.724 221.934H231.692C226.294 221.934 221.918 217.546 221.918 212.134V203.076C221.918 197.664 226.294 193.276 231.692 193.276Z" stroke="#00579F" stroke-linecap="round" stroke-linejoin="round"/>
<path d="M232.352 195.37H240.065C244.674 195.37 248.41 199.116 248.41 203.737V211.471C248.41 216.092 244.674 219.839 240.065 219.839H232.352C227.743 219.839 224.007 216.092 224.007 211.471V203.737C224.007 199.116 227.743 195.37 232.352 195.37Z" stroke="#00579F" stroke-linecap="round" stroke-linejoin="round"/>
<path d="M238.584 200.064H233.83C230.991 200.064 228.687 202.375 228.687 205.221V209.988C228.687 212.834 230.991 215.144 233.83 215.144H238.584C241.422 215.144 243.727 212.834 243.727 209.988V205.221C243.727 202.375 241.422 200.064 238.584 200.064Z" stroke="#00579F" stroke-linecap="round" stroke-linejoin="round"/>
<path d="M242.062 213.788C242.062 213.788 237.953 203.89 230.056 201.75" stroke="#00579F" stroke-linecap="round" stroke-linejoin="round"/>
<path d="M236.209 215.182C236.209 215.182 233.787 209 228.82 207.773" stroke="#00579F" stroke-linecap="round" stroke-linejoin="round"/>
<path d="M243.729 206.932C243.729 206.932 242.39 201.75 236.905 200.064" stroke="#00579F" stroke-linecap="round" stroke-linejoin="round"/>
<path d="M243.645 210.911C243.645 210.911 240.022 202.071 232.514 200.234" stroke="#00579F" stroke-linecap="round" stroke-linejoin="round"/>
<path d="M239.433 215.074C239.433 215.074 236.426 205.854 228.689 204.629" stroke="#00579F" stroke-linecap="round" stroke-linejoin="round"/>
<path d="M232.979 215.074C232.979 215.074 231.803 211.695 228.771 210.591" stroke="#00579F" stroke-linecap="round" stroke-linejoin="round"/>
<path d="M245.895 221.393H254.928C260.325 221.393 264.701 225.781 264.701 231.193V240.25C264.701 245.663 260.325 250.051 254.928 250.051H245.895C240.497 250.051 236.121 245.663 236.121 240.25V231.193C236.121 225.781 240.497 221.393 245.895 221.393Z" stroke="#00579F" stroke-linecap="round" stroke-linejoin="round"/>
<path d="M246.555 223.486H254.269C258.877 223.486 262.613 227.233 262.613 231.854V239.588C262.613 244.209 258.877 247.955 254.269 247.955H246.555C241.946 247.955 238.21 244.209 238.21 239.588V231.854C238.21 227.233 241.946 223.486 246.555 223.486Z" stroke="#00579F" stroke-linecap="round" stroke-linejoin="round"/>
<path d="M248.035 228.181H252.789C255.629 228.181 257.932 230.489 257.932 233.337V238.104C257.932 240.952 255.629 243.261 252.789 243.261H248.035C245.194 243.261 242.892 240.952 242.892 238.104V233.337C242.892 230.489 245.194 228.181 248.035 228.181Z" stroke="#00579F" stroke-linecap="round" stroke-linejoin="round"/>
<path d="M250.479 233.545C248.794 231.971 246.643 230.513 244.261 229.866" stroke="#00579F" stroke-linecap="round" stroke-linejoin="round"/>
<path d="M250.412 243.299C250.412 243.299 247.99 237.117 243.023 235.89" stroke="#00579F" stroke-linecap="round" stroke-linejoin="round"/>
<path d="M250.68 230.117C249.544 229.384 248.125 228.696 246.717 228.353" stroke="#00579F" stroke-linecap="round" stroke-linejoin="round"/>
<path d="M250.412 237.424C248.694 235.27 246.278 233.283 242.892 232.746" stroke="#00579F" stroke-linecap="round" stroke-linejoin="round"/>
<path d="M247.185 243.191C247.185 243.191 246.008 239.812 242.976 238.708" stroke="#00579F" stroke-linecap="round" stroke-linejoin="round"/>
<path d="M250.412 243.261H252.789C255.629 243.261 257.932 240.952 257.932 238.104V233.337C257.932 230.49 255.629 228.181 252.789 228.181H250.351" stroke="#00579F" stroke-linecap="round" stroke-linejoin="round"/>
<path d="M255.764 229.131C255.764 229.131 254.79 237.109 255.764 242.346" stroke="#00579F" stroke-linecap="round" stroke-linejoin="round"/>
<path d="M253.203 228.274C253.203 228.274 252.23 237.287 253.203 243.202" stroke="#00579F" stroke-linecap="round" stroke-linejoin="round"/>
<path d="M250.844 228.274C250.844 228.274 249.87 237.287 250.844 243.202" stroke="#00579F" stroke-linecap="round" stroke-linejoin="round"/>
</g>
</g>
<defs>
<clipPath id="clip0_2374_8521">
<rect width="260" height="348" rx="12" fill="white"/>
</clipPath>
<clipPath id="clip1_2374_8521">
<rect width="82" height="75" fill="white" transform="translate(10 11)"/>
</clipPath>
<clipPath id="clip2_2374_8521">
<rect width="95" height="76" fill="white" transform="matrix(-1 0 0 1 298 193)"/>
</clipPath>
</defs>
</svg>
