<svg width="462" height="648" viewBox="0 0 462 648" fill="none" xmlns="http://www.w3.org/2000/svg">
<g filter="url(#filter0_d_2380_29784)">
<g clip-path="url(#clip0_2380_29784)">
<rect x="4" y="2" width="454" height="640" rx="12" fill="#FBF9F3"/>
<g opacity="0.2" clip-path="url(#clip1_2380_29784)">
<path d="M383.64 2.10352C383.511 2.10352 383.407 2.00102 383.407 1.87404C383.407 -3.82768 378.732 -8.46463 372.985 -8.46463C367.237 -8.46463 362.562 -3.82615 362.562 1.87404C362.562 2.00102 362.458 2.10352 362.329 2.10352C362.201 2.10352 362.097 2.00102 362.097 1.87404C362.095 -4.0801 366.98 -8.92358 372.985 -8.92358C378.989 -8.92358 383.873 -4.0801 383.873 1.87404C383.873 2.00102 383.769 2.10352 383.64 2.10352Z" fill="#8CCBFE" stroke="#8CCBFE" stroke-miterlimit="10"/>
<path d="M383.714 7.5115C383.456 7.5115 383.248 7.3065 383.248 7.05254V2.31156C383.248 1.90157 380.814 0.784782 373.001 0.763364C365.189 0.783252 362.754 1.90157 362.754 2.31156V7.05254C362.754 7.3065 362.546 7.5115 362.289 7.5115C362.031 7.5115 361.823 7.3065 361.823 7.05254V2.31156C361.823 1.3187 363.105 0.691462 365.979 0.279934C367.789 0.019861 370.233 -0.134653 372.748 -0.153011C372.761 -0.153011 372.775 -0.154541 372.787 -0.154541H373.215C373.228 -0.154541 373.242 -0.154541 373.254 -0.153011C375.769 -0.136183 378.215 0.019861 380.024 0.279934C382.898 0.691462 384.179 1.3187 384.179 2.31156V7.05254C384.179 7.3065 383.971 7.5115 383.714 7.5115Z" fill="#8CCBFE" stroke="#8CCBFE" stroke-miterlimit="10"/>
<path d="M373.214 67.9235H372.786C372.774 67.9235 372.76 67.9235 372.747 67.922C370.232 67.9052 367.787 67.7491 365.978 67.4906C363.104 67.0791 361.822 66.4518 361.822 65.459V60.718C361.822 60.464 362.03 60.259 362.288 60.259C362.545 60.259 362.753 60.464 362.753 60.718V65.459C362.753 65.869 365.188 66.9857 373 67.0056C380.813 66.9857 383.247 65.8674 383.247 65.459V60.718C383.247 60.464 383.455 60.259 383.713 60.259C383.97 60.259 384.178 60.464 384.178 60.718V65.459C384.178 66.4518 382.897 67.0791 380.023 67.4906C378.214 67.7507 375.768 67.9052 373.253 67.922C373.241 67.922 373.227 67.9235 373.214 67.9235Z" fill="#8CCBFE" stroke="#8CCBFE" stroke-miterlimit="10"/>
<path d="M387.537 59.9148C387.362 59.9148 387.106 59.1483 387.339 59.0397C389.185 58.186 390.338 57.1335 390.768 55.9096C392.125 52.0422 392.971 41.5108 392.991 33.8325C392.965 26.1634 392.119 15.7085 390.768 11.8578C390.33 10.611 389.143 9.54319 387.239 8.68189C387.311 8.23976 387.404 7.74562 387.627 7.84812C389.772 8.81804 391.123 10.0664 391.647 11.558C393.013 15.4453 393.873 25.8115 393.921 33.5265C393.921 33.5403 393.922 33.5541 393.922 33.5678V34.1017C393.922 34.1354 393.922 34.1675 393.922 34.2012C393.922 34.218 393.922 34.2333 393.919 34.2486C393.871 41.9636 393.011 52.3237 391.646 56.211C391.131 57.6781 389.813 58.9097 387.733 59.8719C387.669 59.901 387.602 59.9163 387.536 59.9163L387.537 59.9148Z" fill="#8CCBFE" stroke="#8CCBFE" stroke-miterlimit="10"/>
<path d="M373.214 62.2218H372.786C367.656 62.2218 363.051 61.6068 359.816 60.49C359.574 60.4059 359.881 59.54 360.123 59.6242C363.26 60.7073 367.759 61.3039 372.786 61.3039H373.214C378.209 61.3039 382.684 60.7149 385.818 59.644C386.06 59.5614 386.366 60.4289 386.122 60.5115C382.893 61.6145 378.308 62.2218 373.214 62.2218Z" fill="#8CCBFE" stroke="#8CCBFE" stroke-miterlimit="10"/>
<path d="M358.532 59.9468C358.467 59.9468 358.4 59.933 358.336 59.904C356.212 58.9356 354.872 57.6933 354.352 56.2094C352.986 52.3221 352.127 41.9559 352.079 34.2409C352.079 34.2286 352.077 34.2149 352.077 34.2026V33.7192C352.077 33.6687 352.077 33.6182 352.077 33.5677C352.077 33.5509 352.077 33.5341 352.08 33.5188C352.128 25.8053 352.988 15.4452 354.353 11.5594C354.872 10.0831 356.203 8.84396 358.309 7.87863C358.541 7.77154 358.934 8.60378 358.701 8.71086C356.833 9.56758 355.666 10.6262 355.233 11.8593C353.874 15.7313 353.027 26.2811 353.01 33.9624C353.038 41.63 353.882 52.065 355.233 55.9111C355.668 57.1502 356.844 58.2135 358.729 59.0717C358.962 59.1788 358.709 59.9468 358.534 59.9468H358.532Z" fill="#8CCBFE" stroke="#8CCBFE" stroke-miterlimit="10"/>
<path d="M386.049 8.17716C385.998 8.17716 385.945 8.16951 385.895 8.15115C382.756 7.06497 378.253 6.46527 373.215 6.46527H372.787C367.791 6.46527 363.314 7.05426 360.18 8.12515C359.936 8.20776 359.632 7.34034 359.876 7.25773C363.105 6.15471 367.69 5.54736 372.787 5.54736H373.215C378.356 5.54736 382.969 6.16389 386.204 7.28526C386.446 7.3694 386.241 8.17716 386.051 8.17716H386.049Z" fill="#8CCBFE" stroke="#8CCBFE" stroke-miterlimit="10"/>
<path d="M359.97 60.6138C359.941 60.6138 359.911 60.6077 359.883 60.597L358.499 60.0508C358.411 60.0156 358.354 59.9315 358.354 59.8382V7.91228C358.354 7.81896 358.411 7.73329 358.499 7.69964L359.883 7.15501C359.955 7.12595 360.037 7.13512 360.101 7.17796C360.164 7.2208 360.203 7.29117 360.203 7.36766V60.3843C360.203 60.4608 360.164 60.5312 360.101 60.574C360.062 60.6 360.017 60.6138 359.97 60.6138ZM358.819 59.6837L359.738 60.0462V7.70576L358.819 8.0668V59.6821V59.6837Z" fill="#8CCBFE" stroke="#8CCBFE" stroke-miterlimit="10"/>
<path d="M386.049 31.833H359.971V35.9376H386.049V31.833Z" stroke="#8CCBFE" stroke-miterlimit="10"/>
<path d="M386.049 27.2786H359.971V31.3724H386.049V27.2786Z" stroke="#8CCBFE" stroke-miterlimit="10"/>
<path d="M386.049 36.3965H359.971V40.4903H386.049V36.3965Z" stroke="#8CCBFE" stroke-miterlimit="10"/>
<path d="M386.049 22.7258H359.971V26.8197H386.049V22.7258Z" stroke="#8CCBFE" stroke-miterlimit="10"/>
<path d="M386.049 40.9492H359.971V45.0431H386.049V40.9492Z" stroke="#8CCBFE" stroke-miterlimit="10"/>
<path d="M386.049 50.0549H359.971V54.1488H386.049V50.0549Z" stroke="#8CCBFE" stroke-miterlimit="10"/>
<path d="M386.049 45.5022H359.971V49.5961H386.049V45.5022Z" stroke="#8CCBFE" stroke-miterlimit="10"/>
<path d="M386.049 13.6187H359.971V17.7125H386.049V13.6187Z" stroke="#8CCBFE" stroke-miterlimit="10"/>
<path d="M386.049 18.1731H359.971V22.267H386.049V18.1731Z" stroke="#8CCBFE" stroke-miterlimit="10"/>
<path d="M354.616 31.374C354.487 31.374 354.383 31.4765 354.383 31.6035C354.383 31.7305 354.487 31.833 354.616 31.833H358.586V31.374H354.616Z" fill="#8CCBFE" stroke="#8CCBFE" stroke-miterlimit="10"/>
<path d="M391.535 31.833C391.664 31.833 391.768 31.7305 391.768 31.6035C391.768 31.4765 391.664 31.374 391.535 31.374H387.433V31.833H391.535Z" fill="#8CCBFE" stroke="#8CCBFE" stroke-miterlimit="10"/>
<path d="M386.049 31.374H359.971V31.833H386.049V31.374Z" fill="#8CCBFE" stroke="#8CCBFE" stroke-miterlimit="10"/>
<path d="M354.616 26.8196C354.487 26.8196 354.383 26.9221 354.383 27.0491C354.383 27.176 354.487 27.2785 354.616 27.2785H358.586V26.8196H354.616Z" fill="#8CCBFE" stroke="#8CCBFE" stroke-miterlimit="10"/>
<path d="M391.535 27.2785C391.664 27.2785 391.768 27.176 391.768 27.0491C391.768 26.9221 391.664 26.8196 391.535 26.8196H387.433V27.2785H391.535Z" fill="#8CCBFE" stroke="#8CCBFE" stroke-miterlimit="10"/>
<path d="M386.049 26.8196H359.971V27.2785H386.049V26.8196Z" fill="#8CCBFE" stroke="#8CCBFE" stroke-miterlimit="10"/>
<path d="M391.535 22.7258C391.664 22.7258 391.768 22.6233 391.768 22.4963C391.768 22.3693 391.664 22.2668 391.535 22.2668H387.433V22.7258H391.535Z" fill="#8CCBFE" stroke="#8CCBFE" stroke-miterlimit="10"/>
<path d="M354.616 22.2668C354.487 22.2668 354.383 22.3693 354.383 22.4963C354.383 22.6233 354.487 22.7258 354.616 22.7258H358.586V22.2668H354.616Z" fill="#8CCBFE" stroke="#8CCBFE" stroke-miterlimit="10"/>
<path d="M386.049 22.2668H359.971V22.7258H386.049V22.2668Z" fill="#8CCBFE" stroke="#8CCBFE" stroke-miterlimit="10"/>
<path d="M390.78 18.1731C390.908 18.1731 391.012 18.0706 391.012 17.9436C391.012 17.8166 390.908 17.7141 390.78 17.7141H387.433V18.1731H390.78Z" fill="#8CCBFE" stroke="#8CCBFE" stroke-miterlimit="10"/>
<path d="M386.049 17.7141H359.971V18.1731H386.049V17.7141Z" fill="#8CCBFE" stroke="#8CCBFE" stroke-miterlimit="10"/>
<path d="M355.114 17.7141C354.985 17.7141 354.881 17.8166 354.881 17.9436C354.881 18.0706 354.985 18.1731 355.114 18.1731H358.585V17.7141H355.114Z" fill="#8CCBFE" stroke="#8CCBFE" stroke-miterlimit="10"/>
<path d="M389.923 13.6186C390.052 13.6186 390.156 13.5161 390.156 13.3891C390.156 13.2622 390.052 13.1597 389.923 13.1597H387.433V13.6186H389.923Z" fill="#8CCBFE" stroke="#8CCBFE" stroke-miterlimit="10"/>
<path d="M356.077 13.1597C355.949 13.1597 355.845 13.2622 355.845 13.3891C355.845 13.5161 355.949 13.6186 356.077 13.6186H358.585V13.1597H356.077Z" fill="#8CCBFE" stroke="#8CCBFE" stroke-miterlimit="10"/>
<path d="M386.049 13.1597H359.971V13.6186H386.049V13.1597Z" fill="#8CCBFE" stroke="#8CCBFE" stroke-miterlimit="10"/>
<path d="M361.54 9.06589H384.744C384.872 9.06589 384.976 8.96339 384.976 8.83641C384.976 8.70943 384.872 8.60693 384.744 8.60693H361.54C361.412 8.60693 361.308 8.70943 361.308 8.83641C361.308 8.96339 361.412 9.06589 361.54 9.06589Z" fill="#8CCBFE" stroke="#8CCBFE" stroke-miterlimit="10"/>
<path d="M354.465 35.9375C354.336 35.9375 354.232 36.04 354.232 36.167C354.232 36.294 354.336 36.3965 354.465 36.3965H358.586V35.9375H354.465Z" fill="#8CCBFE" stroke="#8CCBFE" stroke-miterlimit="10"/>
<path d="M391.385 36.3965C391.513 36.3965 391.617 36.294 391.617 36.167C391.617 36.04 391.513 35.9375 391.385 35.9375H387.433V36.3965H391.385Z" fill="#8CCBFE" stroke="#8CCBFE" stroke-miterlimit="10"/>
<path d="M386.049 35.9375H359.971V36.3965H386.049V35.9375Z" fill="#8CCBFE" stroke="#8CCBFE" stroke-miterlimit="10"/>
<path d="M386.049 40.4905H359.971V40.9494H386.049V40.4905Z" fill="#8CCBFE" stroke="#8CCBFE" stroke-miterlimit="10"/>
<path d="M354.465 40.4905C354.336 40.4905 354.232 40.593 354.232 40.72C354.232 40.8469 354.336 40.9494 354.465 40.9494H358.586V40.4905H354.465Z" fill="#8CCBFE" stroke="#8CCBFE" stroke-miterlimit="10"/>
<path d="M391.385 40.9494C391.513 40.9494 391.617 40.8469 391.617 40.72C391.617 40.593 391.513 40.4905 391.385 40.4905H387.433V40.9494H391.385Z" fill="#8CCBFE" stroke="#8CCBFE" stroke-miterlimit="10"/>
<path d="M391.385 45.5022C391.513 45.5022 391.617 45.3997 391.617 45.2727C391.617 45.1457 391.513 45.0432 391.385 45.0432H387.433V45.5022H391.385Z" fill="#8CCBFE" stroke="#8CCBFE" stroke-miterlimit="10"/>
<path d="M354.465 45.0432C354.336 45.0432 354.232 45.1457 354.232 45.2727C354.232 45.3997 354.336 45.5022 354.465 45.5022H358.586V45.0432H354.465Z" fill="#8CCBFE" stroke="#8CCBFE" stroke-miterlimit="10"/>
<path d="M386.049 45.0432H359.971V45.5022H386.049V45.0432Z" fill="#8CCBFE" stroke="#8CCBFE" stroke-miterlimit="10"/>
<path d="M355.221 49.5959C355.092 49.5959 354.988 49.6984 354.988 49.8254C354.988 49.9524 355.092 50.0549 355.221 50.0549H358.587V49.5959H355.221Z" fill="#8CCBFE" stroke="#8CCBFE" stroke-miterlimit="10"/>
<path d="M390.885 50.0549C391.014 50.0549 391.118 49.9524 391.118 49.8254C391.118 49.6984 391.014 49.5959 390.885 49.5959H387.433V50.0549H390.885Z" fill="#8CCBFE" stroke="#8CCBFE" stroke-miterlimit="10"/>
<path d="M386.049 49.5959H359.971V50.0549H386.049V49.5959Z" fill="#8CCBFE" stroke="#8CCBFE" stroke-miterlimit="10"/>
<path d="M356.077 54.1504C355.949 54.1504 355.845 54.2529 355.845 54.3799C355.845 54.5068 355.949 54.6093 356.077 54.6093H358.586V54.1504H356.077Z" fill="#8CCBFE" stroke="#8CCBFE" stroke-miterlimit="10"/>
<path d="M389.921 54.6093C390.05 54.6093 390.154 54.5068 390.154 54.3799C390.154 54.2529 390.05 54.1504 389.921 54.1504H387.433V54.6093H389.921Z" fill="#8CCBFE" stroke="#8CCBFE" stroke-miterlimit="10"/>
<path d="M386.049 54.1504H359.971V54.6093H386.049V54.1504Z" fill="#8CCBFE" stroke="#8CCBFE" stroke-miterlimit="10"/>
<path d="M384.46 58.7031H361.255C361.126 58.7031 361.022 58.8056 361.022 58.9326C361.022 59.0596 361.126 59.1621 361.255 59.1621H384.459C384.587 59.1621 384.691 59.0596 384.691 58.9326C384.691 58.8056 384.587 58.7031 384.459 58.7031H384.46Z" fill="#8CCBFE" stroke="#8CCBFE" stroke-miterlimit="10"/>
<path d="M386.049 60.6138C386.003 60.6138 385.958 60.6 385.919 60.574C385.855 60.5312 385.816 60.4608 385.816 60.3843V7.36766C385.816 7.29117 385.855 7.2208 385.919 7.17796C385.982 7.13512 386.065 7.12595 386.136 7.15501L387.52 7.69964C387.609 7.73482 387.666 7.81896 387.666 7.91228V59.8382C387.666 59.9315 387.609 60.0172 387.52 60.0508L386.136 60.597C386.108 60.6077 386.079 60.6138 386.049 60.6138ZM386.282 7.70576V60.0447L387.2 59.6821V8.06833L386.282 7.70729V7.70576Z" fill="#8CCBFE" stroke="#8CCBFE" stroke-miterlimit="10"/>
</g>
<g opacity="0.3" clip-path="url(#clip2_2380_29784)">
<path d="M65.7269 97.9519C61.8292 97.9519 56.0801 96.0615 56.0801 96.0615L65.7185 99.9312L74.5412 96.0615C74.5412 96.0615 69.5271 97.9519 65.7269 97.9519Z" stroke="#8CCBFE" stroke-linecap="round" stroke-linejoin="round"/>
<path d="M90.4438 148.483L88.0662 164.977C88.0662 164.977 82.3784 169.858 65.2675 169.858H66.7319C49.6211 169.858 43.9333 164.977 43.9333 164.977L41.5557 148.483" stroke="#8CCBFE" stroke-linecap="round" stroke-linejoin="round"/>
<path d="M89.2994 104.707C91.78 107.804 93.6175 111.76 93.6175 116.683C93.6175 131.856 90.4465 148.483 90.4465 148.483C90.4465 148.483 88.5533 154.29 81.3064 154.29C74.0595 154.29 67.4947 134.631 65.9551 124.47" stroke="#8CCBFE" stroke-linecap="round" stroke-linejoin="round"/>
<path d="M65.9521 102.958L69.8944 102.3L76.1808 95.5415C76.1808 95.5415 78.4025 96.3032 81.2617 97.9712" stroke="#8CCBFE" stroke-linecap="round" stroke-linejoin="round"/>
<path d="M50.6934 93.1202C53.5776 94.6826 60.0701 97.8156 65.7273 97.8156C71.9859 97.8156 78.3335 94.5769 81.1176 92.959" stroke="#8CCBFE" stroke-linecap="round" stroke-linejoin="round"/>
<path d="M55.4512 95.9224C55.4512 95.9224 53.3576 96.609 50.6348 98.1519" stroke="#8CCBFE" stroke-linecap="round" stroke-linejoin="round"/>
<path d="M42.6917 104.702C40.2222 107.757 38.3848 111.704 38.3848 116.683C38.3848 131.856 41.5558 148.483 41.5558 148.483C41.5558 148.483 43.449 154.291 50.6959 154.291C57.9428 154.291 64.5076 134.631 66.0472 124.47C67.5896 114.178 66.0472 102.961 66.0472 102.961L62.105 102.302" stroke="#8CCBFE" stroke-linecap="round" stroke-linejoin="round"/>
<path d="M55.71 95.7529L62.1049 102.3L65.7187 99.7922L55.71 95.7529Z" stroke="#8CCBFE" stroke-linecap="round" stroke-linejoin="round"/>
<path d="M69.8953 102.3L66.0477 102.958L62.1055 102.3L65.7192 99.7921L73.5507 96.7258L76.577 95.5415" stroke="#8CCBFE" stroke-linecap="round" stroke-linejoin="round"/>
<path d="M65.2368 32.3699H66.8544C68.4775 32.3699 69.7944 33.6848 69.7944 35.3055V43.1228C69.7944 44.7435 68.4775 46.0584 66.8544 46.0584H65.2368C63.6137 46.0584 62.2969 44.7435 62.2969 43.1228V35.3055C62.2969 33.6848 63.6137 32.3699 65.2368 32.3699Z" stroke="#8CCBFE" stroke-linecap="round" stroke-linejoin="round"/>
<path d="M51.4648 42.1969C51.4648 50.4673 62.2976 43.6536 62.2976 43.6536V34.7772C62.2976 34.7772 51.4648 27.9635 51.4648 36.2339V42.1969Z" stroke="#8CCBFE" stroke-linecap="round" stroke-linejoin="round"/>
<path d="M66.0477 102.959C66.0477 102.959 57.5452 99.1334 42.7451 112.196" stroke="#8CCBFE" stroke-linecap="round" stroke-linejoin="round"/>
<path d="M80.5359 42.1969C80.5359 50.4673 69.7031 43.6536 69.7031 43.6536V34.7772C69.7031 34.7772 80.5359 27.9635 80.5359 36.2339V42.1969Z" stroke="#8CCBFE" stroke-linecap="round" stroke-linejoin="round"/>
<path d="M89.2547 112.196C74.4547 99.1334 65.9521 102.959 65.9521 102.959" stroke="#8CCBFE" stroke-linecap="round" stroke-linejoin="round"/>
<path d="M59.558 82.3091C59.558 82.3091 56.3201 82.7038 54.207 82.3091C55.4626 80.1963 58.1715 80.1324 59.558 82.3091Z" stroke="#8CCBFE" stroke-linecap="round" stroke-linejoin="round"/>
<path d="M72.5732 82.259C72.5732 82.259 75.8111 82.6538 77.9242 82.259C76.6686 80.1463 73.9597 80.0823 72.5732 82.259Z" stroke="#8CCBFE" stroke-linecap="round" stroke-linejoin="round"/>
<path d="M63.1377 85.9536C63.1377 85.9536 64.0342 87.4103 65.983 87.4103C67.9318 87.4103 68.7671 85.9536 68.7671 85.9536" stroke="#8CCBFE" stroke-linecap="round" stroke-linejoin="round"/>
<path d="M81.3037 106.375V75.4785L86.9192 74.853C86.9192 74.853 88.7399 100.162 81.3037 106.375Z" stroke="#8CCBFE" stroke-linecap="round" stroke-linejoin="round"/>
<path d="M50.696 106.375V75.4785L45.0805 74.853C45.0805 74.853 43.2598 100.162 50.696 106.375Z" stroke="#8CCBFE" stroke-linecap="round" stroke-linejoin="round"/>
<path d="M66.2811 46.061C92.2342 46.061 99.0635 68.4898 97.6965 84.7053C96.349 100.712 91.9279 106.375 81.3039 106.375C88.7402 100.009 86.9194 74.8531 86.9194 74.8531C86.9194 74.8531 73.2608 76.5211 66.2784 76.5211H65.7188C58.7363 76.5211 45.0777 74.8531 45.0777 74.8531C45.0777 74.8531 43.257 100.009 50.6932 106.375C40.0692 106.375 35.6509 100.712 34.3006 84.7053C32.9392 68.4898 39.7685 46.061 65.7188 46.061H66.2784H66.2811Z" stroke="#8CCBFE" stroke-linecap="round" stroke-linejoin="round"/>
<path d="M66.0469 102.958C66.0469 102.958 66.7317 107.315 66.729 113.45C63.4994 111.257 63.4967 104.61 66.0469 102.958Z" stroke="#8CCBFE" stroke-linecap="round" stroke-linejoin="round"/>
<path d="M81.3037 75.4785L86.9192 74.853C86.9192 74.853 88.7399 100.162 81.3037 106.375" stroke="#8CCBFE" stroke-linecap="round" stroke-linejoin="round"/>
<path d="M50.696 75.4785L45.0805 74.853C45.0805 74.853 43.2598 100.162 50.696 106.375" stroke="#8CCBFE" stroke-linecap="round" stroke-linejoin="round"/>
<path d="M53.5057 135.331C53.514 137.144 50.2372 139.684 50.2372 139.684C50.2372 139.684 46.9381 137.174 46.9297 135.362C46.9214 133.549 48.3858 132.07 50.2038 132.062C52.019 132.053 53.5001 133.519 53.5085 135.331H53.5057Z" stroke="#8CCBFE" stroke-linecap="round" stroke-linejoin="round"/>
<path d="M46.9266 144.977C46.9183 143.162 50.1951 140.624 50.1951 140.624C50.1951 140.624 53.4942 143.134 53.5026 144.95C53.5109 146.762 52.0437 148.241 50.2285 148.249C48.4105 148.258 46.9322 146.793 46.9238 144.98L46.9266 144.977Z" stroke="#8CCBFE" stroke-linecap="round" stroke-linejoin="round"/>
<path d="M45.3872 136.871C47.2024 136.863 49.7471 140.135 49.7471 140.135C49.7471 140.135 47.2331 143.429 45.4151 143.437C43.5999 143.446 42.1187 141.981 42.1104 140.168C42.102 138.356 43.5665 136.877 45.3844 136.868L45.3872 136.871Z" stroke="#8CCBFE" stroke-linecap="round" stroke-linejoin="round"/>
<path d="M55.0454 143.437C53.2302 143.446 50.6855 140.174 50.6855 140.174C50.6855 140.174 53.1996 136.879 55.0148 136.871C56.83 136.863 58.3111 138.328 58.3194 140.14C58.3278 141.953 56.8606 143.429 55.0454 143.44V143.437Z" stroke="#8CCBFE" stroke-linecap="round" stroke-linejoin="round"/>
<path d="M82.7322 113.586C82.7406 115.399 79.4638 117.94 79.4638 117.94C79.4638 117.94 76.1646 115.429 76.1563 113.617C76.1479 111.804 77.6151 110.325 79.4303 110.317C81.2455 110.309 82.7239 111.774 82.735 113.586H82.7322Z" stroke="#8CCBFE" stroke-linecap="round" stroke-linejoin="round"/>
<path d="M76.1532 123.23C76.1448 121.417 79.4217 118.876 79.4217 118.876C79.4217 118.876 82.7208 121.387 82.7291 123.199C82.7375 125.012 81.2703 126.491 79.4551 126.499C77.6399 126.507 76.1587 125.042 76.1504 123.23H76.1532Z" stroke="#8CCBFE" stroke-linecap="round" stroke-linejoin="round"/>
<path d="M74.6139 115.123C76.4291 115.115 78.9738 118.387 78.9738 118.387C78.9738 118.387 76.4598 121.681 74.6446 121.69C72.8294 121.698 71.3482 120.233 71.3399 118.42C71.3315 116.608 72.7987 115.129 74.6139 115.121V115.123Z" stroke="#8CCBFE" stroke-linecap="round" stroke-linejoin="round"/>
<path d="M84.272 121.693C82.4567 121.701 79.9121 118.429 79.9121 118.429C79.9121 118.429 82.4261 115.135 84.2441 115.126C86.0593 115.118 87.5404 116.583 87.5488 118.395C87.5571 120.208 86.0927 121.687 84.2747 121.695L84.272 121.693Z" stroke="#8CCBFE" stroke-linecap="round" stroke-linejoin="round"/>
<path d="M90.7225 136.326C90.472 138.122 86.8666 140.171 86.8666 140.171C86.8666 140.171 83.9601 137.216 84.2106 135.42C84.4612 133.624 86.1233 132.37 87.9218 132.621C89.7203 132.871 90.9759 134.53 90.7253 136.326H90.7225Z" stroke="#8CCBFE" stroke-linecap="round" stroke-linejoin="round"/>
<path d="M82.8354 144.936C83.086 143.14 86.6913 141.091 86.6913 141.091C86.6913 141.091 89.5979 144.046 89.3473 145.842C89.0968 147.638 87.4347 148.892 85.6362 148.642C83.8377 148.391 82.5821 146.732 82.8326 144.936H82.8354Z" stroke="#8CCBFE" stroke-linecap="round" stroke-linejoin="round"/>
<path d="M82.4676 136.693C84.2661 136.944 86.318 140.546 86.318 140.546C86.318 140.546 83.3585 143.449 81.56 143.199C79.7615 142.948 78.5059 141.289 78.7564 139.493C79.007 137.697 80.6691 136.443 82.4676 136.693Z" stroke="#8CCBFE" stroke-linecap="round" stroke-linejoin="round"/>
<path d="M91.0896 144.569C89.2911 144.319 87.2393 140.719 87.2393 140.719C87.2393 140.719 90.1987 137.816 91.9972 138.067L91.0896 144.572V144.569Z" stroke="#8CCBFE" stroke-linecap="round" stroke-linejoin="round"/>
<path d="M39.8347 115.732C39.8932 117.545 43.2619 119.964 43.2619 119.964C43.2619 119.964 46.4664 117.334 46.4079 115.521C46.3495 113.709 44.8294 112.288 43.0141 112.346C41.1989 112.405 39.7763 113.923 39.8347 115.735V115.732Z" stroke="#8CCBFE" stroke-linecap="round" stroke-linejoin="round"/>
<path d="M46.7673 125.129C46.7089 123.316 43.3401 120.898 43.3401 120.898C43.3401 120.898 40.1357 123.528 40.1941 125.34C40.2526 127.153 41.7727 128.573 43.5879 128.515C45.4031 128.456 46.8258 126.939 46.7673 125.126V125.129Z" stroke="#8CCBFE" stroke-linecap="round" stroke-linejoin="round"/>
<path d="M48.0059 116.972C46.1907 117.031 43.7686 120.394 43.7686 120.394C43.7686 120.394 46.4023 123.594 48.2203 123.536C50.0355 123.477 51.4581 121.96 51.3997 120.147C51.3412 118.335 49.8211 116.911 48.0059 116.972Z" stroke="#8CCBFE" stroke-linecap="round" stroke-linejoin="round"/>
<path d="M38.5962 123.892C40.4114 123.833 42.8336 120.47 42.8336 120.47C42.8336 120.47 40.197 117.27 38.3818 117.328L38.5962 123.892Z" stroke="#8CCBFE" stroke-linecap="round" stroke-linejoin="round"/>
<path d="M69.7117 150.868C69.7201 152.681 66.4432 155.222 66.4432 155.222C66.4432 155.222 63.1441 152.711 63.1358 150.896C63.1274 149.084 64.5946 147.605 66.4098 147.596C68.225 147.588 69.7062 149.053 69.7145 150.865L69.7117 150.868Z" stroke="#8CCBFE" stroke-linecap="round" stroke-linejoin="round"/>
<path d="M63.1327 160.515C63.1243 158.702 66.4012 156.161 66.4012 156.161C66.4012 156.161 69.7003 158.672 69.7086 160.487C69.717 162.3 68.2498 163.778 66.4346 163.787C64.6194 163.795 63.1382 162.33 63.1299 160.518L63.1327 160.515Z" stroke="#8CCBFE" stroke-linecap="round" stroke-linejoin="round"/>
<path d="M61.5933 152.408C63.4085 152.4 65.9531 155.672 65.9531 155.672C65.9531 155.672 63.4391 158.966 61.6211 158.975C59.8059 158.983 58.3248 157.518 58.3164 155.705C58.3081 153.893 59.7725 152.414 61.5905 152.406L61.5933 152.408Z" stroke="#8CCBFE" stroke-linecap="round" stroke-linejoin="round"/>
<path d="M71.2514 158.975C69.4362 158.983 66.8916 155.711 66.8916 155.711C66.8916 155.711 69.4056 152.417 71.2236 152.408C73.0388 152.4 74.5171 153.862 74.5255 155.677C74.5338 157.493 73.0694 158.969 71.2514 158.977V158.975Z" stroke="#8CCBFE" stroke-linecap="round" stroke-linejoin="round"/>
</g>
<g opacity="0.2" clip-path="url(#clip3_2380_29784)">
<path d="M417.891 86.366C417.891 86.366 415.668 87.3886 414.586 89.0258C413.034 91.3729 414.147 94.7337 414.147 94.7337C414.147 94.7337 416.537 94.7835 418.216 92.0733C416.537 94.7835 417.619 96.9441 417.619 96.9441C417.619 96.9441 421.017 96.4594 422.5 94.0663C423.765 91.9971 423.461 90.0932 423.461 90.0932C423.461 90.0932 423.332 92.2577 424.509 94.0865C426.031 96.4544 429.437 96.8825 429.437 96.8825C429.437 96.8825 430.483 94.7034 428.759 92.0223C430.483 94.7034 432.871 94.6138 432.871 94.6138C432.871 94.6138 433.871 91.2754 432.34 88.9137C431.023 86.8832 429.111 86.366 429.111 86.366C429.111 86.366 430.509 87.3572 433.131 86.3991C435.754 85.4404 436.946 82.1772 436.946 82.1772C436.946 82.1772 435.094 80.6453 432.124 81.7306C435.094 80.6453 435.555 78.2679 435.555 78.2679C435.555 78.2679 432.599 76.5696 429.961 77.4851C427.818 78.2292 426.842 79.9936 426.842 79.9936C426.842 79.9936 428.155 78.6108 428.162 76.1264C428.171 73.3002 425.539 71.0562 425.539 71.0562C425.539 71.0562 423.489 72.3028 423.489 75.5028C423.488 72.3028 421.439 71.0562 421.439 71.0562C421.439 71.0562 418.75 73.3007 418.815 76.1264C418.87 78.5094 420.209 79.9499 420.209 79.9499C420.209 79.9499 419.569 78.4758 416.947 77.5171C414.324 76.5584 411.447 78.2679 411.447 78.2679C411.447 78.2679 411.908 80.6453 414.878 81.7306C411.908 80.6453 410.056 82.1772 410.056 82.1772C410.056 82.1772 411.247 85.4404 413.87 86.3991C416.492 87.3572 417.891 86.366 417.891 86.366H417.891Z" stroke="#8CCBFE" stroke-linecap="round" stroke-linejoin="round"/>
<path d="M429.772 82.5509C429.581 82.0881 429.058 81.8701 428.602 82.0623C428.553 82.0825 428.509 82.1088 428.466 82.1363L428.464 82.1346C428.464 82.1346 428.459 82.1402 428.456 82.1419C428.431 82.1587 428.409 82.1783 428.387 82.1968C428.018 82.4786 426.329 83.6037 424.377 82.9123C423.962 82.2915 423.359 80.926 424.265 79.0109C424.299 78.9571 424.327 78.8988 424.349 78.8377C424.352 78.8327 424.354 78.8282 424.356 78.8232C424.355 78.8232 424.355 78.8232 424.354 78.8232C424.407 78.6747 424.424 78.5122 424.392 78.3458C424.297 77.855 423.826 77.535 423.342 77.6314C422.857 77.7283 422.541 78.2057 422.637 78.6965C422.647 78.7486 422.663 78.798 422.682 78.8456L422.68 78.8467C422.68 78.8467 422.683 78.8545 422.686 78.8568C422.696 78.8854 422.711 78.9111 422.725 78.9375C422.927 79.3667 423.712 81.2941 422.577 83.1213C421.829 83.3493 420.48 83.4732 418.994 82.2237C418.951 82.1766 418.902 82.1357 418.849 82.0987C418.845 82.0954 418.842 82.092 418.837 82.0881C418.837 82.0886 418.837 82.0898 418.836 82.0903C418.707 82.0029 418.555 81.9458 418.389 81.9374C417.895 81.9121 417.475 82.2971 417.449 82.7974C417.425 83.2972 417.804 83.7236 418.297 83.7488C418.35 83.7516 418.401 83.7472 418.451 83.7416V83.7438C418.451 83.7438 418.459 83.7421 418.462 83.741C418.492 83.7371 418.52 83.7292 418.549 83.7219C418.988 83.6323 420.89 83.3639 422.343 84.7002C422.297 85.4802 421.948 86.8468 420.216 87.8234C420.157 87.8481 420.101 87.8794 420.049 87.9159C420.044 87.9175 420.04 87.9203 420.034 87.9231C420.035 87.9243 420.037 87.9248 420.037 87.9248C419.908 88.0156 419.801 88.1377 419.734 88.2918C419.531 88.7485 419.734 89.2858 420.185 89.4903C420.636 89.6954 421.165 89.4903 421.367 89.0331C421.388 88.986 421.403 88.9356 421.415 88.8863H421.417C421.417 88.8863 421.418 88.8779 421.418 88.8745C421.425 88.8448 421.429 88.8157 421.432 88.786C421.508 88.3372 421.931 86.4478 423.701 85.5648C424.396 85.9195 425.47 86.7762 425.688 88.7373C425.688 88.8017 425.695 88.8661 425.708 88.9289C425.708 88.9351 425.709 88.9395 425.709 88.9451C425.71 88.9451 425.711 88.9451 425.712 88.944C425.746 89.0981 425.815 89.2455 425.929 89.3687C426.268 89.7335 426.834 89.7509 427.194 89.4085C427.555 89.065 427.572 88.4907 427.234 88.126C427.198 88.0884 427.158 88.0548 427.118 88.024L427.119 88.0223C427.119 88.0223 427.112 88.0178 427.109 88.0167C427.085 87.9982 427.059 87.9842 427.034 87.9696C426.649 87.722 425.059 86.5728 424.973 84.5288C425.537 83.9937 426.713 83.253 428.621 83.7427C428.68 83.7662 428.742 83.7819 428.806 83.792C428.81 83.7937 428.815 83.7948 428.82 83.7959C428.82 83.7953 428.82 83.7942 428.821 83.7937C428.975 83.8155 429.136 83.8009 429.289 83.7354C429.745 83.5432 429.962 83.0126 429.772 82.5498L429.772 82.5509Z" stroke="#8CCBFE" stroke-linecap="round" stroke-linejoin="round"/>
<path d="M423.644 85.1299C424.175 85.1299 424.605 84.6937 424.605 84.1555C424.605 83.6174 424.175 83.1812 423.644 83.1812C423.113 83.1812 422.683 83.6174 422.683 84.1555C422.683 84.6937 423.113 85.1299 423.644 85.1299Z" stroke="#8CCBFE" stroke-linecap="round" stroke-linejoin="round"/>
<path d="M414.877 81.7305C414.877 81.7305 412.734 80.2552 412.441 78.6062C415.163 77.3035 418.531 78.2824 418.531 78.2824" stroke="#8CCBFE" stroke-width="2" stroke-linecap="round" stroke-linejoin="round"/>
<path d="M415.32 86.7666C415.32 86.7666 412.151 85.4835 410.907 82.4719C412.006 81.5036 414.877 81.73 414.877 81.73" stroke="#8CCBFE" stroke-width="2" stroke-linecap="round" stroke-linejoin="round"/>
<path d="M432.122 81.7306C432.122 81.7306 434.288 80.2553 434.581 78.6063C431.212 77.0234 428.428 78.2908 428.428 78.2908" stroke="#8CCBFE" stroke-width="2" stroke-linecap="round" stroke-linejoin="round"/>
<path d="M431.959 86.7224C431.959 86.7224 434.872 85.4835 436.115 82.4719C435.016 81.5036 432.123 81.73 432.123 81.73" stroke="#8CCBFE" stroke-width="2" stroke-linecap="round" stroke-linejoin="round"/>
<path d="M423.488 75.5026C423.488 75.5026 424.113 72.9527 425.54 72.1072C427.99 74.1181 427.941 77.8201 427.941 77.8201" stroke="#8CCBFE" stroke-width="2" stroke-linecap="round" stroke-linejoin="round"/>
<path d="M419 77.5192C419 77.5192 419.069 74.1949 421.431 71.9761C422.706 72.6893 423.488 75.5027 423.488 75.5027" stroke="#8CCBFE" stroke-width="2" stroke-linecap="round" stroke-linejoin="round"/>
<path d="M418.216 92.0732C418.216 92.0732 417.423 94.5778 418.193 96.0604C421.13 95.3891 423.136 92.7142 423.136 92.7142" stroke="#8CCBFE" stroke-width="2" stroke-linecap="round" stroke-linejoin="round"/>
<path d="M415.402 88.0161C415.402 88.0161 413.789 90.8205 414.637 93.9705C416.091 94.0484 418.216 92.0739 418.216 92.0739" stroke="#8CCBFE" stroke-width="2" stroke-linecap="round" stroke-linejoin="round"/>
<path d="M428.758 92.0215C428.758 92.0215 429.587 94.4874 428.862 95.993C425.942 95.6254 423.797 92.5308 423.797 92.5308" stroke="#8CCBFE" stroke-width="2" stroke-linecap="round" stroke-linejoin="round"/>
<path d="M431.32 87.7324C431.32 87.7324 433.107 90.6931 432.353 93.8672C430.902 93.9899 428.758 92.0216 428.758 92.0216" stroke="#8CCBFE" stroke-width="2" stroke-linecap="round" stroke-linejoin="round"/>
</g>
<g opacity="0.2" clip-path="url(#clip4_2380_29784)">
<path d="M114.366 7.91388C114.366 7.91388 109.754 10.0377 107.509 13.4381C104.291 18.3129 106.599 25.2928 106.599 25.2928C106.599 25.2928 111.556 25.3964 115.04 19.7675C111.556 25.3964 113.8 29.8837 113.8 29.8837C113.8 29.8837 120.849 28.8771 123.925 23.9069C126.549 19.6092 125.918 15.6549 125.918 15.6549C125.918 15.6549 125.65 20.1504 128.091 23.9488C131.247 28.8666 138.312 29.7557 138.312 29.7557C138.312 29.7557 140.482 25.23 136.907 19.6616C140.481 25.23 145.435 25.0438 145.435 25.0438C145.435 25.0438 147.509 18.1104 144.333 13.2053C141.601 8.98799 137.636 7.91388 137.636 7.91388C137.636 7.91388 140.536 9.9725 145.974 7.98254C151.415 5.99142 153.886 -0.786073 153.886 -0.786073C153.886 -0.786073 150.045 -3.96768 143.886 -1.71356C150.046 -3.96768 151.002 -8.90533 151.002 -8.90533C151.002 -8.90533 144.87 -12.4326 139.4 -10.531C134.955 -8.98563 132.93 -5.32108 132.93 -5.32108C132.93 -5.32108 135.653 -8.19314 135.669 -13.3531C135.687 -19.2229 130.227 -23.8835 130.227 -23.8835C130.227 -23.8835 125.976 -21.2943 125.976 -14.6483C125.974 -21.2943 121.724 -23.8835 121.724 -23.8835C121.724 -23.8835 116.147 -19.2217 116.282 -13.3531C116.396 -8.40377 119.173 -5.41185 119.173 -5.41185C119.173 -5.41185 117.845 -8.47359 112.407 -10.4647C106.967 -12.4558 101 -8.90533 101 -8.90533C101 -8.90533 101.956 -3.96768 108.116 -1.71356C101.956 -3.96768 98.1143 -0.786073 98.1143 -0.786073C98.1143 -0.786073 100.586 5.99142 106.026 7.98254C111.464 9.9725 114.364 7.91388 114.364 7.91388H114.366Z" stroke="#8CCBFE" stroke-width="2" stroke-linecap="round" stroke-linejoin="round"/>
<path d="M139.006 -0.00991188C138.612 -0.971143 137.525 -1.42383 136.579 -1.02467C136.479 -0.98278 136.388 -0.928085 136.298 -0.871062L136.294 -0.874553C136.294 -0.874553 136.283 -0.862916 136.278 -0.859424C136.226 -0.824513 136.179 -0.783783 136.133 -0.745381C135.37 -0.160031 131.865 2.17672 127.818 0.740688C126.957 -0.548712 125.706 -3.38469 127.585 -7.36228C127.656 -7.474 127.712 -7.59502 127.759 -7.72187C127.765 -7.73234 127.769 -7.74165 127.774 -7.75213C127.772 -7.75213 127.771 -7.75213 127.77 -7.75213C127.879 -8.06051 127.915 -8.39799 127.849 -8.74361C127.65 -9.76303 126.675 -10.4275 125.67 -10.2274C124.664 -10.026 124.009 -9.03454 124.208 -8.01513C124.23 -7.9069 124.263 -7.80449 124.301 -7.70558L124.297 -7.70325C124.297 -7.70325 124.304 -7.68696 124.309 -7.6823C124.331 -7.62295 124.362 -7.56942 124.39 -7.51473C124.809 -6.62332 126.439 -2.62013 124.083 1.17475C122.533 1.64839 119.734 1.90557 116.653 -0.689523C116.563 -0.787275 116.462 -0.872226 116.352 -0.949031C116.344 -0.956014 116.336 -0.962996 116.327 -0.971142C116.327 -0.969978 116.327 -0.967652 116.325 -0.966488C116.057 -1.14803 115.742 -1.26673 115.397 -1.28418C114.374 -1.33655 113.501 -0.537075 113.449 0.502125C113.397 1.54016 114.185 2.42575 115.207 2.47812C115.316 2.48394 115.422 2.47463 115.526 2.46299V2.46764C115.526 2.46764 115.543 2.46415 115.55 2.46183C115.611 2.45368 115.669 2.43739 115.729 2.42226C116.64 2.23606 120.585 1.67864 123.598 4.45411C123.503 6.074 122.779 8.91231 119.186 10.9407C119.065 10.9919 118.948 11.057 118.84 11.1327C118.83 11.1362 118.821 11.142 118.81 11.1478C118.812 11.1501 118.815 11.1513 118.815 11.1513C118.549 11.3398 118.326 11.5935 118.186 11.9135C117.766 12.862 118.186 13.978 119.122 14.4027C120.057 14.8287 121.154 14.4027 121.574 13.4531C121.617 13.3554 121.648 13.2507 121.675 13.1482H121.678C121.678 13.1482 121.68 13.1308 121.68 13.1238C121.695 13.0621 121.702 13.0016 121.709 12.9399C121.867 12.0078 122.743 8.08375 126.416 6.24973C127.857 6.98636 130.084 8.76568 130.537 12.8387C130.536 12.9725 130.551 13.1064 130.578 13.2367C130.578 13.2495 130.58 13.2588 130.58 13.2704C130.583 13.2704 130.584 13.2704 130.586 13.2681C130.656 13.5881 130.801 13.8942 131.037 14.1502C131.739 14.9078 132.913 14.9439 133.659 14.2328C134.408 13.5195 134.444 12.3267 133.742 11.5691C133.669 11.4911 133.586 11.4213 133.502 11.3573L133.505 11.3538C133.505 11.3538 133.489 11.3445 133.483 11.3422C133.434 11.3038 133.38 11.2747 133.328 11.2444C132.53 10.73 129.232 8.34325 129.052 4.09801C130.224 2.98666 132.662 1.44823 136.62 2.46532C136.742 2.51419 136.87 2.54678 137.003 2.56772C137.011 2.57122 137.023 2.57354 137.033 2.57587C137.033 2.57471 137.033 2.57238 137.034 2.57122C137.353 2.6166 137.688 2.58634 138.005 2.45019C138.951 2.05103 139.4 0.948993 139.007 -0.012238L139.006 -0.00991188Z" stroke="#8CCBFE" stroke-width="2" stroke-linecap="round" stroke-linejoin="round"/>
<path d="M126.296 5.34673C127.397 5.34673 128.29 4.44068 128.29 3.32302C128.29 2.20536 127.397 1.29932 126.296 1.29932C125.195 1.29932 124.303 2.20536 124.303 3.32302C124.303 4.44068 125.195 5.34673 126.296 5.34673Z" stroke="#8CCBFE" stroke-width="2" stroke-linecap="round" stroke-linejoin="round"/>
<path d="M109.035 8.74594C109.035 8.74594 102.461 6.08102 99.8818 -0.173962C102.161 -2.18487 108.115 -1.71473 108.115 -1.71473" stroke="#8CCBFE" stroke-width="2" stroke-linecap="round" stroke-linejoin="round"/>
<path d="M143.545 8.654C143.545 8.654 149.586 6.08102 152.165 -0.173962C149.886 -2.18487 143.884 -1.71473 143.884 -1.71473" stroke="#8CCBFE" stroke-width="2" stroke-linecap="round" stroke-linejoin="round"/>
<path d="M115.039 19.7673C115.039 19.7673 113.394 24.9692 114.992 28.0484C121.083 26.6542 125.245 21.0986 125.245 21.0986" stroke="#8CCBFE" stroke-width="2" stroke-linecap="round" stroke-linejoin="round"/>
<path d="M109.204 11.3408C109.204 11.3408 105.858 17.1652 107.618 23.7076C110.633 23.8694 115.04 19.7685 115.04 19.7685" stroke="#8CCBFE" stroke-width="2" stroke-linecap="round" stroke-linejoin="round"/>
<path d="M136.906 19.6604C136.906 19.6604 138.625 24.7819 137.12 27.9088C131.065 27.1454 126.615 20.7182 126.615 20.7182" stroke="#8CCBFE" stroke-width="2" stroke-linecap="round" stroke-linejoin="round"/>
<path d="M142.219 10.7522C142.219 10.7522 145.925 16.9013 144.361 23.4937C141.352 23.7486 136.904 19.6605 136.904 19.6605" stroke="#8CCBFE" stroke-width="2" stroke-linecap="round" stroke-linejoin="round"/>
</g>
</g>
</g>
<defs>
<filter id="filter0_d_2380_29784" x="0" y="0" width="462" height="648" filterUnits="userSpaceOnUse" color-interpolation-filters="sRGB">
<feFlood flood-opacity="0" result="BackgroundImageFix"/>
<feColorMatrix in="SourceAlpha" type="matrix" values="0 0 0 0 0 0 0 0 0 0 0 0 0 0 0 0 0 0 127 0" result="hardAlpha"/>
<feOffset dy="2"/>
<feGaussianBlur stdDeviation="2"/>
<feComposite in2="hardAlpha" operator="out"/>
<feColorMatrix type="matrix" values="0 0 0 0 0.124545 0 0 0 0 0.141938 0 0 0 0 0.157039 0 0 0 0.5 0"/>
<feBlend mode="normal" in2="BackgroundImageFix" result="effect1_dropShadow_2380_29784"/>
<feBlend mode="normal" in="SourceGraphic" in2="effect1_dropShadow_2380_29784" result="shape"/>
</filter>
<clipPath id="clip0_2380_29784">
<rect x="4" y="2" width="454" height="640" rx="12" fill="white"/>
</clipPath>
<clipPath id="clip1_2380_29784">
<rect width="42" height="77" fill="white" transform="translate(352 -9)"/>
</clipPath>
<clipPath id="clip2_2380_29784">
<rect width="64" height="138" fill="white" transform="translate(34 32)"/>
</clipPath>
<clipPath id="clip3_2380_29784">
<rect width="27" height="26" fill="white" transform="translate(410 71)"/>
</clipPath>
<clipPath id="clip4_2380_29784">
<rect width="56" height="54" fill="white" transform="translate(98 -24)"/>
</clipPath>
</defs>
</svg>
