<svg width="36" height="32" viewBox="0 0 36 32" fill="none" xmlns="http://www.w3.org/2000/svg">
<path d="M33.4044 1.71144C29.971 -1.39789 25.3474 0.0499681 23.7919 3.48685C21.7765 2.6751 20.1262 2.2621 17.4563 2.2621C14.1273 2.2621 12.8232 3.02163 11.4717 3.48685C9.6649 0.0784504 5.2831 -1.46435 1.71696 1.84436C-0.241572 3.65774 -0.92445 7.73547 1.82129 10.3274C-2.63164 19.0003 2.10582 25.9832 7.96719 27.4358C9.52737 30.3695 12.3822 32.0025 17.4469 32.0025C22.9194 32.0025 25.6034 30.2271 27.1589 27.3741C33.3095 25.7506 37.6155 18.8341 33.2526 10.3274C35.7375 7.9396 35.6949 3.79541 33.3949 1.71619L33.4044 1.71144ZM17.4516 30.1084C14.611 30.1084 11.7515 29.3251 10.6702 27.8868C12.0645 28.3045 13.8286 28.0862 14.7533 27.5497C14.7533 27.5497 15.7776 28.276 17.4516 28.276C19.1256 28.276 20.1689 27.5925 20.1689 27.5925C21.1647 28.2001 23.166 28.3425 24.4084 27.8583C23.4695 29.2065 20.6289 30.1037 17.4516 30.1037V30.1084ZM27.5383 25.3376C27.5383 25.3376 28.3065 24.1556 28.3065 22.5558C30.6871 20.8231 31.7304 17.7708 30.6586 14.8846H28.5816C30.137 18.1173 28.2638 20.7377 26.2958 21.5494C26.8175 23.5859 25.3426 26.2633 22.6348 26.2633C19.927 26.2633 19.1114 23.8185 19.1114 23.8185L23.5264 20.9086H13.5582V14.8323C13.5582 13.6456 12.5956 12.6819 11.4243 12.6819C10.2529 12.6819 9.29026 13.6456 9.29026 14.8323C9.29026 16.0191 10.2434 16.9733 11.4243 16.9733C11.4812 16.9733 11.5428 16.9638 11.6045 16.9638V20.9086L15.7918 23.8185C15.7918 23.8185 14.9809 26.1778 12.2731 26.1778C9.56531 26.1778 8.19955 23.6761 8.7781 21.5542C6.81483 20.7424 4.91321 18.0651 6.49236 14.8893H4.41527C3.46209 17.448 4.31569 20.7947 6.69627 22.5321C6.69627 24.1841 7.4408 25.3139 7.4408 25.3139C1.73118 23.0685 0.0287334 16.1141 4.34888 9.80045C0.60254 7.4459 1.97304 4.02801 3.40993 2.89346C5.07918 1.59277 8.46986 0.923429 10.6513 6.03128C10.6513 6.03128 13.2927 4.07074 17.4469 4.07074C21.601 4.07074 24.5365 5.98381 24.5365 5.98381C26.6135 1.18452 29.7292 1.33168 31.811 2.84124C33.2052 3.86661 34.5188 7.23703 30.7725 9.82418C35.159 16.1141 33.3095 23.0922 27.5335 25.3376H27.5383Z" fill="#005BAA"/>
<path d="M23.6926 12.6865C22.5165 12.6865 21.5634 13.6502 21.5634 14.8369C21.5634 16.0237 22.5165 16.9779 23.6926 16.9779C24.8687 16.9779 25.8219 16.0142 25.8219 14.8369C25.8219 13.6597 24.8687 12.6865 23.6926 12.6865Z" fill="#005BAA"/>
<path d="M23.4078 7.84455C23.4078 7.84455 20.9656 6.21631 17.5512 6.21631C14.1368 6.21631 11.6993 7.84455 11.6993 7.84455L12.7663 9.41109C12.7663 9.41109 14.5304 8.12463 17.556 8.12463C20.5815 8.12463 22.3503 9.41109 22.3503 9.41109L23.4126 7.84455H23.4078Z" fill="#005BAA"/>
</svg>
