<svg width="36" height="32" viewBox="0 0 36 32" fill="none" xmlns="http://www.w3.org/2000/svg">
<path d="M33.406 1.71144C29.9726 -1.39789 25.349 0.0499681 23.7935 3.48685C21.7781 2.6751 20.1278 2.2621 17.4579 2.2621C14.1289 2.2621 12.8248 3.02163 11.4733 3.48685C9.66648 0.0784505 5.28468 -1.4596 1.71855 1.84436C-0.239985 3.65774 -0.922863 7.73547 1.82287 10.3274C-2.63006 19.0003 2.10741 25.9832 7.96877 27.4358C9.52896 30.3695 12.3838 32.0025 17.4484 32.0025C22.9209 32.0025 25.605 30.2271 27.1605 27.3741C33.3111 25.7506 37.617 18.8341 33.2542 10.3226C35.7391 7.93485 35.6964 3.79066 33.3965 1.71144H33.406ZM17.4532 30.1084C14.6126 30.1084 11.7531 29.3204 10.6718 27.8868C12.066 28.3045 13.8301 28.0862 14.7549 27.5497C14.7549 27.5497 15.7792 28.276 17.4532 28.276C19.1272 28.276 20.1705 27.5925 20.1705 27.5925C21.1663 28.2001 23.1675 28.3425 24.41 27.8583C23.471 29.2065 20.6305 30.1084 17.4532 30.1084ZM27.5399 25.3376C27.5399 25.3376 28.3081 24.1556 28.3081 22.5558C30.6887 20.8231 31.732 17.7708 30.6602 14.8846H28.5831C30.1386 18.1173 28.2654 20.7377 26.2974 21.5494C26.819 23.5859 25.3442 26.2633 22.6364 26.2633C19.9286 26.2633 19.113 23.8185 19.113 23.8185L23.5279 20.9086H13.5598V14.8323C13.5598 13.6456 12.5972 12.6819 11.4258 12.6819C10.2545 12.6819 9.29185 13.6456 9.29185 14.8323C9.29185 16.0191 10.245 16.9733 11.4258 16.9733C11.4827 16.9733 11.5444 16.9638 11.606 16.9638V20.9086L15.7934 23.8185C15.7934 23.8185 14.9825 26.1778 12.2747 26.1778C9.5669 26.1778 8.20114 23.6761 8.77969 21.5494C6.81642 20.7377 4.91479 18.0604 6.49395 14.8846H4.41686C3.46368 17.4432 4.31727 20.7899 6.69786 22.5273C6.69786 24.1793 7.44239 25.3091 7.44239 25.3091C1.73277 23.0685 0.0303203 16.1141 4.35047 9.80045C0.604127 7.4459 1.97462 4.02801 3.41151 2.89346C5.08077 1.59277 8.47145 0.923429 10.6529 6.03128C10.6529 6.03128 13.2943 4.07074 17.4484 4.07074C21.6026 4.07074 24.538 5.98381 24.538 5.98381C26.6151 1.18452 29.7308 1.33168 31.8126 2.84124C33.2068 3.86661 34.5204 7.23703 30.774 9.82418C35.1606 16.1141 33.3111 23.097 27.5351 25.3376H27.5399Z" fill="black"/>
<path d="M23.6937 12.6866C22.5176 12.6866 21.5645 13.6503 21.5645 14.8371C21.5645 16.0238 22.5176 16.978 23.6937 16.978C24.8698 16.978 25.823 16.0143 25.823 14.8371C25.823 13.6598 24.8698 12.6866 23.6937 12.6866Z" fill="black"/>
<path d="M23.4097 7.84944C23.4097 7.84944 20.9674 6.22119 17.5531 6.22119C14.1387 6.22119 11.7012 7.84944 11.7012 7.84944L12.7682 9.41597C12.7682 9.41597 14.5323 8.13426 17.5578 8.13426C20.5833 8.13426 22.3522 9.41597 22.3522 9.41597L23.4144 7.84944H23.4097Z" fill="black"/>
</svg>






