<svg width="1414" height="602" viewBox="0 0 1414 602" fill="none" xmlns="http://www.w3.org/2000/svg">
<g clip-path="url(#clip0_2290_22201)">
<path d="M61.9891 425.75L421.123 496.759L820.417 421.54C820.532 421.518 839.584 415.48 839.469 415.467L433.557 370.668L61.9891 425.754V425.75Z" fill="#EFF0F0" stroke="#231F20" stroke-miterlimit="10"/>
<path d="M421.123 496.76V523.834L840.147 438.3L839.469 415.462L421.123 496.76Z" fill="#EFF0F0" stroke="#231F20" stroke-miterlimit="10"/>
<path d="M61.9891 425.75V448.725L421.123 523.833V496.759L61.9891 425.75Z" fill="#EFF0F0" stroke="#231F20" stroke-miterlimit="10"/>
<path d="M81.2274 452.749V500.598L269.574 562.665V492.138L81.2274 452.749Z" fill="#EFF0F0" stroke="#231F20" stroke-miterlimit="10"/>
<path d="M305.318 499.615V571.093L644.066 648.778L1497.3 647.437L840.918 474.794L840.147 438.3L421.123 523.833L305.318 499.615Z" fill="#EFF0F0" stroke="#231F20" stroke-miterlimit="10"/>
<path d="M294.806 496.76V647.437H329.987V576.751L305.317 571.094V499.615L294.806 496.76Z" fill="#EFF0F0" stroke="#231F20" stroke-miterlimit="10"/>
<path d="M269.574 647.437H294.806V496.755L269.574 492.134C269.574 492.134 268.684 648.323 269.574 647.433V647.437Z" fill="#EFF0F0" stroke="#231F20" stroke-miterlimit="10"/>
<path d="M412.663 503.218V513.121L172.417 461.452V453.054L412.663 503.218Z" fill="#EFF0F0" stroke="#231F20" stroke-miterlimit="10"/>
<path d="M485.407 550.429L840.922 474.79L1496.04 572.444L1497.3 647.437H782.658L485.412 578.03V550.429H485.407Z" fill="#EFF0F0" stroke="#231F20" stroke-miterlimit="10"/>
<path d="M287.816 389.331C284.325 386.715 282.58 385.405 282.58 385.405C282.58 385.405 283.306 379.154 279.962 378.428C276.617 377.702 275.452 376.392 275.452 376.392C275.452 376.392 276.179 374.21 275.306 373.191C274.434 372.173 269.486 368.393 264.688 368.831C259.886 369.269 250.575 370.606 249.995 370.664C249.415 370.721 204.418 375.803 187.337 375.803C170.256 375.803 131.367 373.625 116.829 373.625C102.291 373.625 89.5685 377.623 77.2141 378.712C64.8552 379.801 43.7786 384.887 41.5948 388.88C40.3235 391.208 36.3013 393.957 33.1695 395.848C30.2326 397.618 27.7918 400.102 26.051 403.054C23.0432 408.145 18.9368 416.011 18.9368 420.943C18.9368 428.721 12.4872 440.062 9.18705 446.941C0.761743 464.497 0.225749 524.219 0.225749 524.219C-0.00902562 539.668 9.99326 547.959 9.99326 547.959C9.99326 550.947 7.50819 554.985 7.30442 555.308C7.43289 555.219 7.64994 555.064 8.01761 554.812C9.36867 553.878 12.1727 549.518 12.1727 549.518C15.3931 551.386 19.2381 552.01 19.2381 552.01C16.5404 550.319 14.1085 546.671 14.1085 546.671C15.4108 543.838 15.8095 539.602 15.8095 539.602C17.7408 541.514 19.2381 547.388 19.2381 547.388C19.3134 538.269 15.5437 530.682 13.5636 527.331C14.2236 527.446 14.8792 527.557 15.5215 527.654C19.1893 531.952 27.907 545.241 14.4806 562.86C14.4806 562.86 23.0698 554.453 25.1517 548.039C25.1517 548.039 36.9082 540.54 33.7409 533.67C32.4253 530.815 32.9037 529.186 32.0709 528.083C36.4386 527.973 50.4852 524.157 53.2361 524.515C55.4864 524.807 57.3956 525.684 58.7909 526.53C60.5362 527.592 62.4233 528.406 64.4211 528.849C66.822 529.38 70.2639 530.593 73.4444 533.369C73.4444 533.369 70.348 548.256 81.5641 555.728C81.5641 555.728 75.2384 567.078 81.4223 575.414C87.6062 583.75 88.47 582.599 88.47 582.599C88.47 582.599 90.047 585.042 93.3604 586.047C95.8144 586.791 98.1046 590.408 99.1279 592.231C99.3095 592.577 99.4911 592.922 99.6816 593.272C99.686 593.285 99.6904 593.289 99.6904 593.289C100.058 593.967 100.443 594.653 100.842 595.343C113.006 616.299 117.197 626.986 117.197 626.986C117.197 626.986 123.806 628.088 125.99 635.312C128.173 642.537 140.453 641.731 140.453 641.731C140.453 641.731 133.223 641.448 134.588 633.812C135.952 626.176 141.954 626.986 141.954 626.986C141.954 626.986 160.736 622.594 167.833 618.23C174.929 613.865 184.068 629.137 184.068 629.137L183.111 635.954L186.114 630.501L194.163 637.999L188.98 629.274C188.98 629.274 191.434 625.388 190.752 617.446C190.406 613.422 189.117 610.531 187.926 608.655C188.745 608.278 189.534 607.889 190.269 607.504C191.044 610.886 192.395 615.498 194.163 616.592C197.029 618.362 200.577 630.633 200.577 630.633C200.714 624.772 200.577 618.774 197.441 614.135C195.718 611.589 194.694 608.013 194.123 605.308C195.474 604.471 196.276 603.896 196.276 603.896C196.276 603.896 189.565 589.854 191.244 578.123C192.923 566.388 176.648 530.137 175.664 520.08C174.681 510.022 179.979 466.999 178.721 458.198C177.463 449.398 176.86 445.241 180.936 444.285C185.007 443.329 199.239 445.113 211.217 444.918C223.195 444.723 241.202 436.746 243.957 436.746C246.712 436.746 260.263 432.598 269.844 428.291C279.426 423.984 288.87 425.299 295.227 424.223C301.583 423.147 312.414 416.237 312.414 411.213C312.414 406.188 287.869 401.248 288.724 399.216C289.579 397.18 291.324 391.948 287.833 389.331H287.816ZM10.8216 542.302C5.63885 536.383 5.53697 528.632 5.71859 525.653C6.47607 525.839 7.28227 526.029 8.11949 526.22C12.465 536.144 10.8216 542.302 10.8216 542.302ZM25.5194 539.549C25.5194 539.549 23.7962 531.448 21.0675 528.141C22.2724 528.141 23.5437 528.119 24.8461 528.088C26.0067 529.783 27.4729 533.387 25.5194 539.549ZM83.2916 551.806C83.2916 551.806 77.564 547.605 77.5818 537.171C81.4843 540.978 84.7446 544.936 85.3072 547.942L83.2872 551.802L83.2916 551.806ZM90.9152 578.291C90.9152 578.291 84.0934 569.978 89.1566 556.326C90.7734 558.181 92.2397 558.929 92.2397 558.929C92.2397 558.929 88.8997 567.083 90.9152 578.291ZM181.259 611.085C182.77 613.803 185.202 618.668 185.015 621.505L178.61 611.629C179.496 611.497 180.382 611.311 181.264 611.085H181.259Z" fill="#EFF0F0" stroke="#231F20" stroke-miterlimit="10"/>
<path d="M24.3237 505.906C24.3237 505.906 24.3282 505.897 24.3371 505.883C23.9951 506.123 24.3237 505.906 24.3237 505.906Z" fill="#EFF0F0" stroke="#231F20" stroke-miterlimit="10"/>
<path d="M32.9081 407.061C32.9081 407.061 42.8794 418.269 54.7377 418.588C66.596 418.907 78.9992 423.488 84.3857 424.564C89.7722 425.64 110.255 430.487 114.025 430.487" fill="#EFF0F0"/>
<path d="M32.9081 407.061C32.9081 407.061 42.8794 418.269 54.7377 418.588C66.596 418.907 78.9992 423.488 84.3857 424.564C89.7722 425.64 110.255 430.487 114.025 430.487" stroke="#231F20" stroke-miterlimit="10"/>
<path d="M87.2872 434.515C87.2872 434.515 111.061 443.346 121.046 444.378C131.026 445.409 146.667 442.466 152.324 442.466C157.981 442.466 168.112 442.612 171.806 441.877C175.5 441.142 179.478 439.557 179.478 439.557" fill="#EFF0F0"/>
<path d="M87.2872 434.515C87.2872 434.515 111.061 443.346 121.046 444.378C131.026 445.409 146.667 442.466 152.324 442.466C157.981 442.466 168.112 442.612 171.806 441.877C175.5 441.142 179.478 439.557 179.478 439.557" stroke="#231F20" stroke-miterlimit="10"/>
<path d="M29.75 411.213C29.75 411.213 33.8253 429.292 39.5485 435.746C45.2717 442.205 53.5774 461.757 54.5032 462.864C55.4246 463.971 66.14 477.459 67.8499 478.707" fill="#EFF0F0"/>
<path d="M29.75 411.213C29.75 411.213 33.8253 429.292 39.5485 435.746C45.2717 442.205 53.5774 461.757 54.5032 462.864C55.4246 463.971 66.14 477.459 67.8499 478.707" stroke="#231F20" stroke-miterlimit="10"/>
<path d="M173.458 500.598C172.262 497.123 167.965 494.281 161.551 477.105C155.137 459.929 139.159 444.595 139.159 444.595" fill="#EFF0F0"/>
<path d="M173.458 500.598C172.262 497.123 167.965 494.281 161.551 477.105C155.137 459.929 139.159 444.595 139.159 444.595" stroke="#231F20" stroke-miterlimit="10"/>
<path d="M15.0077 481.337C15.0077 481.337 22.4717 484.321 30.7642 484.321C39.0566 484.321 43.3667 483.161 49.0057 484.321C54.6447 485.48 59.2206 484.321 59.2206 484.321" fill="#EFF0F0"/>
<path d="M15.0077 481.337C15.0077 481.337 22.4717 484.321 30.7642 484.321C39.0566 484.321 43.3667 483.161 49.0057 484.321C54.6447 485.48 59.2206 484.321 59.2206 484.321" stroke="#231F20" stroke-miterlimit="10"/>
<path d="M14.578 451.049C14.578 451.049 24.6955 455.059 28.5094 455.059C32.3234 455.059 38.3611 454.573 38.3611 454.573" fill="#EFF0F0"/>
<path d="M14.578 451.049C14.578 451.049 24.6955 455.059 28.5094 455.059C32.3234 455.059 38.3611 454.573 38.3611 454.573" stroke="#231F20" stroke-miterlimit="10"/>
<path d="M71.389 481.341C71.389 481.341 83.3625 475.98 97.83 482.377C112.297 488.769 133.082 492.488 144.355 492.142" fill="#EFF0F0"/>
<path d="M71.389 481.341C71.389 481.341 83.3625 475.98 97.83 482.377C112.297 488.769 133.082 492.488 144.355 492.142" stroke="#231F20" stroke-miterlimit="10"/>
<path d="M104.776 557.18C104.776 557.18 108.665 545.228 126.348 544.454C144.032 543.679 163.345 536.215 165.148 532.355C166.951 528.495 171.487 527.424 171.487 527.424" fill="#EFF0F0"/>
<path d="M104.776 557.18C104.776 557.18 108.665 545.228 126.348 544.454C144.032 543.679 163.345 536.215 165.148 532.355C166.951 528.495 171.487 527.424 171.487 527.424" stroke="#231F20" stroke-miterlimit="10"/>
<path d="M129.002 495.556C129.002 495.556 144.196 499.243 154.38 496.76C164.564 494.276 165.817 494.453 165.817 494.453" fill="#EFF0F0"/>
<path d="M129.002 495.556C129.002 495.556 144.196 499.243 154.38 496.76C164.564 494.276 165.817 494.453 165.817 494.453" stroke="#231F20" stroke-miterlimit="10"/>
<path d="M199.877 384.382C199.877 384.382 221.702 379.442 228.09 382.528C234.478 385.613 270.938 374.356 275.448 376.392" fill="#EFF0F0"/>
<path d="M199.877 384.382C199.877 384.382 221.702 379.442 228.09 382.528C234.478 385.613 270.938 374.356 275.448 376.392" stroke="#231F20" stroke-miterlimit="10"/>
<path d="M202.065 314.143V327.383" stroke="white" stroke-miterlimit="10"/>
<path d="M202.065 330.035V336.467" stroke="white" stroke-miterlimit="10"/>
<path d="M207.731 314.143V336.467" stroke="white" stroke-miterlimit="10"/>
<path d="M168.156 392.346V299.677H262.287V392.346C262.287 396.893 260.024 401.138 256.241 403.665C248.289 408.982 234.07 414.245 215.222 414.245C196.373 414.245 182.154 408.982 174.202 403.665C170.419 401.138 168.156 396.893 168.156 392.346Z" fill="#231F20" stroke="#050606" stroke-miterlimit="10"/>
<path d="M168.147 321.726C168.147 321.726 166.357 336.104 217.6 336.445C265.49 336.764 262.208 318.561 262.208 318.561H262.292V329.362C262.292 329.362 260.684 342.948 217.383 342.948C174.083 342.948 168.134 333.169 168.134 328.835L168.147 321.726Z" fill="#F9AE40" stroke="#231F20" stroke-miterlimit="10"/>
<path d="M215.222 314.143C241.215 314.143 262.287 307.666 262.287 299.677C262.287 291.687 241.215 285.21 215.222 285.21C189.228 285.21 168.156 291.687 168.156 299.677C168.156 307.666 189.228 314.143 215.222 314.143Z" fill="#231F20" stroke="#EFF0F0" stroke-miterlimit="10"/>
<path d="M224.666 360.142V362.213H219.452C219.328 362.213 218.841 362.82 218.792 363.068C218.686 363.617 218.694 368.628 218.823 369.057C219.129 370.075 222.198 370.004 222.198 369.093V365.042H226.752V360.142H234.717V362.213H229.689C229.233 362.82 229.224 364.413 229.689 365.042H234.336V367.114H229.689C229.033 367.623 229.428 369.752 230.256 369.752H235.093V371.824H228.551C227.917 371.824 226.748 370.421 226.748 369.845V367.114H225.042V369.845C225.042 370.031 224.391 371.093 224.192 371.262C223.319 372.005 219.337 371.974 218.136 371.806C217.06 371.656 216.254 370.73 216.125 369.659C215.952 368.238 215.921 363.293 216.138 361.939C216.254 361.226 217.441 360.137 218.119 360.137H224.661L224.666 360.142Z" fill="white"/>
<path d="M242.588 360.141C244.71 360.518 245.082 364.843 243.443 365.887C243.838 365.989 244.772 367.366 244.772 367.583V371.824L242.008 371.647L241.831 367.676C241.242 366.919 240.307 367.118 239.457 367.114V365.037C240.134 365.029 240.918 365.183 241.45 364.666C242.043 362.014 240.945 362.102 238.699 362.213V371.824H236.046V360.137C237.995 360.38 240.741 359.809 242.588 360.137V360.141Z" fill="white"/>
<path d="M210.442 360.142V362.399H206.836V371.824H203.992V362.399H200.577V360.142H210.442Z" fill="white"/>
<path d="M214.043 360.142H211.199V371.828H214.043V360.142Z" fill="white"/>
<path d="M194.495 360.323C196.324 357.295 200.617 359.336 199.532 362.775C199.434 363.081 199.089 363.307 199.053 363.634C199.018 364.002 199.558 365.051 199.625 365.697C199.797 367.472 199.439 368.96 198.008 370.119C197.441 370.58 196.697 370.744 196.298 371.058C196.068 371.244 195.979 371.625 195.735 371.819C193.866 373.289 190.486 373.67 188.528 372.196C188.129 371.895 187.819 371.275 187.616 371.124C187.168 370.801 186.309 370.686 185.684 370.124C184.75 369.283 184.028 367.494 184.059 366.259C184.076 365.489 184.776 363.838 184.763 363.625C184.754 363.493 184.205 362.771 184.116 362.262C183.58 359.146 187.744 357.57 189.467 360.288C191.071 359.584 192.9 359.69 194.486 360.323H194.495ZM189.21 360.699C187.793 357.822 183.664 359.491 184.546 362.594C184.648 362.953 185.117 363.413 185.139 363.625C185.166 363.887 184.506 365.374 184.462 366.078C184.333 368.052 185.215 369.469 186.88 370.456C187.155 370.62 187.607 370.589 187.819 370.748C188.001 370.881 188.09 371.355 188.32 371.571C190.065 373.236 193.56 373.161 195.376 371.647C196.254 370.916 196.697 370.682 197.551 370.04C198.841 369.075 199.434 367.548 199.337 365.954C199.288 365.197 198.677 364.068 198.699 363.621C198.716 363.28 199.372 362.594 199.434 361.908C199.682 359.269 195.731 358.057 194.588 360.713C192.794 360.106 190.973 359.836 189.215 360.699H189.21Z" fill="white"/>
<path d="M190.145 365.135C189.941 364.418 188.218 364.418 188.426 365.693C188.533 366.334 189.255 366.233 189.357 366.388C189.529 366.658 189.232 367.552 189.481 368.056C189.72 368.548 191.518 368.964 191.009 369.756C189.848 370.58 188.692 370.651 188.147 369.185C188.036 368.893 188.129 368.477 188.014 368.282C187.952 368.176 187.602 368.132 187.487 367.968C186.969 367.224 186.668 366.476 187.111 365.604L186.247 365.781C185.6 367.587 187.487 368.287 187.487 369.938C185.605 369.207 184.905 367.105 185.299 365.214C185.396 364.741 186.123 363.608 186.11 363.431C186.07 362.935 184.112 361.607 185.906 360.354C187.314 359.376 188.338 360.35 188.918 361.651C190.805 360.712 192.914 360.566 194.796 361.616C196.453 358.194 200.564 360.867 197.574 363.431C199.266 365.564 198.956 368.889 196.214 369.933C196.36 368.371 198.38 367.326 197.432 365.586L196.785 365.595C196.759 366.184 196.993 366.751 196.736 367.33C196.471 367.924 195.762 368.141 195.687 368.273C195.563 368.49 195.682 369.008 195.563 369.376C195.177 370.571 192.993 370.659 192.683 369.562C192.484 368.858 194.039 368.588 194.318 368.048H190.145V365.126V365.135ZM194.318 362.404C192.572 361.717 191.124 361.651 189.388 362.404L189.853 363.116C191.195 362.527 192.515 362.373 193.844 363.099L194.313 362.404H194.318ZM195.221 364.896C194.052 363.785 192.869 365.94 194.265 366.33C195.089 366.56 195.74 365.392 195.221 364.896Z" fill="white"/>
<path d="M194.699 371.071C193.317 372.311 190.353 372.43 189.011 371.071C189.609 371.217 190.3 370.912 190.814 370.916C191.611 370.925 192.285 370.929 193.086 370.916C193.547 370.907 194.163 371.208 194.699 371.071Z" fill="white"/>
<path d="M174.801 307.113V329.659" stroke="white" stroke-miterlimit="10"/>
<path d="M179.664 309.132V322.731" stroke="white" stroke-miterlimit="10"/>
<path d="M233.68 313.054V327.384" stroke="white" stroke-miterlimit="10"/>
<path d="M233.68 330.035V335.768" stroke="white" stroke-miterlimit="10"/>
<path d="M239.501 313.054V334.303" stroke="white" stroke-miterlimit="10"/>
<path d="M255.554 307.707V318.871" stroke="white" stroke-miterlimit="10"/>
<path d="M255.554 322V329.234" stroke="white" stroke-miterlimit="10"/>
<path d="M168.174 375.232V393.418C168.174 393.418 168.541 401.85 177.72 405.75C186.898 409.65 196.444 414.046 216.28 414.046C236.117 414.046 262.137 406.096 262.137 394.312V375.498C262.137 375.498 259.226 389.141 215.133 389.141C215.133 389.141 189.073 389.217 173.884 380.792C173.884 380.792 169.582 379.084 168.174 375.232Z" fill="#F9AE40" stroke="#050606" stroke-miterlimit="10"/>
<path d="M967.964 435.002C963.078 427.463 960.482 418.672 960.482 409.694V281.385C960.575 281.292 960.526 280.938 960.389 280.438C959.405 276.874 956.278 274.311 952.597 273.904L885.903 266.498C877.664 265.582 869.332 265.931 861.199 267.534L838.023 272.093V276.387C834.935 276.879 831.635 277.53 828.158 278.379C823.985 279.402 820.162 280.571 816.707 281.779C815.551 282.35 813.442 283.585 811.688 285.967C809.331 289.172 809.057 292.487 809.017 293.78V296.246L795.59 300.004C793.619 340.956 791.652 381.912 789.681 422.864C790.474 424.064 792.658 427.016 796.742 428.756C801.229 430.668 805.234 429.938 806.598 429.624C808.773 428.052 812.281 425.091 815.09 420.283C818.457 414.524 819.09 409.075 819.223 406.277L829.11 433.223C828.113 435.914 826.811 438.459 825.814 441.146L785.247 460.266C778.939 485.923 772.627 511.58 766.319 537.238C780.427 543.838 798.098 550.717 818.997 555.901C844.384 562.2 866.966 564.121 884.743 564.343C899.759 557.344 915.928 548.947 932.787 538.854C945.239 531.399 956.672 523.856 967.104 516.45C969.394 514.821 971.056 512.452 971.769 509.734L983.304 465.843C984.154 462.603 983.6 459.155 981.78 456.339L967.955 435.002H967.964Z" fill="#414042" stroke="white" stroke-miterlimit="10"/>
<path d="M793.141 311.876L811.71 314.975L838.231 307.056V298.933C838.231 297.029 836.928 295.378 835.081 294.931L823.072 292.022L794.43 299.743L809.504 303.151C810.837 303.452 811.763 304.661 811.706 306.029L806.603 433.227" stroke="#EFF0F0" stroke-miterlimit="10"/>
<path d="M811.294 304.448L837.571 296.702" stroke="#EFF0F0" stroke-miterlimit="10"/>
<path d="M819.055 413.484C819.055 413.484 821.323 359.694 821.323 344.028C821.323 328.362 838.226 328.26 838.226 328.26V307.051C838.226 307.051 881.208 311.642 914.005 299.654V288.224L961.27 276.383" stroke="#EFF0F0" stroke-miterlimit="10"/>
<path d="M836.392 276.1C836.392 276.1 906.594 267.693 921.385 286.131L958.852 277.384" stroke="#EFF0F0" stroke-miterlimit="10"/>
<path d="M960.482 281.385L930.506 289.623V463.01L893.584 483.927C893.584 483.927 825.929 488.353 785.659 458.606" stroke="#EFF0F0" stroke-miterlimit="10"/>
<path d="M911.387 300.575V313.125C911.387 313.125 879.365 324.117 838.226 318.942" stroke="#EFF0F0" stroke-miterlimit="10"/>
<path d="M896.687 418.164C910.489 400.549 910.486 377.512 896.68 366.71C882.875 355.908 860.495 361.431 846.693 379.046C832.891 396.662 832.895 419.699 846.7 430.501C860.506 441.303 882.886 435.78 896.687 418.164Z" stroke="#EFF0F0" stroke-miterlimit="10"/>
<path d="M873.279 371.894L874.439 391.195L863.059 403.807L855.511 397.95L867.343 386.126L872.007 371.73C872.229 371.044 873.234 371.173 873.279 371.894Z" fill="#EFF0F0"/>
<path d="M847.276 384.736L864.224 388.317L855.201 397.087L846.43 386.104C845.93 385.48 846.492 384.572 847.276 384.736Z" fill="#EFF0F0"/>
<path d="M864.224 404.188L873.372 394.183L886.453 406.835C887.13 407.49 886.537 408.623 885.611 408.437L864.224 404.183V404.188Z" fill="#EFF0F0"/>
<path d="M864.57 397.445C865.891 397.445 866.962 396.375 866.962 395.055C866.962 393.735 865.891 392.665 864.57 392.665C863.249 392.665 862.178 393.735 862.178 395.055C862.178 396.375 863.249 397.445 864.57 397.445Z" fill="#414042"/>
<path d="M921.39 286.131V450.12L888.946 467.415C873.854 468.827 854.7 467.38 830.359 459.779C821.393 456.981 813.509 453.599 806.718 450.146" stroke="#EFF0F0" stroke-miterlimit="10"/>
<path d="M893.58 483.927L884.752 564.343" stroke="#EFF0F0" stroke-miterlimit="10"/>
<path d="M797.579 528.225C804.058 528.225 809.309 521.596 809.309 513.418C809.309 505.24 804.058 498.61 797.579 498.61C791.101 498.61 785.849 505.24 785.849 513.418C785.849 521.596 791.101 528.225 797.579 528.225Z" stroke="#EFF0F0" stroke-miterlimit="10"/>
<path d="M794.35 499.181L803.365 496.507C803.365 496.507 814.417 499.695 814.297 513.418C814.27 516.468 813.779 519.004 813.03 521.102C810.877 527.14 804.29 530.372 798.102 528.699L794.833 527.813" stroke="#EFF0F0" stroke-miterlimit="10"/>
<path d="M803.364 496.508C807.635 495.118 812.383 496.18 815.497 499.416C818.833 502.882 821.788 508.668 820.171 517.902C816.959 536.264 798.492 539.385 792.614 526.84" stroke="#EFF0F0" stroke-miterlimit="10"/>
<path d="M801.061 499.274L797.185 509.053L799.493 509.907L803.161 500.39L801.061 499.274Z" fill="#EFF0F0"/>
<path d="M817.597 531.975L822.767 536.375" stroke="#EFF0F0" stroke-width="2" stroke-miterlimit="10" stroke-linecap="round"/>
<path d="M824.339 513.298L830.931 513.639" stroke="#EFF0F0" stroke-width="2" stroke-miterlimit="10" stroke-linecap="round"/>
<path d="M816.507 492.576L820.184 487.096" stroke="#EFF0F0" stroke-width="2" stroke-miterlimit="10" stroke-linecap="round"/>
<path d="M836.361 410.996L838.231 436.742C838.231 436.742 856.765 448.141 882.151 445.932C896.969 438.415 906.417 423.333 906.71 406.733L906.993 390.712" stroke="#EFF0F0" stroke-width="0.75" stroke-miterlimit="10" stroke-linecap="round"/>
<path d="M822.567 526.446L825.929 527.84" stroke="#EFF0F0" stroke-width="0.75" stroke-miterlimit="10" stroke-linecap="round"/>
<path d="M824.016 520.567L827.843 521.488" stroke="#EFF0F0" stroke-width="0.75" stroke-miterlimit="10" stroke-linecap="round"/>
<path d="M824.844 504.701L828.84 504.307" stroke="#EFF0F0" stroke-width="0.75" stroke-miterlimit="10" stroke-linecap="round"/>
<path d="M822.567 497.995L826.399 496.109" stroke="#EFF0F0" stroke-width="0.75" stroke-miterlimit="10" stroke-linecap="round"/>
<path d="M911.387 313.129V359.407" stroke="#EFF0F0" stroke-miterlimit="10"/>
<path d="M838.226 328.26C838.226 328.26 877.566 334.015 911.387 322.536" stroke="#EFF0F0" stroke-miterlimit="10"/>
<path d="M894.74 541.111L900.149 493.803C900.45 491.178 902.089 488.898 904.486 487.782L912.743 483.927" stroke="#EFF0F0" stroke-miterlimit="10" stroke-linecap="round"/>
<path d="M918.634 481.726L927.467 477.645" stroke="#EFF0F0" stroke-miterlimit="10" stroke-linecap="round"/>
<path d="M986.954 505.941C995.831 515.813 990.312 532.055 978.981 538.978C967.667 545.893 953.483 544.219 945.957 531.067C939.069 519.035 943.091 503.537 955.393 497.132C966.298 491.452 977.935 495.91 986.954 505.946V505.941Z" fill="#A5A7AA" stroke="white" stroke-miterlimit="10"/>
<path d="M932.137 511.629C932.137 511.629 926.848 499.854 941.377 489.411C952.97 481.08 951.627 472.532 954.56 472.714C957.488 472.895 948.159 488.978 940.252 496.786C932.504 504.436 951.463 506.423 952.23 506.499C952.247 506.499 952.256 506.508 952.27 506.521C952.442 506.773 954.108 509.323 951.215 511.094C948.172 512.953 935.835 500.62 934.112 503.798C932.393 506.977 933.31 515.848 932.137 511.629Z" fill="#A5A7AA" stroke="white" stroke-miterlimit="10"/>
<path d="M936.172 499.248C936.154 499.274 936.163 499.31 936.185 499.327C936.863 499.814 945.111 505.432 958.409 499.872C970.578 494.785 978.307 494.639 980.039 494.684C980.106 494.684 980.124 494.595 980.062 494.569C976.505 493.271 946.595 482.988 936.168 499.248H936.172Z" fill="#A5A7AA" stroke="white" stroke-miterlimit="10"/>
<path d="M980.106 505.808C980.106 505.808 992.5 515.343 982.91 527.358L980.106 505.808Z" fill="#A5A7AA"/>
<path d="M980.106 505.808C980.106 505.808 992.5 515.343 982.91 527.358" stroke="white" stroke-miterlimit="10"/>
<path d="M980.106 530.873C980.106 530.873 977.873 534.024 974.724 534.162L980.106 530.873Z" fill="#A5A7AA"/>
<path d="M980.106 530.873C980.106 530.873 977.873 534.024 974.724 534.162" stroke="white" stroke-miterlimit="10"/>
<path d="M786.665 546.932C789.083 559.982 775.9 570.961 762.62 570.961C749.34 570.961 738.15 562.156 738.571 547.034C738.952 533.32 750.248 522.209 763.958 522.935C776.45 523.595 784.179 533.533 786.665 546.928V546.932Z" fill="#A5A7AA" stroke="white" stroke-miterlimit="10"/>
<path d="M761.287 532.094C761.287 532.094 761.291 532.116 761.287 532.129C760.999 532.683 753.282 547.136 733.831 551.24C717.814 554.622 714.66 556.481 714.062 556.977C714.031 557.003 713.986 556.977 714.004 556.937C714.642 555.463 719.581 545.144 733.322 545.016C748.095 544.874 759.506 528.238 761.287 532.094Z" fill="#A5A7AA" stroke="white" stroke-miterlimit="10"/>
<path d="M770.031 559.274C770.031 559.274 770.031 559.274 770.031 559.279C769.965 559.482 766.08 571.868 778.868 577.521C791.763 583.223 798.155 574.329 801.579 565.206C805.004 556.082 795.874 543.94 782.638 546.932C769.53 549.894 770.022 559.097 770.035 559.274H770.031Z" fill="#A5A7AA" stroke="white" stroke-miterlimit="10"/>
<path d="M793.008 566.189C793.008 566.189 799.24 572.767 808.135 570.478C808.149 570.478 808.157 570.469 808.162 570.456L809.978 566.29C809.991 566.264 809.969 566.237 809.938 566.237C809.159 566.344 801.491 567.353 797.433 566.184C793.159 564.958 791.466 564.803 793.003 566.184L793.008 566.189Z" fill="#A5A7AA" stroke="white" stroke-miterlimit="10"/>
<path d="M792.299 565.835C792.29 565.804 792.255 565.799 792.237 565.821C791.799 566.463 788.459 571.753 793.863 576.857C799.63 582.298 808.149 576.503 812.68 581.395C812.68 581.395 803.98 574.635 798.904 573.577C794.146 572.586 792.485 566.578 792.299 565.835Z" fill="#A5A7AA" stroke="white" stroke-miterlimit="10"/>
<path d="M768.131 527.388C768.131 527.388 776.374 530.806 777.814 538.123L768.131 527.388Z" fill="#A5A7AA"/>
<path d="M768.131 527.388C768.131 527.388 776.374 530.806 777.814 538.123" stroke="white" stroke-miterlimit="10"/>
<path d="M100.085 224.501H147.921C151.957 224.501 155.23 227.773 155.23 231.806V394.294C155.23 399.508 150.995 403.74 145.777 403.74H102.06C97.0901 403.74 93.0547 399.708 93.0547 394.741V231.527C93.0547 227.649 96.2042 224.501 100.085 224.501Z" fill="#1C75BC" stroke="#050606" stroke-miterlimit="10"/>
<path d="M154.269 214.519C153.941 213.983 153.543 213.496 153.082 213.076C151.992 211.566 150.53 208.994 150.411 205.94V189.234C150.411 177.998 141.255 168.888 129.959 168.888H119.46C108.165 168.888 99.0084 177.998 99.0084 189.234V206.44H99.0527C98.8667 207.551 98.1579 210.318 95.602 212.74C95.3716 212.921 95.1501 213.111 94.9464 213.319C94.9464 213.319 94.9375 213.324 94.9375 213.328C94.7559 213.474 94.6319 213.625 94.5388 213.775C93.613 214.909 93.0593 216.352 93.0593 217.928C93.0593 221.558 96.0051 224.501 99.6374 224.501H148.652C152.285 224.501 155.23 221.558 155.23 217.928C155.23 216.679 154.876 215.515 154.269 214.524V214.519ZM118.893 172.323H130.526C138.318 172.323 144.634 178.605 144.634 186.356H104.785C104.785 178.605 111.102 172.323 118.893 172.323Z" fill="#231F20"/>
<path d="M131.46 172.354C143.234 172.354 147.212 183.134 148.125 188.145C148.36 189.442 147.367 190.637 146.047 190.637H103.828C102.517 190.637 101.529 189.464 101.746 188.171C102.583 183.204 106.331 172.532 117.498 172.532" stroke="#EFF0F0" stroke-miterlimit="10" stroke-linecap="round"/>
<path d="M99.0082 206.44C106.835 205.697 115.438 205.223 124.709 205.223C133.981 205.223 142.583 205.697 150.411 206.44" stroke="#EFF0F0" stroke-miterlimit="10" stroke-linecap="round"/>
<path d="M93.8875 214.723C103.69 214.223 113.976 213.944 124.709 213.957C134.982 213.966 144.847 214.245 154.269 214.723" stroke="#EFF0F0" stroke-miterlimit="10" stroke-linecap="round"/>
<path d="M130.348 374.44V375.843H126.813C126.729 375.843 126.397 376.254 126.366 376.418C126.295 376.79 126.3 380.185 126.388 380.478C126.596 381.168 128.678 381.119 128.678 380.504V377.76H131.761V374.44H137.161V375.843H133.755C133.445 376.254 133.44 377.335 133.755 377.76H136.904V379.163H133.755C133.312 379.508 133.578 380.951 134.14 380.951H137.418V382.355H132.984C132.554 382.355 131.761 381.403 131.761 381.013V379.163H130.605V381.013C130.605 381.137 130.162 381.859 130.029 381.974C129.436 382.479 126.738 382.456 125.923 382.341C125.192 382.239 124.647 381.611 124.559 380.885C124.444 379.92 124.421 376.573 124.568 375.652C124.643 375.17 125.449 374.431 125.91 374.431H130.344L130.348 374.44Z" fill="#050606"/>
<path d="M142.499 374.44C143.939 374.692 144.187 377.627 143.079 378.335C143.345 378.402 143.979 379.336 143.979 379.486V382.359L142.105 382.24L141.985 379.548C141.587 379.035 140.953 379.172 140.377 379.167V377.76C140.838 377.755 141.365 377.857 141.728 377.507C142.131 375.71 141.387 375.772 139.863 375.847V382.364H138.065V374.444C139.385 374.608 141.25 374.223 142.499 374.444V374.44Z" fill="#050606"/>
<path d="M120.709 374.44V375.972H118.269V382.359H116.337V375.972H114.025V374.44H120.709Z" fill="#050606"/>
<path d="M123.15 374.44H121.223V382.359H123.15V374.44Z" fill="#050606"/>
<path d="M109.901 374.564C111.141 372.51 114.051 373.895 113.316 376.228C113.25 376.436 113.015 376.591 112.993 376.812C112.971 377.06 113.334 377.773 113.378 378.211C113.498 379.415 113.25 380.425 112.284 381.208C111.899 381.518 111.394 381.633 111.128 381.846C110.973 381.97 110.911 382.231 110.747 382.359C109.48 383.355 107.19 383.612 105.865 382.616C105.595 382.412 105.387 381.992 105.245 381.89C104.944 381.669 104.359 381.593 103.934 381.213C103.301 380.642 102.813 379.429 102.831 378.592C102.844 378.07 103.318 376.95 103.309 376.804C103.305 376.715 102.933 376.224 102.871 375.878C102.508 373.767 105.329 372.7 106.499 374.542C107.584 374.063 108.824 374.134 109.901 374.568V374.564ZM106.322 374.82C105.36 372.873 102.561 374.001 103.159 376.104C103.23 376.348 103.549 376.662 103.562 376.804C103.58 376.981 103.132 377.99 103.101 378.468C103.017 379.805 103.611 380.766 104.74 381.434C104.926 381.545 105.232 381.523 105.378 381.629C105.502 381.722 105.56 382.04 105.715 382.187C106.898 383.315 109.267 383.267 110.499 382.235C111.092 381.739 111.394 381.58 111.974 381.146C112.847 380.491 113.25 379.455 113.183 378.38C113.152 377.866 112.736 377.105 112.754 376.799C112.762 376.569 113.21 376.104 113.254 375.639C113.422 373.851 110.742 373.028 109.972 374.829C108.754 374.418 107.522 374.236 106.331 374.82H106.322Z" fill="#050606"/>
<path d="M106.955 377.826C106.818 377.339 105.648 377.344 105.79 378.207C105.861 378.641 106.353 378.57 106.419 378.676C106.534 378.858 106.335 379.464 106.503 379.809C106.672 380.155 107.885 380.425 107.54 380.96C106.751 381.518 105.972 381.567 105.6 380.575C105.524 380.376 105.586 380.093 105.511 379.964C105.467 379.893 105.232 379.862 105.152 379.752C104.802 379.247 104.598 378.743 104.895 378.149L104.311 378.269C103.872 379.495 105.152 379.964 105.152 381.089C103.876 380.593 103.402 379.167 103.668 377.888C103.735 377.569 104.226 376.799 104.218 376.68C104.191 376.343 102.862 375.445 104.08 374.595C105.033 373.931 105.728 374.595 106.122 375.471C107.398 374.834 108.833 374.736 110.105 375.449C111.225 373.129 114.012 374.94 111.987 376.68C113.135 378.127 112.922 380.376 111.066 381.089C111.163 380.031 112.536 379.322 111.89 378.145L111.451 378.154C111.434 378.552 111.593 378.937 111.42 379.331C111.247 379.725 110.76 379.88 110.707 379.969C110.623 380.115 110.703 380.469 110.623 380.717C110.362 381.527 108.882 381.585 108.669 380.841C108.536 380.363 109.591 380.181 109.777 379.814H106.951V377.835L106.955 377.826ZM109.781 375.976C108.598 375.511 107.62 375.467 106.441 375.976L106.756 376.458C107.668 376.06 108.559 375.954 109.462 376.449L109.781 375.98V375.976ZM110.393 377.667C109.6 376.914 108.798 378.375 109.746 378.641C110.304 378.796 110.747 378.003 110.393 377.667Z" fill="#050606"/>
<path d="M110.038 381.85C109.104 382.691 107.092 382.771 106.18 381.85C106.587 381.952 107.053 381.739 107.403 381.744C107.943 381.748 108.399 381.753 108.944 381.744C109.254 381.739 109.671 381.943 110.038 381.85Z" fill="#050606"/>
<path d="M145.564 228.671H149.83C151.053 228.671 152.045 229.663 152.045 230.885V288.698" stroke="#050606" stroke-miterlimit="10"/>
<path d="M152.045 292.802V306.702" stroke="#050606" stroke-miterlimit="10"/>
<path d="M571.135 381.443L557.736 388.504" stroke="white" stroke-miterlimit="10"/>
<path d="M408.99 285.104L394.984 280.885C392.782 280.221 390.452 281.43 389.726 283.608L378.758 316.494C370.611 340.921 372.968 367.689 385.508 390.186C402.647 420.93 435.546 456.738 495.83 456.738C601.457 456.738 645.723 372.913 645.723 333.851V319.849C645.723 319.849 656.766 307.463 656.766 295.431V287.428C656.766 276.357 649.997 266.321 639.628 262.434C639.384 262.341 639.136 262.253 638.883 262.164C638.883 262.164 665.245 247.113 668.957 195.909C672.669 144.705 673.785 95.3557 664.872 64.9307C664.872 64.9307 664.5 60.0524 658.135 58.5694C651.769 57.0865 529.106 32.4826 529.106 32.4826C529.106 32.4826 524.012 30.3622 516.163 38.2108C508.309 46.0594 496.428 58.5694 496.428 71.5088V166.246C496.428 166.246 495.223 236.498 501.567 242.837C501.567 242.837 467.812 241.062 425.177 274.032C425.177 274.032 418.687 282.244 408.99 285.113V285.104Z" fill="#231F20" stroke="white" stroke-miterlimit="10"/>
<path d="M646.21 273.501C646.21 273.501 651.557 278.322 650.963 288.362C650.148 302.112 612.806 327.123 612.806 327.123C612.806 327.123 606.564 328.238 605.612 335.17C604.659 342.103 610.644 346.091 614.112 344.356C617.581 342.621 645.683 319.827 645.683 319.827" stroke="#F9EEE5" stroke-miterlimit="10"/>
<path d="M617.178 342.267L616.261 341.302C616.261 341.302 611.353 335.472 616.168 330.841C620.558 326.622 634.64 318.198 646.223 305.135C650.122 300.739 652.549 295.201 652.886 289.34C653.081 285.932 652.624 282.089 650.813 278.22C648.385 273.028 644.793 269.907 641.829 268.088C641.249 267.733 640.651 268.513 641.138 268.982C643.521 271.284 645.953 274.896 645.953 280.049V298.535" stroke="#F9EEE5" stroke-miterlimit="10"/>
<path d="M615.189 342.204C615.189 342.204 611.362 338.65 612.447 333.262" stroke="#F9EEE5" stroke-miterlimit="10"/>
<path d="M612.868 332.151C612.868 332.151 613.559 330.434 615.641 329.229" stroke="#F9EEE5" stroke-miterlimit="10"/>
<path d="M613.249 271.049C613.249 271.049 617.275 277.605 615.543 288.22C612.868 304.639 589.745 323.408 538.019 328.566C538.019 328.566 534.285 323.957 526.488 321.54C518.692 319.128 408.437 284.998 408.437 284.998" stroke="#F9EEE5" stroke-miterlimit="10"/>
<path d="M395.679 284.254L525.713 323.825C525.713 323.825 503.64 373.692 463.104 378.637C422.567 383.581 387.249 360.186 385.376 337.193C382.997 307.968 395.675 284.254 395.675 284.254H395.679Z" stroke="#F9EEE5" stroke-miterlimit="10"/>
<path d="M496.428 71.5043C496.428 71.5043 501.505 73.8593 503.379 62.7792C505.248 51.699 511.259 44.8907 514.196 45.0279C517.133 45.1607 549.417 52.5622 549.417 52.5622C549.417 52.5622 552.672 53.3502 556.624 51.6725C560.571 49.9947 563.707 49.8442 567.401 50.5348C571.095 51.2254 604.788 58.6092 604.788 58.6092V67.622C604.788 67.622 605.102 69.0607 607.729 70.8137C610.36 72.5667 639.198 85.1121 654.702 134.625C672.872 192.655 639.92 219.942 632.248 224.532C626.002 228.269 617.984 232.328 605.51 232.328" stroke="white" stroke-miterlimit="10"/>
<path d="M664.877 64.9307C664.877 64.9307 660.598 90.8227 663.499 113.058C666.401 135.298 676.23 233.665 639.632 262.434" stroke="white" stroke-miterlimit="10"/>
<path d="M604.81 62.3941C604.81 62.3941 604.992 64.333 608.265 65.0014C611.539 65.6698 638.773 70.6367 638.773 70.6367C638.773 70.6367 647.69 71.5441 652.044 83.8549C654.604 91.0927 656.762 100.207 658.104 106.484C658.219 107.033 659.038 106.914 658.994 106.356C658.312 97.3388 657.302 83.0227 657.528 79.6495C657.865 74.634 654.516 63.9346 646.489 62.3763C638.458 60.8181 534.054 38.8836 534.054 38.8836C534.054 38.8836 525.359 37.7769 519.077 41.5618C513.846 44.7136 513.128 45.1386 513.128 45.1386" stroke="white" stroke-miterlimit="10"/>
<path d="M604.783 67.6179C582.754 55.6214 563.375 58.7467 560.11 59.1362C556.845 59.5258 553.93 56.3828 553.93 56.3828C516.273 63.7445 494.32 103.891 502.807 156.857C502.807 156.857 504.109 171.54 517.616 191.824" stroke="white" stroke-miterlimit="10"/>
<path d="M436.446 293.922C436.446 293.922 435.644 283.745 443.883 277.224" stroke="white" stroke-miterlimit="10"/>
<path d="M437.234 294.125C437.234 294.125 439.883 283.311 446.444 280.664" stroke="white" stroke-miterlimit="10"/>
<path d="M468.783 293.993C468.783 293.993 494.9 304.993 531.463 302.01C568.026 299.026 580.748 288.22 580.748 288.22" stroke="white" stroke-miterlimit="10"/>
<path d="M582.821 286.334C582.821 286.334 595.911 277.972 598.852 263.151" stroke="#F9EEE5" stroke-miterlimit="10"/>
<path d="M516.442 159.557C516.442 159.557 537.846 224.196 605.957 217.994C625.745 216.193 665.444 192.018 649.639 139.982C633.834 87.9454 596.872 64.7183 571.769 64.7183C546.666 64.7183 526.387 78.8529 518.537 99.5612C507.436 128.857 514.878 153.678 514.878 153.678" stroke="#F9EEE5" stroke-miterlimit="10"/>
<path d="M375.001 340.832C375.001 340.832 377.792 366.751 399.555 374.705" stroke="white" stroke-miterlimit="10"/>
<path d="M402.014 375.936C402.014 375.936 459.564 399.473 504.42 398.039C549.275 396.604 584.704 368.769 584.704 368.769" stroke="white" stroke-miterlimit="10"/>
<path d="M586.852 366.791L615.543 346.047" stroke="white" stroke-miterlimit="10"/>
<path d="M538.023 328.565C538.023 328.565 550.311 344.882 568.061 341.943C585.811 339.004 638.272 294.829 638.272 294.829C638.272 294.829 645.953 288.999 645.958 280.053" stroke="white" stroke-miterlimit="10"/>
<path d="M604.433 247.233L614.542 250.637L615.862 266.233C615.862 266.233 630.923 266.228 638.888 262.164" stroke="white" stroke-miterlimit="10"/>
<path d="M489.438 401.363C489.438 401.363 519.981 407.702 555.224 389.624" stroke="white" stroke-miterlimit="10"/>
<path d="M535.078 325.971C535.078 325.971 586.219 319.902 601.2 304.635C616.177 289.367 607.641 277.22 607.641 277.22" stroke="white" stroke-miterlimit="10"/>
<path d="M429.783 294.758L428.109 299.229C426.767 302.819 428.68 306.808 432.322 308.008L474.962 322.054C477.425 322.864 480.145 322.368 482.125 320.695C482.794 320.128 483.48 319.473 484.154 318.72C486.253 316.365 487.37 314.006 487.954 312.479" stroke="white" stroke-miterlimit="10"/>
<path d="M428.322 294.338L426.536 299.424C425.101 303.506 427.143 308.043 431.033 309.407L475.963 324.542C478.59 325.462 482.293 324.17 484.406 322.262C485.119 321.62 485.766 320.828 487.219 318.654C489.717 314.913 489.35 314.688 490.275 313.112" stroke="white" stroke-miterlimit="10"/>
<path d="M410.525 303.973C413.262 299.937 412.889 294.91 409.691 292.744C406.493 290.578 401.682 292.094 398.945 296.129C396.208 300.164 396.582 305.191 399.779 307.357C402.977 309.523 407.788 308.008 410.525 303.973Z" stroke="white" stroke-miterlimit="10"/>
<path d="M409.753 303.46C412.124 299.965 411.8 295.611 409.03 293.734C406.259 291.858 402.092 293.17 399.721 296.665C397.351 300.16 397.675 304.514 400.445 306.391C403.215 308.267 407.383 306.955 409.753 303.46Z" stroke="white" stroke-miterlimit="10"/>
<path d="M508.773 334.585C511.659 330.332 511.264 325.032 507.893 322.748C504.521 320.464 499.448 322.061 496.563 326.315C493.678 330.569 494.072 335.869 497.444 338.152C500.816 340.436 505.888 338.839 508.773 334.585Z" stroke="white" stroke-miterlimit="10"/>
<path d="M498.147 337.14C495.228 335.161 494.887 330.571 497.385 326.888" stroke="white" stroke-miterlimit="10"/>
<path d="M400.281 298.964L405.318 300.465" stroke="white" stroke-miterlimit="10"/>
<path d="M406.036 300.726L407.577 301.208" stroke="white" stroke-miterlimit="10"/>
<path d="M408.981 302.297C409.341 302.297 409.632 302.006 409.632 301.646C409.632 301.287 409.341 300.996 408.981 300.996C408.622 300.996 408.33 301.287 408.33 301.646C408.33 302.006 408.622 302.297 408.981 302.297Z" fill="white"/>
<path d="M497.97 326.286C497.97 326.286 500.349 323.599 501.943 323.253" stroke="white" stroke-miterlimit="10"/>
<path d="M498.506 330.611C498.568 330.54 498.674 330.544 498.741 330.611C498.86 330.739 499.024 330.859 499.219 330.929C499.618 331.075 499.968 330.943 500.136 330.624C500.296 330.327 500.22 330.102 499.897 329.787C499.494 329.424 499.325 329.044 499.565 328.583C499.83 328.07 500.428 327.826 501.04 328.039C501.275 328.118 501.438 328.225 501.549 328.331C501.611 328.388 501.607 328.49 501.549 328.548L501.469 328.632C501.407 328.694 501.31 328.694 501.248 328.632C501.159 328.548 501.026 328.45 500.84 328.384C500.415 328.234 500.114 328.446 499.994 328.672C499.835 328.977 499.946 329.19 500.278 329.513C500.69 329.907 500.814 330.265 500.561 330.73C500.3 331.213 499.729 331.505 499.02 331.244C498.794 331.16 498.577 331.018 498.448 330.876C498.395 330.819 498.395 330.726 498.448 330.668L498.506 330.602V330.611Z" fill="white"/>
<path d="M502.608 329.212L502.444 329.513C502.395 329.597 502.439 329.703 502.528 329.739L502.772 329.823C502.865 329.854 502.905 329.965 502.856 330.049L502.829 330.093C502.794 330.159 502.714 330.19 502.639 330.164L502.298 330.044C502.227 330.018 502.147 330.049 502.107 330.115L501.487 331.235C501.332 331.514 501.323 331.7 501.545 331.784C501.651 331.824 501.735 331.837 501.793 331.842L501.686 332.058C501.655 332.116 501.593 332.156 501.531 332.147C501.452 332.138 501.359 332.116 501.257 332.076C501.071 332.01 500.956 331.895 500.92 331.749C500.871 331.589 500.942 331.372 501.088 331.107L501.686 330.018C501.735 329.934 501.691 329.827 501.602 329.796C501.509 329.765 501.469 329.659 501.518 329.575L501.54 329.531C501.576 329.464 501.66 329.433 501.731 329.46L501.828 329.495C501.899 329.522 501.983 329.491 502.019 329.425L502.218 329.062C502.249 329.008 502.307 328.977 502.364 328.982L502.484 328.991C502.599 329 502.665 329.124 502.612 329.225L502.608 329.212Z" fill="white"/>
<path d="M503.352 332.789L503.485 332.497H503.472C503.241 332.621 502.909 332.691 502.595 332.572C502.143 332.408 502.094 332.005 502.28 331.678C502.59 331.129 503.25 331 504.132 331.319L504.158 331.271C504.269 331.08 504.42 330.713 503.95 330.549C503.737 330.474 503.476 330.46 503.255 330.509L503.299 330.301C503.312 330.239 503.361 330.186 503.427 330.177C503.667 330.142 503.946 330.164 504.198 330.257C504.907 330.509 504.792 331.058 504.517 331.518L504.012 332.373C503.928 332.519 503.848 332.661 503.786 332.793C503.751 332.869 503.667 332.9 503.591 332.873L503.357 332.789H503.352ZM503.87 331.78C503.923 331.691 503.879 331.58 503.782 331.549C503.374 331.425 502.927 331.399 502.71 331.78C502.559 332.045 502.661 332.236 502.869 332.311C503.162 332.417 503.458 332.302 503.636 332.134C503.675 332.098 503.711 332.054 503.737 332.01L503.87 331.78Z" fill="white"/>
<path d="M505.292 331.593C505.43 331.367 505.545 331.164 505.647 330.978C505.682 330.911 505.762 330.88 505.837 330.903L505.908 330.929C506.001 330.96 506.041 331.071 505.992 331.155L505.819 331.456L505.837 331.465C506.134 331.19 506.515 331.08 506.807 331.181C506.856 331.199 506.887 331.217 506.922 331.239L506.674 331.642C506.635 331.615 506.595 331.598 506.537 331.575C506.236 331.469 505.881 331.62 505.633 331.912C505.589 331.965 505.54 332.027 505.496 332.098L504.832 333.191C504.792 333.253 504.712 333.284 504.646 333.258L504.535 333.218C504.442 333.182 504.402 333.076 504.455 332.988L505.297 331.589L505.292 331.593Z" fill="white"/>
<path d="M508.269 331.195L508.083 331.492C508.03 331.576 508.07 331.691 508.163 331.722L508.42 331.811C508.517 331.846 508.552 331.957 508.499 332.045L508.464 332.098C508.424 332.16 508.349 332.187 508.278 332.16L507.888 332.023C507.817 331.996 507.742 332.023 507.702 332.085L506.98 333.223C506.803 333.502 506.785 333.692 507.02 333.776C507.131 333.816 507.224 333.834 507.286 333.838L507.157 334.064C507.126 334.117 507.064 334.152 507.002 334.143C506.913 334.135 506.812 334.108 506.696 334.068C506.501 333.997 506.377 333.878 506.346 333.732C506.302 333.568 506.386 333.351 506.55 333.085L507.237 331.996C507.29 331.912 507.25 331.797 507.157 331.766C507.064 331.731 507.024 331.62 507.077 331.536L507.108 331.483C507.148 331.421 507.224 331.394 507.294 331.417L507.427 331.465C507.498 331.492 507.573 331.465 507.613 331.399L507.853 331.018C507.884 330.969 507.941 330.943 507.999 330.943L508.145 330.952C508.264 330.961 508.331 331.093 508.264 331.191L508.269 331.195Z" fill="white"/>
<path d="M498.045 329.792C498.402 329.792 498.692 329.502 498.692 329.145C498.692 328.788 498.402 328.499 498.045 328.499C497.688 328.499 497.398 328.788 497.398 329.145C497.398 329.502 497.688 329.792 498.045 329.792Z" fill="white"/>
<path d="M396.308 287.822C396.308 287.822 387.75 304.356 387.409 330.814C387.068 357.269 421.3 370.385 421.3 370.385" stroke="white" stroke-miterlimit="10"/>
<path d="M424.047 371.452C424.047 371.452 446.226 380.814 465.792 378.335" stroke="white" stroke-miterlimit="10"/>
<path d="M410.333 311.456L489.141 336.365C492.384 337.392 493.943 341.071 492.424 344.112L483.644 361.664C480.831 367.282 475.44 371.16 469.221 372.045C459.312 373.453 443.374 373.886 426.178 367.056C413.154 361.881 404.698 355.918 399.36 350.974C393.912 345.932 392.432 337.906 395.626 331.204L403.67 314.347C404.857 311.854 407.701 310.619 410.337 311.452L410.333 311.456Z" stroke="white" stroke-miterlimit="10"/>
<path d="M413.752 326.215C412.565 328.84 409.912 330.208 407.83 329.269C405.748 328.331 405.026 325.436 406.213 322.811C407.4 320.186 409.571 318.632 412.135 319.756C414.226 320.677 414.94 323.59 413.752 326.215Z" stroke="white" stroke-miterlimit="10"/>
<path d="M408.512 338.821C409.697 336.279 409.023 333.458 407.007 332.519C404.992 331.581 402.397 332.88 401.212 335.422C400.027 337.964 400.7 340.786 402.716 341.724C404.732 342.663 407.327 341.363 408.512 338.821Z" stroke="white" stroke-miterlimit="10"/>
<path d="M397.797 342.435C397.797 342.435 398.483 345.622 402.045 346.299C405.606 346.972 408.787 344.746 411.949 337.446" stroke="white" stroke-miterlimit="10"/>
<path d="M397.429 341.461C397.03 340.195 397.212 337.915 397.814 336.299" stroke="white" stroke-miterlimit="10"/>
<path d="M398.275 335.281L405.451 319.446C405.451 319.446 407.825 314.258 412.804 315.303C412.92 315.325 413.026 315.369 413.137 315.387C417.814 316.06 419.409 320.239 418.027 323.709L412.282 336.29" stroke="white" stroke-miterlimit="10"/>
<path d="M483.308 347.547C482.12 350.172 479.467 351.54 477.385 350.602C475.303 349.659 474.581 346.768 475.768 344.143C476.955 341.518 479.126 339.964 481.691 341.089C483.782 342.01 484.495 344.922 483.308 347.547Z" stroke="white" stroke-miterlimit="10"/>
<path d="M478.07 360.157C479.255 357.615 478.582 354.794 476.566 353.856C474.55 352.917 471.955 354.217 470.77 356.759C469.585 359.301 470.259 362.122 472.275 363.061C474.291 363.999 476.885 362.699 478.07 360.157Z" stroke="white" stroke-miterlimit="10"/>
<path d="M467.352 363.763C467.352 363.763 468.038 366.95 471.6 367.627C475.161 368.3 478.342 366.074 481.505 358.774" stroke="white" stroke-miterlimit="10"/>
<path d="M466.98 362.789C466.581 361.523 466.763 359.243 467.365 357.627" stroke="white" stroke-miterlimit="10"/>
<path d="M467.83 356.609L475.006 340.775C475.006 340.775 477.381 335.586 482.36 336.631C482.475 336.653 482.581 336.698 482.692 336.715C487.37 337.388 488.964 341.567 487.582 345.038L481.837 357.618" stroke="white" stroke-miterlimit="10"/>
<path d="M418.147 342.563L425.354 328.61C425.885 327.583 427.086 327.092 428.189 327.45L455.653 336.428C457.022 336.875 457.673 338.433 457.035 339.721L449.899 354.073C449.372 355.131 448.14 355.64 447.024 355.254L419.489 345.879C418.124 345.414 417.491 343.842 418.151 342.563H418.147Z" stroke="white" stroke-miterlimit="10"/>
<path d="M422.395 324.024C423.803 321.04 427.196 319.553 430.346 320.544L469.283 332.771C472.207 333.718 473.633 337.012 472.322 339.787L463.179 359.137C462.085 361.456 459.431 362.598 456.991 361.801L416.601 348.614C413.925 347.742 412.623 344.719 413.823 342.178L422.39 324.024H422.395Z" stroke="white" stroke-miterlimit="10"/>
<path d="M453.079 355.516L459.835 357.937" stroke="white" stroke-width="3" stroke-miterlimit="10" stroke-linecap="round"/>
<path d="M454.993 351.438L461.748 353.86" stroke="white" stroke-width="3" stroke-miterlimit="10" stroke-linecap="round"/>
<path d="M456.778 347.49L463.533 349.911" stroke="white" stroke-width="3" stroke-miterlimit="10" stroke-linecap="round"/>
<path d="M428.641 323.267L460.029 333.55" stroke="white" stroke-width="3" stroke-miterlimit="10" stroke-linecap="round"/>
<path d="M436.738 359.486L436.49 360.252L434.568 359.628C434.523 359.614 434.271 359.778 434.222 359.862C434.116 360.053 433.522 361.899 433.518 362.071C433.509 362.483 434.647 362.824 434.758 362.487L435.241 360.996L436.92 361.54L437.504 359.734L440.437 360.686L440.189 361.452L438.337 360.854C438.098 361.022 437.903 361.606 438.001 361.894L439.71 362.448L439.462 363.213L437.753 362.66C437.451 362.771 437.341 363.603 437.646 363.7L439.427 364.276L439.179 365.042L436.769 364.263C436.534 364.187 436.273 363.532 436.344 363.32L436.672 362.315L436.043 362.111L435.715 363.116C435.693 363.182 435.325 363.497 435.232 363.537C434.82 363.705 433.358 363.222 432.937 363.014C432.561 362.828 432.37 362.394 432.45 361.983C432.556 361.438 433.137 359.614 433.376 359.141C433.504 358.893 434.071 358.632 434.32 358.711L436.729 359.49L436.738 359.486Z" fill="white"/>
<path d="M443.338 361.624C444.074 362.014 443.693 363.652 442.966 363.842C443.099 363.926 443.281 364.546 443.254 364.626L442.749 366.188L441.752 365.794L442.16 364.311C442.032 363.962 441.664 363.926 441.354 363.82L441.602 363.054C441.854 363.129 442.12 363.284 442.382 363.156C442.918 362.249 442.501 362.151 441.659 361.925L440.512 365.467L439.533 365.148L440.929 360.845C441.62 361.168 442.696 361.283 443.338 361.624Z" fill="white"/>
<path d="M431.498 357.791L431.227 358.623L429.903 358.194L428.778 361.664L427.728 361.328L428.853 357.857L427.595 357.45L427.865 356.613L431.498 357.791Z" fill="white"/>
<path d="M431.805 357.92L430.409 362.224L431.459 362.564L432.855 358.26L431.805 357.92Z" fill="white"/>
<path d="M425.602 355.958C426.638 355.06 427.976 356.326 427.165 357.463C427.095 357.565 426.94 357.605 426.886 357.725C426.829 357.857 426.904 358.304 426.851 358.552C426.705 359.23 426.39 359.734 425.73 359.987C425.469 360.088 425.172 360.062 424.99 360.128C424.884 360.168 424.804 360.301 424.694 360.341C423.83 360.659 422.541 360.394 421.996 359.619C421.885 359.46 421.845 359.194 421.788 359.115C421.664 358.942 421.358 358.796 421.194 358.517C420.951 358.096 420.897 357.353 421.057 356.901C421.154 356.618 421.611 356.095 421.633 356.016C421.646 355.967 421.531 355.635 421.557 355.436C421.73 354.223 423.453 354.139 423.763 355.347C424.437 355.281 425.097 355.538 425.606 355.958H425.602ZM423.613 355.467C423.436 354.241 421.712 354.36 421.668 355.609C421.664 355.755 421.783 355.98 421.766 356.06C421.743 356.157 421.323 356.627 421.221 356.883C420.937 357.596 421.092 358.225 421.588 358.783C421.673 358.875 421.841 358.92 421.898 358.999C421.952 359.07 421.925 359.256 421.983 359.362C422.426 360.181 423.724 360.575 424.574 360.23C424.986 360.066 425.176 360.031 425.566 359.898C426.155 359.694 426.559 359.203 426.709 358.605C426.78 358.322 426.691 357.835 426.753 357.671C426.802 357.547 427.126 357.375 427.227 357.127C427.635 356.184 426.324 355.268 425.584 356.109C424.995 355.67 424.357 355.356 423.604 355.462L423.613 355.467Z" fill="white"/>
<path d="M423.427 357.211C423.436 356.923 422.802 356.72 422.727 357.211C422.687 357.459 422.966 357.507 422.988 357.578C423.019 357.698 422.802 357.99 422.833 358.207C422.864 358.424 423.476 358.782 423.192 359.017C422.665 359.181 422.231 359.07 422.209 358.468C422.204 358.349 422.288 358.203 422.266 358.118C422.257 358.074 422.133 358.012 422.111 357.941C422.009 357.605 421.987 357.295 422.253 357.025L421.912 356.985C421.456 357.574 422.071 358.056 421.872 358.663C421.265 358.167 421.261 357.313 421.628 356.662C421.721 356.498 422.125 356.171 422.142 356.104C422.187 355.918 421.624 355.192 422.435 354.944C423.068 354.75 423.329 355.232 423.391 355.781C424.198 355.662 424.995 355.856 425.562 356.472C426.581 355.409 427.777 356.883 426.368 357.472C426.736 358.459 426.226 359.646 425.092 359.708C425.332 359.15 426.204 359.008 426.058 358.251L425.819 358.176C425.739 358.388 425.757 358.627 425.593 358.809C425.429 358.99 425.137 358.99 425.092 359.03C425.022 359.097 425.004 359.3 424.915 359.42C424.632 359.814 423.817 359.584 423.834 359.145C423.843 358.862 424.45 358.951 424.618 358.782L423.081 358.287L423.431 357.211H423.427ZM425.292 356.702C424.729 356.241 424.206 356.042 423.476 356.113L423.564 356.432C424.131 356.374 424.632 356.476 425.035 356.901L425.292 356.702ZM425.323 357.729C425.026 357.18 424.33 357.831 424.8 358.145C425.075 358.326 425.456 357.977 425.323 357.729Z" fill="white"/>
<path d="M424.392 359.942C423.737 360.234 422.629 359.924 422.297 359.265C422.501 359.389 422.789 359.358 422.979 359.424C423.272 359.521 423.52 359.606 423.817 359.694C423.985 359.747 424.175 359.929 424.392 359.942Z" fill="white"/>
<path d="M520.947 307.255C571.926 307.255 613.253 291.045 613.253 271.049C613.253 251.052 571.926 234.842 520.947 234.842C469.967 234.842 428.641 251.052 428.641 271.049C428.641 291.045 469.967 307.255 520.947 307.255Z" fill="#231F20" stroke="white" stroke-miterlimit="10"/>
<path d="M520.947 304.608C567.897 304.608 605.957 289.68 605.957 271.266C605.957 252.851 567.897 237.923 520.947 237.923C473.997 237.923 435.936 252.851 435.936 271.266C435.936 289.68 473.997 304.608 520.947 304.608Z" fill="#231F20" stroke="white" stroke-miterlimit="10"/>
<path d="M459.476 294.223C459.476 294.223 462.399 291.009 469.567 291.447C476.734 291.886 478.049 286.188 481.925 286.405C485.801 286.627 486.386 287.795 486.386 287.795C486.386 287.795 491.578 282.536 496.109 284.652C500.641 286.773 501.009 286.405 501.009 286.405C501.009 286.405 505.979 282.532 508.614 285.6C508.614 285.6 513.731 281.363 517.022 285.378C520.313 289.398 529.527 283.479 534.643 284.134C539.76 284.794 541.589 285.67 541.589 285.67C541.589 285.67 544.15 283.55 548.026 284.648C551.902 285.746 554.023 286.693 554.023 286.693C554.023 286.693 553.071 284.648 557.022 285.741C560.969 286.839 561.846 287.786 561.846 287.786C561.846 287.786 562.723 285.52 565.208 287.494C567.694 289.469 569.523 290.124 571.57 290.124C573.616 290.124 574.493 292.39 574.493 292.39C574.493 292.39 576.686 290.053 578.294 292.023C579.902 293.997 584.438 293.413 584.438 293.413C584.438 293.413 560.504 304.431 522.24 304.621C481.837 304.825 459.48 294.214 459.48 294.214L459.476 294.223Z" fill="#F9EEE5"/>
<g opacity="0.29">
<path d="M500.623 178.069C501.173 178.623 499.002 180.057 498.648 180.389C492.88 185.843 486.315 196.44 494.143 203.058C502.564 210.181 518.475 205.081 528.73 205.515C540.287 206.006 551.964 211.779 554.781 223.82C557.9 237.149 547.273 246.02 535.804 249.619C527.304 252.288 513.239 252.686 507.1 259.362C499.946 267.14 511.357 274.833 515.388 280.65C518.045 284.484 519.405 289.561 516.987 293.882C516.544 294.674 514.169 297.494 513.182 296.865C512.823 296.317 513.633 295.75 513.979 295.241C519.662 286.87 511.086 281.788 505.691 276.688C499.591 270.925 495.937 264.422 501.128 256.356C510.94 241.115 535.033 247.379 544.54 233.864C550.236 225.763 542.989 217.68 535.202 215.095C521.106 210.415 499.396 219.698 489.155 205.511C481.872 195.422 488.765 185.48 497.421 179.588C497.855 179.291 500.242 177.693 500.619 178.069H500.623Z" fill="#EFF0F0" stroke="#A5A7AA" stroke-miterlimit="10"/>
<path d="M576.54 237.193C577.541 245.019 571.8 252.523 566.046 257.18C560.331 261.801 554.28 264.311 546.892 264.926C541.239 265.396 535.299 264.572 529.815 266.299C527.135 267.144 524.951 268.105 524.584 271.208C523.981 276.312 529.222 281.412 531.073 285.949C532.677 289.871 532.969 295.241 529.709 298.432C529.399 298.738 526.674 300.783 527.126 299.234C527.175 299.061 528.167 297.945 528.393 297.543C532.274 290.717 523.715 284.639 520.65 279.614C515.884 271.805 517.394 262.965 526.36 259.473C532.619 257.033 541.718 258.37 548.703 257.45C559.459 256.033 570.072 250.376 574.923 240.296C575.295 239.521 575.658 238.083 576.057 237.489C576.176 237.312 576.287 237.148 576.535 237.197L576.54 237.193Z" fill="#EFF0F0" stroke="#A5A7AA" stroke-miterlimit="10"/>
<path d="M497.527 275.484C497.354 275.643 495.175 274.205 494.869 273.992C486.311 268.025 480.043 258.778 486.625 248.609C494.112 237.047 509.027 240.96 520.07 237.835C520.765 237.64 523.215 236.4 523.653 236.489L523.8 236.772C514.759 243.824 500.734 240.451 491.972 247.897C482.541 255.913 488.375 266.458 495.773 273.231L497.531 275.484H497.527Z" fill="#EFF0F0" stroke="#A5A7AA" stroke-miterlimit="10"/>
<path d="M508.087 189.052C507.299 191.907 508.025 193.439 510.666 194.567C518.692 197.994 529.067 195.081 537.594 195.807C543.392 196.303 550.462 198.193 555.056 201.863C556.672 203.155 558.325 205.006 558.79 207.069C554.404 202.332 548.438 200.225 542.099 199.61C532.296 198.653 518.311 201.363 509.788 196.148C508.11 195.121 507.1 194.262 506.86 192.177C506.732 191.057 506.874 189.486 508.087 189.052Z" fill="#EFF0F0" stroke="#A5A7AA" stroke-miterlimit="10"/>
</g>
</g>
<defs>
<clipPath id="clip0_2290_22201">
<rect width="1499" height="649" fill="white"/>
</clipPath>
</defs>
</svg>
